<svg width="48" height="49" viewBox="0 0 48 49" fill="none" xmlns="http://www.w3.org/2000/svg">
<rect y="0.822266" width="48" height="48" rx="12" fill="#AC6AFF"/>
<path fill-rule="evenodd" clip-rule="evenodd" d="M15 22.2223V30.097C15 31.955 15 32.884 15.3646 33.3063C15.6809 33.6726 16.1545 33.8638 16.6364 33.8198C17.1921 33.7691 17.8371 33.1005 19.1272 31.7634L20.0563 30.8004C20.4043 30.4397 20.5783 30.2594 20.7832 30.1302C20.9648 30.0158 21.1637 29.9313 21.3722 29.8801C21.6073 29.8223 21.8579 29.8223 22.3592 29.8223H26.6C28.8402 29.8223 29.9603 29.8223 30.816 29.3863C31.5686 29.0028 32.1805 28.3909 32.564 27.6383C33 26.7826 33 25.6625 33 23.4223V22.2223C33 19.9821 33 18.862 32.564 18.0063C32.1805 17.2537 31.5686 16.6417 30.816 16.2582C29.9603 15.8223 28.8402 15.8223 26.6 15.8223H21.4C19.1598 15.8223 18.0397 15.8223 17.184 16.2582C16.4314 16.6417 15.8195 17.2537 15.436 18.0063C15 18.862 15 19.9821 15 22.2223ZM20 23.8223C20.5523 23.8223 21 23.3746 21 22.8223C21 22.27 20.5523 21.8223 20 21.8223C19.4477 21.8223 19 22.27 19 22.8223C19 23.3746 19.4477 23.8223 20 23.8223ZM25 22.8223C25 23.3746 24.5523 23.8223 24 23.8223C23.4477 23.8223 23 23.3746 23 22.8223C23 22.27 23.4477 21.8223 24 21.8223C24.5523 21.8223 25 22.27 25 22.8223ZM28 23.8223C28.5523 23.8223 29 23.3746 29 22.8223C29 22.27 28.5523 21.8223 28 21.8223C27.4477 21.8223 27 22.27 27 22.8223C27 23.3746 27.4477 23.8223 28 23.8223Z" fill="#0E0C15"/>
</svg>
