<svg width="48" height="49" viewBox="0 0 48 49" fill="none" xmlns="http://www.w3.org/2000/svg">
<rect y="0.822266" width="48" height="48" rx="12" fill="#FFC876"/>
<path fill-rule="evenodd" clip-rule="evenodd" d="M30 33.8223H18C16.3432 33.8223 15 32.4792 15 30.8223V18.8223C15 17.1654 16.3432 15.8223 18 15.8223H30C31.6569 15.8223 33 17.1654 33 18.8223V30.8223C33 32.4792 31.6569 33.8223 30 33.8223ZM29 21.2365L24.4142 25.8223H26C26.5523 25.8223 27 26.27 27 26.8223C27 27.3746 26.5523 27.8223 26 27.8223H22C21.4477 27.8223 21 27.3746 21 26.8223V22.8223C21 22.27 21.4477 21.8223 22 21.8223C22.5523 21.8223 23 22.27 23 22.8223V24.4081L27.5858 19.8223H26C25.4477 19.8223 25 19.3745 25 18.8223C25 18.27 25.4477 17.8223 26 17.8223H30C30.5523 17.8223 31 18.27 31 18.8223V22.8223C31 23.3746 30.5523 23.8223 30 23.8223C29.4477 23.8223 29 23.3746 29 22.8223V21.2365Z" fill="#0E0C15"/>
</svg>
