<svg width="48" height="49" viewBox="0 0 48 49" fill="none" xmlns="http://www.w3.org/2000/svg">
<rect y="0.822266" width="48" height="48" rx="12" fill="#AC6AFF"/>
<path fill-rule="evenodd" clip-rule="evenodd" d="M31 30.3223C31 29.4939 30.3284 28.8223 29.5 28.8223H20C17.2386 28.8223 15 26.5837 15 23.8223C15 21.0608 17.2386 18.8223 20 18.8223H23V20.8223H20C18.3432 20.8223 17 22.1654 17 23.8223C17 25.4792 18.3432 26.8223 20 26.8223H29.5C31.433 26.8223 33 28.3893 33 30.3223C33 32.2553 31.433 33.8223 29.5 33.8223H16C15.4477 33.8223 15 33.3746 15 32.8223C15 32.27 15.4477 31.8223 16 31.8223H29.5C30.3284 31.8223 31 31.1507 31 30.3223Z" fill="#0E0C15"/>
<path d="M32 16.8223H28V18.8223H32C32.5523 18.8223 33 18.3745 33 17.8223C33 17.27 32.5523 16.8223 32 16.8223Z" fill="#0E0C15"/>
<path d="M32 20.8223H28V22.8223H32C32.5523 22.8223 33 22.3745 33 21.8223C33 21.27 32.5523 20.8223 32 20.8223Z" fill="#0E0C15"/>
<path d="M21 19.8223C21 17.6131 22.7909 15.8223 25 15.8223H29C29.5523 15.8223 30 16.27 30 16.8223V22.8223C30 23.3746 29.5523 23.8223 29 23.8223H25C22.7909 23.8223 21 22.0314 21 19.8223Z" fill="#0E0C15"/>
</svg>
