<svg width="1852" height="810" viewBox="0 0 1852 810" fill="none" xmlns="http://www.w3.org/2000/svg">
<path fill-rule="evenodd" clip-rule="evenodd" d="M7 1C7 0.447715 6.55228 0 6 0H5C4.44772 0 4 0.447715 4 1V3C4 3.55229 3.55228 4 3 4H1C0.447715 4 0 4.44772 0 5V6C0 6.55228 0.447715 7 1 7H3C3.55228 7 4 7.44772 4 8V10C4 10.5523 4.44772 11 5 11H6C6.55228 11 7 10.5523 7 10V8C7 7.44771 7.44772 7 8 7H10C10.5523 7 11 6.55228 11 6V5C11 4.44772 10.5523 4 10 4H8C7.44772 4 7 3.55228 7 3V1Z" fill="#ADA8C4"/>
<path fill-rule="evenodd" clip-rule="evenodd" d="M1848 1C1848 0.447715 1847.55 0 1847 0H1846C1845.45 0 1845 0.447715 1845 1V3C1845 3.55229 1844.55 4 1844 4H1842C1841.45 4 1841 4.44772 1841 5V6C1841 6.55228 1841.45 7 1842 7H1844C1844.55 7 1845 7.44772 1845 8V10C1845 10.5523 1845.45 11 1846 11H1847C1847.55 11 1848 10.5523 1848 10V8C1848 7.44771 1848.45 7 1849 7H1851C1851.55 7 1852 6.55228 1852 6V5C1852 4.44772 1851.55 4 1851 4H1849C1848.45 4 1848 3.55228 1848 3V1Z" fill="#ADA8C4"/>
<path fill-rule="evenodd" clip-rule="evenodd" d="M1848 800C1848 799.448 1847.55 799 1847 799H1846C1845.45 799 1845 799.448 1845 800V802C1845 802.552 1844.55 803 1844 803H1842C1841.45 803 1841 803.448 1841 804V805C1841 805.552 1841.45 806 1842 806H1844C1844.55 806 1845 806.448 1845 807V809C1845 809.552 1845.45 810 1846 810H1847C1847.55 810 1848 809.552 1848 809V807C1848 806.448 1848.45 806 1849 806H1851C1851.55 806 1852 805.552 1852 805V804C1852 803.448 1851.55 803 1851 803H1849C1848.45 803 1848 802.552 1848 802V800Z" fill="#ADA8C4"/>
<path fill-rule="evenodd" clip-rule="evenodd" d="M7 800C7 799.448 6.55228 799 6 799H5C4.44772 799 4 799.448 4 800V802C4 802.552 3.55228 803 3 803H1C0.447715 803 0 803.448 0 804V805C0 805.552 0.447715 806 1 806H3C3.55228 806 4 806.448 4 807V809C4 809.552 4.44772 810 5 810H6C6.55228 810 7 809.552 7 809V807C7 806.448 7.44772 806 8 806H10C10.5523 806 11 805.552 11 805V804C11 803.448 10.5523 803 10 803H8C7.44772 803 7 802.552 7 802V800Z" fill="#ADA8C4"/>
<rect x="5.5" y="5.5" width="1841" height="799" stroke="#26242C"/>
</svg>
