<svg width="384" height="367" viewBox="0 0 384 367" fill="none" xmlns="http://www.w3.org/2000/svg">
<path d="M319.453 0.822266H32C14.3269 0.822266 0 15.1491 0 32.8223V334.822C0 352.495 14.3269 366.822 32 366.822H352C369.673 366.822 384 352.495 384 334.822V67.6448C384 59.5316 380.918 51.7212 375.378 45.794L342.831 10.9714C336.779 4.49721 328.314 0.822266 319.453 0.822266Z" fill="#0E0C15"/>
<path d="M32 1.82227H319.453C328.037 1.82227 336.238 5.38236 342.1 11.6543L374.648 46.4768C380.015 52.2188 383 59.7851 383 67.6448V334.822C383 351.943 369.121 365.822 352 365.822H32C14.8792 365.822 1 351.943 1 334.822V32.8223C1 15.7014 14.8792 1.82227 32 1.82227Z" stroke="white" stroke-opacity="0.15" stroke-width="2"/>
<path d="M32 1.82227H319.453C328.037 1.82227 336.238 5.38236 342.1 11.6543L374.648 46.4768C380.015 52.2188 383 59.7851 383 67.6448V334.822C383 351.943 369.121 365.822 352 365.822H32C14.8792 365.822 1 351.943 1 334.822V32.8223C1 15.7014 14.8792 1.82227 32 1.82227Z" stroke="url(#paint0_linear_333_9187)" stroke-opacity="0.85" stroke-width="2"/>
<defs>
<linearGradient id="paint0_linear_333_9187" x1="192" y1="0.822266" x2="192" y2="366.822" gradientUnits="userSpaceOnUse">
<stop stop-color="#B6EE7D"/>
<stop offset="0.562842" stop-color="#FF3F33" stop-opacity="0"/>
</linearGradient>
</defs>
</svg>
