<svg width="140" height="44" viewBox="0 0 140 44" fill="none" xmlns="http://www.w3.org/2000/svg">
<path d="M0 8V36C0 40.4183 3.18375 44 7.11111 44H20V0H7.11111C3.18375 0 0 3.58172 0 8Z" fill="white"/>
<rect width="100" height="44" transform="translate(20)" fill="white"/>
<path d="M32.4418 26.144C31.7778 26.144 31.1738 25.996 30.6298 25.7C30.0858 25.396 29.6538 24.948 29.3338 24.356C29.0138 23.756 28.8538 23.016 28.8538 22.136C28.8538 21.264 29.0138 20.524 29.3338 19.916C29.6538 19.3 30.0858 18.832 30.6298 18.512C31.1818 18.192 31.7938 18.032 32.4658 18.032C32.9938 18.032 33.4458 18.136 33.8218 18.344C34.1978 18.544 34.5098 18.772 34.7578 19.028L33.7858 20.12C33.6178 19.952 33.4338 19.816 33.2338 19.712C33.0338 19.608 32.7778 19.556 32.4658 19.556C32.1298 19.556 31.8258 19.66 31.5538 19.868C31.2818 20.068 31.0658 20.356 30.9058 20.732C30.7538 21.108 30.6778 21.556 30.6778 22.076C30.6778 22.612 30.7458 23.072 30.8818 23.456C31.0178 23.832 31.2258 24.12 31.5058 24.32C31.7858 24.52 32.1298 24.62 32.5378 24.62C32.6898 24.62 32.8338 24.6 32.9698 24.56C33.1138 24.52 33.2258 24.46 33.3058 24.38V23.036H32.1658V21.596H34.8898V25.196C34.6258 25.444 34.2738 25.664 33.8338 25.856C33.4018 26.048 32.9378 26.144 32.4418 26.144ZM37.0451 26V18.176H42.2291V19.664H38.8211V21.236H41.7131V22.712H38.8211V24.512H42.3491V26H37.0451ZM46.2684 26V19.664H43.9284V18.176H50.3844V19.664H48.0444V26H46.2684ZM62.363 26.144C61.835 26.144 61.311 26.048 60.791 25.856C60.279 25.664 59.811 25.384 59.387 25.016L60.407 23.804C60.703 24.044 61.027 24.24 61.379 24.392C61.739 24.544 62.107 24.62 62.483 24.62C62.859 24.62 63.135 24.556 63.311 24.428C63.495 24.3 63.587 24.136 63.587 23.936C63.587 23.752 63.539 23.608 63.443 23.504C63.347 23.392 63.207 23.296 63.023 23.216C62.839 23.128 62.623 23.032 62.375 22.928L61.367 22.496C61.079 22.384 60.807 22.236 60.551 22.052C60.295 21.86 60.087 21.628 59.927 21.356C59.775 21.076 59.699 20.744 59.699 20.36C59.699 19.928 59.819 19.54 60.059 19.196C60.307 18.844 60.643 18.564 61.067 18.356C61.499 18.14 61.999 18.032 62.567 18.032C63.039 18.032 63.503 18.12 63.959 18.296C64.415 18.472 64.819 18.728 65.171 19.064L64.271 20.18C63.999 19.98 63.727 19.828 63.455 19.724C63.183 19.612 62.855 19.556 62.471 19.556C62.183 19.556 61.947 19.616 61.763 19.736C61.579 19.856 61.487 20.032 61.487 20.264C61.487 20.416 61.543 20.544 61.655 20.648C61.767 20.752 61.919 20.844 62.111 20.924C62.303 21.004 62.523 21.092 62.771 21.188L63.719 21.596C64.071 21.724 64.371 21.884 64.619 22.076C64.867 22.26 65.059 22.488 65.195 22.76C65.331 23.032 65.399 23.352 65.399 23.72C65.399 24.152 65.279 24.552 65.039 24.92C64.807 25.288 64.463 25.584 64.007 25.808C63.559 26.032 63.011 26.144 62.363 26.144ZM69.1143 26V19.664H66.7743V18.176H73.2303V19.664H70.8903V26H69.1143ZM74.1257 26L76.5617 18.176H78.6737L81.1097 26H79.2377L78.2297 22.04C78.1337 21.648 78.0297 21.232 77.9177 20.792C77.8057 20.352 77.7017 19.928 77.6057 19.52H77.5577C77.4617 19.928 77.3617 20.352 77.2577 20.792C77.1537 21.232 77.0497 21.648 76.9457 22.04L75.9257 26H74.1257ZM75.7337 24.14V22.76H79.4777V24.14H75.7337ZM82.473 26V18.176H85.245C85.797 18.176 86.301 18.252 86.757 18.404C87.213 18.548 87.577 18.8 87.849 19.16C88.129 19.512 88.269 19.996 88.269 20.612C88.269 21.212 88.129 21.7 87.849 22.076C87.577 22.452 87.213 22.732 86.757 22.916C86.301 23.092 85.797 23.18 85.245 23.18H84.237V26H82.473ZM84.237 21.776H85.101C85.565 21.776 85.917 21.68 86.157 21.488C86.405 21.288 86.529 20.996 86.529 20.612C86.529 20.228 86.405 19.96 86.157 19.808C85.917 19.656 85.565 19.58 85.101 19.58H84.237V21.776ZM84.921 22.724L86.145 21.584L88.641 26H86.661L84.921 22.724ZM91.9603 26V19.664H89.6203V18.176H96.0763V19.664H93.7363V26H91.9603ZM97.9676 26V18.176H103.152V19.664H99.7436V21.236H102.636V22.712H99.7436V24.512H103.272V26H97.9676ZM105.319 26V18.176H107.479C108.239 18.176 108.899 18.312 109.459 18.584C110.027 18.856 110.467 19.28 110.779 19.856C111.091 20.424 111.247 21.156 111.247 22.052C111.247 22.948 111.091 23.688 110.779 24.272C110.475 24.856 110.047 25.292 109.495 25.58C108.943 25.86 108.307 26 107.587 26H105.319ZM107.095 24.572H107.383C107.799 24.572 108.159 24.492 108.463 24.332C108.767 24.172 109.003 23.908 109.171 23.54C109.347 23.172 109.435 22.676 109.435 22.052C109.435 21.428 109.347 20.94 109.171 20.588C109.003 20.228 108.767 19.976 108.463 19.832C108.159 19.68 107.799 19.604 107.383 19.604H107.095V24.572Z" fill="#0E0C15"/>
<path d="M137.209 10.4692L127.187 1.85545C125.792 0.656586 124.034 0 122.217 0H120V44H125.028H132.24C136.526 44 140 40.4183 140 36V16.6138C140 14.2402 138.978 11.9892 137.209 10.4692Z" fill="white"/>
</svg>
