<svg width="20" height="20" viewBox="0 0 20 20" fill="none" xmlns="http://www.w3.org/2000/svg">
<g id="Ellipse 1">
<mask id="path-1-inside-1_375_24274" fill="white">
<path d="M18.3012 10C19.2394 10 20.0147 10.766 19.8561 11.6906C19.5645 13.3904 18.8363 14.996 17.7301 16.3439C16.2624 18.1323 14.22 19.3565 11.9509 19.8079C9.6818 20.2592 7.3264 19.9098 5.28603 18.8192C3.24566 17.7286 1.64656 15.9643 0.761205 13.8268C-0.124154 11.6894 -0.240992 9.31109 0.430596 7.09715C1.10219 4.88322 2.52065 2.97065 4.4443 1.6853C6.36795 0.399963 8.67776 -0.178615 10.9802 0.0481526C12.7155 0.219071 14.3658 0.839525 15.7738 1.83524C16.5398 2.37693 16.5333 3.46673 15.8699 4.13014C15.2065 4.79354 14.1373 4.76975 13.327 4.29701C12.5121 3.82167 11.599 3.52307 10.6472 3.42931C9.12699 3.27959 7.60194 3.6616 6.33186 4.51024C5.06177 5.35888 4.12524 6.62166 3.68182 8.0834C3.23841 9.54515 3.31555 11.1154 3.90011 12.5267C4.48466 13.9379 5.54046 15.1028 6.88761 15.8229C8.23476 16.5429 9.78991 16.7736 11.2881 16.4756C12.7862 16.1776 14.1347 15.3694 15.1038 14.1886C15.7106 13.4492 16.1451 12.5924 16.3851 11.6801C16.6239 10.7728 17.363 10 18.3012 10Z"/>
</mask>
<path d="M18.3012 10C19.2394 10 20.0147 10.766 19.8561 11.6906C19.5645 13.3904 18.8363 14.996 17.7301 16.3439C16.2624 18.1323 14.22 19.3565 11.9509 19.8079C9.6818 20.2592 7.3264 19.9098 5.28603 18.8192C3.24566 17.7286 1.64656 15.9643 0.761205 13.8268C-0.124154 11.6894 -0.240992 9.31109 0.430596 7.09715C1.10219 4.88322 2.52065 2.97065 4.4443 1.6853C6.36795 0.399963 8.67776 -0.178615 10.9802 0.0481526C12.7155 0.219071 14.3658 0.839525 15.7738 1.83524C16.5398 2.37693 16.5333 3.46673 15.8699 4.13014C15.2065 4.79354 14.1373 4.76975 13.327 4.29701C12.5121 3.82167 11.599 3.52307 10.6472 3.42931C9.12699 3.27959 7.60194 3.6616 6.33186 4.51024C5.06177 5.35888 4.12524 6.62166 3.68182 8.0834C3.23841 9.54515 3.31555 11.1154 3.90011 12.5267C4.48466 13.9379 5.54046 15.1028 6.88761 15.8229C8.23476 16.5429 9.78991 16.7736 11.2881 16.4756C12.7862 16.1776 14.1347 15.3694 15.1038 14.1886C15.7106 13.4492 16.1451 12.5924 16.3851 11.6801C16.6239 10.7728 17.363 10 18.3012 10Z" stroke="url(#paint0_angular_375_24274)" stroke-width="4" mask="url(#path-1-inside-1_375_24274)"/>
</g>
<defs>
<radialGradient id="paint0_angular_375_24274" cx="0" cy="0" r="1" gradientUnits="userSpaceOnUse" gradientTransform="translate(10 10) rotate(90) scale(10)">
<stop offset="0.614585" stop-color="#FC55FF" stop-opacity="0"/>
<stop offset="0.766577" stop-color="#6D30FF"/>
</radialGradient>
</defs>
</svg>
