<svg width="528" height="529" viewBox="0 0 528 529" fill="none" xmlns="http://www.w3.org/2000/svg">
<path d="M55.6616 478.863L60.0643 482.6L64.8677 485.929L70.0672 488.843L75.6541 491.333L81.6237 493.383L87.961 494.997L94.6577 496.164L101.699 496.888L109.075 497.158L116.769 496.978L124.769 496.338L133.066 495.24L141.639 493.68L150.476 491.661L159.556 489.186L168.864 486.263L178.376 482.892L188.078 479.08L197.946 474.833L207.967 470.156L218.114 465.054L228.372 459.54L238.716 453.622L249.125 447.318L259.575 440.638L270.047 433.595L280.515 426.204L290.959 418.477L301.354 410.427L311.682 402.074L321.918 393.437L332.042 384.536L342.028 375.388L351.859 366.014L361.512 356.434L370.962 346.666L380.191 336.731L389.18 326.652L397.913 316.452L406.367 306.149L414.529 295.771L422.379 285.337L429.901 274.87L437.078 264.394L443.892 253.929L450.33 243.499L456.388 233.125L462.051 222.827L467.305 212.63L472.145 202.553L476.558 192.618L480.538 182.847L484.073 173.256L487.16 163.868L489.799 154.7L491.984 145.767L493.716 137.088L494.991 128.68L495.808 120.559L496.167 112.739L496.066 105.241L495.51 98.0718L494.505 91.2425L493.055 84.7709L491.169 78.6573L488.848 72.9212L486.102 67.5678L482.933 62.6069L479.35 58.0503L475.367 53.901L473.473 51.9648L471.536 50.0731L469.553 48.2295L467.524 46.4325L463.166 42.7106L461.1 40.9663L458.995 39.2718L456.85 37.6271L454.663 36.0338L449.961 32.7557L447.748 31.2218L445.5 29.7428L443.216 28.3167L440.899 26.9469L435.885 24.116L433.551 22.8092L431.186 21.5601L428.791 20.3676L426.368 19.2331L421.079 16.8527L418.649 15.7877L416.194 14.7806L413.716 13.8332L411.215 12.9455L405.686 11.0174L403.191 10.2025L400.677 9.44721L398.145 8.75307L392.382 7.26077L389.864 6.63781L387.333 6.07814L384.788 5.58271L378.821 4.51947L376.302 4.0937L373.771 3.72939L371.233 3.4311L365.097 2.78014L362.592 2.55156L360.083 2.38434L351.297 2.02995L348.827 1.99512L346.36 2.02479L339.93 2.15071L337.514 2.24356L335.101 2.40092L328.54 2.89291L326.186 3.10992L323.838 3.39142L317.169 4.23609L314.888 4.57239L308.074 5.76494L305.864 6.15593L303.665 6.60981L296.784 8.12693L294.664 8.63044L287.672 10.4742L285.633 11.0225L283.614 11.6335L276.598 13.7702L274.666 14.4196L267.577 16.8545L265.737 17.542L258.59 20.2599L256.85 20.9789L249.658 23.9703L242.367 27.2565L240.807 27.9687L233.502 31.5068L232.048 32.2356L224.748 36.0138L217.382 40.0603L216.12 40.7626L208.787 45.0245L201.418 49.5381L200.355 50.1974L193.043 54.8982L185.724 59.8293L184.864 60.4305L177.627 65.5239L170.407 70.826L163.212 76.3317L156.056 82.0297L155.573 82.4272L148.553 88.2378L141.596 94.2174L134.712 100.356L127.916 106.638L121.216 113.06L114.627 119.606L108.161 126.265L101.827 133.03L95.6366 139.885L89.6008 146.819L83.729 153.82L83.3563 154.273L77.5921 161.415L72.0134 168.597L66.6317 175.814L61.4573 183.049L60.8825 183.875L55.867 191.2L51.0817 198.52L46.5332 205.821L45.8443 206.934L41.4896 214.287L37.39 221.593L36.6613 222.905L32.7804 230.238L32.0664 231.66L28.4191 239.001L25.0583 246.255L24.3245 247.863L21.2222 255.096L20.5182 256.808L17.6857 264.003L17.0116 265.813L14.4625 272.957L13.8214 274.86L11.5671 281.938L10.9658 283.931L9.01627 290.922L8.45801 293.001L6.31136 302.052L5.86421 304.225L4.54736 311.057L4.1498 313.307L3.81688 315.564L2.83301 322.319L2.55473 324.645L1.93197 331.237L1.71163 333.627L1.55761 336.021L1.29425 342.489L1.20144 344.937L1.17334 347.387L1.2114 349.837L1.32408 356.207L1.42679 358.701L1.59401 361.194L2.09429 367.392L2.32954 369.923L2.62763 372.444L2.99036 374.96L3.89807 381.003L4.33031 383.545L4.82397 386.076L5.38379 388.594L6.70888 394.448L7.33836 396.985L8.03073 399.506L8.78269 402.008L10.5418 407.639L11.365 410.152L12.2496 412.643L13.1953 415.109L15.3917 420.489L16.4054 422.957L17.4803 425.4L18.6133 427.816L19.8043 430.202L22.4578 435.317L23.715 437.691L25.0285 440.035L26.3966 442.347L27.8212 444.623L30.9301 449.441L32.4159 451.695L33.9564 453.915L35.5465 456.095L37.1913 458.237L40.7459 462.722L42.4453 464.832L44.1944 466.899L45.9933 468.923L47.8368 470.903L51.8271 475.029L53.7219 476.97L55.6616 478.863L57.6443 480.707L59.67 482.504L64.0759 486.244L66.1448 487.992L68.2534 489.69L70.3984 491.334L72.5832 492.926L79.6029 497.796L81.8539 499.278L84.1413 500.704L86.4586 502.074L91.6299 504.98L93.9686 506.288L96.339 507.539L98.7357 508.733L101.159 509.864L106.668 512.329L109.105 513.397L111.561 514.403L114.044 515.349L116.543 516.231L122.354 518.249L124.855 519.064L127.375 519.814L129.907 520.502L136.003 522.078L138.525 522.696L141.061 523.251L143.607 523.74L149.953 524.881L152.479 525.3L155.011 525.653L157.55 525.943L164.111 526.653L166.617 526.874L169.127 527.028L175.908 527.323L178.376 527.409L180.844 527.432L190.241 527.271L192.653 527.162L202.155 526.474L204.502 526.238L211.794 525.33L214.073 525.035L216.342 524.677L223.749 523.389L225.942 522.974L228.122 522.497L235.617 520.846L237.713 520.321L245.335 518.307L247.344 517.735L255.075 515.372L256.988 514.761L264.808 512.056L266.621 511.408L274.506 508.377L276.217 507.696L284.149 504.348L285.749 503.643L293.71 499.992L295.199 499.265L303.166 495.323L311.208 491.061L312.492 490.364L320.507 485.84L328.562 481.018L329.63 480.367L337.62 475.315L345.617 469.985L346.464 469.401L354.361 463.872L362.233 458.087L370.061 452.065L377.831 445.812L378.268 445.451L385.874 439.061L393.389 432.47L400.801 425.697L408.093 418.753L415.247 411.653L422.248 404.409L429.084 397.04L435.739 389.556L442.201 381.979L442.532 381.578L448.863 373.829L454.972 366.014L460.845 358.153L466.474 350.262L467.033 349.451L472.463 341.45L477.618 333.453L482.491 325.473L483.173 324.35L487.803 316.315L492.856 306.994L496.916 298.992L497.627 297.536L501.405 289.534L502.096 287.966L505.576 279.984L508.71 272.126L509.407 270.365L512.216 262.563L512.88 260.703L515.355 252.981L515.979 251.022L516.541 249.042L518.689 241.349L519.208 239.28L520.997 231.707L521.467 229.553L522.89 222.121L523.307 219.888L523.66 217.644L524.715 210.315L525.013 207.999L525.245 205.673L525.914 198.475L526.087 196.09L526.193 193.695L526.466 186.657L526.507 184.21L526.484 181.762L526.347 174.91L526.257 172.415L526.1 169.922L525.547 163.283L525.321 160.756L525.033 158.231L524.679 155.71L523.697 149.279L523.271 146.733L522.784 144.199L522.229 141.676L520.814 135.478L520.19 132.938L519.503 130.416L518.752 127.906L516.9 121.98L516.079 119.469L515.198 116.974L514.253 114.503L511.964 108.878L510.952 106.412L509.879 103.967L508.748 101.55L507.557 99.1566L504.824 93.8528L503.57 91.4794L502.256 89.1323L500.885 86.8199L499.46 84.5374L496.295 79.5898L494.809 77.3356L493.27 75.1175L491.675 72.9362L490.031 70.7911L486.444 66.2312L484.745 64.1242L482.998 62.0588L481.199 60.0312L479.35 58.0503" fill="#0E0C15"/>
<path d="M454.66 36.0372L458.985 39.7291L462.919 43.8321L466.452 48.339L469.572 53.2453L472.276 58.5456L474.552 64.2269L476.4 70.2794L477.811 76.6929L478.782 83.4608L479.307 90.5649L479.378 98.0006L478.994 105.753L478.153 113.806L476.856 122.146L475.108 130.757L472.908 139.619L470.26 148.717L467.166 158.033L463.628 167.55L459.647 177.252L455.237 187.112L450.403 197.117L445.159 207.244L439.509 217.469L433.468 227.773L427.05 238.134L420.259 248.529L413.108 258.936L405.616 269.336L397.798 279.705L389.674 290.02L381.259 300.259L372.568 310.401L363.624 320.422L354.443 330.299L345.039 340.014L335.441 349.543L325.666 358.867L315.735 367.967L305.67 376.826L295.497 385.422L285.232 393.735L274.9 401.749L264.523 409.446L254.121 416.811L243.718 423.827L233.336 430.486L222.999 436.772L212.726 442.672L202.539 448.174L192.464 453.267L182.517 457.94L172.718 462.187L163.089 465.998L153.648 469.374L144.414 472.308L135.403 474.792L126.637 476.826L118.132 478.405L109.903 479.524L101.969 480.187L94.3395 480.396L87.03 480.155L80.05 479.466L73.4162 478.332L67.1351 476.758L61.2252 474.747L55.6929 472.303L50.5482 469.434L45.796 466.152L41.443 462.465L37.4909 458.384L33.9529 453.918" fill="#0E0C15"/>
<path d="M426.365 19.2376L431.306 22.0253L435.885 25.2237L440.091 28.8263L443.919 32.8298L447.349 37.2308L450.374 42.0244L452.991 47.2021L455.19 52.7545L456.966 58.6711L458.318 64.9421L459.237 71.556L459.716 78.5045L459.754 85.7743L459.343 93.3572L458.488 101.235L457.186 109.394L455.442 117.817L453.256 126.486L450.632 135.388L447.571 144.505L444.075 153.818L440.151 163.311L435.801 172.964L431.041 182.757L425.877 192.667L420.322 202.678L414.382 212.766L408.072 222.909L401.4 233.086L394.378 243.278L387.022 253.463L379.35 263.617L371.376 273.72L363.121 283.751L354.597 293.686L345.825 303.505L336.821 313.185L327.605 322.706L318.195 332.046L308.614 341.19L298.883 350.113L289.023 358.8L279.054 367.231L269.002 375.389L258.881 383.253L248.718 390.81L238.533 398.04L228.346 404.934L218.181 411.475L208.06 417.653L198.004 423.455L188.033 428.872L178.169 433.886L168.435 438.489L158.844 442.676L149.423 446.439L140.184 449.775L131.146 452.677L122.333 455.144L113.756 457.168L105.434 458.745L97.3877 459.874L89.6276 460.555L82.1656 460.792L75.0149 460.588L68.1924 459.947L61.7044 458.869L55.5673 457.36L49.7899 455.422L44.3853 453.058L39.3581 450.281L34.7153 447.095L30.4633 443.513L26.6106 439.544L23.1571 435.196L20.1109 430.48L17.4773 425.405" fill="#0E0C15"/>
<path d="M389.866 6.63799L395.597 8.12215L401.007 10.0104L406.087 12.2979L410.831 14.9846L415.224 18.0654L419.259 21.5371L422.921 25.395L426.201 29.6387L429.091 34.2615L431.582 39.2539L433.673 44.6072L435.354 50.3135L436.621 56.3608L437.472 62.7414L437.903 69.4429L437.903 76.4562L437.472 83.7708L436.609 91.3685L435.319 99.2381L433.601 107.362L431.46 115.726L428.892 124.312L425.906 133.106L422.502 142.092L418.682 151.248L414.457 160.559L409.836 170.007L404.823 179.567L399.437 189.224L393.681 198.955L387.567 208.743L381.107 218.562L374.313 228.398L367.195 238.225L359.773 248.026L352.063 257.777L344.082 267.457L340.094 272.098L340.091 272.104L340.087 272.108L335.844 277.047L327.368 286.527L318.67 295.873L309.767 305.068L300.68 314.089L291.428 322.92L282.034 331.542L272.514 339.936L262.892 348.087L253.187 355.973L243.421 363.58L233.615 370.888L223.786 377.884L213.957 384.556L204.15 390.892L194.385 396.879L184.684 402.503L175.065 407.755L165.548 412.622L156.156 417.094L146.907 421.162L137.817 424.826L128.905 428.076L120.188 430.91L111.686 433.323L103.414 435.311L95.3869 436.868L87.6234 437.992L80.1383 438.686L72.9412 438.95L66.0457 438.789L59.4632 438.203L53.2072 437.197L47.2873 435.776L41.7168 433.939L36.5043 431.692L31.6577 429.041L27.1805 425.999L23.0842 422.572L19.3673 418.769L16.0414 414.601L13.1062 410.076L10.5719 405.203L8.44019 399.987L6.71087 394.448" fill="#0E0C15"/>
<path d="M357.577 2.27868L363.583 2.91479L369.305 3.93663L374.737 5.34623L379.86 7.1401L384.668 9.31835L389.154 11.8725L393.305 14.8042L397.111 18.107L400.565 21.7791L403.654 25.8157L406.369 30.2135L408.704 34.964L410.657 40.0574L412.222 45.4853L413.393 51.2378L414.167 57.3052L414.538 63.679L414.503 70.3493L414.057 77.3045L413.203 84.5295L411.939 92.0114L410.273 99.7367L408.199 107.687L405.728 115.85L402.854 124.21L399.587 132.75L395.925 141.454L391.879 150.304L387.456 159.282L382.667 168.37L377.521 177.548L372.025 186.798L366.193 196.098L360.031 205.434L353.552 214.779L346.77 224.121L339.698 233.436L332.357 242.705L324.756 251.91L316.913 261.028L308.846 270.042L300.571 278.93L292.102 287.674L283.457 296.256L274.658 304.657L265.724 312.863L256.673 320.853L247.527 328.612L238.301 336.122L229.017 343.365L219.695 350.329L210.351 356.999L201.011 363.361L191.69 369.405L182.409 375.118L173.189 380.49L164.047 385.507L155.001 390.16L146.075 394.438L137.283 398.337L128.645 401.85L120.173 404.973L111.887 407.699L103.804 410.028L95.9382 411.951L88.3073 413.467L80.9264 414.573L73.8073 415.265L66.9631 415.554L60.4055 415.436L54.1444 414.916L48.1947 413.995L42.5631 412.68L37.2626 410.967L32.3034 408.863L27.6937 406.377L23.4368 403.515L19.536 400.287L16.0013 396.699L12.8359 392.765L10.045 388.487L7.63333 383.875L5.6042 378.941L3.96106 373.694L2.7023 368.145L1.82437 362.311L1.33081 356.202" fill="#0E0C15"/>
<path d="M305.864 6.15251L312.616 4.97311L319.165 4.14502L325.497 3.66956L331.601 3.55203L337.466 3.79224L343.078 4.39175L348.422 5.35243L353.489 6.67918L358.267 8.36705L362.748 10.4127L366.923 12.8128L370.786 15.5657L374.322 18.6682L377.527 22.1151L380.39 25.9015L382.901 30.0292L385.057 34.4848L386.851 39.2635L388.282 44.3519L389.344 49.7467L390.033 55.4348L390.346 61.4093L390.278 67.6588L389.826 74.1766L388.991 80.9446L387.775 87.9545L386.179 95.1894L384.208 102.637L381.862 110.279L379.141 118.106L376.052 126.101L372.595 134.249L368.782 142.534L364.616 150.937L360.109 159.442L355.269 168.029L350.104 176.685L344.624 185.389L338.84 194.125L332.757 202.871L326.395 211.611L319.765 220.329L312.879 229.003L305.757 237.617L298.409 246.15L290.851 254.59L283.101 262.91L275.168 271.097L267.075 279.13L258.838 287L250.473 294.685L242.002 302.172L233.441 309.442L224.808 316.482L216.12 323.275L207.396 329.806L198.653 336.064L189.913 342.035L181.19 347.709L172.506 353.078L163.876 358.127L155.321 362.849L146.857 367.228L138.502 371.26L130.271 374.939L122.185 378.255L114.253 381.208L106.494 383.792L98.9261 386.003L91.5601 387.837L84.4129 389.29L77.4975 390.358L70.8289 391.044L64.4154 391.349L58.2686 391.274L52.4017 390.82L46.8214 389.994L41.5408 388.794L36.5701 387.226L31.9206 385.289L27.5925 382.992L23.5989 380.344L19.94 377.35L16.6206 374.021L13.6474 370.362L11.0254 366.382L8.75941 362.085L6.85291 357.486L5.30749 352.591L4.1249 347.413L3.29666 341.964L2.83121 336.254L2.72359 330.299L2.97371 324.106L3.58156 317.688L4.54724 311.054" fill="#0E0C15"/>
<path d="M240.811 27.9622L248.024 24.7107L255.137 21.7526L262.133 19.0891L269.002 16.732L275.727 14.6848L282.298 12.9537L288.701 11.5459L294.924 10.4609L300.96 9.70226L306.791 9.27159L312.409 9.16897L317.806 9.39745L322.964 9.96072L327.877 10.8584L332.531 12.0908L336.914 13.6578L341.025 15.5561L344.853 17.7806L348.387 20.3314L351.622 23.2017L354.547 26.392L357.158 29.897L359.442 33.7115L361.398 37.831L363.02 42.2453L364.307 46.9478L365.254 51.93L365.857 57.1808L366.112 62.6966L366.018 68.4623L365.569 74.4767L364.769 80.7196L363.616 87.1827L362.117 93.853L360.269 100.717L358.079 107.763L355.545 114.975L352.674 122.341L349.464 129.848L345.926 137.477L342.068 145.217L337.896 153.05L333.417 160.958L328.642 168.93L323.58 176.944L318.236 184.984L312.623 193.039L306.751 201.084L300.634 209.109L294.287 217.096L287.718 225.027L280.946 232.885L273.983 240.653L266.84 248.315L259.534 255.854L252.079 263.256L244.493 270.504L236.892 277.496L236.792 277.585L228.992 284.484L221.111 291.186L213.162 297.677L205.162 303.942L197.132 309.967L189.083 315.743L181.037 321.256L173.005 326.498L165.01 331.459L157.064 336.128L149.185 340.496L141.388 344.553L133.693 348.289L126.113 351.702L118.662 354.783L111.353 357.53L104.204 359.939L97.2273 362.006L90.4362 363.725L83.847 365.093L77.47 366.11L71.3182 366.773L65.3999 367.086L59.7285 367.05L54.3122 366.665L49.1592 365.935L44.2828 364.862L39.6913 363.447L35.3914 361.694L31.3928 359.607L27.6974 357.194L24.3118 354.465L21.2392 351.422L18.488 348.074L16.0581 344.428L13.9578 340.493L12.1888 336.272L10.7527 331.779L9.64954 327.022L8.87933 322.014L8.43865 316.764L8.33103 311.283L8.55628 305.581L9.1112 299.67L9.99737 293.556L11.2099 287.259L12.742 280.784L14.5921 274.15L16.7521 267.365L19.2217 260.447L21.9913 253.404L25.0621 246.248" fill="#0E0C15"/>
<path d="M342.459 72.7512L342.025 78.2073L341.273 83.8721L340.201 89.7341L338.816 95.7832L337.118 102.006L335.109 108.391L332.79 114.928L330.165 121.601L327.238 128.401L324.015 135.311L320.502 142.319L316.707 149.41L312.635 156.572L308.297 163.786L303.701 171.039L298.853 178.316L293.761 185.604L288.436 192.887L282.89 200.148L277.137 207.375L271.188 214.551L265.054 221.661L258.747 228.691L252.279 235.626L245.666 242.451L238.918 249.149L232.053 255.713L225.084 262.125L218.025 268.373L210.891 274.444L203.699 280.324L196.46 286.002L189.194 291.466L181.911 296.702L174.628 301.706L167.359 306.463L160.121 310.968L152.929 315.212L145.795 319.182L138.739 322.873L131.77 326.277L124.903 329.387L118.153 332.198L111.533 334.711L105.053 336.917L98.729 338.812L92.5721 340.397L86.596 341.663L80.8102 342.612L75.2282 343.241L69.8583 343.553L64.7085 343.548L59.7875 343.228L55.1082 342.597L50.6756 341.653L46.5016 340.397L42.5909 338.835L38.9518 336.972L35.5861 334.812L32.5019 332.364L29.701 329.629L27.1916 326.62L24.9736 323.335L23.0539 319.789L21.4357 315.981L20.1188 311.924L19.1034 307.626L18.3912 303.097L17.9804 298.35L17.8711 293.391L18.0632 288.226L18.5569 282.873L19.3503 277.332L20.4418 271.623L21.8282 265.751L23.5011 259.732L25.4574 253.575L27.695 247.292L30.2094 240.895L32.9939 234.394L36.0465 227.803L39.3593 221.131L42.9255 214.392L46.7368 207.599L50.785 200.761L55.0651 193.894L59.5654 187.008L64.2828 180.118L69.2073 173.229L74.3304 166.36L79.6408 159.519L85.1317 152.72L90.7882 145.973L96.6055 139.291L102.568 132.686L108.672 126.168L114.903 119.751L121.252 113.442L127.707 107.255L134.258 101.201L140.89 95.2879L147.594 89.5254L154.358 83.9268L161.171 78.5021L168.022 73.2614L174.896 68.2128L181.783 63.3628L188.674 58.725L195.551 54.3024L202.405 50.1052L209.223 46.1432L215.992 42.4212L222.704 38.9528L229.343 35.7394L235.899 32.7877L242.359 30.1011L248.711 27.6878L254.947 25.5526L261.051 23.6991L267.012 22.1339L272.818 20.8635L278.461 19.8878L283.927 19.2087L289.209 18.8294L294.296 18.7482L299.179 18.9669L303.843 19.4903L308.281 20.3169L312.485 21.4499L316.442 22.886L320.149 24.6217L323.597 26.6557L326.779 28.983L329.688 31.6001L332.317 34.507L334.654 37.6989L336.699 41.1723L338.443 44.9208L339.888 48.9359L341.024 53.2092L341.854 57.7362L342.372 62.5081L342.573 67.5154L342.459 72.7512Z" fill="#0E0C15"/>
<path d="M320.389 80.3457L319.979 85.2087L319.285 90.259L318.311 95.4832L317.057 100.871L315.525 106.412L313.717 112.098L311.637 117.916L309.283 123.854L306.665 129.901L303.783 136.05L300.644 142.283L297.255 148.587L293.622 154.952L289.756 161.366L285.658 167.812L281.339 174.279L276.805 180.754L272.066 187.225L267.132 193.677L262.014 200.097L257.245 205.843L256.723 206.474L251.269 212.79L245.662 219.036L239.914 225.198L234.036 231.262L228.041 237.216L221.941 243.048L215.749 248.746L209.478 254.302L203.139 259.7L196.749 264.931L190.319 269.983L183.862 274.843L177.391 279.505L170.918 283.961L164.459 288.2L158.026 292.215L151.632 295.998L145.292 299.543L139.016 302.837L132.819 305.88L126.711 308.663L120.705 311.18L114.813 313.431L109.045 315.412L103.414 317.122L97.9309 318.55L92.6057 319.701L87.451 320.565L82.4753 321.148L77.685 321.45L73.0902 321.47L68.7008 321.208L64.5217 320.67L60.563 319.855L56.8312 318.763L53.3345 317.397L50.0781 315.76L47.0685 313.86L44.3057 311.7L41.7945 309.289L39.5403 306.627L37.5476 303.723L35.82 300.581L34.3624 297.206L33.1731 293.608L32.2522 289.795L31.6012 285.775L31.2202 281.554L31.1076 277.145L31.2649 272.552L31.6923 267.788L32.388 262.855L33.3487 257.77L34.5744 252.54L36.0568 247.175L37.7944 241.684L39.7821 236.082L42.0182 230.374L44.4978 224.575L47.2175 218.688L50.1726 212.732L53.3511 206.714L56.7533 200.645L60.3659 194.535L64.1855 188.399L68.2072 182.244L72.421 176.083L76.822 169.926L81.4002 163.784L86.1491 157.667L91.0554 151.585L96.1156 145.551L101.317 139.574L106.65 133.664L112.11 127.834L117.683 122.095L123.363 116.451L129.137 110.919L134.996 105.504L140.929 100.214L146.925 95.0625L152.974 90.0569L159.068 85.2054L165.193 80.5211L171.338 76.0092L177.498 71.6778L183.655 67.5319L189.802 63.5846L195.926 59.8363L202.019 56.3L208.065 52.9805L214.058 49.8865L219.986 47.0226L225.837 44.3955L231.601 42.0037L237.269 39.8571L242.829 37.9606L248.271 36.3157L253.584 34.9309L258.755 33.8081L263.781 32.9501L268.647 32.3569L273.346 32.0307L277.87 31.9726L282.208 32.183L286.354 32.6651L290.295 33.4187L294.023 34.4439L297.533 35.741L300.818 37.3029L303.869 39.1315L306.683 41.2202L309.252 43.5707L311.571 46.1745L313.631 49.0335L315.428 52.1425L316.959 55.4949L318.22 59.0843L319.207 62.9039L319.921 66.9471L320.358 71.2074L320.515 75.6747L320.389 80.3457Z" fill="#0E0C15"/>
<path d="M300.444 91.0324L300.068 95.2876L299.445 99.7035L298.576 104.27L297.464 108.979L296.113 113.819L294.521 118.783L292.691 123.863L290.625 129.046L288.329 134.324L285.802 139.687L283.056 145.123L280.091 150.622L276.917 156.171L273.536 161.761L269.959 167.38L266.187 173.017L262.23 178.656L258.096 184.295L253.792 189.917L249.328 195.51L244.715 201.064L239.961 206.567L235.075 212.009L230.066 217.376L224.946 222.658L219.722 227.846L214.407 232.926L209.012 237.894L203.551 242.735L198.03 247.441L192.463 252.001L186.861 256.407L181.233 260.647L175.595 264.715L169.956 268.604L164.328 272.305L158.719 275.813L153.146 279.121L147.618 282.22L142.144 285.104L136.738 287.767L131.411 290.205L126.17 292.415L121.025 294.393L115.99 296.135L111.072 297.641L106.28 298.905L101.627 299.923L97.1203 300.697L92.769 301.225L88.5767 301.505L84.555 301.542L80.7106 301.335L77.05 300.884L73.5798 300.19L70.3069 299.256L67.2375 298.081L64.3786 296.67L61.7317 295.03L59.3002 293.162L57.0905 291.072L55.1046 288.764L53.3471 286.242L51.82 283.512L50.5263 280.578L49.4712 277.446L48.6496 274.127L48.0633 270.622L47.7122 266.945L47.5995 263.099L47.7204 259.092L48.0799 254.933L48.6745 250.625L49.5027 246.182L50.5611 241.609L51.8465 236.918L53.3571 232.118L55.0863 227.215L57.0342 222.219L59.1975 217.141L61.5728 211.989L64.15 206.772L66.9311 201.5L69.9043 196.181L73.0664 190.829L76.409 185.449L79.9287 180.055L83.6191 174.651L87.4752 169.252L91.487 163.865L95.6495 158.5L99.951 153.165L104.385 147.873L108.947 142.629L113.624 137.447L118.413 132.331L123.301 127.297L128.283 122.348L133.349 117.495L138.488 112.743L143.693 108.105L148.952 103.588L154.26 99.2L159.602 94.9481L164.976 90.8436L170.367 86.8897L175.765 83.095L181.163 79.4658L186.553 76.0074L191.922 72.7293L197.26 69.6369L202.559 66.7332L207.808 64.0318L212.999 61.5306L218.122 59.2365L223.167 57.1528L228.127 55.2844L232.991 53.6329L237.75 52.2068L242.393 51.006L246.915 50.0353L251.303 49.2982L255.553 48.7947L259.656 48.5247L263.601 48.4883L267.385 48.6903L270.999 49.1276L274.431 49.8033L277.676 50.716L280.73 51.8656L283.586 53.2504L286.236 54.8635L288.679 56.7073L290.905 58.7777L292.913 61.0701L294.695 63.5845L296.247 66.3158L297.564 69.2592L298.645 72.408L299.49 75.7572L300.093 79.3019L300.454 83.0321L300.573 86.9445L300.444 91.0324Z" fill="#0E0C15"/>
<path d="M283.271 104.447L282.934 108.093L282.388 111.876L281.634 115.787L280.673 119.815L279.507 123.959L278.136 128.206L276.564 132.547L274.79 136.978L272.82 141.489L270.654 146.07L268.3 150.713L265.764 155.409L263.048 160.146L260.157 164.918L257.098 169.713L253.876 174.522L251.125 178.442L250.496 179.337L246.966 184.145L243.291 188.94L239.482 193.713L235.545 198.448L231.49 203.142L227.321 207.782L223.048 212.36L218.68 216.867L214.224 221.29L209.693 225.626L205.091 229.863L200.432 233.992L195.724 238.007L190.974 241.9L186.197 245.66L181.397 249.281L177.59 252.03L177.56 252.053L176.586 252.756L171.775 256.077L166.971 259.241L162.186 262.24L157.427 265.068L152.708 267.72L148.034 270.188L143.416 272.47L138.862 274.559L134.383 276.457L129.986 278.155L125.679 279.655L121.474 280.952L117.374 282.044L113.391 282.927L109.53 283.601L105.801 284.063L102.21 284.318L98.7614 284.361L95.4619 284.199L92.3214 283.828L89.34 283.248L86.5257 282.465L83.8887 281.474L81.429 280.283L79.1482 278.894L77.0529 277.308L75.1464 275.534L73.4304 273.573L71.9082 271.428L70.5847 269.101L69.4617 266.603L68.5408 263.933L67.8203 261.099L67.3018 258.109L66.9855 254.967L66.8727 251.681L66.9623 248.255L67.2554 244.699L67.749 241.015L68.4447 237.212L69.3391 233.297L70.4274 229.28L71.7094 225.169L73.1819 220.967L74.8417 216.686L76.6869 212.334L78.7142 207.914L80.9172 203.439L83.2941 198.915L85.8384 194.354L88.5448 189.759L91.4087 185.142L94.4234 180.511L97.587 175.873L100.893 171.235L104.334 166.609L107.903 162.003L111.597 157.421L115.401 152.874L119.317 148.372L123.332 143.92L127.443 139.527L131.642 135.203L135.921 130.954L140.27 126.787L144.685 122.707L149.155 118.727L153.672 114.849L158.229 111.084L162.819 107.435L167.432 103.912L172.06 100.523L176.697 97.2699L181.332 94.1592L185.957 91.1976L190.565 88.3916L195.144 85.7431L199.691 83.2602L204.195 80.9495L208.647 78.8129L213.04 76.8549L217.365 75.0777L221.615 73.4876L225.783 72.0829L229.859 70.8721L233.836 69.8568L237.707 69.0401L241.462 68.4223L245.096 68.005L248.603 67.788L251.975 67.7748L255.208 67.9636L258.292 68.3545L261.222 68.9491L263.992 69.7474L266.592 70.7479L269.026 71.9488L271.283 73.3485L273.36 74.9419L275.254 76.7291L276.956 78.7068L278.467 80.8733L279.779 83.2254L280.892 85.7563L281.801 88.4646L282.509 91.3417L283.01 94.3844L283.307 97.5863L283.393 100.942L283.271 104.447Z" fill="#0E0C15"/>
<path d="M269.377 120.161L269.089 123.219L268.623 126.387L267.984 129.66L267.174 133.034L266.193 136.5L265.041 140.051L263.722 143.682L262.235 147.385L260.583 151.154L258.771 154.98L256.803 158.859L254.682 162.78L252.411 166.734L251.185 168.758L249.996 170.715L247.442 174.717L244.752 178.729L241.931 182.746L238.984 186.756L235.92 190.754L232.743 194.733L229.458 198.683L226.076 202.596L222.599 206.467L219.038 210.283L215.396 214.038L211.68 217.727L207.902 221.343L204.066 224.874L200.18 228.319L196.254 231.669L192.296 234.915L188.31 238.052L184.307 241.072L180.297 243.972L176.282 246.745L172.273 249.385L168.28 251.891L167.924 252.102L167.905 252.113L167.897 252.118L164.31 254.255L160.369 256.469L156.465 258.535L152.609 260.443L148.804 262.194L145.062 263.782L141.387 265.209L137.786 266.467L134.266 267.556L130.836 268.475L127.502 269.222L124.27 269.793L121.144 270.189L118.135 270.41L115.244 270.458L112.476 270.33L109.838 270.03L107.333 269.557L104.971 268.911L102.752 268.092L100.68 267.107L98.7584 265.954L96.9925 264.639L95.3826 263.161L93.9316 261.531L92.6447 259.744L91.5199 257.808L90.5642 255.722L89.7791 253.496L89.1596 251.131L88.7107 248.635L88.4324 246.011L88.3231 243.265L88.3844 240.401L88.6129 237.426L89.0155 234.344L89.5836 231.162L90.3207 227.884L91.2201 224.52L92.2835 221.074L93.506 217.556L94.8873 213.968L96.4228 210.319L98.1139 206.614L99.9541 202.862L101.939 199.069L104.064 195.241L106.328 191.387L108.725 187.513L111.247 183.625L113.898 179.733L116.665 175.842L119.551 171.959L122.544 168.092L125.638 164.246L128.83 160.431L132.114 156.649L135.484 152.913L138.932 149.226L142.455 145.596L146.046 142.029L149.699 138.532L153.402 135.11L157.156 131.771L160.947 128.519L164.773 125.359L168.626 122.301L172.499 119.349L176.383 116.509L180.274 113.784L184.163 111.18L188.045 108.702L191.911 106.353L195.754 104.137L199.567 102.063L203.344 100.135L207.077 98.3531L210.759 96.7216L214.385 95.2424L217.946 93.9174L221.436 92.7529L224.852 91.7492L228.181 90.911L231.419 90.2402L234.563 89.7367L237.603 89.4004L240.536 89.2332L243.355 89.2365L246.057 89.4071L248.633 89.75L251.077 90.2634L253.388 90.9475L255.559 91.8006L257.587 92.8209L259.465 94.0069L261.196 95.3568L262.771 96.8658L264.186 98.5353L265.438 100.361L266.528 102.342L267.449 104.472L268.199 106.749L268.781 109.166L269.19 111.722L269.427 114.41L269.49 117.223L269.377 120.161Z" fill="#0E0C15"/>
<path d="M170.066 248.933L167.484 250.299L167.162 250.468L164.017 252.027L162.241 252.845L162.238 252.845L162.145 252.888L162.14 252.89L162.114 252.903L162.058 252.929L162.029 252.941L160.915 253.456L157.859 254.753L154.859 255.918L151.919 256.95L149.043 257.841L146.241 258.596L143.514 259.209L140.871 259.679L138.317 260.007L135.852 260.193L133.483 260.236L131.216 260.138L129.052 259.9L126.999 259.519L125.059 258.997L123.235 258.336L121.532 257.538L119.954 256.602L118.498 255.533L117.17 254.334L115.972 253.007L114.907 251.551L113.976 249.975L113.183 248.277L112.527 246.461L112.008 244.535L111.627 242.498L111.387 240.356L111.285 238.113L111.319 235.776L111.496 233.346L111.813 230.827L112.267 228.226L112.858 225.548L113.584 222.795L114.442 219.979L115.432 217.1L116.553 214.164L117.801 211.177L119.175 208.146L120.673 205.072L122.291 201.966L124.025 198.831L125.872 195.675L127.827 192.502L129.891 189.318L132.054 186.128L134.318 182.939L136.677 179.759L139.123 176.59L141.657 173.44L144.27 170.314L146.956 167.217L149.716 164.156L152.542 161.135L155.425 158.161L158.367 155.24L161.357 152.376L164.393 149.575L167.467 146.838L170.575 144.178L173.71 141.593L176.866 139.09L180.037 136.677L183.221 134.354L186.41 132.126L189.596 130L192.775 127.974L195.94 126.057L199.089 124.25L202.213 122.561L205.304 120.987L208.36 119.538L211.373 118.211L214.341 117.009L217.255 115.937L220.11 114.993L222.903 114.185L225.626 113.509L228.273 112.972L230.84 112.571L233.326 112.308L235.722 112.185L238.024 112.199L240.229 112.353L242.331 112.646L244.325 113.08L246.208 113.651L247.977 114.36L249.629 115.21L251.159 116.19L252.565 117.305L253.847 118.551L254.999 119.927L256.016 121.431L256.898 123.059L257.642 124.81L258.25 126.68L258.717 128.665L259.047 130.76L259.234 132.961L259.279 135.269L259.183 137.674L258.941 140.175L258.558 142.767L258.031 145.444L257.367 148.202L256.56 151.032L255.618 153.933L254.538 156.898L253.324 159.921L251.982 162.981L251.974 162.996L251.957 163.033L251.951 163.049L251.873 163.21L250.495 166.119L249.86 167.369L249.826 167.437L248.89 169.281L247.58 171.697" fill="#0E0C15"/>
<path d="M252.377 161.503L252.326 161.647L252.301 161.715L252.241 161.878L252.221 161.934L252.22 161.939L252.175 162.063L252.17 162.075L251.923 162.752" fill="#0E0C15"/>
<path d="M252.547 160.923L252.374 161.462L252.266 161.788L252.261 161.803L252.243 161.864L252.18 162.056L252.175 162.071" fill="#0E0C15"/>
<path d="M252.599 160.578L252.255 161.784L252.246 161.812" fill="#0E0C15"/>
<path d="M252.576 160.436L252.229 161.872L252.576 160.436Z" fill="#0E0C15"/>
<path d="M161.096 253.132L160.924 253.172L158.814 253.549L156.772 253.813L154.802 253.964L152.909 254.002L151.093 253.926L149.363 253.738L147.718 253.439L146.162 253.026L144.7 252.501L143.333 251.867L142.064 251.125L140.895 250.277L139.825 249.322L138.859 248.267L138 247.109L137.248 245.854L136.603 244.504L136.068 243.058L135.644 241.521L135.33 239.898L135.126 238.19L135.035 236.403L135.053 234.539L135.184 232.6L135.426 230.589L135.779 228.513L136.241 226.375L136.811 224.179L137.488 221.928L138.27 219.629L139.156 217.285L140.145 214.898L141.236 212.475L142.426 210.02L143.713 207.537L145.092 205.031L146.562 202.508L148.119 199.971L149.763 197.425L151.488 194.876L153.295 192.326L155.175 189.784L157.129 187.25L159.152 184.73L161.237 182.231L163.382 179.755L165.587 177.308L167.843 174.893L170.15 172.516L172.501 170.182L174.892 167.893L177.317 165.654L179.775 163.471L182.26 161.344L184.764 159.28L187.289 157.282L189.826 155.358L192.372 153.504L194.92 151.729L197.467 150.032L200.008 148.419L202.541 146.894L205.057 145.454L207.553 144.111L210.024 142.862L212.466 141.709L214.874 140.656L217.244 139.707L219.571 138.857L221.852 138.113L224.083 137.475L226.257 136.945L228.37 136.525L230.419 136.215L232.4 136.016L234.313 135.928L236.149 135.951L237.906 136.082L239.582 136.328L241.171 136.684L242.671 137.151L244.081 137.729L245.396 138.415L246.614 139.208L247.733 140.109L248.75 141.113L249.665 142.219L250.473 143.428L251.174 144.735L251.765 146.142L252.245 147.639L252.615 149.231L252.875 150.909L253.02 152.671L253.054 154.516L252.974 156.438L252.78 158.437L252.472 160.507L252.166 162.063" fill="#0E0C15"/>
<path d="M252.102 162.302L252.062 162.405L251.482 163.842" fill="#0E0C15"/>
<path d="M516.534 249.049L514.013 256.917L511.123 264.945L507.865 273.116L504.245 281.413L500.275 289.822L495.96 298.321L491.309 306.895L486.333 315.528L481.036 324.197L475.431 332.89L469.528 341.586L463.336 350.265L456.873 358.911L450.151 367.508L443.185 376.035L435.988 384.474L428.575 392.807L420.961 401.018L413.159 409.085L405.191 416.994L397.071 424.729L388.814 432.274L380.444 439.614L371.975 446.731L363.425 453.612L354.814 460.242L346.156 466.604L337.471 472.688L328.777 478.48L320.094 483.976L311.439 489.159L302.83 494.019L294.286 498.548L285.824 502.737L277.461 506.574L269.214 510.054L261.099 513.173L253.133 515.928L245.328 518.313" fill="#0E0C15"/>
<path d="M526.186 193.699L525.505 201.001L524.418 208.555L522.928 216.34L521.034 224.345L518.739 232.554L516.044 240.95L512.953 249.52L509.47 258.244L505.599 267.107L501.352 276.088L496.735 285.174L491.76 294.337L486.433 303.566L480.763 312.837L474.763 322.132L468.444 331.433L461.816 340.719L454.895 349.971L447.698 359.172L440.24 368.297L432.532 377.33L424.595 386.251L416.444 395.038L408.091 403.676L399.559 412.142L390.865 420.425L382.028 428.504L373.07 436.361L364.005 443.982L354.853 451.352L345.639 458.449L336.376 465.26L327.084 471.773L317.787 477.976L308.501 483.856L299.247 489.404L290.044 494.605L280.912 499.453L271.87 503.933L262.937 508.036L254.129 511.76L245.464 515.094L236.96 518.039L228.634 520.588L220.501 522.738L212.58 524.484L204.886 525.824L197.431 526.753L190.234 527.275" fill="#0E0C15"/>
<path d="M523.267 146.733L524.254 153.199L524.821 159.984L524.961 167.072L524.672 174.454L523.953 182.116L522.805 190.042L521.233 198.217L519.234 206.626L516.814 215.251L513.973 224.074L510.715 233.083L507.039 242.258L502.958 251.58L498.479 261.028L493.61 270.585L488.362 280.232L482.745 289.947L476.766 299.71L470.438 309.499L463.773 319.295L456.783 329.077L449.484 338.825L441.894 348.518L434.026 358.135L425.9 367.656L417.53 377.059L408.934 386.322L400.128 395.428L391.133 404.358L381.968 413.089L372.652 421.609L363.208 429.894L353.655 437.933L344.012 445.701L334.302 453.188L324.541 460.372L314.755 467.239L304.963 473.782L295.187 479.983L285.442 485.832L275.756 491.321L266.144 496.431L256.631 501.157L247.233 505.483L237.971 509.409L228.86 512.927L219.921 516.033L211.172 518.723L202.628 520.989L194.31 522.831L186.23 524.245L178.409 525.226L170.857 525.777L163.587 525.901L156.614 525.6L149.949 524.881" fill="#0E0C15"/>
<path d="M514.246 114.509L516.116 120.494L517.559 126.83L518.574 133.506L519.153 140.511L519.288 147.836L518.979 155.467L518.223 163.391L517.024 171.59L515.383 180.049L513.3 188.75L510.778 197.68L507.82 206.816L504.427 216.148L500.604 225.653L496.359 235.314L491.7 245.108L486.638 255.017L481.18 265.02L475.338 275.092L469.123 285.219L462.546 295.374L455.617 305.54L448.35 315.692L440.766 325.81L432.877 335.873L424.701 345.858L416.256 355.743L407.562 365.507L398.629 375.129L389.483 384.587L380.137 393.863L370.617 402.933L360.943 411.785L351.138 420.395L341.217 428.748L331.206 436.821L321.127 444.601L310.999 452.066L300.843 459.207L290.681 466.006L280.538 472.453L270.432 478.537L260.388 484.242L250.421 489.557L240.559 494.47L230.82 498.972L221.221 503.055L211.785 506.717L202.527 509.948L193.467 512.748L184.623 515.112L176.013 517.033L167.654 518.509L159.564 519.536L151.757 520.117L144.244 520.256L137.04 519.953L130.157 519.214L123.607 518.042L117.402 516.438L111.554 514.409" fill="#0E0C15"/>
<path d="M499.462 84.5373L502.208 89.8775L504.533 95.5952L506.428 101.684L507.888 108.133L508.908 114.93L509.483 122.064L509.605 129.528L509.272 137.305L508.484 145.384L507.24 153.744L505.545 162.372L503.4 171.252L500.805 180.364L497.764 189.693L494.279 199.217L490.353 208.923L485.995 218.79L481.213 228.796L476.02 238.922L470.423 249.143L464.434 259.439L458.064 269.792L451.321 280.176L444.22 290.569L436.774 300.953L429.002 311.302L420.923 321.595L412.548 331.812L403.9 341.927L394.995 351.918L385.849 361.767L376.484 371.447L366.918 380.943L357.174 390.231L347.272 399.294L337.237 408.113L327.087 416.666L316.846 424.937L306.535 432.905L296.174 440.556L285.79 447.873L275.4 454.841L265.029 461.452L254.7 467.686L244.432 473.538L234.249 478.988L224.173 484.028L214.223 488.648L204.421 492.842L194.784 496.602L185.334 499.923L176.085 502.801L167.061 505.233L158.277 507.216L149.752 508.741L141.503 509.808L133.544 510.419L125.888 510.575L118.549 510.285L111.541 509.545L104.872 508.362L98.5564 506.74L92.6117 504.681L87.0414 502.192L81.8552 499.278" fill="#0E0C15"/>
<path d="M166.556 250.759L166.494 250.738L165.421 250.244L164.422 249.666L163.501 249.003L162.66 248.261L161.898 247.436L161.217 246.534L160.621 245.556L160.111 244.5L159.685 243.372L159.344 242.173L159.091 240.905L158.923 239.572L158.842 238.176L158.849 236.718L158.943 235.202L159.125 233.632L159.394 232.009L159.746 230.338L160.185 228.62L160.707 226.859L161.312 225.062L161.997 223.227L162.764 221.36L163.612 219.465L164.537 217.544L165.537 215.603L166.611 213.641L167.757 211.667L168.971 209.681L170.251 207.688L171.598 205.692L173.007 203.7L174.475 201.709L176 199.726L177.581 197.755L179.211 195.797L180.888 193.861L182.611 191.946L184.377 190.058L186.179 188.199L188.018 186.374L189.888 184.584L191.786 182.834L193.709 181.127L195.653 179.464L197.613 177.852L199.587 176.292L201.573 174.786L203.566 173.34L205.56 171.955L207.553 170.632L209.542 169.375L211.523 168.185L213.493 167.067L215.446 166.019L217.38 165.048L219.29 164.152L221.173 163.335L223.027 162.598L224.849 161.942L226.633 161.368L228.375 160.874L230.076 160.468L231.728 160.149L233.331 159.913L234.88 159.766L236.372 159.705L237.807 159.731L239.18 159.842L240.488 160.041L241.731 160.329L242.902 160.702L244.002 161.162L245.027 161.707L245.978 162.333L246.85 163.044L247.644 163.837L248.356 164.709L248.987 165.661L249.532 166.69L249.842 167.43" fill="#0E0C15"/>
<path d="M181.949 241.571L181.975 241.097L182.109 239.883L182.311 238.628L182.578 237.334L182.913 236.005L183.31 234.644L183.774 233.253L184.299 231.833L184.887 230.39L185.536 228.923L186.249 227.435L187.019 225.933L187.844 224.416L188.727 222.887L189.662 221.351L190.65 219.811L191.688 218.266L192.775 216.722L193.909 215.183L195.087 213.648L196.306 212.124L197.565 210.61L198.862 209.111L200.194 207.63L201.559 206.169L202.952 204.733L204.374 203.32L205.82 201.937L207.286 200.584L208.775 199.264L210.278 197.98L211.795 196.734L213.324 195.53L214.859 194.369L216.4 193.253L217.945 192.184L219.487 191.162L221.026 190.193L222.56 189.279L224.082 188.416L225.594 187.609L227.09 186.862L228.569 186.175L230.027 185.549L231.461 184.982L232.871 184.48L234.25 184.042L235.599 183.667L236.914 183.359L238.191 183.116L239.43 182.94L240.628 182.832L240.647 182.832" fill="#0E0C15"/>
<path d="M167.493 250.294L165.591 251.235L162.57 252.627" fill="#0E0C15"/>
<path d="M197.63 229.666L194.529 232.21L191.013 234.978L187.483 237.643L184.142 240.057L183.943 240.199" fill="#0E0C15"/>
<path d="M184.133 240.06L181.946 241.57L181.328 241.996L177.885 244.267L174.451 246.422" fill="#0E0C15"/>
<path d="M175.291 245.894L172.281 247.685L168.982 249.543" fill="#0E0C15"/>
<path d="M467.031 349.454L461.336 357.438L455.395 365.39L449.215 373.296L442.81 381.136L436.194 388.894L429.38 396.557L422.38 404.103L415.21 411.519L407.883 418.789L400.42 425.898L392.83 432.835L385.136 439.581L377.348 446.124L369.487 452.451L361.568 458.545L353.604 464.395L345.615 469.989" fill="#0E0C15"/>
<path d="M230.598 196.286L230.294 196.648L227.624 199.862L224.563 203.403L221.418 206.903L218.193 210.357L214.898 213.757L211.536 217.096L208.115 220.368L204.644 223.565L201.129 226.682L197.624 229.67L197.576 229.711" fill="#0E0C15"/>
<path d="M240.784 182.66L240.667 182.828L240.256 183.414L238.297 186.202L235.698 189.741L232.993 193.268L230.295 196.645" fill="#0E0C15"/>
<path d="M244.669 176.674L244.421 177.065L242.473 180.113L240.652 182.831L240.26 183.415" fill="#0E0C15"/>
<path d="M247.9 171.15L247.582 171.7L245.996 174.461L244.418 177.067" fill="#0E0C15"/>
<path d="M251.169 164.614L249.862 167.372L251.169 164.614Z" fill="#0E0C15"/>
<path d="M251.713 163.335L251.489 163.841L250.819 165.373" fill="#0E0C15"/>
<path d="M160.936 253.192L159.301 253.701L159.079 253.77" fill="#0E0C15"/>
<path d="M161.541 252.976L161.432 253.016L161.43 253.018L161.102 253.13L161.08 253.139L160.943 253.187L160.628 253.296L159.611 253.654" fill="#0E0C15"/>
<path d="M161.426 253.019L161.123 253.073L161.426 253.019Z" fill="#0E0C15"/>
<path d="M162.563 252.578L161.543 252.972L161.454 253.008L161.452 253.007L161.238 253.091L161.207 253.103L161.18 253.113L161.076 253.154L161.053 253.164L161.048 253.166L161.036 253.171L160.367 253.429" fill="#0E0C15"/>
<path d="M164.022 251.96L162.569 252.578L162.049 252.797L161.954 252.838L161.625 252.979L161.622 252.979L161.461 253.047L161.431 253.06L161.426 253.062L161.418 253.067L161.356 253.092" fill="#0E0C15"/>
<path d="M55.6616 478.863L60.0643 482.6L64.8677 485.929L70.0672 488.843L75.6541 491.333L81.6237 493.383L87.961 494.997L94.6577 496.164L101.699 496.888L109.075 497.158L116.769 496.978L124.769 496.338L133.066 495.24L141.639 493.68L150.476 491.661L159.556 489.186L168.864 486.263L178.376 482.892L188.078 479.08L197.946 474.833L207.967 470.156L218.114 465.054L228.372 459.54L238.716 453.622L249.125 447.318L259.575 440.638L270.047 433.595L280.515 426.204L290.959 418.477L301.354 410.427L311.682 402.074L321.918 393.437L332.042 384.536L342.028 375.388L351.859 366.014L361.512 356.434L370.962 346.666L380.191 336.731L389.18 326.652L397.913 316.452L406.367 306.149L414.529 295.771L422.379 285.337L429.901 274.87L437.078 264.394L443.892 253.929L450.33 243.499L456.388 233.125L462.051 222.827L467.305 212.63L472.145 202.553L476.558 192.618L480.538 182.847L484.073 173.256L487.16 163.868L489.799 154.7L491.984 145.767L493.716 137.088L494.991 128.68L495.808 120.559L496.167 112.739L496.066 105.241L495.51 98.0718L494.505 91.2425L493.055 84.7709L491.169 78.6573L488.848 72.9212L486.102 67.5678L482.933 62.6069L479.35 58.0503M55.6616 478.863L53.7219 476.97L51.8271 475.029L47.8368 470.903L45.9933 468.924L44.1944 466.899L42.4453 464.832L40.7459 462.722L37.1913 458.237L35.5465 456.095L33.9564 453.915L32.4159 451.695L30.9301 449.441L27.8212 444.623L26.3966 442.347L25.0285 440.035L23.715 437.691L22.4578 435.317L19.8043 430.202L18.6133 427.816L17.4803 425.4L16.4054 422.957L15.3917 420.489L13.1953 415.109L12.2496 412.643L11.365 410.152L10.5418 407.639L8.78269 402.007L8.03073 399.506L7.33836 396.985L6.70888 394.448L5.38379 388.594L4.82397 386.076L4.33031 383.545L3.89807 381.003L2.99036 374.96L2.62763 372.444L2.32954 369.923L2.09429 367.392L1.59401 361.194L1.42679 358.701L1.32408 356.207L1.2114 349.837L1.17334 347.387L1.20144 344.937L1.29425 342.489L1.55761 336.021L1.71163 333.627L1.93197 331.237L2.55473 324.645L2.83301 322.319L3.81689 315.564L4.1498 313.307L4.54736 311.057L5.86421 304.225L6.31136 302.052L8.45801 293.001L9.01627 290.922L10.9658 283.931L11.5671 281.938L13.8214 274.86L14.4625 272.957L17.0116 265.813L17.6857 264.003L20.5182 256.808L21.2222 255.096L24.3245 247.863L25.0583 246.255L28.4191 239.001L32.0664 231.66L32.7804 230.238L36.6613 222.905L37.39 221.593L41.4896 214.287L45.8443 206.934L46.5332 205.821L51.0817 198.52L55.867 191.2L60.8825 183.875L61.4573 183.049L66.6317 175.814L72.0134 168.597L77.5921 161.415L83.3563 154.273L83.729 153.82L89.6008 146.819L95.6366 139.885L101.827 133.03L108.161 126.265L114.627 119.606L121.216 113.06L127.916 106.638L134.712 100.356L141.596 94.2174L148.553 88.2378L155.573 82.4272L156.056 82.0297L163.212 76.3317L170.407 70.826L177.627 65.5239L184.864 60.4305L185.724 59.8293L193.043 54.8982L200.355 50.1974L201.418 49.5381L208.787 45.0245L216.12 40.7626L217.382 40.0603L224.748 36.0138L232.048 32.2356L233.502 31.5068L240.807 27.9687L242.367 27.2565L249.658 23.9703L256.85 20.9789L258.59 20.2599L265.737 17.542L267.577 16.8545L274.666 14.4196L276.598 13.7702L283.614 11.6335L285.633 11.0225L287.672 10.4742L294.664 8.63044L296.784 8.12693L303.665 6.60981L305.864 6.15593L308.074 5.76494L314.888 4.57239L317.169 4.23609L323.838 3.39142L326.186 3.10992L328.54 2.89291L335.101 2.40092L337.514 2.24356L339.93 2.15071L346.36 2.02479L348.827 1.99512L351.297 2.02995L360.083 2.38434L362.592 2.55156L365.097 2.78014L371.233 3.4311L373.771 3.72939L376.302 4.0937L378.821 4.51947L384.788 5.58271L387.333 6.07814L389.864 6.63781L392.382 7.26077L398.145 8.75307L400.677 9.44721L403.191 10.2025L405.686 11.0174L411.215 12.9455L413.716 13.8332L416.194 14.7806L418.649 15.7877L421.079 16.8527L426.368 19.2331L428.791 20.3676L431.186 21.5601L433.551 22.8092L435.885 24.116L440.899 26.9469L443.216 28.3167L445.5 29.7428L447.748 31.2218L449.961 32.7557L454.663 36.0338L456.85 37.6271L458.995 39.2718L461.1 40.9663L463.166 42.7106L467.524 46.4325L469.553 48.2295L471.536 50.0731L473.473 51.9648L475.367 53.901L479.35 58.0503M55.6616 478.863L57.6443 480.707L59.67 482.504L64.0759 486.244L66.1448 487.992L68.2534 489.69L70.3984 491.334L72.5832 492.926L79.6029 497.796L81.8539 499.278L84.1413 500.704L86.4586 502.074L91.6299 504.98L93.9686 506.288L96.3389 507.539L98.7357 508.733L101.159 509.864L106.668 512.329L109.105 513.397L111.561 514.403L114.044 515.349L116.543 516.231L122.354 518.249L124.855 519.064L127.375 519.814L129.907 520.502L136.003 522.078L138.525 522.696L141.061 523.251L143.607 523.74L149.953 524.881L152.479 525.3L155.011 525.653L157.55 525.943L164.111 526.653L166.617 526.874L169.127 527.028L175.908 527.323L178.376 527.409L180.844 527.432L190.241 527.271L192.653 527.162L202.155 526.474L204.502 526.238L211.794 525.33L214.073 525.035L216.342 524.677L223.749 523.389L225.942 522.974L228.122 522.497L235.617 520.846L237.713 520.321L245.335 518.307L247.344 517.735L255.075 515.372L256.988 514.761L264.808 512.056L266.621 511.408L274.506 508.377L276.217 507.696L284.149 504.348L285.749 503.643L293.71 499.992L295.199 499.265L303.166 495.323L311.208 491.061L312.492 490.364L320.507 485.84L328.562 481.018L329.63 480.367L337.62 475.315L345.617 469.985L346.464 469.401L354.361 463.872L362.233 458.087L370.061 452.065L377.831 445.812L378.268 445.451L385.874 439.061L393.389 432.47L400.801 425.697L408.093 418.753L415.247 411.653L422.248 404.409L429.084 397.04L435.739 389.556L442.201 381.979L442.532 381.578L448.863 373.829L454.972 366.014L460.845 358.153L466.474 350.262L467.033 349.451L472.463 341.45L477.618 333.453L482.491 325.473L483.173 324.35L487.803 316.315L492.856 306.994L496.916 298.992L497.627 297.536L501.405 289.534L502.096 287.966L505.576 279.984L508.71 272.126L509.407 270.365L512.216 262.563L512.88 260.703L515.355 252.981L515.979 251.022L516.541 249.042L518.689 241.349L519.208 239.28L520.997 231.707L521.467 229.554L522.89 222.121L523.307 219.888L523.66 217.644L524.715 210.315L525.013 207.999L525.245 205.673L525.914 198.475L526.087 196.09L526.193 193.695L526.466 186.657L526.507 184.21L526.484 181.762L526.347 174.91L526.257 172.415L526.1 169.922L525.547 163.283L525.321 160.756L525.033 158.231L524.679 155.71L523.697 149.279L523.271 146.733L522.784 144.198L522.229 141.676L520.814 135.478L520.19 132.938L519.502 130.416L518.752 127.906L516.9 121.98L516.079 119.469L515.198 116.974L514.253 114.503L511.964 108.878L510.952 106.412L509.879 103.967L508.748 101.55L507.557 99.1566L504.824 93.8528L503.57 91.4794L502.256 89.1323L500.885 86.8199L499.46 84.5374L496.295 79.5898L494.809 77.3356L493.27 75.1175L491.675 72.9362L490.031 70.7911L486.444 66.2312L484.745 64.1242L482.998 62.0588L481.199 60.0312L479.35 58.0503M454.66 36.0372L458.985 39.7291L462.919 43.8321L466.452 48.339L469.572 53.2453L472.276 58.5456L474.552 64.2269L476.4 70.2794L477.811 76.6929L478.782 83.4608L479.307 90.5649L479.378 98.0006L478.994 105.753L478.153 113.806L476.856 122.146L475.108 130.757L472.908 139.619L470.26 148.717L467.166 158.033L463.628 167.55L459.647 177.252L455.237 187.112L450.403 197.117L445.159 207.244L439.509 217.469L433.468 227.773L427.05 238.134L420.259 248.529L413.108 258.936L405.616 269.336L397.798 279.705L389.674 290.02L381.259 300.259L372.568 310.401L363.624 320.422L354.443 330.3L345.039 340.014L335.441 349.543L325.666 358.867L315.735 367.967L305.67 376.826L295.497 385.422L285.232 393.735L274.9 401.749L264.523 409.446L254.121 416.811L243.718 423.827L233.336 430.486L222.999 436.772L212.726 442.672L202.539 448.174L192.464 453.267L182.517 457.94L172.718 462.187L163.089 465.998L153.648 469.374L144.414 472.308L135.403 474.792L126.637 476.826L118.132 478.405L109.903 479.524L101.969 480.187L94.3395 480.396L87.03 480.155L80.05 479.466L73.4162 478.332L67.1351 476.758L61.2252 474.747L55.6929 472.303L50.5482 469.434L45.796 466.152L41.443 462.465L37.4909 458.384L33.9529 453.918M426.365 19.2376L431.306 22.0253L435.885 25.2237L440.091 28.8263L443.919 32.8298L447.349 37.2308L450.374 42.0244L452.991 47.2021L455.19 52.7545L456.966 58.6711L458.318 64.9421L459.237 71.556L459.716 78.5045L459.754 85.7743L459.343 93.3572L458.488 101.235L457.186 109.394L455.442 117.817L453.256 126.486L450.632 135.388L447.571 144.505L444.075 153.818L440.151 163.311L435.801 172.964L431.041 182.757L425.877 192.667L420.322 202.678L414.382 212.766L408.071 222.909L401.4 233.086L394.378 243.278L387.022 253.463L379.35 263.617L371.376 273.72L363.121 283.751L354.597 293.686L345.825 303.505L336.821 313.185L327.605 322.706L318.195 332.046L308.614 341.19L298.883 350.113L289.023 358.8L279.054 367.231L269.002 375.389L258.881 383.253L248.718 390.81L238.533 398.04L228.346 404.934L218.181 411.475L208.06 417.653L198.004 423.455L188.033 428.872L178.169 433.886L168.435 438.489L158.844 442.676L149.423 446.439L140.184 449.775L131.146 452.677L122.333 455.144L113.756 457.168L105.434 458.745L97.3877 459.874L89.6276 460.555L82.1656 460.792L75.0149 460.588L68.1924 459.947L61.7044 458.869L55.5673 457.36L49.7899 455.422L44.3853 453.058L39.3581 450.281L34.7153 447.095L30.4633 443.513L26.6106 439.544L23.1571 435.196L20.1109 430.48L17.4773 425.405M389.866 6.63799L395.597 8.12215L401.007 10.0104L406.087 12.2979L410.831 14.9846L415.224 18.0654L419.259 21.5371L422.921 25.395L426.201 29.6387L429.091 34.2615L431.582 39.2539L433.673 44.6072L435.354 50.3135L436.621 56.3608L437.472 62.7414L437.903 69.4429L437.903 76.4562L437.472 83.7708L436.609 91.3685L435.319 99.238L433.601 107.362L431.46 115.726L428.892 124.312L425.906 133.106L422.502 142.092L418.682 151.248L414.457 160.559L409.836 170.007L404.823 179.567L399.437 189.224L393.681 198.955L387.567 208.743L381.107 218.562L374.313 228.398L367.196 238.225L359.773 248.026L352.063 257.777L344.082 267.457L340.094 272.098L340.091 272.104L340.087 272.108L335.844 277.047L327.368 286.527L318.67 295.873L309.767 305.068L300.68 314.089L291.428 322.92L282.034 331.542L272.514 339.936L262.892 348.087L253.187 355.973L243.421 363.58L233.615 370.888L223.786 377.884L213.957 384.556L204.15 390.892L194.385 396.879L184.684 402.503L175.065 407.755L165.548 412.622L156.156 417.094L146.907 421.162L137.817 424.826L128.905 428.076L120.188 430.91L111.686 433.323L103.414 435.311L95.3869 436.868L87.6234 437.992L80.1383 438.686L72.9412 438.95L66.0457 438.789L59.4632 438.203L53.2072 437.197L47.2873 435.776L41.7168 433.939L36.5043 431.692L31.6577 429.041L27.1805 425.999L23.0842 422.572L19.3673 418.769L16.0414 414.601L13.1062 410.076L10.5719 405.203L8.44019 399.987L6.71087 394.448M357.577 2.27868L363.583 2.91479L369.305 3.93663L374.737 5.34623L379.86 7.1401L384.668 9.31835L389.154 11.8725L393.305 14.8042L397.111 18.107L400.565 21.7791L403.654 25.8157L406.369 30.2135L408.704 34.964L410.657 40.0574L412.222 45.4853L413.393 51.2378L414.167 57.3052L414.538 63.679L414.503 70.3493L414.057 77.3045L413.203 84.5295L411.939 92.0114L410.273 99.7367L408.199 107.687L405.728 115.85L402.854 124.21L399.587 132.75L395.925 141.454L391.879 150.304L387.456 159.282L382.667 168.37L377.521 177.548L372.025 186.798L366.193 196.098L360.031 205.434L353.552 214.779L346.77 224.121L339.698 233.436L332.357 242.705L324.756 251.91L316.912 261.028L308.846 270.042L300.571 278.93L292.102 287.674L283.457 296.256L274.658 304.657L265.724 312.863L256.673 320.853L247.527 328.612L238.301 336.122L229.017 343.365L219.695 350.329L210.351 356.999L201.011 363.361L191.69 369.405L182.409 375.118L173.189 380.49L164.047 385.507L155.001 390.16L146.075 394.438L137.283 398.337L128.645 401.85L120.173 404.973L111.887 407.699L103.804 410.028L95.9382 411.951L88.3073 413.467L80.9264 414.573L73.8073 415.265L66.9631 415.554L60.4055 415.436L54.1444 414.916L48.1947 413.995L42.5631 412.68L37.2626 410.967L32.3034 408.863L27.6937 406.377L23.4368 403.515L19.536 400.287L16.0013 396.699L12.8359 392.765L10.045 388.487L7.63333 383.875L5.6042 378.941L3.96106 373.694L2.7023 368.145L1.82437 362.311L1.33081 356.202M305.864 6.15251L312.616 4.97311L319.165 4.14502L325.497 3.66956L331.601 3.55203L337.466 3.79224L343.078 4.39175L348.422 5.35243L353.489 6.67918L358.267 8.36705L362.748 10.4127L366.923 12.8128L370.786 15.5657L374.322 18.6682L377.527 22.1151L380.39 25.9015L382.901 30.0292L385.057 34.4848L386.851 39.2635L388.282 44.3519L389.344 49.7467L390.033 55.4348L390.346 61.4093L390.278 67.6588L389.826 74.1766L388.991 80.9447L387.775 87.9545L386.179 95.1894L384.208 102.637L381.862 110.279L379.141 118.106L376.052 126.101L372.595 134.249L368.782 142.534L364.616 150.937L360.109 159.442L355.269 168.029L350.104 176.685L344.624 185.389L338.839 194.125L332.757 202.871L326.395 211.611L319.765 220.329L312.879 229.003L305.757 237.617L298.409 246.15L290.851 254.59L283.101 262.91L275.168 271.097L267.075 279.13L258.838 287L250.473 294.686L242.002 302.172L233.441 309.442L224.808 316.482L216.12 323.275L207.396 329.806L198.653 336.064L189.913 342.035L181.19 347.709L172.506 353.078L163.876 358.127L155.321 362.849L146.857 367.228L138.502 371.26L130.271 374.939L122.185 378.255L114.253 381.208L106.494 383.792L98.9261 386.003L91.5601 387.837L84.4129 389.29L77.4975 390.358L70.8289 391.044L64.4154 391.349L58.2686 391.274L52.4017 390.82L46.8214 389.994L41.5408 388.794L36.5701 387.226L31.9206 385.29L27.5925 382.992L23.5989 380.344L19.94 377.35L16.6206 374.021L13.6474 370.362L11.0254 366.382L8.75941 362.085L6.85291 357.486L5.30749 352.591L4.1249 347.413L3.29666 341.964L2.83121 336.254L2.72359 330.299L2.97371 324.106L3.58156 317.688L4.54724 311.054M240.811 27.9622L248.024 24.7107L255.137 21.7526L262.133 19.0891L269.002 16.732L275.727 14.6848L282.298 12.9537L288.701 11.5459L294.924 10.4609L300.96 9.70226L306.791 9.27159L312.409 9.16897L317.806 9.39745L322.964 9.96072L327.877 10.8584L332.531 12.0908L336.914 13.6578L341.025 15.5561L344.853 17.7805L348.387 20.3314L351.622 23.2017L354.547 26.392L357.158 29.897L359.442 33.7115L361.398 37.831L363.02 42.2453L364.307 46.9477L365.254 51.93L365.857 57.1808L366.112 62.6966L366.018 68.4623L365.569 74.4767L364.769 80.7196L363.616 87.1827L362.117 93.853L360.269 100.717L358.079 107.763L355.545 114.975L352.674 122.341L349.464 129.848L345.926 137.477L342.068 145.217L337.896 153.05L333.417 160.958L328.642 168.93L323.58 176.944L318.236 184.984L312.623 193.039L306.751 201.084L300.634 209.109L294.287 217.096L287.718 225.027L280.946 232.885L273.983 240.653L266.84 248.315L259.534 255.854L252.079 263.256L244.493 270.504L236.892 277.496L236.792 277.585L228.992 284.484L221.111 291.186L213.162 297.677L205.162 303.942L197.132 309.967L189.083 315.743L181.037 321.256L173.005 326.498L165.01 331.459L157.064 336.128L149.185 340.496L141.388 344.553L133.693 348.289L126.113 351.702L118.663 354.783L111.353 357.53L104.204 359.939L97.2273 362.006L90.4362 363.725L83.847 365.093L77.47 366.11L71.3182 366.773L65.4 367.086L59.7285 367.05L54.3122 366.665L49.1592 365.935L44.2828 364.862L39.6913 363.447L35.3914 361.695L31.3928 359.607L27.6974 357.194L24.3118 354.465L21.2392 351.422L18.488 348.074L16.0581 344.428L13.9578 340.493L12.1888 336.272L10.7527 331.779L9.64954 327.022L8.87933 322.014L8.43865 316.764L8.33103 311.283L8.55628 305.581L9.1112 299.67L9.99737 293.556L11.2099 287.259L12.742 280.784L14.5921 274.15L16.7521 267.365L19.2217 260.447L21.9913 253.404L25.0621 246.248M170.066 248.933L167.484 250.299L167.162 250.468L164.017 252.027L162.241 252.845L162.238 252.845L162.145 252.888L162.14 252.89L162.114 252.903L162.058 252.929L162.029 252.941L160.915 253.456L157.859 254.753L154.859 255.918L151.919 256.95L149.043 257.841L146.241 258.596L143.514 259.209L140.871 259.679L138.317 260.007L135.852 260.193L133.483 260.236L131.216 260.138L129.052 259.9L126.999 259.519L125.059 258.997L123.235 258.336L121.532 257.538L119.954 256.602L118.498 255.533L117.17 254.334L115.972 253.007L114.907 251.551L113.976 249.975L113.183 248.277L112.527 246.461L112.008 244.535L111.627 242.498L111.387 240.356L111.285 238.113L111.319 235.776L111.496 233.346L111.813 230.827L112.267 228.226L112.858 225.548L113.584 222.795L114.442 219.979L115.432 217.1L116.553 214.164L117.801 211.177L119.175 208.146L120.673 205.072L122.291 201.966L124.025 198.831L125.872 195.675L127.827 192.502L129.891 189.318L132.054 186.128L134.318 182.939L136.677 179.759L139.123 176.59L141.657 173.44L144.27 170.314L146.956 167.217L149.716 164.156L152.542 161.135L155.425 158.161L158.367 155.24L161.357 152.376L164.393 149.575L167.467 146.838L170.575 144.178L173.71 141.593L176.866 139.09L180.037 136.677L183.221 134.354L186.41 132.126L189.596 130L192.775 127.974L195.94 126.057L199.089 124.25L202.213 122.561L205.304 120.987L208.36 119.538L211.373 118.211L214.341 117.009L217.255 115.937L220.11 114.993L222.903 114.185L225.626 113.509L228.273 112.972L230.84 112.571L233.326 112.308L235.722 112.185L238.024 112.199L240.229 112.353L242.331 112.646L244.325 113.08L246.208 113.651L247.977 114.36L249.629 115.21L251.159 116.19L252.565 117.305L253.847 118.551L254.999 119.927L256.016 121.431L256.898 123.059L257.642 124.81L258.25 126.68L258.717 128.665L259.047 130.76L259.234 132.961L259.279 135.269L259.183 137.674L258.941 140.175L258.558 142.767L258.031 145.444L257.367 148.202L256.56 151.032L255.618 153.933L254.538 156.898L253.324 159.921L251.982 162.981L251.974 162.996L251.957 163.033L251.951 163.049L251.873 163.21L250.495 166.119L249.86 167.369L249.826 167.437L248.89 169.281L247.58 171.697M252.377 161.503L252.326 161.647L252.301 161.715L252.241 161.878L252.221 161.934L252.22 161.939L252.175 162.063L252.17 162.075L251.923 162.752M252.547 160.923L252.374 161.462L252.266 161.788L252.261 161.803L252.243 161.864L252.18 162.056L252.175 162.071M252.599 160.578L252.255 161.784L252.246 161.812M252.576 160.436L252.229 161.872M161.096 253.132L160.924 253.172L158.814 253.549L156.772 253.813L154.802 253.964L152.909 254.002L151.093 253.926L149.363 253.738L147.718 253.439L146.162 253.026L144.7 252.501L143.333 251.867L142.065 251.125L140.895 250.277L139.825 249.322L138.859 248.267L138 247.109L137.248 245.854L136.603 244.504L136.068 243.058L135.644 241.521L135.33 239.898L135.126 238.19L135.035 236.403L135.053 234.539L135.184 232.6L135.426 230.589L135.779 228.513L136.241 226.375L136.811 224.179L137.488 221.928L138.27 219.629L139.156 217.285L140.145 214.898L141.236 212.475L142.426 210.02L143.713 207.537L145.092 205.031L146.562 202.508L148.119 199.971L149.763 197.425L151.488 194.876L153.295 192.326L155.175 189.784L157.129 187.25L159.152 184.73L161.237 182.231L163.382 179.755L165.587 177.308L167.843 174.893L170.15 172.516L172.501 170.182L174.892 167.893L177.317 165.654L179.775 163.471L182.26 161.344L184.764 159.28L187.289 157.282L189.826 155.358L192.372 153.504L194.92 151.728L197.467 150.032L200.008 148.419L202.541 146.894L205.057 145.454L207.553 144.111L210.024 142.862L212.466 141.709L214.874 140.656L217.244 139.707L219.571 138.857L221.852 138.113L224.083 137.475L226.257 136.945L228.37 136.525L230.419 136.215L232.4 136.016L234.313 135.928L236.149 135.951L237.906 136.082L239.582 136.328L241.171 136.684L242.671 137.151L244.081 137.729L245.396 138.415L246.614 139.208L247.733 140.109L248.75 141.113L249.665 142.219L250.473 143.428L251.174 144.735L251.765 146.142L252.245 147.639L252.615 149.231L252.875 150.909L253.02 152.671L253.054 154.516L252.974 156.438L252.78 158.437L252.472 160.507L252.166 162.063M252.102 162.302L252.062 162.405L251.482 163.842M516.534 249.049L514.013 256.917L511.123 264.945L507.865 273.116L504.245 281.413L500.275 289.822L495.96 298.321L491.309 306.895L486.333 315.528L481.036 324.197L475.431 332.89L469.528 341.586L463.336 350.265L456.873 358.911L450.151 367.508L443.185 376.035L435.988 384.474L428.575 392.807L420.961 401.018L413.159 409.085L405.191 416.994L397.071 424.729L388.814 432.274L380.444 439.614L371.975 446.731L363.425 453.612L354.814 460.242L346.156 466.604L337.471 472.688L328.777 478.48L320.094 483.976L311.439 489.159L302.83 494.019L294.286 498.548L285.824 502.737L277.461 506.574L269.214 510.054L261.099 513.173L253.133 515.928L245.328 518.313M526.186 193.699L525.505 201.001L524.418 208.555L522.928 216.34L521.034 224.345L518.739 232.554L516.044 240.95L512.953 249.52L509.47 258.244L505.599 267.107L501.352 276.088L496.735 285.174L491.76 294.337L486.433 303.566L480.763 312.837L474.763 322.132L468.444 331.433L461.816 340.719L454.895 349.971L447.698 359.172L440.24 368.297L432.532 377.33L424.595 386.251L416.444 395.038L408.091 403.676L399.559 412.142L390.864 420.425L382.028 428.504L373.07 436.361L364.005 443.982L354.853 451.352L345.639 458.449L336.376 465.26L327.084 471.773L317.787 477.976L308.501 483.856L299.247 489.404L290.044 494.605L280.912 499.453L271.87 503.933L262.937 508.036L254.129 511.76L245.464 515.094L236.96 518.039L228.634 520.588L220.501 522.738L212.58 524.484L204.886 525.824L197.431 526.753L190.234 527.275M523.267 146.733L524.254 153.199L524.821 159.984L524.961 167.072L524.672 174.454L523.953 182.116L522.805 190.042L521.233 198.217L519.234 206.626L516.814 215.251L513.973 224.074L510.715 233.083L507.039 242.258L502.958 251.58L498.479 261.028L493.61 270.585L488.362 280.232L482.745 289.947L476.766 299.71L470.438 309.499L463.773 319.295L456.783 329.077L449.484 338.825L441.894 348.518L434.026 358.135L425.9 367.656L417.53 377.059L408.934 386.322L400.128 395.428L391.133 404.358L381.968 413.089L372.652 421.609L363.208 429.894L353.655 437.933L344.012 445.701L334.302 453.188L324.541 460.372L314.755 467.239L304.963 473.782L295.187 479.983L285.442 485.832L275.756 491.321L266.144 496.431L256.631 501.157L247.233 505.483L237.971 509.409L228.86 512.927L219.921 516.033L211.172 518.723L202.628 520.989L194.31 522.831L186.23 524.245L178.409 525.226L170.857 525.777L163.587 525.901L156.614 525.6L149.949 524.881M514.246 114.509L516.116 120.494L517.559 126.83L518.574 133.506L519.153 140.511L519.288 147.836L518.979 155.467L518.223 163.391L517.024 171.59L515.383 180.049L513.301 188.75L510.778 197.68L507.82 206.816L504.427 216.148L500.604 225.653L496.359 235.314L491.7 245.108L486.638 255.017L481.18 265.02L475.338 275.092L469.123 285.219L462.546 295.374L455.617 305.54L448.351 315.692L440.766 325.81L432.877 335.873L424.701 345.858L416.256 355.743L407.562 365.507L398.629 375.129L389.483 384.587L380.137 393.863L370.617 402.933L360.943 411.785L351.138 420.395L341.217 428.748L331.206 436.821L321.127 444.601L310.999 452.066L300.843 459.207L290.681 466.006L280.538 472.453L270.432 478.537L260.388 484.242L250.421 489.557L240.559 494.47L230.82 498.972L221.221 503.055L211.785 506.717L202.527 509.948L193.467 512.748L184.623 515.112L176.013 517.033L167.654 518.509L159.564 519.536L151.757 520.117L144.244 520.256L137.04 519.953L130.157 519.214L123.607 518.042L117.402 516.438L111.554 514.409M499.462 84.5373L502.208 89.8775L504.533 95.5952L506.428 101.684L507.888 108.133L508.908 114.93L509.483 122.064L509.605 129.528L509.272 137.305L508.484 145.384L507.24 153.744L505.545 162.372L503.4 171.252L500.805 180.364L497.764 189.693L494.279 199.217L490.353 208.923L485.995 218.79L481.213 228.796L476.02 238.922L470.423 249.143L464.434 259.439L458.064 269.792L451.321 280.176L444.22 290.569L436.774 300.953L429.002 311.302L420.923 321.595L412.548 331.812L403.9 341.927L394.995 351.918L385.849 361.767L376.484 371.447L366.918 380.943L357.174 390.231L347.272 399.294L337.237 408.113L327.087 416.666L316.846 424.937L306.535 432.905L296.174 440.556L285.79 447.873L275.4 454.841L265.029 461.452L254.7 467.686L244.432 473.538L234.249 478.988L224.173 484.028L214.223 488.648L204.421 492.842L194.784 496.602L185.334 499.923L176.085 502.801L167.061 505.233L158.277 507.216L149.752 508.741L141.503 509.808L133.544 510.419L125.888 510.575L118.549 510.285L111.541 509.545L104.872 508.362L98.5564 506.74L92.6117 504.681L87.0414 502.192L81.8552 499.278M166.556 250.759L166.494 250.738L165.421 250.244L164.422 249.666L163.501 249.003L162.66 248.261L161.898 247.436L161.217 246.534L160.621 245.556L160.111 244.5L159.685 243.372L159.344 242.173L159.091 240.905L158.923 239.572L158.842 238.176L158.849 236.718L158.943 235.202L159.125 233.632L159.394 232.009L159.746 230.338L160.185 228.62L160.707 226.859L161.312 225.062L161.997 223.227L162.764 221.36L163.612 219.465L164.537 217.544L165.537 215.603L166.611 213.641L167.757 211.667L168.971 209.681L170.251 207.688L171.598 205.692L173.007 203.7L174.475 201.709L176 199.726L177.581 197.755L179.211 195.797L180.888 193.861L182.611 191.946L184.377 190.058L186.179 188.199L188.018 186.374L189.888 184.584L191.786 182.834L193.709 181.127L195.653 179.464L197.613 177.852L199.587 176.292L201.573 174.786L203.566 173.34L205.56 171.955L207.553 170.632L209.542 169.375L211.523 168.185L213.493 167.067L215.446 166.019L217.38 165.048L219.29 164.152L221.173 163.335L223.027 162.598L224.849 161.942L226.633 161.368L228.375 160.874L230.076 160.468L231.728 160.149L233.331 159.913L234.88 159.766L236.372 159.705L237.807 159.731L239.18 159.842L240.488 160.041L241.731 160.329L242.902 160.702L244.002 161.162L245.027 161.707L245.978 162.333L246.85 163.044L247.644 163.837L248.356 164.709L248.987 165.661L249.532 166.69L249.842 167.43M181.949 241.571L181.975 241.097L182.109 239.883L182.311 238.628L182.578 237.334L182.913 236.005L183.31 234.644L183.774 233.253L184.299 231.833L184.887 230.39L185.536 228.923L186.249 227.435L187.019 225.933L187.844 224.416L188.727 222.887L189.662 221.351L190.65 219.811L191.688 218.266L192.775 216.722L193.909 215.183L195.087 213.648L196.306 212.124L197.565 210.61L198.862 209.111L200.194 207.63L201.559 206.169L202.952 204.733L204.374 203.32L205.82 201.937L207.286 200.584L208.775 199.264L210.278 197.98L211.795 196.734L213.324 195.53L214.859 194.369L216.4 193.253L217.945 192.184L219.487 191.162L221.026 190.193L222.56 189.279L224.082 188.416L225.594 187.609L227.09 186.862L228.569 186.175L230.027 185.549L231.461 184.982L232.871 184.48L234.25 184.042L235.599 183.667L236.914 183.359L238.191 183.116L239.43 182.94L240.628 182.832L240.647 182.832M167.493 250.294L165.591 251.235L162.57 252.627M197.63 229.666L194.529 232.21L191.013 234.978L187.483 237.643L184.142 240.056L183.943 240.199M184.133 240.06L181.946 241.57L181.328 241.996L177.885 244.267L174.451 246.422M175.291 245.894L172.281 247.685L168.982 249.543M467.031 349.454L461.336 357.438L455.395 365.39L449.215 373.296L442.81 381.136L436.194 388.894L429.38 396.557L422.38 404.103L415.21 411.519L407.883 418.789L400.42 425.898L392.83 432.835L385.136 439.581L377.348 446.124L369.487 452.451L361.568 458.545L353.604 464.395L345.615 469.989M230.598 196.286L230.294 196.648L227.624 199.862L224.563 203.403L221.418 206.903L218.193 210.357L214.898 213.757L211.536 217.096L208.115 220.368L204.644 223.565L201.129 226.682L197.624 229.67L197.576 229.711M240.784 182.66L240.667 182.828L240.256 183.414L238.297 186.202L235.698 189.741L232.993 193.268L230.295 196.645M244.669 176.674L244.421 177.065L242.473 180.113L240.652 182.831L240.26 183.415M247.9 171.15L247.582 171.7L245.996 174.461L244.418 177.067M251.169 164.614L249.862 167.372M251.713 163.336L251.489 163.841L250.819 165.373M160.936 253.192L159.301 253.701L159.079 253.77M161.541 252.976L161.432 253.016L161.43 253.018L161.102 253.13L161.08 253.139L160.943 253.187L160.628 253.296L159.611 253.654M161.426 253.019L161.123 253.073M162.563 252.578L161.543 252.972L161.454 253.008L161.452 253.007L161.238 253.091L161.207 253.103L161.18 253.113L161.076 253.154L161.053 253.164L161.048 253.166L161.036 253.171L160.367 253.429M164.022 251.96L162.569 252.578L162.049 252.797L161.954 252.838L161.625 252.979L161.622 252.979L161.461 253.047L161.431 253.06L161.426 253.062L161.418 253.067L161.356 253.092M342.459 72.7512L342.025 78.2073L341.273 83.8721L340.201 89.7341L338.816 95.7832L337.118 102.006L335.109 108.391L332.79 114.928L330.165 121.601L327.238 128.401L324.015 135.311L320.502 142.319L316.707 149.41L312.635 156.572L308.297 163.786L303.701 171.039L298.853 178.316L293.761 185.604L288.436 192.887L282.89 200.148L277.137 207.375L271.188 214.551L265.054 221.661L258.747 228.691L252.279 235.626L245.666 242.451L238.918 249.149L232.053 255.713L225.084 262.125L218.025 268.373L210.891 274.444L203.699 280.324L196.46 286.002L189.194 291.466L181.911 296.702L174.628 301.706L167.359 306.463L160.121 310.968L152.929 315.212L145.795 319.182L138.739 322.873L131.77 326.277L124.903 329.387L118.153 332.198L111.533 334.711L105.053 336.917L98.729 338.812L92.5721 340.397L86.596 341.663L80.8102 342.612L75.2282 343.241L69.8583 343.553L64.7085 343.548L59.7875 343.228L55.1082 342.597L50.6756 341.653L46.5016 340.397L42.5909 338.835L38.9518 336.972L35.5861 334.812L32.5019 332.364L29.701 329.629L27.1916 326.62L24.9736 323.335L23.0539 319.789L21.4357 315.981L20.1188 311.924L19.1034 307.626L18.3912 303.097L17.9804 298.35L17.8711 293.391L18.0632 288.226L18.5569 282.873L19.3503 277.332L20.4418 271.623L21.8282 265.751L23.5011 259.732L25.4574 253.575L27.695 247.292L30.2094 240.895L32.9939 234.394L36.0465 227.803L39.3593 221.131L42.9255 214.392L46.7368 207.599L50.785 200.761L55.0651 193.894L59.5654 187.008L64.2828 180.118L69.2073 173.229L74.3304 166.36L79.6408 159.519L85.1317 152.72L90.7882 145.973L96.6055 139.291L102.568 132.686L108.672 126.168L114.903 119.751L121.252 113.442L127.707 107.255L134.258 101.201L140.89 95.2879L147.594 89.5254L154.358 83.9268L161.171 78.5021L168.022 73.2614L174.896 68.2128L181.783 63.3628L188.674 58.725L195.551 54.3024L202.405 50.1052L209.223 46.1432L215.992 42.4212L222.704 38.9528L229.343 35.7394L235.899 32.7877L242.359 30.1011L248.711 27.6878L254.947 25.5526L261.051 23.6991L267.012 22.1339L272.818 20.8635L278.461 19.8878L283.927 19.2087L289.209 18.8294L294.296 18.7482L299.179 18.9669L303.843 19.4903L308.281 20.3169L312.485 21.4499L316.442 22.886L320.149 24.6217L323.597 26.6557L326.779 28.983L329.688 31.6001L332.317 34.5071L334.654 37.6989L336.699 41.1723L338.443 44.9208L339.888 48.9359L341.024 53.2092L341.854 57.7362L342.372 62.5081L342.573 67.5154L342.459 72.7512ZM320.389 80.3457L319.979 85.2087L319.285 90.259L318.311 95.4832L317.057 100.871L315.524 106.412L313.717 112.098L311.637 117.916L309.283 123.854L306.665 129.901L303.782 136.05L300.644 142.283L297.255 148.587L293.622 154.952L289.756 161.366L285.658 167.812L281.339 174.279L276.805 180.754L272.066 187.225L267.132 193.677L262.014 200.097L257.245 205.843L256.723 206.474L251.269 212.79L245.662 219.036L239.914 225.198L234.036 231.262L228.041 237.216L221.941 243.048L215.749 248.746L209.478 254.302L203.139 259.7L196.749 264.931L190.319 269.983L183.862 274.843L177.391 279.505L170.918 283.961L164.459 288.2L158.026 292.215L151.632 295.998L145.292 299.543L139.016 302.837L132.819 305.88L126.711 308.663L120.705 311.18L114.813 313.431L109.045 315.412L103.414 317.122L97.9309 318.55L92.6057 319.701L87.451 320.565L82.4753 321.148L77.685 321.45L73.0902 321.47L68.7008 321.208L64.5217 320.67L60.563 319.855L56.8312 318.763L53.3345 317.397L50.0781 315.76L47.0685 313.86L44.3057 311.7L41.7945 309.289L39.5403 306.627L37.5476 303.723L35.82 300.581L34.3623 297.205L33.1731 293.608L32.2522 289.795L31.6012 285.775L31.2202 281.554L31.1076 277.145L31.2649 272.552L31.6923 267.788L32.388 262.855L33.3487 257.77L34.5744 252.54L36.0568 247.175L37.7944 241.684L39.7821 236.082L42.0182 230.374L44.4978 224.575L47.2175 218.688L50.1726 212.732L53.3511 206.714L56.7534 200.645L60.3659 194.535L64.1855 188.399L68.2072 182.244L72.421 176.083L76.822 169.926L81.4002 163.784L86.1491 157.667L91.0553 151.585L96.1156 145.551L101.317 139.574L106.65 133.664L112.11 127.834L117.683 122.095L123.363 116.451L129.137 110.919L134.996 105.504L140.929 100.214L146.925 95.0625L152.974 90.0569L159.068 85.2054L165.193 80.5211L171.338 76.0092L177.498 71.6778L183.655 67.5319L189.802 63.5846L195.926 59.8363L202.019 56.3L208.065 52.9805L214.058 49.8865L219.986 47.0226L225.837 44.3955L231.601 42.0037L237.269 39.8571L242.829 37.9606L248.271 36.3157L253.584 34.9309L258.755 33.8081L263.781 32.9501L268.647 32.3569L273.346 32.0307L277.87 31.9726L282.208 32.183L286.354 32.6651L290.295 33.4187L294.023 34.4439L297.533 35.741L300.818 37.3029L303.869 39.1315L306.683 41.2202L309.252 43.5707L311.571 46.1745L313.631 49.0335L315.428 52.1425L316.959 55.4949L318.22 59.0843L319.207 62.9039L319.921 66.9471L320.358 71.2074L320.515 75.6747L320.389 80.3457ZM300.444 91.0324L300.068 95.2876L299.445 99.7035L298.576 104.27L297.464 108.979L296.113 113.819L294.521 118.783L292.691 123.863L290.625 129.046L288.329 134.324L285.802 139.687L283.056 145.123L280.091 150.622L276.917 156.171L273.536 161.761L269.959 167.38L266.187 173.017L262.23 178.656L258.096 184.295L253.792 189.917L249.328 195.51L244.715 201.064L239.961 206.567L235.075 212.009L230.066 217.376L224.946 222.658L219.722 227.846L214.407 232.926L209.012 237.894L203.551 242.735L198.03 247.441L192.463 252.001L186.861 256.407L181.233 260.647L175.595 264.715L169.956 268.604L164.328 272.305L158.719 275.813L153.146 279.121L147.618 282.22L142.144 285.104L136.738 287.767L131.411 290.205L126.17 292.415L121.025 294.393L115.99 296.135L111.072 297.641L106.28 298.905L101.627 299.923L97.1203 300.697L92.769 301.225L88.5767 301.505L84.555 301.542L80.7106 301.335L77.05 300.884L73.5798 300.19L70.3069 299.256L67.2375 298.081L64.3786 296.67L61.7317 295.03L59.3002 293.162L57.0906 291.072L55.1046 288.764L53.3471 286.242L51.82 283.512L50.5263 280.578L49.4712 277.446L48.6496 274.127L48.0633 270.622L47.7122 266.945L47.5995 263.099L47.7204 259.092L48.0799 254.933L48.6745 250.625L49.5027 246.182L50.5611 241.609L51.8465 236.918L53.3571 232.118L55.0863 227.215L57.0342 222.219L59.1975 217.141L61.5728 211.989L64.15 206.772L66.9311 201.5L69.9043 196.181L73.0664 190.829L76.409 185.449L79.9287 180.055L83.6191 174.651L87.4752 169.252L91.487 163.865L95.6495 158.5L99.9511 153.165L104.385 147.873L108.947 142.629L113.624 137.447L118.413 132.331L123.301 127.297L128.283 122.348L133.349 117.495L138.488 112.743L143.693 108.105L148.952 103.588L154.26 99.1999L159.602 94.948L164.976 90.8436L170.367 86.8897L175.765 83.095L181.163 79.4658L186.553 76.0074L191.922 72.7293L197.26 69.6369L202.559 66.7332L207.808 64.0318L212.999 61.5306L218.122 59.2365L223.167 57.1528L228.127 55.2844L232.991 53.6329L237.75 52.2068L242.393 51.006L246.915 50.0353L251.303 49.2982L255.553 48.7947L259.656 48.5247L263.601 48.4883L267.385 48.6903L270.999 49.1276L274.431 49.8033L277.676 50.716L280.73 51.8656L283.586 53.2504L286.236 54.8635L288.679 56.7073L290.905 58.7777L292.913 61.0701L294.695 63.5846L296.247 66.3158L297.564 69.2592L298.645 72.408L299.49 75.7572L300.093 79.3019L300.454 83.032L300.573 86.9445L300.444 91.0324ZM283.271 104.447L282.934 108.093L282.388 111.876L281.634 115.787L280.673 119.815L279.507 123.959L278.136 128.206L276.564 132.547L274.79 136.978L272.82 141.489L270.654 146.07L268.3 150.713L265.764 155.409L263.048 160.146L260.157 164.918L257.098 169.713L253.876 174.522L251.125 178.442L250.496 179.337L246.966 184.145L243.291 188.94L239.482 193.713L235.545 198.448L231.49 203.142L227.321 207.782L223.048 212.36L218.68 216.867L214.224 221.29L209.693 225.626L205.091 229.863L200.432 233.992L195.724 238.007L190.974 241.9L186.197 245.66L181.397 249.281L177.59 252.03L177.56 252.053L176.586 252.756L171.775 256.077L166.971 259.241L162.186 262.24L157.427 265.068L152.708 267.72L148.034 270.188L143.416 272.47L138.862 274.559L134.384 276.457L129.986 278.155L125.679 279.656L121.474 280.952L117.374 282.044L113.391 282.927L109.53 283.601L105.801 284.063L102.21 284.318L98.7614 284.361L95.4619 284.199L92.3214 283.828L89.34 283.248L86.5257 282.465L83.8887 281.474L81.429 280.283L79.1482 278.894L77.0529 277.308L75.1464 275.534L73.4304 273.573L71.9082 271.428L70.5847 269.101L69.4617 266.603L68.5408 263.933L67.8203 261.099L67.3018 258.109L66.9855 254.967L66.8727 251.681L66.9623 248.255L67.2554 244.699L67.749 241.015L68.4447 237.212L69.3391 233.297L70.4274 229.28L71.7094 225.169L73.1819 220.967L74.8417 216.686L76.6869 212.334L78.7142 207.914L80.9172 203.439L83.2941 198.915L85.8384 194.354L88.5448 189.759L91.4087 185.142L94.4234 180.511L97.587 175.873L100.893 171.235L104.334 166.609L107.903 162.003L111.597 157.421L115.401 152.874L119.317 148.372L123.332 143.92L127.443 139.527L131.642 135.203L135.921 130.954L140.27 126.787L144.685 122.707L149.155 118.727L153.672 114.849L158.229 111.084L162.819 107.435L167.432 103.912L172.06 100.523L176.697 97.2699L181.332 94.1592L185.957 91.1976L190.565 88.3916L195.144 85.7431L199.691 83.2602L204.195 80.9495L208.647 78.8129L213.04 76.8549L217.365 75.0777L221.615 73.4876L225.783 72.0829L229.859 70.8721L233.836 69.8568L237.707 69.0401L241.462 68.4223L245.096 68.005L248.603 67.788L251.975 67.7748L255.208 67.9636L258.292 68.3545L261.222 68.9491L263.992 69.7474L266.592 70.7479L269.026 71.9488L271.283 73.3485L273.36 74.9419L275.254 76.7291L276.956 78.7068L278.467 80.8733L279.779 83.2254L280.892 85.7563L281.801 88.4646L282.509 91.3417L283.01 94.3844L283.307 97.5863L283.393 100.942L283.271 104.447ZM269.377 120.161L269.089 123.219L268.623 126.387L267.984 129.66L267.174 133.034L266.193 136.5L265.041 140.051L263.722 143.682L262.235 147.385L260.583 151.154L258.771 154.98L256.803 158.859L254.682 162.78L252.411 166.734L251.185 168.758L249.996 170.715L247.442 174.717L244.752 178.729L241.931 182.746L238.984 186.756L235.92 190.754L232.743 194.733L229.458 198.683L226.076 202.596L222.599 206.467L219.038 210.283L215.396 214.038L211.68 217.727L207.902 221.343L204.066 224.874L200.18 228.319L196.254 231.669L192.296 234.915L188.31 238.052L184.307 241.072L180.297 243.972L176.282 246.745L172.273 249.385L168.28 251.891L167.924 252.102L167.905 252.113L167.897 252.118L164.31 254.255L160.369 256.469L156.465 258.535L152.609 260.443L148.804 262.194L145.062 263.782L141.387 265.209L137.786 266.467L134.266 267.556L130.836 268.475L127.502 269.222L124.27 269.793L121.144 270.189L118.135 270.41L115.244 270.458L112.476 270.33L109.838 270.03L107.333 269.557L104.971 268.911L102.752 268.092L100.68 267.107L98.7584 265.954L96.9925 264.639L95.3826 263.161L93.9316 261.531L92.6447 259.744L91.5199 257.808L90.5642 255.722L89.7791 253.496L89.1596 251.131L88.7107 248.635L88.4324 246.011L88.3231 243.265L88.3844 240.401L88.6129 237.426L89.0155 234.344L89.5836 231.162L90.3207 227.884L91.2201 224.52L92.2835 221.074L93.506 217.556L94.8873 213.968L96.4228 210.319L98.1139 206.614L99.9541 202.862L101.939 199.069L104.064 195.241L106.328 191.387L108.725 187.513L111.247 183.625L113.898 179.733L116.665 175.842L119.551 171.959L122.544 168.092L125.638 164.246L128.83 160.431L132.114 156.649L135.484 152.913L138.932 149.226L142.455 145.596L146.046 142.029L149.699 138.532L153.402 135.11L157.156 131.771L160.947 128.519L164.773 125.359L168.626 122.301L172.499 119.349L176.383 116.509L180.274 113.784L184.163 111.18L188.045 108.702L191.911 106.353L195.754 104.137L199.567 102.063L203.344 100.135L207.077 98.3532L210.759 96.7216L214.385 95.2424L217.946 93.9174L221.436 92.7529L224.852 91.7492L228.181 90.911L231.419 90.2402L234.563 89.7367L237.603 89.4004L240.536 89.2332L243.355 89.2364L246.057 89.4071L248.633 89.75L251.077 90.2634L253.388 90.9475L255.559 91.8006L257.587 92.8209L259.465 94.0069L261.196 95.3568L262.771 96.8658L264.186 98.5353L265.438 100.361L266.528 102.342L267.449 104.472L268.199 106.749L268.781 109.166L269.19 111.722L269.427 114.41L269.49 117.223L269.377 120.161Z" stroke="url(#paint0_angular_73_634)" stroke-width="2" stroke-miterlimit="10" stroke-linecap="round" stroke-linejoin="round"/>
<defs>
<radialGradient id="paint0_angular_73_634" cx="0" cy="0" r="1" gradientUnits="userSpaceOnUse" gradientTransform="translate(263.84 264.714) rotate(90) scale(262.718 262.667)">
<stop offset="0.0993526" stop-color="#FFC876"/>
<stop offset="0.427081" stop-color="#79FFF7"/>
<stop offset="0.718753" stop-color="#9F53FF"/>
<stop offset="1" stop-color="#FF98E2"/>
</radialGradient>
</defs>
</svg>
