<svg width="17" height="16" viewBox="0 0 17 16" fill="none" xmlns="http://www.w3.org/2000/svg">
<g id="loading-01">
<g id="Solid">
<path fill-rule="evenodd" clip-rule="evenodd" d="M8.21745 0.833008C8.58564 0.833008 8.88411 1.13148 8.88411 1.49967V3.16634C8.88411 3.53453 8.58564 3.83301 8.21745 3.83301C7.84926 3.83301 7.55078 3.53453 7.55078 3.16634V1.49967C7.55078 1.13148 7.84926 0.833008 8.21745 0.833008Z" fill="black"/>
<path fill-rule="evenodd" clip-rule="evenodd" d="M8.21745 11.333C8.58564 11.333 8.88411 11.6315 8.88411 11.9997V14.6663C8.88411 15.0345 8.58564 15.333 8.21745 15.333C7.84926 15.333 7.55078 15.0345 7.55078 14.6663V11.9997C7.55078 11.6315 7.84926 11.333 8.21745 11.333Z" fill="black"/>
<path fill-rule="evenodd" clip-rule="evenodd" d="M1.05078 7.99967C1.05078 7.63148 1.34926 7.33301 1.71745 7.33301H4.05078C4.41897 7.33301 4.71745 7.63148 4.71745 7.99967C4.71745 8.36786 4.41897 8.66634 4.05078 8.66634H1.71745C1.34926 8.66634 1.05078 8.36786 1.05078 7.99967Z" fill="black"/>
<path fill-rule="evenodd" clip-rule="evenodd" d="M12.7174 7.99967C12.7174 7.63148 13.0159 7.33301 13.3841 7.33301H14.3841C14.7523 7.33301 15.0508 7.63148 15.0508 7.99967C15.0508 8.36786 14.7523 8.66634 14.3841 8.66634H13.3841C13.0159 8.66634 12.7174 8.36786 12.7174 7.99967Z" fill="black"/>
<path fill-rule="evenodd" clip-rule="evenodd" d="M11.5794 11.3616C11.8397 11.1013 12.2618 11.1013 12.5222 11.3616L12.9936 11.833C13.2539 12.0934 13.2539 12.5155 12.9936 12.7758C12.7332 13.0362 12.3111 13.0362 12.0508 12.7758L11.5794 12.3044C11.319 12.0441 11.319 11.622 11.5794 11.3616Z" fill="black"/>
<path fill-rule="evenodd" clip-rule="evenodd" d="M13.1317 3.13879C13.392 3.39914 13.392 3.82125 13.1317 4.0816L12.1889 5.02441C11.9285 5.28476 11.5064 5.28476 11.246 5.02441C10.9857 4.76406 10.9857 4.34195 11.246 4.0816L12.1889 3.13879C12.4492 2.87844 12.8713 2.87844 13.1317 3.13879Z" fill="black"/>
<path fill-rule="evenodd" clip-rule="evenodd" d="M5.85552 10.3616C6.11587 10.622 6.11587 11.0441 5.85552 11.3044L3.9699 13.19C3.70955 13.4504 3.28744 13.4504 3.02709 13.19C2.76674 12.9297 2.76674 12.5076 3.02709 12.2472L4.91271 10.3616C5.17306 10.1013 5.59517 10.1013 5.85552 10.3616Z" fill="black"/>
<path fill-rule="evenodd" clip-rule="evenodd" d="M3.16516 3.00072C3.42551 2.74037 3.84762 2.74037 4.10797 3.00072L5.52219 4.41494C5.78254 4.67529 5.78254 5.0974 5.52219 5.35775C5.26184 5.6181 4.83973 5.6181 4.57938 5.35775L3.16516 3.94353C2.90481 3.68318 2.90481 3.26107 3.16516 3.00072Z" fill="black"/>
</g>
</g>
</svg>
