<svg width="35" height="35" viewBox="0 0 35 35" fill="none" xmlns="http://www.w3.org/2000/svg">
<rect width="35" height="35" rx="12" fill="#AC6AFF"/>
<path d="M26.2399 13.3939L26.2359 10.5701L21.025 7.16406V9.34243L24.4621 11.6055L24.4647 13.3401L22.868 14.4212L21.7787 13.6265V12.2805L20.0036 11.0663V13.5163L17.1897 15.2428L17.1844 19.804L15.1948 20.9241L14.1734 20.124V18.8035L15.3826 17.9752V17.9644V15.9206L13.2066 17.3768L11.5433 16.2944L10.0238 17.2894L12.3982 18.9151V19.9129L10.687 21.0706L8.94116 19.8887V15.9555L11.5326 14.2007L11.5353 12.5132L14.8592 14.6539L17.6531 12.7942L15.9499 11.8005L14.8352 12.5522L12.4076 10.9466L15.1455 9.35049L17.5173 10.7409V8.6674L15.1482 7.27836L9.76282 10.4182L9.75883 13.2433L7.16602 14.9995V20.8447L9.75883 22.6009L9.76282 25.426L14.9737 28.8307V26.6537L11.5366 24.3906L11.534 22.656L13.1307 21.5749L14.22 22.3696V23.7156L15.9951 24.9298V22.4799L18.849 20.7533L18.8809 16.1922L20.8039 15.0721L21.8253 15.8721V17.1926L20.6161 18.0209V18.0317V20.0756L22.7921 18.6193L24.4554 19.7018L25.9749 18.7067L23.6005 17.0797V16.0833L25.3117 14.9255L27.0575 16.1075V20.0406L24.4661 21.7954L24.4634 23.483L21.1395 21.3409L18.3456 23.1885L20.0488 24.1809L21.1635 23.444L23.5911 25.0495L20.8532 26.6456L18.4814 25.2552V27.3274L20.8505 28.7164L26.2359 25.578L26.2399 22.7528L28.8327 20.9967V15.1501L26.2399 13.3939Z" fill="white"/>
</svg>
