<svg width="229" height="251" viewBox="0 0 229 251" fill="none" xmlns="http://www.w3.org/2000/svg">
<path d="M98.9205 135.225C107.63 130.197 114.671 118.001 114.642 107.985L114.378 14.5291C114.349 4.5137 107.262 0.47496 98.5526 5.50331L17.2142 52.464C8.50497 57.4924 1.4637 69.6881 1.49227 79.7035L1.75717 162.48C1.78549 172.496 8.87264 176.534 17.5819 171.506L98.9205 135.225Z" fill="black"/>
<path d="M130.785 134.804C122.075 129.776 115.034 117.58 115.063 107.565L115.327 14.1082C115.356 4.09281 122.443 0.0540693 131.152 5.0824L149.673 15.6943V19.1541L182.969 39.4651L186.807 37.2147L212.491 52.0431C221.2 57.0715 228.241 69.2672 228.213 79.2826L227.948 162.059C227.92 172.075 220.833 176.114 212.123 171.085L130.785 134.804Z" fill="black"/>
<path d="M130.715 112.448H101.109V145.679H130.715V112.448Z" fill="black"/>
<path d="M211.387 182.235L130.056 135.278C121.34 130.246 107.257 130.246 98.5977 135.278L17.7947 182.236C9.13532 187.268 9.18121 195.425 17.8973 200.457L99.2291 247.414C105.62 251.104 115.882 251.423 121.988 250.287C124.881 249.749 125.888 249.188 126.675 248.951L130.438 247.376L211.49 200.456C220.149 195.424 220.104 187.267 211.387 182.235Z" fill="black"/>
<path d="M98.9205 117.068C107.63 122.096 114.671 134.292 114.642 144.307L114.378 237.763C114.349 247.779 107.262 251.818 98.5526 246.789L17.2142 199.828C8.50497 194.8 1.4637 182.604 1.49227 172.589L1.75717 79.1326C1.78549 69.1172 8.87265 65.0785 17.5821 70.1068L98.9205 117.068Z" fill="white" stroke="black" stroke-miterlimit="10"/>
<path d="M91.773 124.307C98.9586 128.456 104.768 138.518 104.744 146.781L104.526 223.886C104.503 232.149 98.6553 235.481 91.4696 231.333L24.3621 192.588C17.1766 188.44 11.3673 178.378 11.3907 170.115L11.6092 93.0091C11.6326 84.746 17.4798 81.4139 24.6654 85.5625L91.773 124.307Z" fill="#308BAF" stroke="black" stroke-miterlimit="10"/>
<path d="M91.772 124.307L24.6643 85.5622C23.1792 84.7048 21.7571 84.1842 20.426 83.9434C19.0313 85.6337 18.0916 87.8994 17.4959 89.9105C16.0418 94.8206 14.7661 104.723 14.3406 126.995C13.9119 149.436 15.2769 160.127 16.3606 167.268C18.0835 178.619 23.0837 184.408 25.9255 187.198C29.4546 190.661 39.4275 198.662 58.0664 209.226C87.3657 225.832 100.994 229.01 100.994 229.01C101.785 229.293 102.496 229.528 103.149 229.724C104.015 228.223 104.518 226.267 104.525 223.886L104.743 146.781C104.767 138.517 98.9578 128.455 91.772 124.307Z" fill="black"/>
<path d="M130.365 117.068C121.655 122.096 114.614 134.292 114.643 144.307L114.908 237.763C114.936 247.779 122.023 251.818 130.733 246.789L212.071 199.828C220.78 194.8 227.821 182.604 227.793 172.589L227.528 79.1326C227.5 69.1172 220.412 65.0785 211.703 70.1068L130.365 117.068Z" fill="url(#paint0_linear_431_11246)" stroke="black" stroke-miterlimit="10"/>
<path d="M211.387 51.399L130.056 4.44211C121.34 -0.5901 107.257 -0.590098 98.5977 4.44223L17.7947 51.3999C9.13532 56.4321 9.18121 64.5892 17.8973 69.6214L99.2291 116.578C107.945 121.611 122.027 121.61 130.687 116.578L211.49 69.6205C220.149 64.5882 220.104 56.4312 211.387 51.399Z" fill="#308BAF" stroke="black" stroke-miterlimit="10"/>
<path d="M183.112 40.8192L140.708 16.3369C136.163 13.7132 128.821 13.7132 124.306 16.337L82.1772 40.8197C77.6623 43.4434 77.6862 47.6963 82.2307 50.32L124.635 74.8023C129.18 77.426 136.522 77.426 141.037 74.8022L183.166 50.3195C187.681 47.6958 187.657 43.4429 183.112 40.8192Z" fill="url(#paint1_linear_431_11246)" stroke="black" stroke-miterlimit="10"/>
<path d="M82.1784 43.736L124.307 19.2532C128.822 16.6295 136.164 16.6295 140.709 19.2532L183.113 43.7356C184.747 44.679 185.787 45.8339 186.251 47.047C187.081 44.8754 186.041 42.5098 183.113 40.8192L140.709 16.3369C136.164 13.7132 128.822 13.7132 124.307 16.3369L82.1784 40.8197C79.2868 42.5 78.2668 44.8477 79.0939 47.0086C79.5519 45.8098 80.5724 44.6692 82.1784 43.736Z" fill="black"/>
<path d="M177.788 86.4863L51.1738 86.4864L65.5586 94.7915L163.497 94.7914L177.788 86.4863Z" fill="white"/>
<path d="M80.9873 103.699L99.6531 114.476C107.958 119.27 121.375 119.27 129.625 114.476L148.169 103.699L80.9873 103.699Z" fill="white"/>
<path d="M32.2676 42.9079C35.3206 41.5539 39.3357 41.9788 43.7283 44.515L132.596 95.823C142.112 101.317 149.805 114.642 149.774 125.584L149.485 227.692C149.468 233.603 147.201 237.608 143.62 239.176" stroke="black" stroke-miterlimit="10"/>
<path d="M146.738 236.968C150.319 235.4 151.183 232.23 151.199 226.32L151.489 124.212C151.52 113.269 143.827 99.9445 134.312 94.4507L45.4434 43.1426C41.0505 40.6065 37.5613 40.3326 34.5083 41.6866L32.2676 42.9079C32.2676 42.9079 34.7881 41.9181 37.9478 42.1523C41.1074 42.3865 49.9348 48.0983 49.9348 48.0983C49.9348 48.0983 126.235 92.0042 132.596 95.823C138.958 99.6419 143.292 105.014 145.532 110.048C147.772 115.082 149.271 118.021 149.764 124.916C150.256 131.812 149.774 152.589 149.774 152.589L149.49 225.738C149.49 225.738 149.952 230.738 148.587 233.447C147.221 236.157 146.305 237.545 143.62 239.176C140.936 240.807 146.738 236.968 146.738 236.968Z" fill="black"/>
<path d="M43.8547 139.325L43.8459 142.43L38.3843 139.277L38.3931 136.172L43.8547 139.325Z" fill="#88E5BE"/>
<path d="M57.0454 137.963L59.748 139.523L59.7227 148.486L57.02 146.926L57.0374 140.817L54.3347 139.257L54.3174 145.366L51.6147 143.805L51.623 140.872L38.4014 133.239L38.3931 136.172L35.6904 134.611L35.7078 128.503L33.0051 126.942L32.9878 133.051L30.2852 131.49L30.3105 122.528L33.0132 124.088L33.0222 120.983L35.7249 122.543L35.7336 119.437L38.436 120.998L38.4448 117.892L41.1475 119.453L41.1389 122.491L48.9531 127.002L48.9617 123.964L51.6667 125.526L51.658 128.564L54.3606 130.192L54.3518 133.297L57.0542 134.857L57.0454 137.963ZM51.6401 134.91L51.6492 131.669L48.9443 130.108L48.9351 133.348L51.6401 134.91ZM41.1208 128.837L41.1301 125.596L38.4275 124.036L38.4182 127.276L41.1208 128.837Z" fill="#88E5BE"/>
<path d="M38.4536 114.784L38.4448 117.892L35.7424 116.332L35.7512 113.224L38.4536 114.784Z" fill="#88E5BE"/>
<path d="M54.3782 123.978L54.3694 127.086L51.6667 125.526L51.6755 122.418L54.3782 123.978Z" fill="#88E5BE"/>
<path d="M51.6147 143.805L51.606 146.911L46.1418 143.756L46.1509 140.65L51.6147 143.805Z" fill="#88E5BE"/>
<path d="M74.2354 182.494L74.2266 185.599L68.7649 182.446L68.7737 179.34L74.2354 182.494Z" fill="#88E5BE"/>
<path d="M87.426 181.132L90.1289 182.692L90.1033 191.655L87.4006 190.095L87.418 183.986L84.7156 182.426L84.6982 188.534L81.9956 186.974L82.0039 184.041L68.782 176.408L68.7737 179.34L66.0713 177.78L66.0886 171.672L63.386 170.111L63.3687 176.22L60.666 174.659L60.6914 165.697L63.394 167.257L63.4028 164.151L66.1055 165.712L66.1143 162.606L68.8169 164.167L68.8257 161.061L71.5283 162.621L71.5195 165.659L79.3337 170.171L79.3425 167.133L82.0474 168.695L82.0388 171.733L84.7412 173.361L84.7324 176.466L87.4351 178.026L87.426 181.132ZM82.0208 178.079L82.03 174.838L79.325 173.276L79.3159 176.517L82.0208 178.079ZM71.5017 172.006L71.5107 168.765L68.8081 167.205L68.7991 170.445L71.5017 172.006Z" fill="#88E5BE"/>
<path d="M68.8345 157.953L68.8257 161.061L66.123 159.501L66.1318 156.393L68.8345 157.953Z" fill="#88E5BE"/>
<path d="M84.7588 167.147L84.75 170.255L82.0474 168.695L82.0562 165.586L84.7588 167.147Z" fill="#88E5BE"/>
<path d="M81.9956 186.974L81.9868 190.08L76.5227 186.925L76.5315 183.819L81.9956 186.974Z" fill="#88E5BE"/>
<path d="M81.5627 228.764C81.3733 228.655 81.2021 228.645 81.0786 228.717C80.9548 228.789 80.2742 229.077 80.2734 229.295L80.8755 229.974L80.8684 232.45C80.8672 232.88 81.1697 233.41 81.5491 233.629L89.8347 239.207C90.0244 239.316 90.5857 238.758 90.7107 238.687C90.8357 238.617 90.9133 238.465 90.9141 238.25L90.9233 234.96C90.9246 234.525 90.6172 233.992 90.2375 233.773L81.5627 228.764Z" fill="black" stroke="black" stroke-miterlimit="10"/>
<path d="M80.8623 229.243C80.4832 229.024 80.1787 229.203 80.1775 229.639L80.168 232.929C80.1668 233.359 80.4692 233.889 80.8486 234.108L89.5234 239.116C89.9028 239.335 90.2124 239.159 90.2136 238.729L90.2229 235.439C90.2241 235.003 89.9168 234.47 89.5371 234.251L80.8623 229.243Z" fill="#308BAF" stroke="black" stroke-miterlimit="10"/>
<path d="M141.252 195.058C141.834 194.722 142.308 194.991 142.31 195.66L142.333 229.071C142.335 229.74 141.865 230.555 141.282 230.891L125.796 239.832C125.214 240.168 124.74 239.898 124.738 239.229L124.715 205.819C124.713 205.15 125.183 204.335 125.766 203.999L141.252 195.058Z" fill="url(#paint2_linear_431_11246)" stroke="black" stroke-miterlimit="10"/>
<path d="M139.285 217.366L138.216 216.708C137.996 216.465 137.627 216.434 137.209 216.677L128.768 221.55C128.091 221.94 127.55 222.885 127.553 223.662L127.58 233.354C127.581 233.752 127.726 234.027 127.957 234.151L128.829 234.695L130.233 233.233L137.244 229.185C137.92 228.794 138.461 227.85 138.459 227.073L138.436 218.855L139.285 217.366Z" fill="black" stroke="black" stroke-miterlimit="10"/>
<path d="M138.486 217.476C139.163 217.085 139.707 217.403 139.709 218.18L139.737 227.872C139.739 228.649 139.198 229.594 138.521 229.985L130.081 234.858C129.404 235.248 128.86 234.931 128.857 234.153L128.83 224.462C128.828 223.684 129.368 222.74 130.045 222.349L138.486 217.476Z" fill="#88E5BE" stroke="black" stroke-miterlimit="10" stroke-linejoin="round"/>
<path d="M134.28 224.317C135.167 223.804 135.891 224.217 135.894 225.237C135.897 226.257 135.178 227.502 134.29 228.014C133.396 228.531 132.673 228.118 132.67 227.098C132.667 226.078 133.386 224.833 134.28 224.317Z" fill="black"/>
<path d="M139.285 200.807L138.216 200.148C137.996 199.905 137.627 199.875 137.209 200.117L128.768 204.99C128.091 205.381 127.55 206.325 127.553 207.103L127.58 216.794C127.581 217.193 127.726 217.468 127.957 217.591L128.829 218.136L130.233 216.673L137.244 212.626C137.92 212.235 138.461 211.291 138.459 210.513L138.436 202.295L139.285 200.807Z" fill="black" stroke="black" stroke-miterlimit="10"/>
<path d="M138.486 200.917C139.163 200.527 139.707 200.844 139.709 201.622L139.737 211.313C139.739 212.091 139.198 213.035 138.521 213.426L130.081 218.299C129.404 218.69 128.86 218.372 128.857 217.595L128.83 207.903C128.828 207.125 129.368 206.181 130.045 205.79L138.486 200.917Z" fill="#308BAF" stroke="black" stroke-miterlimit="10"/>
<path d="M24.0203 172.885C22.9368 165.744 21.5716 155.053 22.0003 132.612C22.426 110.34 23.7014 100.437 25.1555 95.5272C25.6702 93.7894 26.4622 91.8834 27.5623 90.3009L22.1267 87.123C21.7102 88.0541 21.3611 89.0066 21.0935 89.9102C19.6394 94.8202 18.364 104.723 17.9383 126.995C17.5095 149.436 18.8743 160.127 19.9583 167.268C20.8318 173.023 22.5486 177.344 24.3987 180.573C25.138 181.25 25.9046 181.894 26.6477 182.487C25.5423 179.84 24.5965 176.679 24.0203 172.885Z" fill="url(#paint3_linear_431_11246)"/>
<path d="M227.803 159.815L227.814 163.485L187.497 186.762C186.613 187.272 185.897 186.865 185.895 185.849C185.892 184.837 186.602 183.602 187.486 183.092L227.803 159.815Z" fill="black"/>
<path d="M227.803 150.671L227.814 154.341L187.497 177.618C186.613 178.129 185.897 177.721 185.895 176.705C185.892 175.694 186.602 174.459 187.486 173.949L227.803 150.671Z" fill="black"/>
<path d="M227.803 141.535L227.814 145.205L187.497 168.482C186.613 168.992 185.897 168.585 185.895 167.569C185.892 166.558 186.602 165.323 187.486 164.812L227.803 141.535Z" fill="black"/>
<path d="M227.803 132.438L227.814 136.108L187.497 159.385C186.613 159.895 185.897 159.488 185.895 158.472C185.892 157.461 186.602 156.226 187.486 155.715L227.803 132.438Z" fill="black"/>
<path d="M227.803 123.302L227.814 126.971L187.497 150.249C186.613 150.759 185.897 150.351 185.895 149.336C185.892 148.324 186.602 147.089 187.486 146.579L227.803 123.302Z" fill="black"/>
<path d="M144.479 21.6876C144.985 21.6831 145.391 21.2645 145.387 20.7534C145.382 20.2421 144.969 19.8312 144.463 19.8357C143.957 19.8403 143.551 20.2584 143.555 20.7697C143.56 21.2808 143.974 21.6921 144.479 21.6876Z" fill="black"/>
<path d="M136.62 19.1133C137.126 19.1088 137.532 18.6907 137.527 18.1791C137.523 17.6678 137.109 17.2569 136.603 17.2615C136.097 17.266 135.691 17.684 135.696 18.1954C135.7 18.707 136.114 19.1178 136.62 19.1133Z" fill="black"/>
<path d="M141.844 19.0668C142.35 19.0623 142.756 18.6441 142.751 18.1326C142.747 17.6213 142.333 17.2104 141.827 17.2149C141.322 17.2195 140.915 17.6376 140.919 18.1489C140.924 18.6604 141.338 19.0713 141.844 19.0668Z" fill="black"/>
<path d="M139.255 21.7341C139.761 21.7296 140.168 21.3109 140.163 20.7999C140.158 20.2886 139.745 19.8778 139.239 19.8823C138.733 19.8868 138.327 20.3049 138.331 20.8162C138.336 21.3272 138.75 21.7386 139.255 21.7341Z" fill="black"/>
<path d="M134.009 19.9288C133.504 19.9333 133.097 20.3515 133.102 20.8628C133.106 21.3738 133.521 21.7851 134.026 21.7806C134.532 21.7761 134.938 21.3575 134.933 20.8464C134.929 20.3352 134.515 19.9243 134.009 19.9288Z" fill="black"/>
<path d="M144.526 26.9715C145.032 26.967 145.439 26.5486 145.434 26.0371C145.429 25.5258 145.016 25.115 144.51 25.1194C144.004 25.1239 143.598 25.5421 143.602 26.0534C143.607 26.5649 144.021 26.976 144.526 26.9715Z" fill="black"/>
<path d="M144.573 32.2506C145.079 32.2461 145.485 31.828 145.481 31.317C145.476 30.8049 145.063 30.3946 144.557 30.399C144.051 30.4035 143.645 30.8212 143.649 31.3333C143.654 31.8443 144.068 32.2551 144.573 32.2506Z" fill="black"/>
<path d="M144.62 37.5361C145.126 37.5316 145.533 37.113 145.528 36.6019C145.523 36.0906 145.11 35.6797 144.604 35.6843C144.098 35.6888 143.692 36.1069 143.697 36.6182C143.701 37.1293 144.115 37.5406 144.62 37.5361Z" fill="black"/>
<path d="M136.714 29.6824C137.22 29.6779 137.626 29.2592 137.621 28.7483C137.617 28.2369 137.203 27.8261 136.697 27.8306C136.191 27.8351 135.785 28.2532 135.79 28.7646C135.794 29.2755 136.208 29.6869 136.714 29.6824Z" fill="black"/>
<path d="M136.761 34.9618C137.267 34.9573 137.673 34.5392 137.668 34.0276C137.664 33.5163 137.25 33.1055 136.744 33.11C136.239 33.1145 135.832 33.5326 135.837 34.0439C135.841 34.5555 136.255 34.9663 136.761 34.9618Z" fill="black"/>
<path d="M141.938 29.6359C142.444 29.6314 142.85 29.2128 142.845 28.7017C142.841 28.1904 142.427 27.7796 141.921 27.7841C141.416 27.7886 141.009 28.2067 141.014 28.718C141.018 29.229 141.432 29.6404 141.938 29.6359Z" fill="black"/>
<path d="M141.985 34.9153C142.491 34.9108 142.897 34.4926 142.892 33.9811C142.888 33.4698 142.474 33.0589 141.969 33.0635C141.463 33.068 141.056 33.4861 141.061 33.9974C141.065 34.5089 141.479 34.9198 141.985 34.9153Z" fill="black"/>
<path d="M139.302 27.0181C139.808 27.0135 140.215 26.5951 140.21 26.0835C140.206 25.5723 139.792 25.1614 139.286 25.1659C138.78 25.1704 138.374 25.5886 138.378 26.0999C138.383 26.6114 138.797 27.0226 139.302 27.0181Z" fill="black"/>
<path d="M139.349 32.2972C139.855 32.2926 140.262 31.8745 140.257 31.3635C140.252 30.8514 139.839 30.441 139.333 30.4456C138.827 30.4501 138.421 30.8677 138.425 31.3798C138.43 31.8908 138.844 32.3017 139.349 32.2972Z" fill="black"/>
<path d="M139.396 37.5826C139.902 37.5781 140.309 37.1594 140.304 36.6484C140.3 36.1371 139.886 35.7263 139.38 35.7308C138.874 35.7353 138.468 36.1534 138.472 36.6647C138.477 37.1758 138.891 37.5871 139.396 37.5826Z" fill="black"/>
<path d="M134.056 25.2125C133.551 25.217 133.144 25.6352 133.149 26.1464C133.153 26.6579 133.567 27.0691 134.073 27.0646C134.578 27.0601 134.985 26.6417 134.98 26.1302C134.976 25.6189 134.562 25.208 134.056 25.2125Z" fill="black"/>
<path d="M134.103 30.4921C133.598 30.4966 133.191 30.9143 133.196 31.4263C133.2 31.9373 133.614 32.3482 134.12 32.3437C134.626 32.3392 135.032 31.921 135.027 31.41C135.022 30.898 134.609 30.4876 134.103 30.4921Z" fill="black"/>
<path d="M134.15 35.7773C133.645 35.7818 133.238 36.2 133.243 36.7112C133.247 37.2223 133.661 37.6336 134.167 37.6291C134.672 37.6247 135.079 37.206 135.074 36.695C135.07 36.1837 134.656 35.7728 134.15 35.7773Z" fill="black"/>
<path d="M141.891 24.3472C142.396 24.3427 142.802 23.9247 142.798 23.413C142.793 22.9013 142.38 22.4906 141.875 22.4951C141.369 22.4996 140.962 22.9169 140.967 23.4286C140.971 23.9402 141.385 24.3517 141.891 24.3472Z" fill="black"/>
<path d="M136.667 24.3908C137.172 24.3863 137.577 23.9706 137.574 23.4603L137.574 23.4585C137.569 22.9478 137.155 22.5397 136.65 22.5443C136.145 22.5488 135.74 22.9641 135.743 23.4748L135.743 23.4766C135.748 23.987 136.162 24.3953 136.667 24.3908Z" fill="black"/>
<path d="M142.173 56.0442C142.678 56.0397 143.084 55.6217 143.08 55.11C143.075 54.5983 142.662 54.1876 142.156 54.1921C141.651 54.1966 141.245 54.6139 141.249 55.1256C141.254 55.6372 141.667 56.0487 142.173 56.0442Z" fill="black"/>
<path d="M136.949 56.0878C137.454 56.0833 137.859 55.6677 137.856 55.1573L137.856 55.1563C137.851 54.6456 137.438 54.2368 136.932 54.2413C136.427 54.2458 136.022 54.6611 136.025 55.1718L136.025 55.1736C136.031 55.684 136.444 56.0924 136.949 56.0878Z" fill="black"/>
<path d="M144.667 42.82C145.173 42.8155 145.579 42.3971 145.575 41.8856C145.57 41.3743 145.157 40.9634 144.651 40.9679C144.145 40.9724 143.739 41.3906 143.743 41.9019C143.748 42.4134 144.162 42.8246 144.667 42.82Z" fill="black"/>
<path d="M144.714 48.0991C145.22 48.0946 145.627 47.6765 145.622 47.1655C145.617 46.6534 145.204 46.2431 144.698 46.2476C144.192 46.2521 143.786 46.6697 143.791 47.1818C143.795 47.6928 144.209 48.1037 144.714 48.0991Z" fill="black"/>
<path d="M144.761 53.3846C145.267 53.3801 145.674 52.9614 145.669 52.4504C145.664 51.9392 145.251 51.5283 144.745 51.5328C144.239 51.5372 143.833 51.9555 143.838 52.4667C143.842 52.9778 144.256 53.3891 144.761 53.3846Z" fill="black"/>
<path d="M136.855 45.5309C137.361 45.5264 137.767 45.1077 137.762 44.5968C137.758 44.0854 137.344 43.6746 136.838 43.6791C136.333 43.6836 135.926 44.1017 135.931 44.613C135.935 45.124 136.349 45.5354 136.855 45.5309Z" fill="black"/>
<path d="M136.902 50.8103C137.408 50.8058 137.814 50.3876 137.809 49.8761C137.805 49.3648 137.391 48.954 136.885 48.9585C136.38 48.963 135.973 49.3811 135.978 49.8924C135.982 50.404 136.396 50.8148 136.902 50.8103Z" fill="black"/>
<path d="M142.079 45.4844C142.585 45.4799 142.991 45.0613 142.986 44.5502C142.982 44.0389 142.568 43.6281 142.063 43.6326C141.557 43.6372 141.15 44.0552 141.155 44.5665C141.159 45.0775 141.573 45.4889 142.079 45.4844Z" fill="black"/>
<path d="M142.126 50.7638C142.632 50.7593 143.038 50.3411 143.033 49.8296C143.029 49.3183 142.615 48.9074 142.11 48.912C141.604 48.9165 141.197 49.3346 141.202 49.8459C141.206 50.3574 141.62 50.7683 142.126 50.7638Z" fill="black"/>
<path d="M139.443 42.8666C139.95 42.8621 140.356 42.4436 140.351 41.9321C140.346 41.4208 139.933 41.0099 139.427 41.0144C138.921 41.0189 138.515 41.4371 138.52 41.9484C138.524 42.4599 138.938 42.8711 139.443 42.8666Z" fill="black"/>
<path d="M139.49 48.1457C139.996 48.1412 140.403 47.723 140.398 47.212C140.394 46.6999 139.98 46.2895 139.474 46.2941C138.968 46.2986 138.562 46.7162 138.566 47.2283C138.571 47.7393 138.985 48.1501 139.49 48.1457Z" fill="black"/>
<path d="M139.537 53.4311C140.043 53.4266 140.45 53.0079 140.445 52.4969C140.441 51.9856 140.027 51.5748 139.521 51.5793C139.015 51.5838 138.609 52.0019 138.613 52.5132C138.618 53.0243 139.032 53.4356 139.537 53.4311Z" fill="black"/>
<path d="M134.197 41.061C133.692 41.0655 133.285 41.4837 133.29 41.9949C133.294 42.5065 133.709 42.9176 134.214 42.9131C134.72 42.9086 135.126 42.4902 135.121 41.9786C135.117 41.4674 134.703 41.0565 134.197 41.061Z" fill="black"/>
<path d="M134.244 46.3406C133.739 46.3451 133.332 46.7628 133.337 47.2748C133.341 47.7858 133.755 48.1967 134.261 48.1922C134.767 48.1876 135.173 47.7695 135.168 47.2585C135.164 46.7464 134.75 46.3361 134.244 46.3406Z" fill="black"/>
<path d="M134.292 51.6258C133.786 51.6303 133.379 52.0485 133.384 52.5598C133.388 53.0708 133.803 53.4821 134.308 53.4777C134.814 53.4732 135.22 53.0545 135.215 52.5434C135.211 52.0322 134.797 51.6213 134.292 51.6258Z" fill="black"/>
<path d="M142.032 40.1957C142.537 40.1912 142.943 39.7732 142.939 39.2615C142.934 38.7498 142.521 38.3391 142.015 38.3436C141.51 38.3481 141.104 38.7654 141.108 39.277C141.113 39.7887 141.526 40.2002 142.032 40.1957Z" fill="black"/>
<path d="M136.808 40.2393C137.313 40.2348 137.718 39.8191 137.715 39.3088L137.715 39.307C137.709 38.7963 137.296 38.3883 136.791 38.3928C136.286 38.3973 135.881 38.8126 135.884 39.3233L135.884 39.3251C135.889 39.8355 136.302 40.2438 136.808 40.2393Z" fill="black"/>
<path d="M142.314 71.8927C142.819 71.8882 143.225 71.4702 143.221 70.9585C143.216 70.4468 142.803 70.0361 142.298 70.0406C141.792 70.0451 141.386 70.4624 141.39 70.9741C141.395 71.4857 141.808 71.8972 142.314 71.8927Z" fill="black"/>
<path d="M137.09 71.9363C137.595 71.9318 138 71.5162 137.997 71.0058L137.997 71.004C137.992 70.4933 137.578 70.0852 137.073 70.0898C136.568 70.0943 136.163 70.5096 136.166 71.0203L136.166 71.0213C136.172 71.5317 136.585 71.9409 137.09 71.9363Z" fill="black"/>
<path d="M144.808 58.6685C145.314 58.664 145.721 58.2456 145.716 57.7341C145.711 57.2228 145.298 56.812 144.792 56.8164C144.286 56.8209 143.88 57.2391 143.885 57.7504C143.889 58.2619 144.303 58.6731 144.808 58.6685Z" fill="black"/>
<path d="M144.856 63.9476C145.361 63.9431 145.768 63.525 145.763 63.0139C145.758 62.5019 145.345 62.0916 144.839 62.096C144.333 62.1006 143.927 62.5182 143.931 63.0303C143.936 63.5413 144.35 63.9521 144.856 63.9476Z" fill="black"/>
<path d="M144.902 69.2331C145.408 69.2286 145.814 68.81 145.81 68.2989C145.805 67.7876 145.392 67.3768 144.886 67.3813C144.38 67.3858 143.974 67.8039 143.979 68.3152C143.983 68.8262 144.397 69.2376 144.902 69.2331Z" fill="black"/>
<path d="M136.996 61.3794C137.502 61.3749 137.908 60.9562 137.903 60.4453C137.899 59.9339 137.485 59.5231 136.979 59.5276C136.474 59.5321 136.067 59.9502 136.072 60.4615C136.076 60.9725 136.49 61.3839 136.996 61.3794Z" fill="black"/>
<path d="M137.043 66.6588C137.549 66.6543 137.955 66.2362 137.95 65.7246C137.946 65.2133 137.532 64.8025 137.026 64.807C136.521 64.8115 136.114 65.2296 136.119 65.7409C136.124 66.2524 136.537 66.6633 137.043 66.6588Z" fill="black"/>
<path d="M142.22 61.3329C142.726 61.3284 143.132 60.9098 143.127 60.3987C143.123 59.8874 142.709 59.4766 142.204 59.4811C141.698 59.4856 141.291 59.9037 141.296 60.4151C141.3 60.9261 141.714 61.3374 142.22 61.3329Z" fill="black"/>
<path d="M142.267 66.6123C142.773 66.6078 143.179 66.1896 143.174 65.6781C143.17 65.1668 142.756 64.756 142.251 64.7605C141.745 64.765 141.338 65.1831 141.343 65.6944C141.347 66.2059 141.761 66.6168 142.267 66.6123Z" fill="black"/>
<path d="M139.584 58.7151C140.09 58.7106 140.497 58.2921 140.492 57.7806C140.488 57.2693 140.074 56.8584 139.568 56.8629C139.063 56.8674 138.656 57.2856 138.66 57.7969C138.665 58.3084 139.079 58.7196 139.584 58.7151Z" fill="black"/>
<path d="M139.631 63.9942C140.137 63.9897 140.544 63.5715 140.539 63.0605C140.535 62.5484 140.121 62.1381 139.615 62.1426C139.109 62.1471 138.703 62.5647 138.708 63.0768C138.712 63.5878 139.126 63.9987 139.631 63.9942Z" fill="black"/>
<path d="M139.678 69.2796C140.184 69.2751 140.591 68.8564 140.586 68.3454C140.582 67.8341 140.168 67.4233 139.662 67.4278C139.157 67.4323 138.75 67.8504 138.754 68.3617C138.759 68.8728 139.173 69.2841 139.678 69.2796Z" fill="black"/>
<path d="M134.338 56.9095C133.833 56.914 133.426 57.3322 133.431 57.8434C133.435 58.355 133.85 58.7661 134.355 58.7616C134.861 58.757 135.267 58.3386 135.262 57.8271C135.258 57.3159 134.844 56.905 134.338 56.9095Z" fill="black"/>
<path d="M134.402 64.0407C134.908 64.0362 135.314 63.618 135.309 63.107C135.305 62.595 134.891 62.1846 134.386 62.1891C133.88 62.1936 133.473 62.6112 133.478 63.1233C133.482 63.6343 133.897 64.0452 134.402 64.0407Z" fill="black"/>
<path d="M134.449 69.3261C134.955 69.3217 135.361 68.903 135.356 68.392C135.352 67.8806 134.938 67.4698 134.433 67.4743C133.927 67.4788 133.52 67.897 133.525 68.4083C133.53 68.9193 133.944 69.3307 134.449 69.3261Z" fill="black"/>
<path d="M139.725 74.5636C140.231 74.5591 140.638 74.1406 140.633 73.6291C140.629 73.1178 140.215 72.7069 139.709 72.7114C139.204 72.7159 138.797 73.1341 138.802 73.6454C138.806 74.1569 139.22 74.5681 139.725 74.5636Z" fill="black"/>
<path d="M134.496 74.6101C135.002 74.6056 135.408 74.1872 135.403 73.6756C135.399 73.1644 134.985 72.7535 134.48 72.758C133.974 72.7625 133.567 73.1807 133.572 73.6919C133.576 74.2034 133.991 74.6146 134.496 74.6101Z" fill="black"/>
<path d="M147.042 22.4055C146.536 22.41 146.129 22.8282 146.134 23.3394C146.138 23.8505 146.553 24.2619 147.058 24.2573C147.564 24.2529 147.97 23.8342 147.965 23.3231C147.961 22.8119 147.547 22.401 147.042 22.4055Z" fill="black"/>
<path d="M157.558 29.4483C158.064 29.4437 158.471 29.0253 158.466 28.5138C158.461 28.0025 158.048 27.5916 157.542 27.5961C157.036 27.6006 156.63 28.0188 156.635 28.5301C156.639 29.0416 157.053 29.4528 157.558 29.4483Z" fill="black"/>
<path d="M157.606 34.7274C158.111 34.7228 158.518 34.3047 158.513 33.7937C158.508 33.2816 158.095 32.8712 157.589 32.8758C157.083 32.8803 156.677 33.2979 156.682 33.81C156.686 34.321 157.1 34.7319 157.606 34.7274Z" fill="black"/>
<path d="M157.652 40.0128C158.158 40.0083 158.565 39.5897 158.56 39.0786C158.555 38.5673 158.142 38.1565 157.636 38.161C157.13 38.1655 156.724 38.5836 156.729 39.0949C156.733 39.606 157.147 40.0173 157.652 40.0128Z" fill="black"/>
<path d="M149.746 32.1591C150.252 32.1546 150.658 31.7359 150.653 31.225C150.649 30.7137 150.235 30.3028 149.729 30.3073C149.224 30.3118 148.817 30.73 148.822 31.2413C148.826 31.7522 149.24 32.1636 149.746 32.1591Z" fill="black"/>
<path d="M149.793 37.4385C150.299 37.434 150.705 37.0158 150.7 36.5043C150.696 35.993 150.282 35.5822 149.776 35.5867C149.271 35.5912 148.865 36.0093 148.869 36.5206C148.874 37.0322 149.287 37.443 149.793 37.4385Z" fill="black"/>
<path d="M154.97 32.1126C155.476 32.1081 155.882 31.6894 155.877 31.1784C155.873 30.6671 155.459 30.2563 154.954 30.2609C154.448 30.2653 154.041 30.6834 154.046 31.1948C154.05 31.7058 154.464 32.1171 154.97 32.1126Z" fill="black"/>
<path d="M155.017 37.392C155.523 37.3875 155.929 36.9693 155.925 36.4578C155.92 35.9465 155.506 35.5357 155.001 35.5402C154.495 35.5447 154.088 35.9628 154.093 36.4741C154.097 36.9857 154.511 37.3965 155.017 37.392Z" fill="black"/>
<path d="M152.334 29.4948C152.84 29.4903 153.247 29.0718 153.242 28.5602C153.238 28.049 152.824 27.6381 152.318 27.6426C151.813 27.6471 151.406 28.0653 151.41 28.5765C151.415 29.0881 151.829 29.4993 152.334 29.4948Z" fill="black"/>
<path d="M152.381 34.7739C152.887 34.7694 153.294 34.3512 153.289 33.8402C153.285 33.3281 152.871 32.9178 152.365 32.9223C151.859 32.9268 151.453 33.3444 151.458 33.8565C151.462 34.3674 151.876 34.7783 152.381 34.7739Z" fill="black"/>
<path d="M152.428 40.0593C152.935 40.0548 153.341 39.6361 153.336 39.1251C153.332 38.6139 152.918 38.203 152.412 38.2075C151.907 38.212 151.5 38.6302 151.504 39.1414C151.509 39.6524 151.923 40.0638 152.428 40.0593Z" fill="black"/>
<path d="M147.105 29.5413C147.611 29.5368 148.017 29.1183 148.012 28.6068C148.008 28.0956 147.594 27.6846 147.089 27.6891C146.583 27.6937 146.176 28.1118 146.181 28.6231C146.186 29.1346 146.6 29.5458 147.105 29.5413Z" fill="black"/>
<path d="M147.152 34.8204C147.658 34.8159 148.064 34.3977 148.059 33.8867C148.055 33.3746 147.641 32.9643 147.136 32.9688C146.63 32.9733 146.223 33.3909 146.228 33.903C146.232 34.4141 146.647 34.8249 147.152 34.8204Z" fill="black"/>
<path d="M147.199 40.1058C147.705 40.1013 148.111 39.6827 148.106 39.1716C148.102 38.6604 147.688 38.2495 147.182 38.254C146.677 38.2585 146.27 38.6767 146.275 39.1879C146.28 39.699 146.694 40.1104 147.199 40.1058Z" fill="black"/>
<path d="M154.923 26.8239C155.428 26.8194 155.835 26.4014 155.83 25.8897C155.825 25.378 155.412 24.9673 154.907 24.9718C154.401 24.9763 153.995 25.3935 153.999 25.9052C154.004 26.417 154.418 26.8284 154.923 26.8239Z" fill="black"/>
<path d="M149.699 26.8675C150.204 26.863 150.609 26.4474 150.606 25.937L150.606 25.9351C150.601 25.4245 150.188 25.0165 149.682 25.021C149.177 25.0255 148.772 25.4408 148.775 25.9515L148.775 25.9533C148.781 26.4637 149.194 26.872 149.699 26.8675Z" fill="black"/>
<path d="M155.205 58.5209C155.71 58.5164 156.116 58.0984 156.112 57.5867C156.107 57.075 155.694 56.6643 155.189 56.6688C154.683 56.6733 154.277 57.0906 154.281 57.6022C154.286 58.1139 154.699 58.5255 155.205 58.5209Z" fill="black"/>
<path d="M149.981 58.5646C150.486 58.56 150.892 58.1444 150.888 57.634L150.888 57.6321C150.883 57.1216 150.47 56.7135 149.964 56.718C149.459 56.7225 149.054 57.1378 149.057 57.6484L149.057 57.6503C149.062 58.1607 149.476 58.569 149.981 58.5646Z" fill="black"/>
<path d="M157.7 45.2968C158.205 45.2922 158.612 44.8738 158.607 44.3623C158.603 43.851 158.189 43.4401 157.683 43.4446C157.178 43.4491 156.771 43.8673 156.776 44.3786C156.78 44.8901 157.194 45.3013 157.7 45.2968Z" fill="black"/>
<path d="M157.746 50.5759C158.252 50.5714 158.658 50.1532 158.654 49.6422C158.649 49.1301 158.236 48.7198 157.73 48.7243C157.224 48.7288 156.818 49.1464 156.823 49.6585C156.827 50.1695 157.241 50.5804 157.746 50.5759Z" fill="black"/>
<path d="M157.793 55.8613C158.299 55.8568 158.706 55.4382 158.701 54.9271C158.697 54.4158 158.283 54.005 157.777 54.0095C157.271 54.014 156.865 54.4321 156.87 54.9434C156.874 55.4545 157.288 55.8658 157.793 55.8613Z" fill="black"/>
<path d="M149.887 48.0076C150.393 48.0031 150.799 47.5844 150.794 47.0734C150.79 46.5622 150.376 46.1513 149.87 46.1558C149.365 46.1603 148.959 46.5785 148.963 47.0898C148.968 47.6007 149.381 48.0121 149.887 48.0076Z" fill="black"/>
<path d="M149.934 53.287C150.44 53.2825 150.846 52.8644 150.841 52.3528C150.837 51.8415 150.423 51.4307 149.917 51.4352C149.412 51.4397 149.005 51.8578 149.01 52.3691C149.015 52.8807 149.428 53.2916 149.934 53.287Z" fill="black"/>
<path d="M155.111 47.9611C155.617 47.9566 156.023 47.538 156.019 47.027C156.014 46.5156 155.6 46.1048 155.095 46.1093C154.589 46.1138 154.182 46.5319 154.187 47.0433C154.191 47.5542 154.605 47.9656 155.111 47.9611Z" fill="black"/>
<path d="M155.158 53.2405C155.664 53.236 156.07 52.8178 156.065 52.3063C156.061 51.795 155.647 51.3842 155.142 51.3887C154.636 51.3932 154.229 51.8113 154.234 52.3226C154.238 52.8342 154.652 53.245 155.158 53.2405Z" fill="black"/>
<path d="M152.475 45.3433C152.981 45.3388 153.388 44.9203 153.383 44.4088C153.379 43.8975 152.965 43.4866 152.459 43.4911C151.954 43.4956 151.547 43.9138 151.552 44.4251C151.556 44.9366 151.97 45.3478 152.475 45.3433Z" fill="black"/>
<path d="M152.522 50.6224C153.029 50.6179 153.435 50.1997 153.43 49.6887C153.426 49.1766 153.012 48.7663 152.506 48.7708C152.001 48.7753 151.594 49.1929 151.598 49.705C151.603 50.2159 152.017 50.6269 152.522 50.6224Z" fill="black"/>
<path d="M152.569 55.9078C153.076 55.9033 153.482 55.4846 153.477 54.9736C153.473 54.4624 153.059 54.0515 152.553 54.056C152.048 54.0605 151.641 54.4786 151.646 54.9899C151.65 55.5009 152.064 55.9123 152.569 55.9078Z" fill="black"/>
<path d="M147.246 45.3898C147.752 45.3853 148.158 44.9668 148.153 44.4553C148.149 43.9441 147.735 43.5332 147.23 43.5377C146.724 43.5421 146.317 43.9604 146.322 44.4717C146.326 44.9831 146.741 45.3943 147.246 45.3898Z" fill="black"/>
<path d="M147.293 50.6689C147.799 50.6644 148.205 50.2462 148.2 49.7352C148.196 49.2231 147.782 48.8128 147.277 48.8173C146.771 48.8218 146.364 49.2394 146.369 49.7515C146.374 50.2625 146.788 50.6734 147.293 50.6689Z" fill="black"/>
<path d="M147.34 55.9544C147.846 55.9498 148.252 55.5312 148.247 55.0201C148.243 54.5089 147.829 54.098 147.324 54.1025C146.818 54.107 146.411 54.5252 146.416 55.0364C146.42 55.5475 146.835 55.9588 147.34 55.9544Z" fill="black"/>
<path d="M155.064 42.6724C155.57 42.6679 155.976 42.2499 155.971 41.7382C155.967 41.2265 155.553 40.8158 155.048 40.8203C154.542 40.8248 154.136 41.2421 154.14 41.7537C154.145 42.2655 154.559 42.6769 155.064 42.6724Z" fill="black"/>
<path d="M149.84 42.716C150.345 42.7115 150.75 42.2959 150.747 41.7855L150.747 41.7836C150.742 41.273 150.329 40.865 149.823 40.8695C149.318 40.874 148.913 41.2893 148.916 41.8L148.916 41.801C148.922 42.3114 149.335 42.7205 149.84 42.716Z" fill="black"/>
<path d="M157.841 61.1453C158.346 61.1408 158.753 60.7223 158.748 60.2108C158.744 59.6995 158.33 59.2887 157.824 59.2931C157.318 59.2976 156.912 59.7158 156.917 60.2271C156.921 60.7386 157.335 61.1498 157.841 61.1453Z" fill="black"/>
<path d="M150.028 63.8561C150.534 63.8516 150.94 63.4329 150.936 62.922C150.931 62.4106 150.517 61.9998 150.012 62.0043C149.506 62.0088 149.099 62.427 149.104 62.9383C149.109 63.4492 149.522 63.8606 150.028 63.8561Z" fill="black"/>
<path d="M150.075 69.1355C150.581 69.131 150.987 68.7129 150.982 68.2013C150.978 67.69 150.564 67.2792 150.058 67.2837C149.553 67.2882 149.147 67.7063 149.151 68.2176C149.156 68.7292 149.569 69.14 150.075 69.1355Z" fill="black"/>
<path d="M155.252 63.8096C155.758 63.8051 156.164 63.3865 156.16 62.8755C156.155 62.3642 155.742 61.9533 155.236 61.9578C154.73 61.9623 154.323 62.3804 154.328 62.8918C154.333 63.4028 154.746 63.8141 155.252 63.8096Z" fill="black"/>
<path d="M152.616 61.1918C153.123 61.1873 153.529 60.7688 153.524 60.2573C153.52 59.746 153.106 59.3352 152.6 59.3397C152.095 59.3441 151.688 59.7623 151.693 60.2736C151.697 60.7851 152.111 61.1963 152.616 61.1918Z" fill="black"/>
<path d="M152.663 66.4708C153.17 66.4664 153.576 66.0482 153.571 65.5372C153.567 65.0251 153.153 64.6148 152.647 64.6193C152.142 64.6238 151.735 65.0414 151.74 65.5535C151.744 66.0645 152.158 66.4753 152.663 66.4708Z" fill="black"/>
<path d="M147.387 61.2383C147.893 61.2338 148.299 60.8153 148.294 60.3039C148.29 59.7925 147.876 59.3817 147.371 59.3862C146.865 59.3907 146.459 59.8088 146.463 60.3201C146.468 60.8316 146.882 61.2428 147.387 61.2383Z" fill="black"/>
<path d="M147.434 66.5174C147.94 66.5129 148.346 66.0947 148.341 65.5837C148.337 65.0716 147.923 64.6613 147.418 64.6658C146.912 64.6703 146.505 65.0879 146.51 65.6C146.515 66.111 146.929 66.5219 147.434 66.5174Z" fill="black"/>
<path d="M170.458 37.0061C170.964 37.0015 171.37 36.5829 171.366 36.0718C171.361 35.5606 170.948 35.1497 170.442 35.1543C169.936 35.1588 169.53 35.5769 169.534 36.0881C169.539 36.5992 169.953 37.0106 170.458 37.0061Z" fill="black"/>
<path d="M162.599 34.4318C163.105 34.4273 163.511 34.0091 163.506 33.4976C163.502 32.9863 163.088 32.5754 162.582 32.5799C162.076 32.5844 161.67 33.0025 161.675 33.5139C161.679 34.0254 162.093 34.4363 162.599 34.4318Z" fill="black"/>
<path d="M167.823 34.3853C168.329 34.3807 168.735 33.9626 168.73 33.451C168.726 32.9397 168.312 32.5289 167.806 32.5335C167.301 32.538 166.894 32.956 166.898 33.4674C166.903 33.9789 167.317 34.3898 167.823 34.3853Z" fill="black"/>
<path d="M165.234 37.0526C165.74 37.0481 166.147 36.6294 166.142 36.1184C166.137 35.6071 165.724 35.1962 165.218 35.2007C164.712 35.2052 164.306 35.6234 164.31 36.1347C164.315 36.6457 164.729 37.0571 165.234 37.0526Z" fill="black"/>
<path d="M159.941 29.9621C159.436 29.9666 159.029 30.3842 159.034 30.8963C159.038 31.4073 159.452 31.8182 159.958 31.8137C160.463 31.8091 160.87 31.391 160.865 30.88C160.861 30.3679 160.447 29.9576 159.941 29.9621Z" fill="black"/>
<path d="M159.988 35.2473C159.483 35.2518 159.076 35.6699 159.081 36.1812C159.085 36.6922 159.5 37.1036 160.005 37.0991C160.511 37.0946 160.917 36.6759 160.912 36.1649C160.908 35.6537 160.494 35.2428 159.988 35.2473Z" fill="black"/>
<path d="M168.011 55.5142C168.516 55.5097 168.922 55.0916 168.918 54.58C168.913 54.0683 168.5 53.6576 167.995 53.6621C167.489 53.6666 167.083 54.0838 167.087 54.5955C167.092 55.1072 167.505 55.5186 168.011 55.5142Z" fill="black"/>
<path d="M162.787 55.5577C163.292 55.5533 163.697 55.1377 163.694 54.6273L163.694 54.6263C163.688 54.1156 163.275 53.7067 162.77 53.7113C162.265 53.7157 161.86 54.1311 161.863 54.6417L161.863 54.6436C161.868 55.1539 162.281 55.5623 162.787 55.5577Z" fill="black"/>
<path d="M170.505 42.29C171.011 42.2855 171.418 41.8671 171.413 41.3555C171.408 40.8442 170.995 40.4334 170.489 40.4379C169.983 40.4424 169.577 40.8606 169.582 41.3718C169.586 41.8833 170 42.2945 170.505 42.29Z" fill="black"/>
<path d="M170.552 47.5691C171.058 47.5646 171.464 47.1464 171.46 46.6355C171.455 46.1233 171.042 45.713 170.536 45.7175C170.03 45.7221 169.624 46.1396 169.628 46.6518C169.633 47.1627 170.047 47.5737 170.552 47.5691Z" fill="black"/>
<path d="M170.599 52.8546C171.105 52.8501 171.512 52.4314 171.507 51.9204C171.502 51.4091 171.089 50.9983 170.583 51.0028C170.077 51.0072 169.671 51.4254 169.676 51.9366C169.68 52.4477 170.094 52.8591 170.599 52.8546Z" fill="black"/>
<path d="M162.693 45.0009C163.199 44.9964 163.605 44.5777 163.6 44.0667C163.596 43.5554 163.182 43.1445 162.676 43.1491C162.171 43.1536 161.764 43.5717 161.769 44.083C161.773 44.594 162.187 45.0054 162.693 45.0009Z" fill="black"/>
<path d="M162.74 50.2803C163.246 50.2758 163.652 49.8576 163.647 49.3461C163.643 48.8348 163.229 48.4239 162.723 48.4284C162.218 48.4329 161.811 48.8511 161.816 49.3624C161.82 49.8739 162.234 50.2848 162.74 50.2803Z" fill="black"/>
<path d="M167.917 44.9544C168.423 44.9498 168.829 44.5312 168.824 44.0202C168.82 43.5089 168.406 43.0981 167.901 43.1025C167.395 43.1071 166.988 43.5252 166.993 44.0365C166.997 44.5475 167.411 44.9589 167.917 44.9544Z" fill="black"/>
<path d="M167.964 50.2338C168.47 50.2293 168.876 49.8111 168.871 49.2995C168.867 48.7882 168.453 48.3774 167.948 48.382C167.442 48.3865 167.035 48.8045 167.04 49.3159C167.044 49.8274 167.458 50.2383 167.964 50.2338Z" fill="black"/>
<path d="M165.281 42.3365C165.787 42.332 166.194 41.9136 166.189 41.402C166.185 40.8908 165.771 40.4799 165.265 40.4844C164.759 40.4889 164.353 40.9071 164.357 41.4183C164.362 41.9299 164.776 42.341 165.281 42.3365Z" fill="black"/>
<path d="M165.328 47.6156C165.835 47.6111 166.241 47.1929 166.236 46.6819C166.231 46.1699 165.818 45.7595 165.312 45.764C164.806 45.7685 164.4 46.1861 164.404 46.6982C164.409 47.2092 164.823 47.6201 165.328 47.6156Z" fill="black"/>
<path d="M165.375 52.9011C165.881 52.8966 166.288 52.4779 166.283 51.9669C166.279 51.4556 165.865 51.0447 165.359 51.0492C164.853 51.0537 164.447 51.4719 164.451 51.9832C164.456 52.4942 164.87 52.9056 165.375 52.9011Z" fill="black"/>
<path d="M160.035 40.5309C159.53 40.5354 159.123 40.9536 159.128 41.4649C159.132 41.9764 159.546 42.3876 160.052 42.3831C160.558 42.3786 160.964 41.9601 160.959 41.4486C160.955 40.9373 160.541 40.5264 160.035 40.5309Z" fill="black"/>
<path d="M160.082 45.8106C159.577 45.8151 159.17 46.2327 159.175 46.7448C159.179 47.2558 159.594 47.6667 160.099 47.6622C160.605 47.6576 161.011 47.2395 161.006 46.7285C161.002 46.2164 160.588 45.806 160.082 45.8106Z" fill="black"/>
<path d="M160.146 52.9476C160.652 52.9431 161.058 52.5244 161.053 52.0134C161.049 51.5022 160.635 51.0913 160.129 51.0958C159.624 51.1003 159.217 51.5184 159.222 52.0297C159.226 52.5407 159.64 52.9521 160.146 52.9476Z" fill="black"/>
<path d="M167.87 39.6657C168.375 39.6612 168.781 39.2431 168.777 38.7315C168.772 38.2198 168.359 37.8091 167.854 37.8136C167.348 37.8181 166.941 38.2353 166.946 38.747C166.95 39.2587 167.364 39.6702 167.87 39.6657Z" fill="black"/>
<path d="M162.646 39.7092C163.151 39.7048 163.556 39.2891 163.553 38.7788L163.553 38.7769C163.548 38.2663 163.135 37.8582 162.629 37.8627C162.124 37.8672 161.719 38.2826 161.722 38.7932L161.722 38.7942C161.728 39.3046 162.141 39.7137 162.646 39.7092Z" fill="black"/>
<path d="M162.834 60.8494C163.34 60.8449 163.746 60.4262 163.741 59.9152C163.737 59.4039 163.323 58.9931 162.817 58.9976C162.312 59.0021 161.905 59.4202 161.91 59.9315C161.914 60.4425 162.328 60.8539 162.834 60.8494Z" fill="black"/>
<path d="M165.422 58.185C165.929 58.1805 166.335 57.7621 166.33 57.2505C166.325 56.7393 165.912 56.3284 165.406 56.3329C164.9 56.3374 164.494 56.7556 164.498 57.2668C164.503 57.7784 164.917 58.1895 165.422 58.185Z" fill="black"/>
<path d="M160.193 58.2316C160.699 58.227 161.105 57.8086 161.1 57.2971C161.096 56.7858 160.682 56.3749 160.177 56.3794C159.671 56.3839 159.264 56.8021 159.269 57.3134C159.273 57.8249 159.688 58.2361 160.193 58.2316Z" fill="black"/>
<path d="M160.24 63.5107C160.746 63.5062 161.152 63.088 161.147 62.577C161.143 62.0649 160.729 61.6546 160.223 61.6591C159.718 61.6636 159.311 62.0812 159.316 62.5933C159.32 63.1043 159.734 63.5152 160.24 63.5107Z" fill="black"/>
<path d="M173.021 37.724C172.515 37.7285 172.108 38.1467 172.113 38.6579C172.117 39.1689 172.532 39.5803 173.037 39.5758C173.543 39.5713 173.949 39.1526 173.944 38.6416C173.94 38.1304 173.526 37.7195 173.021 37.724Z" fill="black"/>
<path d="M183.537 44.7667C184.043 44.7622 184.45 44.3438 184.445 43.8322C184.44 43.321 184.027 42.9101 183.521 42.9146C183.015 42.9191 182.609 43.3372 182.614 43.8485C182.618 44.3601 183.032 44.7712 183.537 44.7667Z" fill="black"/>
<path d="M183.585 50.0458C184.09 50.0413 184.497 49.6231 184.492 49.1122C184.488 48.6001 184.074 48.1898 183.568 48.1943C183.062 48.1988 182.656 48.6164 182.661 49.1285C182.665 49.6394 183.079 50.0503 183.585 50.0458Z" fill="black"/>
<path d="M175.725 47.4775C176.231 47.4731 176.637 47.0544 176.632 46.5434C176.628 46.0321 176.214 45.6213 175.708 45.6258C175.203 45.6303 174.796 46.0484 174.801 46.5597C174.805 47.0707 175.219 47.482 175.725 47.4775Z" fill="black"/>
<path d="M175.772 52.757C176.278 52.7525 176.684 52.3343 176.679 51.8228C176.675 51.3115 176.261 50.9006 175.755 50.9051C175.25 50.9096 174.844 51.3278 174.848 51.8391C174.853 52.3506 175.266 52.7615 175.772 52.757Z" fill="black"/>
<path d="M180.949 47.4311C181.455 47.4266 181.861 47.0079 181.856 46.4969C181.852 45.9856 181.438 45.5747 180.933 45.5793C180.427 45.5838 180.02 46.0019 180.025 46.5132C180.029 47.0242 180.443 47.4356 180.949 47.4311Z" fill="black"/>
<path d="M178.313 44.8132C178.82 44.8087 179.226 44.3903 179.221 43.8788C179.217 43.3675 178.803 42.9566 178.297 42.9611C177.792 42.9656 177.385 43.3838 177.389 43.895C177.394 44.4066 177.808 44.8177 178.313 44.8132Z" fill="black"/>
<path d="M178.36 50.0923C178.866 50.0878 179.273 49.6697 179.268 49.1586C179.264 48.6466 178.85 48.2362 178.344 48.2407C177.838 48.2452 177.432 48.6629 177.437 49.1749C177.441 49.6859 177.855 50.0968 178.36 50.0923Z" fill="black"/>
<path d="M173.084 44.8598C173.59 44.8553 173.996 44.4368 173.991 43.9252C173.987 43.414 173.573 43.0031 173.068 43.0077C172.562 43.0121 172.155 43.4303 172.16 43.9416C172.165 44.4531 172.579 44.8643 173.084 44.8598Z" fill="black"/>
<path d="M173.131 50.1388C173.637 50.1344 174.043 49.7162 174.038 49.2052C174.034 48.6931 173.62 48.2828 173.115 48.2873C172.609 48.2918 172.202 48.7094 172.207 49.2215C172.211 49.7325 172.626 50.1433 173.131 50.1388Z" fill="black"/>
<path d="M173.178 55.4244C173.684 55.4198 174.09 55.0011 174.085 54.4901C174.081 53.9789 173.667 53.568 173.162 53.5725C172.656 53.577 172.25 53.9952 172.254 54.5064C172.259 55.0174 172.673 55.4288 173.178 55.4244Z" fill="black"/>
<path d="M180.902 42.1424C181.408 42.1379 181.814 41.7198 181.809 41.2082C181.804 40.6965 181.391 40.2858 180.886 40.2903C180.38 40.2948 179.974 40.712 179.978 41.2237C179.983 41.7354 180.397 42.1468 180.902 42.1424Z" fill="black"/>
<path d="M175.678 42.186C176.183 42.1815 176.588 41.7659 176.585 41.2555L176.585 41.2544C176.58 40.7438 176.167 40.3349 175.661 40.3394C175.156 40.3439 174.751 40.7593 174.754 41.27L174.754 41.2718C174.76 41.7821 175.173 42.1905 175.678 42.186Z" fill="black"/>
<path d="M90.5725 45.9C91.0779 45.8955 91.4839 45.4775 91.4797 44.9658C91.4749 44.4541 91.0613 44.0434 90.5559 44.0479C90.0503 44.0524 89.644 44.4697 89.6482 44.9813C89.6531 45.493 90.0667 45.9045 90.5725 45.9Z" fill="black"/>
<path d="M85.3481 45.9436C85.8533 45.9391 86.2588 45.5235 86.2554 45.0131L86.2556 45.0113C86.25 44.5006 85.8369 44.0925 85.3315 44.0971C84.8267 44.1016 84.4211 44.5169 84.4246 45.0276L84.4243 45.0286C84.4299 45.539 84.843 45.9482 85.3481 45.9436Z" fill="black"/>
<path d="M93.1138 37.9549C93.6197 37.9504 94.0259 37.5323 94.0213 37.0212C94.0166 36.5092 93.6031 36.0989 93.0972 36.1034C92.5916 36.1079 92.1853 36.5255 92.19 37.0376C92.1944 37.5486 92.6082 37.9594 93.1138 37.9549Z" fill="black"/>
<path d="M93.1607 43.2404C93.6665 43.2359 94.073 42.8173 94.0684 42.3062C94.0638 41.7949 93.6502 41.3841 93.1443 41.3886C92.6387 41.3931 92.2325 41.8113 92.2369 42.3225C92.2415 42.8335 92.6551 43.2449 93.1607 43.2404Z" fill="black"/>
<path d="M90.5254 40.6196C91.031 40.6151 91.4373 40.1969 91.4329 39.6854C91.4283 39.1741 91.0147 38.7633 90.5091 38.7678C90.0032 38.7723 89.5965 39.1904 89.6011 39.7017C89.6055 40.2132 90.0196 40.6241 90.5254 40.6196Z" fill="black"/>
<path d="M87.9366 43.2869C88.4429 43.2824 88.8492 42.8637 88.8445 42.3527C88.8399 41.8414 88.4263 41.4306 87.9202 41.4351C87.4148 41.4396 87.0083 41.8577 87.013 42.369C87.0174 42.8801 87.4314 43.2914 87.9366 43.2869Z" fill="black"/>
<path d="M82.7073 43.3335C83.2129 43.329 83.6192 42.9103 83.6148 42.3993C83.6101 41.888 83.1966 41.4771 82.691 41.4816C82.1853 41.4861 81.7786 41.9043 81.7832 42.4156C81.7879 42.9266 82.2019 43.3379 82.7073 43.3335Z" fill="black"/>
<path d="M93.2078 48.5243C93.7137 48.5198 94.1199 48.1014 94.1155 47.5899C94.1109 47.0787 93.6973 46.6678 93.1912 46.6723C92.6856 46.6768 92.2793 47.0949 92.284 47.6062C92.2886 48.1177 92.7022 48.5289 93.2078 48.5243Z" fill="black"/>
<path d="M93.2547 53.8034C93.7608 53.7989 94.167 53.3808 94.1624 52.8698C94.1577 52.3578 93.7442 51.9474 93.2383 51.9519C92.7327 51.9564 92.3264 52.374 92.3308 52.8861C92.3355 53.3971 92.7491 53.8079 93.2547 53.8034Z" fill="black"/>
<path d="M85.3953 51.2352C85.9012 51.2307 86.3074 50.812 86.3028 50.3011C86.2981 49.7897 85.8846 49.379 85.3787 49.3834C84.8731 49.3879 84.4668 49.8061 84.4712 50.3174C84.4759 50.8283 84.8894 51.2397 85.3953 51.2352Z" fill="black"/>
<path d="M90.6194 51.1887C91.1253 51.1842 91.5313 50.7656 91.5269 50.2545C91.5223 49.7432 91.1087 49.3324 90.6031 49.3369C90.0972 49.3414 89.6907 49.7595 89.6951 50.2708C89.6997 50.7819 90.1136 51.1932 90.6194 51.1887Z" fill="black"/>
<path d="M87.9837 48.5709C88.4898 48.5664 88.896 48.1479 88.8916 47.6364C88.887 47.1251 88.4734 46.7142 87.9673 46.7187C87.462 46.7232 87.0552 47.1415 87.0599 47.6527C87.0645 48.1642 87.4783 48.5754 87.9837 48.5709Z" fill="black"/>
<path d="M88.0308 53.85C88.5369 53.8454 88.9432 53.4273 88.9385 52.9163C88.9341 52.4042 88.5203 51.9939 88.0142 51.9984C87.5088 52.0029 87.1023 52.4205 87.1067 52.9326C87.1114 53.4436 87.5254 53.8545 88.0308 53.85Z" fill="black"/>
<path d="M82.7544 48.6174C83.2601 48.6129 83.6663 48.1945 83.6617 47.6829C83.6573 47.1717 83.2435 46.7608 82.7378 46.7653C82.2325 46.7698 81.8257 47.188 81.8304 47.6992C81.8348 48.2108 82.2491 48.6219 82.7544 48.6174Z" fill="black"/>
<path d="M103.464 32.5282C103.969 32.5237 104.375 32.1057 104.371 31.594C104.366 31.0823 103.952 30.6716 103.447 30.6761C102.941 30.6806 102.535 31.0978 102.539 31.6095C102.544 32.1212 102.958 32.5328 103.464 32.5282Z" fill="black"/>
<path d="M106.052 29.8686C106.558 29.8641 106.964 29.4455 106.96 28.9344C106.955 28.4231 106.541 28.0123 106.035 28.0168C105.53 28.0213 105.124 28.4394 105.128 28.9507C105.133 29.4618 105.546 29.8731 106.052 29.8686Z" fill="black"/>
<path d="M103.604 48.3768C104.11 48.3722 104.516 47.9542 104.512 47.4425C104.507 46.9308 104.094 46.5201 103.588 46.5246C103.083 46.5291 102.676 46.9463 102.68 47.458C102.685 47.9698 103.099 48.3813 103.604 48.3768Z" fill="black"/>
<path d="M98.3801 48.4203C98.8855 48.4158 99.291 48.0002 99.2874 47.4898L99.2876 47.4888C99.2822 46.9782 98.8689 46.5693 98.3638 46.5738C97.8589 46.5783 97.4534 46.9937 97.4568 47.5042L97.4563 47.5061C97.4619 48.0165 97.8752 48.4248 98.3801 48.4203Z" fill="black"/>
<path d="M106.099 35.1526C106.605 35.1481 107.011 34.7296 107.006 34.2181C107.002 33.7069 106.588 33.296 106.082 33.3005C105.577 33.3049 105.17 33.7231 105.175 34.2344C105.18 34.7459 105.593 35.1571 106.099 35.1526Z" fill="black"/>
<path d="M106.146 40.4317C106.652 40.4272 107.058 40.009 107.054 39.498C107.049 38.9859 106.635 38.5756 106.129 38.5801C105.624 38.5846 105.218 39.0022 105.222 39.5143C105.227 40.0253 105.64 40.4362 106.146 40.4317Z" fill="black"/>
<path d="M106.193 45.7171C106.699 45.7126 107.105 45.294 107.101 44.7829C107.096 44.2716 106.682 43.8608 106.176 43.8653C105.671 43.8698 105.264 44.2879 105.269 44.7992C105.274 45.3103 105.687 45.7216 106.193 45.7171Z" fill="black"/>
<path d="M98.2862 37.8634C98.7923 37.8589 99.1983 37.4402 99.1939 36.9293C99.1892 36.418 98.7757 36.0071 98.2698 36.0116C97.7642 36.0161 97.3579 36.4343 97.3623 36.9456C97.367 37.4565 97.7805 37.8679 98.2862 37.8634Z" fill="black"/>
<path d="M98.3333 43.1428C98.8392 43.1383 99.2454 42.7201 99.2408 42.2086C99.2364 41.6973 98.8228 41.2865 98.3167 41.291C97.8111 41.2955 97.4048 41.7136 97.4095 42.2249C97.4139 42.7365 97.8277 43.1474 98.3333 43.1428Z" fill="black"/>
<path d="M103.511 37.8169C104.016 37.8124 104.422 37.3938 104.418 36.8828C104.413 36.3715 104 35.9607 103.494 35.9652C102.988 35.9697 102.582 36.3877 102.586 36.8991C102.591 37.4101 103.005 37.8214 103.511 37.8169Z" fill="black"/>
<path d="M103.558 43.0963C104.063 43.0918 104.47 42.6737 104.465 42.1621C104.46 41.6508 104.047 41.24 103.541 41.2445C103.035 41.249 102.629 41.6671 102.633 42.1784C102.638 42.69 103.052 43.1008 103.558 43.0963Z" fill="black"/>
<path d="M100.875 35.1991C101.381 35.1946 101.787 34.7761 101.783 34.2646C101.778 33.7533 101.365 33.3425 100.858 33.347C100.353 33.3514 99.9463 33.7696 99.951 34.2808C99.9556 34.7924 100.369 35.2036 100.875 35.1991Z" fill="black"/>
<path d="M100.922 40.4782C101.428 40.4737 101.834 40.0555 101.83 39.5445C101.825 39.0324 101.411 38.6221 100.905 38.6266C100.4 38.6311 99.9934 39.0487 99.9981 39.5608C100.002 40.0717 100.416 40.4826 100.922 40.4782Z" fill="black"/>
<path d="M100.969 45.7636C101.475 45.7591 101.881 45.3404 101.877 44.8294C101.872 44.3182 101.459 43.9073 100.952 43.9118C100.447 43.9163 100.04 44.3345 100.045 44.8457C100.05 45.3567 100.463 45.7681 100.969 45.7636Z" fill="black"/>
<path d="M95.6924 40.5247C96.198 40.5202 96.6043 40.102 96.5999 39.591C96.5953 39.0789 96.1817 38.6686 95.6761 38.6731C95.1704 38.6776 94.7637 39.0952 94.7683 39.6073C94.773 40.1183 95.1871 40.5292 95.6924 40.5247Z" fill="black"/>
<path d="M95.7395 45.8102C96.2452 45.8056 96.6514 45.387 96.6468 44.8759C96.6424 44.3647 96.2286 43.9538 95.7229 43.9583C95.2176 43.9628 94.8108 44.3809 94.8155 44.8922C94.8199 45.4033 95.2342 45.8146 95.7395 45.8102Z" fill="black"/>
<path d="M106.24 51.0011C106.746 50.9966 107.152 50.5781 107.148 50.0666C107.143 49.5553 106.729 49.1444 106.223 49.1489C105.718 49.1534 105.312 49.5716 105.316 50.0829C105.321 50.5944 105.734 51.0056 106.24 51.0011Z" fill="black"/>
<path d="M106.287 56.2802C106.793 56.2757 107.199 55.8575 107.195 55.3465C107.19 54.8344 106.776 54.4241 106.271 54.4286C105.765 54.4331 105.358 54.8507 105.363 55.3628C105.368 55.8738 105.781 56.2847 106.287 56.2802Z" fill="black"/>
<path d="M106.334 61.5656C106.84 61.5611 107.246 61.1425 107.241 60.6314C107.237 60.1201 106.824 59.7093 106.317 59.7138C105.812 59.7183 105.406 60.1364 105.41 60.6477C105.415 61.1588 105.828 61.5701 106.334 61.5656Z" fill="black"/>
<path d="M98.4273 53.7119C98.9331 53.7074 99.3394 53.2887 99.335 52.7778C99.3304 52.2665 98.9168 51.8556 98.4109 51.8601C97.9053 51.8646 97.4991 52.2828 97.5035 52.794C97.5081 53.305 97.9217 53.7164 98.4273 53.7119Z" fill="black"/>
<path d="M98.4744 58.9914C98.9803 58.9868 99.3865 58.5687 99.3819 58.0571C99.3775 57.5458 98.9637 57.135 98.4578 57.1395C97.9522 57.144 97.5459 57.5621 97.5506 58.0734C97.555 58.585 97.9685 58.9959 98.4744 58.9914Z" fill="black"/>
<path d="M103.652 53.6654C104.157 53.6609 104.564 53.2423 104.559 52.7313C104.554 52.2199 104.141 51.8092 103.635 51.8136C103.129 51.8181 102.723 52.2362 102.727 52.7476C102.732 53.2586 103.146 53.6699 103.652 53.6654Z" fill="black"/>
<path d="M103.699 58.9448C104.204 58.9403 104.611 58.5222 104.606 58.0106C104.601 57.4993 104.188 57.0885 103.682 57.093C103.176 57.0975 102.77 57.5156 102.774 58.0269C102.779 58.5384 103.193 58.9493 103.699 58.9448Z" fill="black"/>
<path d="M101.016 51.0476C101.522 51.0431 101.928 50.6246 101.924 50.1131C101.919 49.6018 101.506 49.1909 100.999 49.1955C100.494 49.2 100.087 49.6181 100.092 50.1294C100.096 50.6409 100.511 51.0521 101.016 51.0476Z" fill="black"/>
<path d="M101.063 56.3267C101.569 56.3222 101.975 55.904 101.971 55.393C101.966 54.8809 101.553 54.4706 101.046 54.4751C100.541 54.4796 100.135 54.8972 100.139 55.4093C100.144 55.9202 100.557 56.3312 101.063 56.3267Z" fill="black"/>
<path d="M95.7867 51.0941C96.292 51.0896 96.6985 50.6711 96.6939 50.1596C96.6892 49.6484 96.2757 49.2375 95.7701 49.242C95.2647 49.2465 94.8579 49.6647 94.8623 50.176C94.867 50.6874 95.281 51.0986 95.7867 51.0941Z" fill="black"/>
<path d="M95.8335 56.3732C96.3392 56.3687 96.7454 55.9506 96.7408 55.4396C96.7364 54.9275 96.3228 54.5171 95.8169 54.5216C95.3116 54.5261 94.9048 54.9437 94.9095 55.4558C94.9139 55.9668 95.3282 56.3777 95.8335 56.3732Z" fill="black"/>
<path d="M116.269 29.5215C116.775 29.517 117.181 29.0989 117.177 28.5873C117.172 28.0756 116.758 27.6649 116.253 27.6694C115.747 27.6739 115.341 28.0911 115.345 28.6028C115.35 29.1145 115.764 29.526 116.269 29.5215Z" fill="black"/>
<path d="M111.045 29.5651C111.55 29.5606 111.956 29.145 111.952 28.6346L111.952 28.6336C111.947 28.1229 111.534 27.7141 111.029 27.7185C110.523 27.723 110.118 28.1384 110.122 28.649L110.121 28.6509C110.127 29.1612 110.54 29.5696 111.045 29.5651Z" fill="black"/>
<path d="M118.811 21.5764C119.316 21.5719 119.723 21.1537 119.718 20.6428C119.714 20.1306 119.3 19.7203 118.794 19.7248C118.289 19.7294 117.882 20.1469 117.887 20.6591C117.891 21.17 118.305 21.5809 118.811 21.5764Z" fill="black"/>
<path d="M118.858 26.8619C119.364 26.8574 119.77 26.4387 119.765 25.9277C119.761 25.4164 119.347 25.0056 118.841 25.0101C118.335 25.0145 117.929 25.4327 117.934 25.9439C117.939 26.455 118.352 26.8664 118.858 26.8619Z" fill="black"/>
<path d="M116.222 24.2411C116.728 24.2366 117.134 23.8184 117.13 23.3068C117.125 22.7955 116.711 22.3847 116.206 22.3893C115.7 22.3938 115.293 22.8118 115.298 23.3232C115.303 23.8347 115.717 24.2456 116.222 24.2411Z" fill="black"/>
<path d="M113.634 26.9084C114.14 26.9039 114.546 26.4852 114.542 25.9742C114.537 25.4629 114.123 25.052 113.617 25.0565C113.112 25.061 112.705 25.4792 112.71 25.9905C112.714 26.5015 113.128 26.9129 113.634 26.9084Z" fill="black"/>
<path d="M108.388 25.1031C107.882 25.1076 107.476 25.5257 107.48 26.037C107.485 26.5481 107.899 26.9594 108.404 26.9549C108.91 26.9504 109.316 26.5317 109.312 26.0207C109.307 25.5095 108.893 25.0986 108.388 25.1031Z" fill="black"/>
<path d="M116.41 45.37C116.916 45.3655 117.322 44.9474 117.318 44.4358C117.313 43.9241 116.899 43.5134 116.394 43.5179C115.888 43.5224 115.482 43.9396 115.486 44.4513C115.491 44.963 115.905 45.3745 116.41 45.37Z" fill="black"/>
<path d="M111.186 45.4136C111.691 45.4091 112.097 44.9935 112.093 44.4831L112.094 44.482C112.088 43.9714 111.675 43.5625 111.169 43.5671C110.665 43.5715 110.259 43.9869 110.262 44.4975L110.262 44.4994C110.268 45.0098 110.681 45.4181 111.186 45.4136Z" fill="black"/>
<path d="M118.905 32.1458C119.411 32.1413 119.817 31.7229 119.812 31.2114C119.808 30.7001 119.394 30.2892 118.888 30.2937C118.383 30.2982 117.976 30.7164 117.981 31.2277C117.985 31.7392 118.399 32.1503 118.905 32.1458Z" fill="black"/>
<path d="M118.952 37.4249C119.458 37.4204 119.864 37.0022 119.859 36.4912C119.855 35.9791 119.441 35.5688 118.935 35.5733C118.429 35.5779 118.023 35.9954 118.028 36.5076C118.033 37.0185 118.446 37.4294 118.952 37.4249Z" fill="black"/>
<path d="M118.999 42.7104C119.505 42.7059 119.911 42.2872 119.906 41.7762C119.902 41.2649 119.488 40.8541 118.982 40.8586C118.477 40.8631 118.07 41.2812 118.075 41.7924C118.079 42.3035 118.493 42.7149 118.999 42.7104Z" fill="black"/>
<path d="M111.092 34.8567C111.598 34.8522 112.004 34.4335 112 33.9225C111.995 33.4112 111.582 33.0004 111.076 33.0049C110.57 33.0094 110.164 33.4275 110.168 33.9388C110.173 34.4498 110.586 34.8611 111.092 34.8567Z" fill="black"/>
<path d="M111.139 40.1361C111.645 40.1316 112.051 39.7134 112.047 39.2019C112.042 38.6906 111.628 38.2797 111.123 38.2842C110.617 38.2887 110.211 38.7069 110.215 39.2182C110.22 39.7297 110.633 40.1406 111.139 40.1361Z" fill="black"/>
<path d="M116.316 34.8102C116.822 34.8057 117.228 34.387 117.224 33.876C117.219 33.3647 116.806 32.9539 116.3 32.9584C115.794 32.9629 115.387 33.381 115.392 33.8924C115.397 34.4033 115.811 34.8147 116.316 34.8102Z" fill="black"/>
<path d="M116.363 40.0896C116.869 40.0851 117.275 39.6669 117.271 39.1554C117.266 38.644 116.853 38.2333 116.347 38.2378C115.841 38.2423 115.435 38.6603 115.439 39.1717C115.444 39.6832 115.857 40.0941 116.363 40.0896Z" fill="black"/>
<path d="M113.681 32.1923C114.187 32.1878 114.593 31.7694 114.588 31.2578C114.584 30.7466 114.17 30.3357 113.664 30.3402C113.159 30.3447 112.752 30.7629 112.757 31.2741C112.761 31.7857 113.175 32.1968 113.681 32.1923Z" fill="black"/>
<path d="M113.728 37.4714C114.234 37.4669 114.64 37.0487 114.636 36.5377C114.631 36.0257 114.217 35.6153 113.711 35.6198C113.206 35.6243 112.799 36.042 112.804 36.5541C112.808 37.065 113.222 37.4759 113.728 37.4714Z" fill="black"/>
<path d="M113.775 42.7569C114.281 42.7524 114.687 42.3337 114.683 41.8227C114.678 41.3114 114.264 40.9005 113.758 40.905C113.253 40.9095 112.846 41.3277 112.851 41.839C112.855 42.35 113.269 42.7614 113.775 42.7569Z" fill="black"/>
<path d="M108.451 32.2389C108.957 32.2343 109.363 31.8159 109.359 31.3044C109.354 30.7931 108.94 30.3822 108.435 30.3867C107.929 30.3912 107.523 30.8094 107.527 31.3207C107.532 31.8322 107.946 32.2434 108.451 32.2389Z" fill="black"/>
<path d="M108.498 37.518C109.004 37.5135 109.41 37.0953 109.406 36.5843C109.401 36.0722 108.987 35.6619 108.482 35.6664C107.976 35.6709 107.57 36.0885 107.574 36.6006C107.579 37.1116 107.993 37.5224 108.498 37.518Z" fill="black"/>
<path d="M108.545 42.8034C109.051 42.7989 109.457 42.3802 109.453 41.8692C109.448 41.3579 109.034 40.9471 108.529 40.9516C108.023 40.9561 107.617 41.3742 107.621 41.8855C107.626 42.3965 108.04 42.8079 108.545 42.8034Z" fill="black"/>
<path d="M116.552 61.2185C117.057 61.214 117.463 60.7959 117.459 60.2843C117.454 59.7726 117.04 59.3619 116.535 59.3664C116.029 59.3709 115.623 59.7881 115.627 60.2998C115.632 60.8115 116.046 61.223 116.552 61.2185Z" fill="black"/>
<path d="M111.327 61.2621C111.832 61.2576 112.238 60.842 112.234 60.3316L112.235 60.3297C112.229 59.8191 111.816 59.4111 111.311 59.4156C110.806 59.42 110.4 59.8354 110.404 60.346L110.403 60.3479C110.409 60.8583 110.822 61.2666 111.327 61.2621Z" fill="black"/>
<path d="M119.046 47.9943C119.552 47.9898 119.958 47.5714 119.953 47.0598C119.949 46.5486 119.535 46.1377 119.029 46.1422C118.524 46.1467 118.117 46.5649 118.122 47.0761C118.126 47.5877 118.54 47.9989 119.046 47.9943Z" fill="black"/>
<path d="M119.093 53.2734C119.599 53.2689 120.005 52.8507 120 52.3398C119.996 51.8277 119.582 51.4173 119.076 51.4218C118.571 51.4263 118.164 51.8439 118.169 52.356C118.173 52.867 118.587 53.2779 119.093 53.2734Z" fill="black"/>
<path d="M119.14 58.5589C119.646 58.5544 120.052 58.1357 120.047 57.6247C120.043 57.1134 119.629 56.7026 119.123 56.7071C118.618 56.7116 118.211 57.1297 118.216 57.641C118.22 58.152 118.634 58.5634 119.14 58.5589Z" fill="black"/>
<path d="M111.233 50.7052C111.739 50.7007 112.145 50.282 112.141 49.771C112.136 49.2597 111.722 48.8489 111.217 48.8534C110.711 48.8579 110.305 49.276 110.309 49.7873C110.314 50.2983 110.728 50.7097 111.233 50.7052Z" fill="black"/>
<path d="M111.28 55.9846C111.786 55.9801 112.192 55.5619 112.188 55.0504C112.183 54.539 111.77 54.1282 111.264 54.1327C110.758 54.1372 110.352 54.5554 110.356 55.0667C110.361 55.5782 110.774 55.9891 111.28 55.9846Z" fill="black"/>
<path d="M116.458 50.6587C116.963 50.6542 117.369 50.2355 117.365 49.7245C117.36 49.2132 116.947 48.8024 116.441 48.8068C115.935 48.8113 115.529 49.2295 115.533 49.7408C115.538 50.2518 115.951 50.6632 116.458 50.6587Z" fill="black"/>
<path d="M116.504 55.9381C117.01 55.9336 117.416 55.5154 117.412 55.0039C117.407 54.4925 116.994 54.0818 116.488 54.0862C115.982 54.0908 115.575 54.5088 115.58 55.0201C115.585 55.5317 115.999 55.9426 116.504 55.9381Z" fill="black"/>
<path d="M113.822 48.0408C114.328 48.0363 114.734 47.6179 114.73 47.1063C114.725 46.5951 114.311 46.1842 113.805 46.1887C113.3 46.1932 112.893 46.6114 112.898 47.1226C112.902 47.6342 113.316 48.0453 113.822 48.0408Z" fill="black"/>
<path d="M113.869 53.3199C114.375 53.3154 114.781 52.8972 114.777 52.3862C114.772 51.8741 114.358 51.4639 113.852 51.4683C113.347 51.4728 112.94 51.8905 112.945 52.4025C112.95 52.9135 113.363 53.3244 113.869 53.3199Z" fill="black"/>
<path d="M113.916 58.6054C114.422 58.6009 114.828 58.1822 114.824 57.6712C114.819 57.16 114.405 56.7491 113.899 56.7535C113.394 56.758 112.987 57.1762 112.992 57.6875C112.996 58.1985 113.41 58.6099 113.916 58.6054Z" fill="black"/>
<path d="M108.592 48.0874C109.098 48.0829 109.504 47.6644 109.5 47.1529C109.495 46.6416 109.082 46.2307 108.576 46.2353C108.07 46.2397 107.664 46.6579 107.668 47.1692C107.673 47.6807 108.087 48.0919 108.592 48.0874Z" fill="black"/>
<path d="M108.639 53.3665C109.145 53.362 109.551 52.9438 109.547 52.4328C109.542 51.9207 109.128 51.5104 108.623 51.5149C108.117 51.5194 107.711 51.937 107.715 52.4491C107.72 52.9601 108.134 53.371 108.639 53.3665Z" fill="black"/>
<path d="M108.686 58.6519C109.192 58.6474 109.598 58.2287 109.594 57.7177C109.589 57.2064 109.176 56.7956 108.67 56.8001C108.164 56.8046 107.758 57.2227 107.762 57.734C107.767 58.2451 108.181 58.6564 108.686 58.6519Z" fill="black"/>
<path d="M119.187 63.8428C119.693 63.8383 120.099 63.4199 120.095 62.9083C120.09 62.3971 119.676 61.9862 119.17 61.9907C118.665 61.9952 118.259 62.4134 118.263 62.9246C118.268 63.4362 118.681 63.8473 119.187 63.8428Z" fill="black"/>
<path d="M119.234 69.122C119.74 69.1174 120.146 68.6992 120.141 68.1883C120.137 67.6762 119.723 67.2658 119.217 67.2704C118.712 67.2748 118.305 67.6924 118.31 68.2046C118.314 68.7155 118.728 69.1264 119.234 69.122Z" fill="black"/>
<path d="M111.374 66.5537C111.88 66.5492 112.286 66.1305 112.282 65.6195C112.277 65.1082 111.864 64.6974 111.358 64.7019C110.852 64.7064 110.446 65.1245 110.45 65.6358C110.455 66.1468 110.869 66.5582 111.374 66.5537Z" fill="black"/>
<path d="M116.599 66.5072C117.104 66.5027 117.511 66.084 117.506 65.573C117.501 65.0617 117.088 64.6509 116.582 64.6554C116.076 64.6598 115.67 65.078 115.674 65.5893C115.679 66.1003 116.093 66.5117 116.599 66.5072Z" fill="black"/>
<path d="M113.963 63.8893C114.469 63.8848 114.875 63.4664 114.871 62.9548C114.866 62.4436 114.452 62.0327 113.946 62.0372C113.441 62.0417 113.034 62.4599 113.039 62.9711C113.043 63.4827 113.457 63.8938 113.963 63.8893Z" fill="black"/>
<path d="M108.733 63.9359C109.239 63.9314 109.645 63.5129 109.641 63.0014C109.636 62.4901 109.222 62.0792 108.717 62.0837C108.211 62.0882 107.805 62.5064 107.809 63.0177C107.814 63.5292 108.228 63.9404 108.733 63.9359Z" fill="black"/>
<path d="M129.302 31.9982C129.807 31.9937 130.213 31.5757 130.209 31.064C130.204 30.5523 129.79 30.1416 129.285 30.1461C128.779 30.1506 128.373 30.5678 128.377 31.0795C128.382 31.5912 128.796 32.0027 129.302 31.9982Z" fill="black"/>
<path d="M124.077 32.0418C124.582 32.0373 124.988 31.6217 124.984 31.1113L124.985 31.1094C124.979 30.5988 124.566 30.1907 124.061 30.1952C123.556 30.1997 123.15 30.615 123.154 31.1257L123.154 31.1267C123.159 31.6371 123.572 32.0463 124.077 32.0418Z" fill="black"/>
<path d="M131.796 18.7741C132.302 18.7695 132.708 18.3511 132.703 17.8395C132.699 17.3283 132.285 16.9174 131.779 16.9219C131.274 16.9264 130.867 17.3446 130.872 17.8558C130.876 18.3674 131.29 18.7785 131.796 18.7741Z" fill="black"/>
<path d="M131.843 24.0531C132.349 24.0486 132.755 23.6304 132.751 23.1195C132.746 22.6074 132.332 22.1971 131.826 22.2016C131.321 22.206 130.914 22.6237 130.919 23.1358C130.924 23.6467 131.337 24.0576 131.843 24.0531Z" fill="black"/>
<path d="M131.89 29.3386C132.396 29.3341 132.802 28.9154 132.797 28.4044C132.793 27.8931 132.379 27.4823 131.873 27.4868C131.368 27.4913 130.961 27.9094 130.966 28.4207C130.971 28.9317 131.384 29.3431 131.89 29.3386Z" fill="black"/>
<path d="M123.983 21.4848C124.489 21.4803 124.895 21.0617 124.891 20.5507C124.886 20.0394 124.473 19.6286 123.967 19.6331C123.461 19.6376 123.055 20.0557 123.059 20.567C123.064 21.078 123.478 21.4893 123.983 21.4848Z" fill="black"/>
<path d="M124.03 26.7643C124.536 26.7598 124.942 26.3416 124.938 25.8301C124.933 25.3188 124.52 24.9079 124.014 24.9124C123.508 24.9169 123.102 25.3351 123.106 25.8464C123.111 26.3579 123.524 26.7688 124.03 26.7643Z" fill="black"/>
<path d="M129.208 21.4384C129.713 21.4339 130.119 21.0152 130.115 20.5042C130.11 19.9929 129.697 19.582 129.191 19.5866C128.685 19.5911 128.279 20.0092 128.283 20.5205C128.288 21.0315 128.702 21.4429 129.208 21.4384Z" fill="black"/>
<path d="M129.254 26.7178C129.76 26.7133 130.167 26.2951 130.162 25.7836C130.157 25.2723 129.744 24.8615 129.238 24.8659C128.732 24.8704 128.326 25.2885 128.33 25.7999C128.335 26.3114 128.749 26.7223 129.254 26.7178Z" fill="black"/>
<path d="M126.572 18.8205C127.078 18.816 127.484 18.3976 127.48 17.8861C127.475 17.3748 127.061 16.9639 126.555 16.9684C126.05 16.9729 125.643 17.3911 125.648 17.9023C125.652 18.4139 126.066 18.825 126.572 18.8205Z" fill="black"/>
<path d="M126.619 24.0996C127.125 24.0951 127.531 23.677 127.527 23.1659C127.522 22.6539 127.108 22.2435 126.602 22.248C126.097 22.2525 125.69 22.6702 125.695 23.1822C125.7 23.6932 126.113 24.1041 126.619 24.0996Z" fill="black"/>
<path d="M126.666 29.3851C127.172 29.3806 127.578 28.9619 127.574 28.4509C127.569 27.9396 127.156 27.5287 126.649 27.5332C126.144 27.5377 125.737 27.9559 125.742 28.4672C125.746 28.9782 126.16 29.3896 126.666 29.3851Z" fill="black"/>
<path d="M121.389 24.1462C121.895 24.1417 122.301 23.7234 122.297 23.2125C122.292 22.7004 121.878 22.2901 121.373 22.2946C120.867 22.2991 120.461 22.7167 120.465 23.2288C120.47 23.7398 120.884 24.1506 121.389 24.1462Z" fill="black"/>
<path d="M121.436 29.4317C121.942 29.4271 122.348 29.0084 122.344 28.4974C122.339 27.9862 121.926 27.5753 121.42 27.5798C120.915 27.5843 120.508 28.0025 120.512 28.5137C120.517 29.0247 120.931 29.4361 121.436 29.4317Z" fill="black"/>
<path d="M129.443 47.8467C129.948 47.8422 130.354 47.4242 130.35 46.9125C130.345 46.4008 129.931 45.9901 129.426 45.9946C128.92 45.9991 128.514 46.4163 128.518 46.928C128.523 47.4397 128.937 47.8512 129.443 47.8467Z" fill="black"/>
<path d="M124.218 47.8903C124.723 47.8857 125.129 47.4702 125.125 46.9598L125.126 46.9579C125.12 46.4473 124.707 46.0392 124.202 46.0437C123.697 46.0482 123.291 46.4636 123.295 46.9742L123.294 46.9761C123.3 47.4865 123.713 47.8948 124.218 47.8903Z" fill="black"/>
<path d="M131.937 34.6225C132.443 34.618 132.849 34.1996 132.845 33.688C132.84 33.1768 132.426 32.7659 131.92 32.7704C131.415 32.7749 131.008 33.1931 131.013 33.7043C131.018 34.2159 131.431 34.627 131.937 34.6225Z" fill="black"/>
<path d="M131.984 39.9016C132.49 39.8971 132.896 39.4789 132.891 38.9679C132.887 38.4559 132.473 38.0456 131.967 38.0501C131.462 38.0546 131.055 38.4722 131.06 38.9842C131.064 39.4952 131.478 39.9061 131.984 39.9016Z" fill="black"/>
<path d="M132.031 45.1871C132.537 45.1826 132.943 44.7639 132.939 44.2529C132.934 43.7416 132.52 43.3308 132.014 43.3352C131.509 43.3397 131.103 43.7579 131.107 44.2692C131.112 44.7802 131.525 45.1916 132.031 45.1871Z" fill="black"/>
<path d="M124.124 37.3333C124.63 37.3288 125.036 36.9102 125.032 36.3992C125.027 35.8879 124.614 35.4771 124.108 35.4816C123.602 35.4861 123.196 35.9042 123.2 36.4155C123.205 36.9265 123.619 37.3378 124.124 37.3333Z" fill="black"/>
<path d="M124.171 42.6128C124.677 42.6083 125.083 42.1901 125.079 41.6786C125.074 41.1673 124.661 40.7564 124.155 40.7609C123.649 40.7654 123.243 41.1836 123.247 41.6949C123.252 42.2064 123.666 42.6173 124.171 42.6128Z" fill="black"/>
<path d="M129.349 37.2869C129.854 37.2824 130.261 36.8637 130.256 36.3527C130.251 35.8414 129.838 35.4306 129.332 35.4351C128.826 35.4396 128.42 35.8577 128.424 36.369C128.429 36.88 128.843 37.2914 129.349 37.2869Z" fill="black"/>
<path d="M129.396 42.5663C129.901 42.5618 130.307 42.1436 130.303 41.6321C130.298 41.1207 129.885 40.71 129.379 40.7145C128.873 40.7189 128.467 41.1371 128.471 41.6484C128.476 42.1599 128.89 42.5708 129.396 42.5663Z" fill="black"/>
<path d="M126.713 34.669C127.219 34.6645 127.625 34.2461 127.621 33.7346C127.616 33.2233 127.202 32.8124 126.696 32.8169C126.191 32.8214 125.784 33.2396 125.789 33.7508C125.793 34.2624 126.207 34.6735 126.713 34.669Z" fill="black"/>
<path d="M126.76 39.9481C127.266 39.9436 127.672 39.5255 127.668 39.0144C127.663 38.5024 127.25 38.092 126.743 38.0965C126.238 38.101 125.831 38.5187 125.836 39.0307C125.84 39.5417 126.254 39.9526 126.76 39.9481Z" fill="black"/>
<path d="M126.807 45.2336C127.313 45.2291 127.719 44.8104 127.715 44.2994C127.71 43.7881 127.296 43.3772 126.79 43.3817C126.285 43.3862 125.878 43.8044 125.883 44.3157C125.887 44.8267 126.302 45.2381 126.807 45.2336Z" fill="black"/>
<path d="M121.483 34.7156C121.989 34.7111 122.395 34.2926 122.391 33.7811C122.386 33.2698 121.973 32.859 121.467 32.8635C120.961 32.868 120.555 33.2861 120.559 33.7974C120.564 34.3089 120.978 34.72 121.483 34.7156Z" fill="black"/>
<path d="M121.531 39.9946C122.036 39.9902 122.442 39.5719 122.438 39.061C122.433 38.5489 122.02 38.1386 121.514 38.1431C121.009 38.1476 120.602 38.5652 120.606 39.0773C120.611 39.5882 121.025 39.9991 121.531 39.9946Z" fill="black"/>
<path d="M121.577 45.2802C122.083 45.2756 122.489 44.8569 122.485 44.3459C122.48 43.8347 122.067 43.4238 121.561 43.4283C121.056 43.4328 120.649 43.8509 120.653 44.3622C120.658 44.8733 121.072 45.2846 121.577 45.2802Z" fill="black"/>
<path d="M129.584 63.6952C130.089 63.6907 130.495 63.2727 130.491 62.761C130.486 62.2493 130.073 61.8386 129.567 61.8431C129.062 61.8476 128.655 62.2649 128.659 62.7766C128.664 63.2882 129.078 63.6997 129.584 63.6952Z" fill="black"/>
<path d="M124.359 63.7388C124.865 63.7343 125.27 63.3187 125.266 62.8083L125.267 62.8072C125.261 62.2967 124.848 61.8877 124.343 61.8922C123.838 61.8967 123.432 62.3121 123.436 62.8227L123.436 62.8237C123.441 63.3341 123.854 63.7433 124.359 63.7388Z" fill="black"/>
<path d="M132.078 50.471C132.584 50.4666 132.99 50.0481 132.986 49.5365C132.981 49.0253 132.567 48.6144 132.061 48.6189C131.556 48.6234 131.149 49.0416 131.154 49.5528C131.159 50.0644 131.572 50.4755 132.078 50.471Z" fill="black"/>
<path d="M132.125 55.7501C132.631 55.7456 133.037 55.3274 133.033 54.8165C133.028 54.3044 132.614 53.8941 132.108 53.8986C131.603 53.9031 131.197 54.3207 131.201 54.8328C131.206 55.3437 131.619 55.7546 132.125 55.7501Z" fill="black"/>
<path d="M132.172 61.0356C132.678 61.0311 133.084 60.6124 133.08 60.1014C133.075 59.5901 132.661 59.1793 132.156 59.1838C131.65 59.1882 131.244 59.6064 131.248 60.1177C131.253 60.6287 131.666 61.0401 132.172 61.0356Z" fill="black"/>
<path d="M124.265 53.1818C124.771 53.1774 125.178 52.7587 125.173 52.2477C125.168 51.7364 124.755 51.3256 124.249 51.3301C123.743 51.3346 123.337 51.7527 123.342 52.264C123.346 52.775 123.76 53.1864 124.265 53.1818Z" fill="black"/>
<path d="M124.312 58.4613C124.818 58.4568 125.224 58.0386 125.22 57.5271C125.215 57.0158 124.802 56.6049 124.296 56.6094C123.79 56.614 123.384 57.0321 123.388 57.5434C123.393 58.0549 123.807 58.4658 124.312 58.4613Z" fill="black"/>
<path d="M129.49 53.1354C129.995 53.1309 130.402 52.7122 130.397 52.2012C130.392 51.6899 129.979 51.2791 129.473 51.2835C128.967 51.2881 128.561 51.7062 128.565 52.2175C128.57 52.7285 128.984 53.1399 129.49 53.1354Z" fill="black"/>
<path d="M129.537 58.4148C130.042 58.4103 130.449 57.9921 130.444 57.4806C130.439 56.9692 130.026 56.5585 129.52 56.563C129.014 56.5675 128.608 56.9856 128.612 57.4969C128.617 58.0084 129.031 58.4193 129.537 58.4148Z" fill="black"/>
<path d="M126.854 50.5175C127.36 50.513 127.766 50.0946 127.762 49.5831C127.757 49.0718 127.344 48.6609 126.837 48.6654C126.332 48.6699 125.926 49.0881 125.93 49.5994C125.935 50.1109 126.348 50.522 126.854 50.5175Z" fill="black"/>
<path d="M126.901 55.7966C127.407 55.7921 127.813 55.374 127.809 54.8629C127.804 54.3509 127.39 53.9405 126.884 53.945C126.379 53.9495 125.972 54.3672 125.977 54.8792C125.981 55.3902 126.396 55.8011 126.901 55.7966Z" fill="black"/>
<path d="M126.948 61.0821C127.454 61.0776 127.86 60.6589 127.856 60.1479C127.851 59.6366 127.438 59.2257 126.931 59.2302C126.426 59.2347 126.02 59.6529 126.024 60.1642C126.029 60.6752 126.442 61.0866 126.948 61.0821Z" fill="black"/>
<path d="M121.625 50.5641C122.13 50.5596 122.536 50.1411 122.532 49.6296C122.527 49.1183 122.114 48.7075 121.608 48.712C121.103 48.7165 120.696 49.1346 120.7 49.6459C120.705 50.1574 121.119 50.5686 121.625 50.5641Z" fill="black"/>
<path d="M121.671 55.8432C122.177 55.8387 122.583 55.4205 122.579 54.9095C122.574 54.3974 122.161 53.9871 121.655 53.9916C121.15 53.9961 120.743 54.4137 120.747 54.9258C120.752 55.4367 121.166 55.8477 121.671 55.8432Z" fill="black"/>
<path d="M121.719 61.1287C122.224 61.1241 122.63 60.7054 122.626 60.1944C122.621 59.6832 122.208 59.2723 121.702 59.2768C121.197 59.2813 120.79 59.6995 120.794 60.2107C120.799 60.7218 121.213 61.1332 121.719 61.1287Z" fill="black"/>
<path d="M132.219 66.3196C132.725 66.3151 133.131 65.8966 133.127 65.385C133.122 64.8738 132.708 64.4629 132.202 64.4675C131.697 64.4719 131.291 64.8901 131.295 65.4013C131.3 65.9129 131.713 66.324 132.219 66.3196Z" fill="black"/>
<path d="M132.266 71.5986C132.772 71.5942 133.178 71.1759 133.174 70.665C133.169 70.1529 132.755 69.7426 132.25 69.7471C131.744 69.7516 131.337 70.1692 131.342 70.6813C131.347 71.1922 131.76 71.6031 132.266 71.5986Z" fill="black"/>
<path d="M132.313 76.8841C132.819 76.8796 133.225 76.4609 133.221 75.9499C133.216 75.4386 132.803 75.0278 132.296 75.0323C131.791 75.0368 131.385 75.4549 131.389 75.9662C131.394 76.4772 131.807 76.8886 132.313 76.8841Z" fill="black"/>
<path d="M124.406 69.0304C124.912 69.0259 125.318 68.6073 125.314 68.0962C125.309 67.5849 124.896 67.1741 124.39 67.1786C123.884 67.1831 123.478 67.6012 123.482 68.1125C123.487 68.6235 123.901 69.0349 124.406 69.0304Z" fill="black"/>
<path d="M124.453 74.3098C124.959 74.3053 125.366 73.8871 125.361 73.3756C125.356 72.8643 124.943 72.4534 124.437 72.4579C123.931 72.4624 123.525 72.8806 123.53 73.3919C123.534 73.9034 123.948 74.3143 124.453 74.3098Z" fill="black"/>
<path d="M129.631 68.9839C130.136 68.9794 130.543 68.5607 130.538 68.0497C130.533 67.5384 130.12 67.1276 129.614 67.1321C129.108 67.1366 128.702 67.5548 128.706 68.066C128.711 68.577 129.125 68.9884 129.631 68.9839Z" fill="black"/>
<path d="M129.678 74.2633C130.183 74.2588 130.59 73.8406 130.585 73.3291C130.58 72.8177 130.167 72.407 129.661 72.4114C129.155 72.4159 128.749 72.8341 128.753 73.3454C128.758 73.8569 129.172 74.2678 129.678 74.2633Z" fill="black"/>
<path d="M126.995 66.366C127.501 66.3615 127.907 65.9431 127.903 65.4315C127.898 64.9203 127.485 64.5094 126.978 64.514C126.473 64.5184 126.066 64.9366 126.071 65.4479C126.076 65.9594 126.49 66.3705 126.995 66.366Z" fill="black"/>
<path d="M127.042 71.6451C127.548 71.6406 127.954 71.2224 127.95 70.7114C127.945 70.1994 127.532 69.789 127.025 69.7935C126.52 69.798 126.114 70.2157 126.118 70.7277C126.123 71.2387 126.536 71.6496 127.042 71.6451Z" fill="black"/>
<path d="M121.766 66.4126C122.271 66.4081 122.678 65.9896 122.673 65.4781C122.668 64.9668 122.255 64.556 121.749 64.5604C121.244 64.565 120.837 64.9831 120.841 65.4944C120.846 66.0059 121.26 66.417 121.766 66.4126Z" fill="black"/>
<path d="M121.813 71.6917C122.318 71.6872 122.724 71.269 122.72 70.758C122.715 70.2459 122.302 69.8356 121.796 69.8401C121.291 69.8446 120.884 70.2622 120.888 70.7743C120.893 71.2853 121.307 71.6961 121.813 71.6917Z" fill="black"/>
<path d="M181.731 51.2736C181.565 51.027 181.297 50.8558 180.98 50.8586C180.474 50.8632 180.067 51.2811 180.072 51.7926C180.073 51.9286 180.106 52.0551 180.159 52.171L181.731 51.2736Z" fill="black"/>
<path d="M170.078 57.9279L171.532 57.098C171.473 56.6397 171.098 56.2821 170.63 56.2864C170.124 56.2909 169.718 56.7091 169.722 57.2203C169.725 57.512 169.869 57.7599 170.078 57.9279Z" fill="black"/>
<path d="M148.318 70.5299C148.18 70.1885 147.851 69.9475 147.465 69.951C146.959 69.9554 146.553 70.3736 146.557 70.8849C146.559 71.1068 146.649 71.3019 146.779 71.4603L148.318 70.5299Z" fill="black"/>
<path d="M138.004 76.1007C137.91 75.6863 137.558 75.3722 137.12 75.3761C136.621 75.3805 136.222 75.7892 136.217 76.2914L138.004 76.1007Z" fill="black"/>
<path d="M127.888 76.4186C127.953 76.2899 127.998 76.1505 127.997 75.9963C127.992 75.4851 127.578 75.0742 127.073 75.0787C126.733 75.0817 126.45 75.2796 126.295 75.5584L127.888 76.4186Z" fill="black"/>
<path d="M117.516 70.679C117.43 70.2546 117.073 69.9308 116.629 69.9347C116.527 69.9357 116.433 69.964 116.342 69.996L117.516 70.679Z" fill="black"/>
<path d="M114.558 68.9589C114.774 68.7877 114.92 68.5331 114.918 68.2347C114.913 67.7227 114.499 67.3123 113.993 67.3168C113.534 67.3209 113.174 67.6711 113.111 68.1178L114.558 68.9589Z" fill="black"/>
<path d="M104.631 63.1879C104.574 62.7274 104.198 62.3689 103.729 62.3732C103.6 62.3743 103.478 62.4034 103.367 62.453L104.631 63.1879Z" fill="black"/>
<path d="M101.614 61.4335C101.854 61.2647 102.02 60.996 102.018 60.6779C102.013 60.1666 101.599 59.7557 101.094 59.7603C100.616 59.7645 100.24 60.1412 100.201 60.6127L101.614 61.4335Z" fill="black"/>
<path d="M91.5627 55.5906C91.5642 55.5709 91.574 55.554 91.574 55.5339C91.5691 55.0226 91.1555 54.6117 90.6501 54.6162C90.4685 54.6178 90.3098 54.6864 90.1682 54.7797L91.5627 55.5906Z" fill="black"/>
<defs>
<linearGradient id="paint0_linear_431_11246" x1="171.218" y1="67.9443" x2="171.218" y2="248.952" gradientUnits="userSpaceOnUse">
<stop stop-color="#AC6AFF"/>
<stop offset="1" stop-color="#1A1A32"/>
</linearGradient>
<linearGradient id="paint1_linear_431_11246" x1="132.671" y1="14.3691" x2="132.671" y2="76.7701" gradientUnits="userSpaceOnUse">
<stop stop-color="#AC6AFF"/>
<stop offset="1" stop-color="#1A1A32"/>
</linearGradient>
<linearGradient id="paint2_linear_431_11246" x1="133.524" y1="194.913" x2="133.524" y2="239.977" gradientUnits="userSpaceOnUse">
<stop stop-color="#AC6AFF"/>
<stop offset="1" stop-color="#1A1A32"/>
</linearGradient>
<linearGradient id="paint3_linear_431_11246" x1="22.7098" y1="87.123" x2="22.7098" y2="182.487" gradientUnits="userSpaceOnUse">
<stop stop-color="#AC6AFF"/>
<stop offset="1" stop-color="#1A1A32"/>
</linearGradient>
</defs>
</svg>
