<svg width="461" height="371" viewBox="0 0 461 371" fill="none" xmlns="http://www.w3.org/2000/svg">
<path d="M311.259 49.7312L311.277 43.614L305.953 40.5405L305.971 34.4233L300.647 31.2168L300.658 27.5491L302.289 30.3764L305.988 28.3061L306.005 22.1835L300.681 19.11L296.983 21.1802L298.65 24.0695L295.336 22.1563L291.637 24.2265L295.039 27.9785L287.574 23.669L279.927 19.2537L279.944 13.2696L274.759 10.2761L274.621 10.0401L274.637 4.07342L269.314 1L265.615 3.07018L270.921 12.2663L273.774 15.8345L269.28 13.2397L265.581 15.3098L267.26 18.2011L263.938 16.2832L260.24 18.3534L261.97 21.2742L258.597 19.3269L254.898 21.397L258.085 27.0257L258.576 26.683L258.547 36.9818L258.619 37.0228L258.547 38.4781L260.172 42.1256L263.871 40.0553L263.905 28.023L269.229 31.0966L269.195 43.1289L270.007 43.598L268.268 43.3375L270.819 48.2726L271.967 50.7611H274.505L274.501 52.3195L278.168 54.4369L276.822 56.2495L281.577 60.9007L285.276 58.8181L285.265 56.5295L285.276 52.4137L274.518 46.2024L274.534 40.4256L287.607 47.9732L300.578 55.4621L300.564 60.5647L299.88 60.8451L289.799 55.0248L286.1 57.0951L296.846 69.4264L300.545 67.3561L300.555 63.6934L302.187 66.3828L305.886 64.3126L305.92 52.2802L311.243 55.3538L311.209 67.386L311.532 67.5725V70.4596L312.834 72.5298L316.533 70.4596L316.583 52.8047L311.259 49.7312ZM279.891 31.7542L274.568 28.6806L274.586 22.2973L279.909 25.3709L279.891 31.7542ZM295.284 40.6408L295.302 34.2577L300.63 37.3338L300.612 43.7172L295.284 40.6408Z" fill="black" stroke="black" stroke-miterlimit="10" stroke-linejoin="round"/>
<path d="M281.577 54.4841L281.559 60.6013L270.801 54.39L270.818 48.2728L281.577 54.4841Z" fill="#DD734F"/>
<path d="M307.56 51.8015L312.883 54.8751L312.833 72.53L307.51 69.4564L307.544 57.4241L302.22 54.3506L302.186 66.3829L296.863 63.3093L296.879 57.5325L270.835 42.4959L270.818 48.2728L265.495 45.1993L265.529 33.167L260.206 30.0934L260.171 42.1257L254.848 39.052L254.898 21.3972L260.221 24.4708L260.239 18.3536L265.562 21.4272L265.58 15.31L270.903 18.3835L270.921 12.2663L276.244 15.3399L276.227 21.3241L291.619 30.2108L291.636 24.2266L296.965 27.3028L296.948 33.287L302.271 36.4936L302.254 42.6108L307.577 45.6843L307.56 51.8015ZM296.912 45.7875L296.93 39.4043L291.602 36.328L291.584 42.7113L296.912 45.7875ZM276.192 33.8245L276.21 27.4413L270.886 24.3677L270.868 30.7509L276.192 33.8245Z" fill="#DD734F"/>
<path d="M270.938 6.14378L270.921 12.2663L265.597 9.19285L265.615 3.07031L270.938 6.14378Z" fill="#DD734F"/>
<path d="M302.306 24.2539L302.288 30.3765L296.965 27.3028L296.982 21.1803L302.306 24.2539Z" fill="#DD734F"/>
<path d="M296.863 63.3093L296.845 69.4265L286.082 63.2125L286.099 57.0953L296.863 63.3093Z" fill="#DD734F"/>
<path d="M270.818 48.2728L270.801 54.39L281.559 60.6013L281.577 54.4841L270.818 48.2728ZM270.818 48.2728L270.835 42.4959L296.879 57.5325L296.863 63.3093M270.818 48.2728L265.495 45.1993L265.529 33.167L260.206 30.0934L260.171 42.1257L254.848 39.052L254.898 21.3972L260.221 24.4708L260.239 18.3536L265.562 21.4272L265.58 15.31L270.903 18.3835L270.921 12.2663M296.863 63.3093L302.186 66.3829L302.22 54.3506L307.544 57.4241L307.51 69.4564L312.833 72.53L312.883 54.8751L307.56 51.8015L307.577 45.6843L302.254 42.6108L302.271 36.4936L296.948 33.287L296.965 27.3028M296.863 63.3093L296.845 69.4265L286.082 63.2125L286.099 57.0953L296.863 63.3093ZM270.921 12.2663L276.244 15.3399L276.227 21.3241L291.619 30.2108L291.636 24.2266L296.965 27.3028M270.921 12.2663L270.938 6.14378L265.615 3.07031L265.597 9.19285L270.921 12.2663ZM296.965 27.3028L302.288 30.3765L302.306 24.2539L296.982 21.1803L296.965 27.3028ZM296.912 45.7875L296.93 39.4043L291.602 36.328L291.584 42.7113L296.912 45.7875ZM276.192 33.8245L276.21 27.4413L270.886 24.3677L270.868 30.7509L276.192 33.8245Z" stroke="black" stroke-miterlimit="10"/>
<path d="M114.042 230.304H98.8291L62.6658 211.649C59.7175 209.947 54.9473 209.942 52.0183 211.645L16.083 230.304H1V243.109C1.00854 244.225 1.75146 245.341 3.22534 246.192L52.3801 274.571C55.3289 276.274 60.0906 276.274 63.02 274.571L111.855 246.191C113.32 245.34 114.048 244.225 114.042 243.109V230.304Z" fill="black"/>
<path d="M111.82 227.223C114.769 228.925 114.784 231.683 111.855 233.386L63.0197 261.766C60.0905 263.468 55.3285 263.468 52.3798 261.766L3.22501 233.386C0.277014 231.684 0.253822 228.921 3.18302 227.219L52.0182 198.839C54.9474 197.137 59.7174 197.141 62.6654 198.843L111.82 227.223Z" fill="#308BAF" stroke="black" stroke-miterlimit="10"/>
<path d="M114.033 236.339C114.13 237.518 113.405 238.714 111.855 239.614L63.0197 267.994C60.0905 269.696 55.3286 269.696 52.3798 267.994L3.22506 239.615C1.66695 238.715 0.925994 237.519 1.00582 236.34" stroke="#308BAF" stroke-miterlimit="10"/>
<path d="M88.607 230.766C88.6299 230.369 88.6284 229.971 88.607 229.574V216.817L84.9773 216.858C83.5515 215.308 81.7107 218.655 79.4497 217.35C67.2608 210.312 47.5647 210.316 35.4619 217.35C32.9141 218.831 30.9116 215.704 29.4402 217.49L26.449 217.524V229.241C26.4109 229.743 26.4148 230.246 26.449 230.748V230.816H26.4519C26.7769 235.183 29.8238 239.499 35.5987 242.833C47.7876 249.87 67.4832 249.866 79.593 242.829C85.3267 239.497 88.3267 235.182 88.605 230.816H88.607V230.766Z" fill="url(#paint0_linear_431_11275)" stroke="black" stroke-miterlimit="10"/>
<path d="M79.4494 204.429C91.6384 211.466 91.6955 222.875 79.5927 229.908C67.4831 236.945 47.7873 236.949 35.5986 229.912C23.4096 222.875 23.352 211.466 35.4616 204.429C47.5646 197.395 67.2607 197.392 79.4494 204.429Z" fill="white" stroke="black" stroke-miterlimit="10"/>
<path d="M68.8237 210.604C75.1052 214.231 75.1348 220.11 68.8974 223.735C62.6567 227.361 52.5068 227.363 46.2253 223.737C39.9438 220.11 39.914 214.231 46.1548 210.604C52.3918 206.979 62.5422 206.977 68.8237 210.604Z" fill="url(#paint1_linear_431_11275)" stroke="black" stroke-miterlimit="10"/>
<path d="M74.0356 207.576C83.2145 212.876 83.2575 221.467 74.1435 226.763C65.0241 232.063 50.1921 232.066 41.0131 226.767C31.8342 221.467 31.7907 212.876 40.9101 207.576C50.0243 202.28 64.8566 202.277 74.0356 207.576Z" stroke="black" stroke-miterlimit="10"/>
<path d="M46.1547 212.468C52.392 208.844 62.5424 208.842 68.8239 212.468C71.5622 214.049 73.1108 216.059 73.4716 218.122C73.932 215.44 72.3849 212.66 68.8239 210.604C62.5424 206.977 52.392 206.979 46.1547 210.604C42.6344 212.65 41.1112 215.412 41.5783 218.083C41.9301 216.033 43.4518 214.039 46.1547 212.468Z" fill="black"/>
<path d="M70.0444 218.811C70.0444 211.895 64.4377 206.288 57.5215 206.288C50.6047 206.288 44.998 211.895 44.998 218.811L45.0051 218.814C45.0156 220.669 46.2476 222.524 48.6997 223.94C53.6055 226.772 61.533 226.771 66.4067 223.938C68.8423 222.523 70.0544 220.667 70.0444 218.811Z" fill="#308BAF" stroke="black" stroke-miterlimit="10"/>
<path d="M53.6094 194.185V209.327C53.6123 209.907 53.9978 210.487 54.7646 210.93C56.2983 211.816 58.7769 211.815 60.3005 210.93C61.0618 210.487 61.4409 209.907 61.4375 209.327V194.185H53.6094Z" fill="url(#paint2_linear_431_11275)" stroke="black" stroke-miterlimit="10"/>
<path d="M57.5247 196.34C65.3457 196.34 71.686 190 71.686 182.179C71.686 174.358 65.3457 168.018 57.5247 168.018C49.7036 168.018 43.3633 174.358 43.3633 182.179C43.3633 190 49.7036 196.34 57.5247 196.34Z" fill="#DD734F" stroke="black" stroke-miterlimit="10"/>
<path d="M1 230.304V243.554C1.00854 244.67 1.75146 245.786 3.22534 246.637L52.3801 275.016C55.3289 276.718 60.0906 276.718 63.02 275.016L111.855 246.636C113.32 245.785 114.048 244.669 114.042 243.554V230.304" stroke="black" stroke-miterlimit="10"/>
<path d="M19.3525 229.257L19.353 228.14V227.013H10.0898V228.046L10.1082 229.257C9.99536 230.023 10.4446 230.813 11.458 231.398C13.2759 232.448 16.22 232.447 18.0239 231.398C19.0315 230.813 19.4734 230.023 19.3525 229.257Z" fill="black" stroke="black" stroke-miterlimit="10"/>
<path d="M18.0046 224.356C19.8225 225.406 19.83 227.111 18.0239 228.161C16.2199 229.209 13.2758 229.21 11.458 228.161C9.6423 227.113 9.63253 225.406 11.4365 224.358C13.2426 223.308 16.1887 223.308 18.0046 224.356Z" fill="white" stroke="black" stroke-miterlimit="10"/>
<path d="M453.94 249.177L455.338 254.12L459.831 251.776L459.887 232.259L453.998 228.859L449.505 231.203L451.465 239.772L448.08 237.817L448.099 231.057L442.21 227.657L442.22 224.201L443.625 226.634L448.118 224.291L448.137 217.524L442.249 214.125L437.756 216.468L439.349 219.228L436.341 217.491L431.848 219.835L432.864 222.113L427.755 219.163L426.416 218.39L426.435 211.772L420.835 208.539L420.549 207.244L420.565 201.606L414.682 198.209L410.189 200.553L416.535 210.716L417.317 213.218L414.644 211.742L410.15 214.085L412.732 217.409L408.736 215.102L408.771 202.748L402.883 199.348L398.39 201.692L402.692 208.372L402.857 208.21L402.828 218.865L408.716 222.265L408.662 241.386L402.711 237.95L398.219 240.294L410.038 253.895L414.531 251.552L414.606 244.818L414.568 238.398L420.452 241.795L420.438 246.518L420.392 246.494L420.438 246.728L420.434 248.182L420.754 248.367L421.829 253.925L426.321 251.582L426.34 245.194L427.679 245.968L434.907 250.141L436.247 250.914L436.232 256.085L435.967 255.877L435.088 260.026L437.624 263.045L442.117 260.701L442.135 254.314L448.023 257.713L448.005 264.101L447.924 270.831L451.896 273.124L455.327 280.043L459.819 277.699L459.839 270.933L453.889 267.497L453.94 249.177ZM426.357 238.979L420.469 235.579L420.508 221.751L426.396 225.15L426.357 238.979ZM442.152 248.098L436.264 244.698L436.303 230.87L442.192 234.27L442.152 248.098Z" fill="black" stroke="black" stroke-miterlimit="10" stroke-linejoin="round"/>
<path d="M437.756 216.469L437.736 223.235L443.625 226.634L443.644 219.868L437.756 216.469Z" fill="#88E5BE"/>
<path d="M410.188 200.553L410.169 207.319L416.053 210.716L416.072 203.95L410.188 200.553Z" fill="#88E5BE"/>
<path d="M404.223 224.609L398.334 221.209L398.39 201.692L404.278 205.091L404.243 217.446L410.131 220.846L410.15 214.085L416.034 217.334L416.053 210.716L421.941 214.115L421.922 220.734L431.829 226.453L431.848 219.835L437.736 223.235L437.717 230.001L443.606 233.401L443.586 240.161L449.47 243.558L449.505 231.203L455.393 234.603L455.338 254.12L449.45 250.721L449.395 269.841L455.346 273.277L455.326 280.043L443.431 273.175L443.512 266.445L443.53 260.057L437.642 256.658L437.624 263.045L431.735 259.645L431.753 253.258L421.846 247.538L421.828 253.925L415.94 250.526L415.958 244.139L410.075 240.742L410.113 247.162L410.038 253.895L398.199 247.06L398.218 240.294L404.168 243.729L404.223 224.609ZM431.771 247.042L437.659 250.442L437.699 236.613L431.81 233.214L431.771 247.042ZM415.976 237.923L421.864 241.322L421.903 227.494L416.015 224.094L415.976 237.923Z" fill="#88E5BE"/>
<path d="M437.736 223.235L437.756 216.469L443.644 219.868L443.625 226.634L437.736 223.235ZM437.736 223.235L431.848 219.835L431.829 226.453L421.922 220.734L421.941 214.115L416.053 210.716M437.736 223.235L437.717 230.001L443.606 233.401L443.586 240.161L449.47 243.558L449.505 231.203L455.393 234.603L455.338 254.12L449.45 250.721L449.395 269.841L455.346 273.277L455.326 280.043L443.431 273.175L443.512 266.445L443.53 260.057L437.642 256.658L437.624 263.045L431.735 259.645L431.753 253.258L421.846 247.538L421.828 253.925L415.94 250.526L415.958 244.139L410.075 240.742L410.113 247.162L410.038 253.895L398.199 247.06L398.218 240.294L404.168 243.729L404.223 224.609L398.334 221.209L398.39 201.692L404.278 205.091L404.243 217.446L410.131 220.846L410.15 214.085L416.034 217.334L416.053 210.716M416.053 210.716L410.169 207.319L410.188 200.553L416.072 203.95L416.053 210.716ZM431.771 247.042L437.659 250.442L437.699 236.613L431.81 233.214L431.771 247.042ZM415.976 237.923L421.864 241.322L421.903 227.494L416.015 224.094L415.976 237.923Z" stroke="black" stroke-miterlimit="10" stroke-linejoin="round"/>
<path d="M214.802 335.654L160.902 366.978C159.57 367.752 157.925 367.754 156.591 366.984L61.4921 312.078C60.0195 311.228 59.5678 309.312 60.5053 307.894L63.2092 303.803L212.866 326.171L215.904 331.675C216.679 333.08 216.19 334.848 214.802 335.654Z" fill="url(#paint3_linear_431_11275)" stroke="black" stroke-miterlimit="10"/>
<path d="M212.675 326.282L159.744 357.042C158.412 357.816 156.768 357.819 155.434 357.048L63.4021 303.914C63.3167 303.864 63.3164 303.741 63.4019 303.691L116.464 272.855C117.714 272.128 119.259 272.126 120.511 272.85L212.675 326.06C212.76 326.109 212.76 326.233 212.675 326.282Z" fill="#308BAF" stroke="black" stroke-miterlimit="10"/>
<path d="M146.927 295.21L134.431 302.472L121.847 295.207L121.844 290.497L146.93 290.497L146.927 295.21Z" fill="black" stroke="black" stroke-miterlimit="10"/>
<path d="M122.3 298.768L109.798 306.034L91.0527 295.211L91.0559 290.498L122.303 294.055L122.3 298.768Z" fill="black" stroke="black" stroke-miterlimit="10"/>
<path d="M162.372 304.127L149.876 311.389L137.292 304.124L137.289 299.414L162.375 299.414L162.372 304.127Z" fill="black" stroke="black" stroke-miterlimit="10"/>
<path d="M137.879 307.762L125.377 315.028L112.793 307.762L112.796 303.049L137.293 303.049L137.879 307.762Z" fill="black" stroke="black" stroke-miterlimit="10"/>
<path d="M121.903 316.314L109.4 323.58L75.7083 304.128L75.7051 299.818L88.2104 296.862L120.929 311.555L121.903 316.314Z" fill="black" stroke="black" stroke-miterlimit="10"/>
<path d="M131.483 286.294L118.988 293.556L106.404 286.291L106.4 281.581L131.487 281.581L131.483 286.294Z" fill="black" stroke="black" stroke-miterlimit="10"/>
<path d="M168.867 343.43L156.365 350.696L143.781 343.431L143.777 338.721L168.864 338.721L168.867 343.43Z" fill="black" stroke="black" stroke-miterlimit="10"/>
<path d="M153.424 334.513L140.921 341.779L128.337 334.514L128.334 329.804L153.42 329.804L153.424 334.513Z" fill="black" stroke="black" stroke-miterlimit="10"/>
<path d="M137.978 325.596L125.476 332.862L112.892 325.597L112.889 320.887L137.975 320.887L137.978 325.596Z" fill="black" stroke="black" stroke-miterlimit="10"/>
<path d="M177.822 313.048L165.326 320.31L152.741 313.045L152.738 308.335H177.825L177.822 313.048Z" fill="black" stroke="black" stroke-miterlimit="10"/>
<path d="M153.323 316.679L140.82 323.945L128.236 316.679L128.24 311.966L153.326 311.966L153.323 316.679Z" fill="black" stroke="black" stroke-miterlimit="10"/>
<path d="M168.768 325.596L156.266 332.862L143.682 325.596L143.685 320.883L168.771 320.883L168.768 325.596Z" fill="black" stroke="black" stroke-miterlimit="10"/>
<path d="M199.555 325.596L171.709 341.779L159.125 334.513L159.128 329.8L174.476 325.593L168.187 321.962L168.183 317.252L199.559 320.883L199.555 325.596Z" fill="black" stroke="black" stroke-miterlimit="10"/>
<path d="M131.103 281.804L120.097 288.199C119.409 288.599 118.559 288.601 117.87 288.203L106.785 281.803C106.614 281.704 106.613 281.457 106.784 281.358L117.79 274.962C118.478 274.562 119.328 274.561 120.018 274.959L131.102 281.359C131.273 281.457 131.274 281.704 131.103 281.804Z" fill="white" stroke="black" stroke-miterlimit="10"/>
<path d="M161.991 299.638L150.986 306.033C150.298 306.433 149.448 306.435 148.758 306.037L137.674 299.637C137.502 299.538 137.502 299.291 137.673 299.192L148.678 292.796C149.367 292.396 150.216 292.395 150.906 292.793L161.991 299.193C162.162 299.291 162.162 299.538 161.991 299.638Z" fill="white" stroke="black" stroke-miterlimit="10"/>
<path d="M168.482 338.943L157.476 345.339C156.788 345.739 155.938 345.74 155.249 345.342L144.164 338.943C143.993 338.844 143.992 338.597 144.163 338.497L155.169 332.102C155.857 331.702 156.707 331.7 157.396 332.099L168.481 338.498C168.652 338.597 168.653 338.844 168.482 338.943Z" fill="white" stroke="black" stroke-miterlimit="10"/>
<path d="M153.036 330.026L142.031 336.422C141.342 336.822 140.493 336.823 139.803 336.425L128.718 330.026C128.547 329.927 128.547 329.68 128.718 329.58L139.723 323.185C140.412 322.785 141.262 322.783 141.951 323.182L153.035 329.581C153.207 329.68 153.207 329.927 153.036 330.026Z" fill="white" stroke="black" stroke-miterlimit="10"/>
<path d="M168.386 321.106L157.38 327.501C156.692 327.901 155.842 327.902 155.153 327.504L144.068 321.105C143.897 321.006 143.896 320.759 144.067 320.659L155.073 314.264C155.761 313.864 156.611 313.863 157.301 314.261L168.385 320.66C168.556 320.759 168.557 321.006 168.386 321.106Z" fill="white" stroke="black" stroke-miterlimit="10"/>
<path d="M199.175 321.106L172.826 336.418C172.137 336.818 171.287 336.82 170.598 336.421L159.513 330.022C159.342 329.923 159.342 329.676 159.513 329.577L174.089 321.106C174.26 321.007 174.26 320.76 174.088 320.661L168.568 317.474C168.397 317.375 168.397 317.128 168.568 317.029L179.573 310.633C180.262 310.233 181.111 310.232 181.801 310.63L199.175 320.66C199.346 320.759 199.346 321.006 199.175 321.106Z" fill="white" stroke="black" stroke-miterlimit="10"/>
<path d="M177.443 308.558L166.437 314.954C165.749 315.354 164.899 315.355 164.21 314.957L153.125 308.557C152.953 308.458 152.953 308.211 153.124 308.112L164.129 301.716C164.818 301.316 165.668 301.315 166.357 301.713L177.442 308.113C177.613 308.212 177.614 308.459 177.443 308.558Z" fill="white" stroke="black" stroke-miterlimit="10"/>
<path d="M152.942 312.19L141.937 318.585C141.249 318.985 140.399 318.986 139.709 318.588L128.625 312.189C128.453 312.09 128.453 311.843 128.624 311.743L139.629 305.348C140.318 304.948 141.168 304.946 141.857 305.345L152.942 311.744C153.113 311.843 153.113 312.09 152.942 312.19Z" fill="white" stroke="black" stroke-miterlimit="10"/>
<path d="M137.497 303.273L126.492 309.668C125.803 310.068 124.954 310.069 124.264 309.671L113.18 303.272C113.008 303.173 113.008 302.926 113.179 302.826L124.184 296.431C124.873 296.031 125.722 296.03 126.412 296.428L137.497 302.827C137.668 302.926 137.668 303.173 137.497 303.273Z" fill="white" stroke="black" stroke-miterlimit="10"/>
<path d="M121.92 294.278L110.915 300.674C110.226 301.074 109.377 301.075 108.687 300.677L91.4412 290.72C91.2698 290.621 91.2696 290.374 91.4405 290.275L102.446 283.879C103.134 283.479 103.984 283.478 104.674 283.876L121.919 293.833C122.091 293.932 122.091 294.179 121.92 294.278Z" fill="white" stroke="black" stroke-miterlimit="10"/>
<path d="M137.591 321.109L126.586 327.505C125.897 327.905 125.047 327.906 124.358 327.508L113.273 321.109C113.102 321.01 113.102 320.763 113.273 320.663L124.278 314.268C124.966 313.868 125.816 313.866 126.506 314.265L137.59 320.664C137.762 320.763 137.762 321.01 137.591 321.109Z" fill="white" stroke="black" stroke-miterlimit="10"/>
<path d="M121.515 311.828L110.51 318.224C109.821 318.624 108.972 318.625 108.282 318.227L76.0896 299.641C75.9184 299.542 75.9179 299.295 76.0888 299.196L87.0945 292.8C87.7827 292.4 88.6325 292.399 89.3222 292.797L121.515 311.383C121.686 311.482 121.686 311.729 121.515 311.828Z" fill="white" stroke="black" stroke-miterlimit="10"/>
<path d="M146.546 290.721L135.541 297.116C134.852 297.516 134.002 297.518 133.313 297.12L122.228 290.72C122.057 290.621 122.057 290.374 122.228 290.275L133.233 283.879C133.921 283.479 134.771 283.478 135.461 283.876L146.545 290.276C146.717 290.374 146.717 290.621 146.546 290.721Z" fill="white" stroke="black" stroke-miterlimit="10"/>
<path d="M420.625 307.51C420.635 307.312 420.633 307.114 420.625 306.916V296.031L412.721 297.961L393.708 286.912C386.155 282.522 373.882 282.517 366.279 286.906L290.252 330.801L272.028 335.961V345.673C272.017 345.89 272.017 346.107 272.028 346.324V346.579L272.048 346.589C272.284 349.257 274.132 351.885 277.64 353.923L298.944 366.304C306.497 370.693 318.77 370.688 326.363 366.304L414.922 315.174C418.487 313.116 420.367 310.46 420.603 307.768L420.625 307.754V307.51Z" fill="url(#paint4_linear_431_11275)" stroke="black" stroke-miterlimit="10"/>
<path d="M277.72 327.419C270.127 331.803 270.087 338.917 277.639 343.306L298.943 355.686C306.496 360.076 318.769 360.071 326.363 355.686L414.921 304.557C422.523 300.168 422.564 293.064 415.011 288.675L393.707 276.294C386.154 271.905 373.881 271.9 366.279 276.289L277.72 327.419Z" fill="#88E5BE" stroke="black" stroke-miterlimit="10"/>
<path d="M336.63 349.647L407.5 308.827L360.602 281.75L358.959 280.802C358.959 280.802 358.814 280.599 357.957 281.094C357.101 281.588 288.965 320.926 288.965 320.926C288.965 320.926 287.706 321.401 288.825 322.047C289.943 322.693 336.63 349.647 336.63 349.647Z" fill="url(#paint5_linear_431_11275)" stroke="black" stroke-miterlimit="10"/>
<path d="M287.924 321.527L336.629 349.647V360.376" stroke="black" stroke-miterlimit="10"/>
<path d="M358.711 280.659L407.5 308.827V319.46" stroke="black" stroke-miterlimit="10"/>
<path d="M297.334 320.533C295.866 321.381 295.858 322.752 297.322 323.603L332.923 344.033C334.387 344.884 336.755 344.884 338.222 344.037L397.968 309.689C399.435 308.842 399.443 307.47 397.978 306.619L362.378 286.189C360.914 285.339 358.546 285.339 357.078 286.186L297.334 320.533Z" fill="black" stroke="black" stroke-miterlimit="10"/>
<path d="M397.08 283.136C398.252 283.813 398.266 284.905 397.102 285.582C395.937 286.259 394.043 286.259 392.87 285.582C391.706 284.91 391.7 283.813 392.865 283.136C394.029 282.459 395.916 282.463 397.08 283.136Z" fill="#308BAF" stroke="black" stroke-width="0.872926" stroke-miterlimit="10"/>
<path d="M388.243 288.271C389.415 288.948 389.422 290.045 388.257 290.722C387.1 291.394 385.206 291.394 384.034 290.717C382.869 290.045 382.863 288.948 384.02 288.276C385.185 287.599 387.079 287.599 388.243 288.271Z" fill="#308BAF" stroke="black" stroke-width="0.872926" stroke-miterlimit="10"/>
<path d="M397.116 288.271C398.288 288.948 398.295 290.045 397.13 290.722C395.965 291.399 394.079 291.394 392.907 290.717C391.734 290.04 391.728 288.952 392.893 288.275C394.058 287.599 395.944 287.594 397.116 288.271Z" fill="#308BAF" stroke="black" stroke-width="0.872926" stroke-miterlimit="10"/>
<path d="M388.221 283.136C389.386 283.808 389.392 284.905 388.228 285.582C387.063 286.259 385.176 286.254 384.012 285.582C382.84 284.905 382.826 283.812 383.991 283.135C385.155 282.459 387.049 282.459 388.221 283.136Z" fill="#308BAF" stroke="black" stroke-width="0.872926" stroke-miterlimit="10"/>
<path d="M397.08 282.588C398.252 283.265 398.266 284.357 397.102 285.034C395.937 285.711 394.043 285.711 392.87 285.034C391.706 284.362 391.7 283.265 392.865 282.588C394.029 281.911 395.916 281.916 397.08 282.588Z" fill="#308BAF" stroke="black" stroke-width="0.872926" stroke-miterlimit="10"/>
<path d="M388.243 287.723C389.415 288.4 389.422 289.497 388.257 290.174C387.1 290.847 385.206 290.846 384.034 290.17C382.869 289.497 382.863 288.4 384.02 287.728C385.185 287.051 387.079 287.051 388.243 287.723Z" fill="#308BAF" stroke="black" stroke-width="0.872926" stroke-miterlimit="10"/>
<path d="M397.116 287.723C398.288 288.4 398.295 289.497 397.13 290.174C395.965 290.851 394.079 290.846 392.907 290.169C391.734 289.493 391.728 288.404 392.893 287.728C394.058 287.051 395.944 287.046 397.116 287.723Z" fill="#308BAF" stroke="black" stroke-width="0.872926" stroke-miterlimit="10"/>
<path d="M388.221 282.588C389.386 283.26 389.392 284.357 388.228 285.034C387.063 285.711 385.176 285.706 384.012 285.034C382.84 284.357 382.826 283.264 383.991 282.588C385.155 281.911 387.049 281.911 388.221 282.588Z" fill="#308BAF" stroke="black" stroke-width="0.872926" stroke-miterlimit="10"/>
<path d="M304.967 341.11H304.98V339.148H303.392C303.285 339.077 303.202 338.999 303.084 338.931C300.458 337.415 296.197 337.415 293.584 338.933C293.47 339 293.387 339.078 293.282 339.148H291.637V341.11H291.729C291.435 342.288 292.049 343.529 293.615 344.434C296.245 345.952 300.503 345.95 303.112 344.434C304.669 343.529 305.273 342.287 304.967 341.11Z" fill="black" stroke="black" stroke-miterlimit="10"/>
<path d="M303.084 335.827C305.713 337.345 305.725 339.812 303.112 341.33C300.503 342.846 296.245 342.848 293.616 341.33C290.989 339.814 290.975 337.346 293.584 335.829C296.197 334.311 300.458 334.311 303.084 335.827Z" fill="#308BAF" stroke="black" stroke-miterlimit="10"/>
<path d="M404.027 295.06C404.955 295.596 404.96 296.465 404.038 297.001C403.121 297.533 401.621 297.533 400.693 296.997C399.771 296.465 399.766 295.596 400.682 295.064C401.605 294.528 403.105 294.528 404.027 295.06Z" fill="black"/>
<path d="M317.384 348.934L314.881 350.389C314.731 350.476 314.546 350.476 314.395 350.389L311.871 348.932C311.549 348.746 311.548 348.281 311.87 348.094L314.373 346.639C314.523 346.552 314.709 346.551 314.859 346.638L317.383 348.095C317.705 348.282 317.706 348.747 317.384 348.934Z" fill="black"/>
<path d="M359.25 310.519C360.421 311.195 360.878 312.188 360.437 313.11L358.344 317.478C357.919 318.366 356.718 319.064 355.181 319.316L347.653 320.54C346.057 320.801 344.341 320.54 343.17 319.863L337.883 316.811C336.712 316.135 336.256 315.142 336.701 314.217L338.789 309.852C339.219 308.961 340.42 308.263 341.952 308.014L344.544 307.593C344.908 308.146 345.468 308.666 346.24 309.111C349.169 310.802 353.902 310.802 356.811 309.111L359.25 310.519Z" fill="#308BAF"/>
<path d="M354.92 304.067C356.816 305.161 356.82 306.935 354.937 308.029C353.055 309.123 349.998 309.123 348.102 308.029C346.207 306.935 346.192 305.161 348.075 304.067C349.958 302.973 353.025 302.973 354.92 304.067Z" fill="url(#paint6_linear_431_11275)"/>
<path d="M366.6 58.382L368.901 62.3144C369.071 62.6724 369.271 63.0144 369.501 63.3402L369.581 63.4778L369.589 63.4736C371.25 65.7182 374.31 67.1327 378.538 67.2371C387.947 67.4695 399.51 61.1666 404.368 53.1623C406.338 49.9168 406.882 46.9 406.231 44.432L406.252 44.4214L406.205 44.3339C405.917 43.3018 405.42 42.3707 404.717 41.5636L403.475 39.2515L402.464 39.7763C400.808 38.8627 398.69 38.3096 396.131 38.2465C386.725 38.0141 375.16 44.3144 370.301 52.3213C369.199 54.1372 368.559 55.8785 368.304 57.4983L366.6 58.382Z" fill="#DD734F" stroke="black" stroke-miterlimit="10"/>
<path d="M389.954 57.9323C400.057 52.4642 405.679 43.2877 402.512 37.4358C399.345 31.584 388.587 31.2729 378.484 36.7409C368.381 42.2089 362.759 51.3855 365.926 57.2373C369.093 63.0891 379.851 63.4003 389.954 57.9323Z" fill="#88E5BE" stroke="black" stroke-miterlimit="10" stroke-linejoin="round"/>
<path d="M387.829 54.0066C394.19 50.5641 397.729 44.7869 395.735 41.1027C393.741 37.4186 386.969 37.2228 380.608 40.6652C374.248 44.1077 370.708 49.885 372.702 53.5691C374.696 57.2533 381.469 57.4491 387.829 54.0066Z" fill="#88E5BE" stroke="black" stroke-miterlimit="10" stroke-linejoin="round"/>
<path d="M373.274 54.3703C372.996 52.8823 373.384 51.1053 374.534 49.2094C377.593 44.1686 384.874 40.2022 390.796 40.3484C393.284 40.4096 395.127 41.1936 396.212 42.4479C395.752 39.9807 393.46 38.3101 389.764 38.2187C383.842 38.0728 376.562 42.0392 373.503 47.08C371.729 50.0025 371.775 52.638 373.274 54.3703Z" fill="black"/>
<path d="M372.703 83.2401L377.212 80.817C377.586 80.5737 377.977 80.3626 378.388 80.1848L378.546 80.1L378.551 80.1089C381.458 78.9289 385.22 79.3645 389.336 81.7406C398.494 87.0277 405.89 99.8426 405.861 110.362C405.849 114.628 404.604 117.839 402.534 119.824L402.548 119.847L402.452 119.903C401.572 120.724 400.549 121.326 399.403 121.688L396.858 123.178L396.196 122.082C394.073 121.989 391.718 121.279 389.228 119.841C380.073 114.555 372.673 101.742 372.703 91.219C372.71 88.8325 373.115 86.7879 373.819 85.0853L372.703 83.2401Z" fill="#DD734F" stroke="black" stroke-miterlimit="10"/>
<path d="M394.866 124.364C401.329 120.608 401.312 108.517 394.827 97.3574C388.342 86.1982 377.845 80.1971 371.381 83.9534C364.918 87.7097 364.935 99.8012 371.42 110.96C377.905 122.12 388.402 128.121 394.866 124.364Z" fill="#88E5BE" stroke="black" stroke-miterlimit="10" stroke-linejoin="round"/>
<path d="M390.516 116.88C394.586 114.515 394.575 106.903 390.492 99.8776C386.409 92.8522 379.801 89.074 375.731 91.4388C371.662 93.8037 371.673 101.416 375.756 108.441C379.838 115.467 386.447 119.245 390.516 116.88Z" fill="#88E5BE" stroke="black" stroke-miterlimit="10" stroke-linejoin="round"/>
<path d="M376.753 90.9941C375.615 92.2583 374.947 94.1896 374.94 96.681C374.92 103.306 379.579 111.373 385.343 114.7C387.764 116.099 389.99 116.426 391.765 115.858C389.879 117.955 386.703 118.214 383.107 116.138C377.343 112.81 372.684 104.743 372.703 98.1186C372.714 94.2778 374.301 91.7777 376.753 90.9941Z" fill="black"/>
<path d="M400.388 139.496L395.879 137.073C395.506 136.83 395.114 136.618 394.703 136.441L394.545 136.356L394.54 136.365C391.633 135.185 387.871 135.62 383.755 137.996C374.598 143.284 367.201 156.099 367.231 166.618C367.243 170.884 368.488 174.095 370.557 176.08L370.543 176.102L370.64 176.159C371.52 176.98 372.542 177.582 373.689 177.944L376.233 179.434L376.896 178.338C379.018 178.245 381.373 177.535 383.863 176.097C393.019 170.811 400.418 157.998 400.388 147.475C400.381 145.088 399.976 143.044 399.272 141.341L400.388 139.496Z" fill="#88E5BE" stroke="black" stroke-miterlimit="10" stroke-linejoin="round"/>
<path d="M401.637 167.219C408.122 156.059 408.14 143.968 401.676 140.212C395.212 136.456 384.715 142.457 378.23 153.616C371.745 164.775 371.728 176.866 378.192 180.623C384.656 184.379 395.152 178.378 401.637 167.219Z" fill="#DD734F" stroke="black" stroke-miterlimit="10"/>
<path d="M397.303 164.699C401.385 157.674 401.396 150.062 397.327 147.697C393.258 145.332 386.649 149.11 382.566 156.136C378.484 163.161 378.473 170.774 382.542 173.138C386.611 175.503 393.22 171.725 397.303 164.699Z" fill="#DD734F" stroke="black" stroke-miterlimit="10"/>
<path d="M396.338 147.25C397.476 148.514 398.145 150.445 398.152 152.937C398.17 159.561 393.512 167.628 387.748 170.956C385.327 172.354 383.101 172.682 381.326 172.114C383.211 174.211 386.388 174.47 389.985 172.394C395.748 169.066 400.407 160.999 400.388 154.374C400.377 150.534 398.79 148.034 396.338 147.25Z" fill="black"/>
<path d="M110.299 99.9218L111.168 98.9561L108.189 96.9634C105.812 95.0403 102.225 95.0109 98.2198 97.323L80.012 107.835C72.887 111.949 67.1251 121.921 67.1485 130.108L67.149 130.366C67.1602 134.234 68.4713 136.993 70.5914 138.412L70.5948 138.438L73.6937 140.585L74.6873 139.481C76.3358 139.405 78.1644 138.852 80.0968 137.737L98.3045 127.224C105.43 123.111 111.192 113.138 111.168 104.952L111.168 104.693C111.162 102.836 110.847 101.246 110.299 99.9218Z" fill="black" stroke="black" stroke-miterlimit="10"/>
<path d="M101.668 99.6553C108.792 95.5419 114.592 98.8391 114.615 107.026L114.616 107.284C114.639 115.471 108.877 125.443 101.752 129.556L83.544 140.069C76.4195 144.182 70.6197 140.885 70.5965 132.699L70.5958 132.44C70.5726 124.254 76.3348 114.281 83.4593 110.168L101.668 99.6553Z" fill="#308BAF" stroke="black" stroke-miterlimit="10"/>
<path d="M100.794 104.535C106.091 101.477 110.396 103.938 110.414 110.024C110.431 116.11 106.153 123.519 100.857 126.577L84.4139 136.07C79.1172 139.128 74.8123 136.675 74.795 130.589C74.7779 124.502 79.0547 117.086 84.3514 114.028L100.794 104.535Z" fill="url(#paint7_linear_431_11275)" stroke="black" stroke-miterlimit="10"/>
<path d="M100.462 106.708C104.253 104.519 107.336 106.277 107.349 110.632C107.361 114.988 104.298 120.294 100.507 122.483C96.7093 124.676 93.6258 122.918 93.6133 118.563C93.6011 114.207 96.6646 108.901 100.462 106.708Z" fill="#308BAF" stroke="black" stroke-miterlimit="10"/>
<path d="M102.482 107.784C106.272 105.596 109.356 107.353 109.368 111.709C109.381 116.064 106.317 121.371 102.526 123.559C98.7288 125.752 95.6453 123.995 95.6329 119.639C95.6204 115.283 98.6839 109.977 102.482 107.784Z" fill="#88E5BE" stroke="black" stroke-miterlimit="10" stroke-linejoin="round"/>
<path d="M110.299 58.995L111.168 58.0294L108.189 56.0366C105.812 54.1135 102.225 54.0841 98.2198 56.3963L80.012 66.9087C72.887 71.022 67.1251 80.9945 67.1485 89.181L67.149 89.4397C67.1602 93.3074 68.4713 96.0664 70.5914 97.4853L70.5948 97.511L73.6937 99.658L74.6873 98.5541C76.3358 98.4786 78.1644 97.9257 80.0968 96.8099L98.3045 86.2974C105.43 82.184 111.192 72.2117 111.168 64.0252L111.168 63.7665C111.162 61.9096 110.847 60.3193 110.299 58.995Z" fill="black" stroke="black" stroke-miterlimit="10"/>
<path d="M101.668 58.7285C108.792 54.6152 114.592 57.9123 114.615 66.0988L114.616 66.3574C114.639 74.5439 108.877 84.5164 101.752 88.6297L83.544 99.1422C76.4195 103.256 70.6197 99.9584 70.5965 91.7719L70.5958 91.5133C70.5726 83.3269 76.3348 73.3544 83.4593 69.241L101.668 58.7285Z" fill="#308BAF" stroke="black" stroke-miterlimit="10"/>
<path d="M100.794 63.6081C106.091 60.5502 110.396 63.0113 110.414 69.0975C110.431 75.1836 106.153 82.5922 100.857 85.6502L84.4139 95.1436C79.1172 98.2016 74.8123 95.748 74.795 89.6618C74.7779 83.5756 79.0547 76.1595 84.3514 73.1016L100.794 63.6081Z" fill="url(#paint8_linear_431_11275)" stroke="black" stroke-miterlimit="10"/>
<path d="M84.7317 75.8126C88.5225 73.624 91.606 75.381 91.6182 79.7369C91.6307 84.0928 88.5672 89.3988 84.7764 91.5875C80.9786 93.7801 77.8951 92.0229 77.8829 87.6671C77.8704 83.3112 80.9339 78.0052 84.7317 75.8126Z" fill="#308BAF" stroke="black" stroke-miterlimit="10"/>
<path d="M86.751 76.8888C90.5418 74.7001 93.6253 76.4572 93.6377 80.8131C93.6502 85.1689 90.5867 90.475 86.7957 92.6636C82.9981 94.8562 79.9146 93.0991 79.9024 88.7433C79.8899 84.3874 82.9534 79.0814 86.751 76.8888Z" fill="#88E5BE" stroke="black" stroke-miterlimit="10" stroke-linejoin="round"/>
<path d="M184.013 55.9307C184.3 56.0963 184.586 56.4333 184.732 56.8613L188.934 69.1489L198.386 76.1905C199.046 76.68 199.305 77.7643 198.827 78.0225L191.962 81.7363L193.548 93.4939C193.635 94.1401 193.222 94.3885 192.753 94.118C192.629 94.0464 192.501 93.9385 192.378 93.792L183.933 83.8007L175.459 84.0242C175.336 84.0282 175.208 83.9886 175.085 83.9172C174.617 83.6471 174.205 82.9225 174.298 82.3799L175.942 72.4866L169.12 60.8711C168.646 60.0632 168.912 59.2818 169.57 59.5537L179.031 63.4318L183.289 56.0281C183.438 55.7707 183.726 55.765 184.013 55.9307Z" fill="black"/>
<path d="M165.182 61.9264L169.093 59.5677L173.544 62.4792L178.698 64.9648L179.417 58.2587L183.608 55.8208L186.396 64.9648L188.882 76.0588L193.193 94.2175L189.245 96.6509L180.94 82.7879L165.182 61.9264Z" fill="black"/>
<path d="M184.013 55.9307C184.3 56.0963 184.586 56.4333 184.732 56.8613L188.934 69.1489L198.386 76.1905C199.046 76.68 199.305 77.7643 198.827 78.0225L191.962 81.7363L193.548 93.4939C193.635 94.1401 193.222 94.3885 192.753 94.118C192.629 94.0464 192.501 93.9385 192.378 93.792L183.933 83.8007L175.459 84.0242C175.336 84.0282 175.208 83.9886 175.085 83.9172C174.617 83.6471 174.205 82.9225 174.298 82.3799L175.942 72.4866L169.12 60.8711C168.646 60.0632 168.912 59.2818 169.57 59.5537L179.031 63.4318L183.289 56.0281C183.438 55.7707 183.726 55.765 184.013 55.9307Z" stroke="black" stroke-miterlimit="10"/>
<path d="M165.182 61.9264L169.093 59.5677L173.544 62.4792L178.698 64.9648L179.417 58.2587L183.608 55.8208L186.396 64.9648L188.882 76.0588L193.193 94.2175L189.245 96.6509L180.94 82.7879L165.182 61.9264Z" stroke="black" stroke-miterlimit="10"/>
<path d="M179.89 58.3555C180.177 58.5211 180.463 58.8582 180.609 59.2861L184.811 71.5737L194.263 78.6153C194.923 79.1048 195.181 80.1891 194.704 80.4473L187.839 84.1611L189.424 95.9187C189.511 96.5649 189.098 96.8133 188.63 96.5428C188.506 96.4712 188.378 96.3633 188.254 96.2168L179.81 86.2255L171.336 86.449C171.213 86.453 171.085 86.4134 170.961 86.342C170.494 86.0719 170.082 85.3473 170.175 84.8047L171.818 74.9114L164.997 63.2959C164.522 62.488 164.789 61.7066 165.447 61.9785L174.908 65.8566L179.166 58.453C179.315 58.1955 179.603 58.1898 179.89 58.3555Z" fill="#88E5BE" stroke="black" stroke-miterlimit="10" stroke-linejoin="round"/>
<path d="M247.341 92.2608C247.628 92.4264 247.914 92.7634 248.06 93.1914L252.262 105.479L261.714 112.521C262.375 113.01 262.633 114.094 262.155 114.353L255.29 118.066L256.876 129.824C256.962 130.47 256.549 130.719 256.081 130.448C255.957 130.376 255.829 130.269 255.705 130.122L247.261 120.131L238.787 120.354C238.664 120.358 238.536 120.319 238.412 120.247C237.945 119.977 237.533 119.253 237.626 118.71L239.269 108.817L232.448 97.2012C231.973 96.3933 232.24 95.6119 232.898 95.8838L242.359 99.7618L246.617 92.3582C246.766 92.1008 247.054 92.095 247.341 92.2608Z" fill="black"/>
<path d="M228.51 98.2564L232.421 95.8978L236.872 98.8093L242.025 101.295L242.745 94.5887L246.936 92.1508L249.724 101.295L252.21 112.389L256.521 130.548L252.573 132.981L244.268 119.118L228.51 98.2564Z" fill="black"/>
<path d="M247.341 92.2608C247.628 92.4264 247.914 92.7634 248.06 93.1914L252.262 105.479L261.714 112.521C262.375 113.01 262.633 114.094 262.155 114.353L255.29 118.066L256.876 129.824C256.962 130.47 256.549 130.719 256.081 130.448C255.957 130.376 255.829 130.269 255.705 130.122L247.261 120.131L238.787 120.354C238.664 120.358 238.536 120.319 238.412 120.247C237.945 119.977 237.533 119.253 237.626 118.71L239.269 108.817L232.448 97.2012C231.973 96.3933 232.24 95.6119 232.898 95.8838L242.359 99.7618L246.617 92.3582C246.766 92.1008 247.054 92.095 247.341 92.2608Z" stroke="black" stroke-miterlimit="10"/>
<path d="M228.51 98.2564L232.421 95.8978L236.872 98.8093L242.025 101.295L242.745 94.5887L246.936 92.1508L249.724 101.295L252.21 112.389L256.521 130.548L252.573 132.981L244.268 119.118L228.51 98.2564Z" stroke="black" stroke-miterlimit="10"/>
<path d="M243.22 94.6856C243.507 94.8512 243.793 95.1882 243.939 95.6162L248.14 107.904L257.593 114.945C258.253 115.435 258.511 116.519 258.034 116.777L251.169 120.491L252.754 132.249C252.841 132.895 252.428 133.143 251.96 132.873C251.836 132.801 251.708 132.693 251.584 132.547L243.14 122.556L234.666 122.779C234.543 122.783 234.415 122.743 234.291 122.672C233.824 122.402 233.412 121.677 233.505 121.135L235.148 111.242L228.327 99.626C227.852 98.8181 228.119 98.0367 228.777 98.3086L238.238 102.187L242.496 94.783C242.645 94.5256 242.933 94.5198 243.22 94.6856Z" fill="#88E5BE" stroke="black" stroke-miterlimit="10" stroke-linejoin="round"/>
<path d="M215.585 53.5059C215.872 53.6715 216.158 54.0085 216.304 54.4365L220.506 66.7241L229.958 73.7657C230.619 74.2552 230.877 75.3395 230.399 75.5977L223.534 79.3115L225.12 91.0691C225.207 91.7153 224.793 91.9637 224.325 91.6932C224.201 91.6216 224.073 91.5137 223.95 91.3672L215.505 81.3759L207.031 81.5994C206.908 81.6034 206.78 81.5638 206.656 81.4924C206.189 81.2223 205.777 80.4977 205.87 79.9551L207.513 70.0618L200.692 58.4463C200.218 57.6384 200.484 56.857 201.142 57.1289L210.603 61.007L214.861 53.6033C215.01 53.3459 215.298 53.3402 215.585 53.5059Z" fill="black"/>
<path d="M196.754 59.5016L200.665 57.1429L205.117 60.0544L210.27 62.54L210.989 55.8339L215.18 53.396L217.969 62.54L220.454 73.634L224.765 91.7927L220.817 94.2261L212.513 80.3631L196.754 59.5016Z" fill="black"/>
<path d="M215.585 53.5059C215.872 53.6715 216.158 54.0085 216.304 54.4365L220.506 66.7241L229.958 73.7657C230.619 74.2552 230.877 75.3395 230.399 75.5977L223.534 79.3115L225.12 91.0691C225.207 91.7153 224.793 91.9637 224.325 91.6932C224.201 91.6216 224.073 91.5137 223.95 91.3672L215.505 81.3759L207.031 81.5994C206.908 81.6034 206.78 81.5638 206.656 81.4924C206.189 81.2223 205.777 80.4977 205.87 79.9551L207.513 70.0618L200.692 58.4463C200.218 57.6384 200.484 56.857 201.142 57.1289L210.603 61.007L214.861 53.6033C215.01 53.3459 215.298 53.3402 215.585 53.5059Z" stroke="black" stroke-miterlimit="10"/>
<path d="M196.754 59.5016L200.665 57.1429L205.117 60.0544L210.27 62.54L210.989 55.8339L215.18 53.396L217.969 62.54L220.454 73.634L224.765 91.7927L220.817 94.2261L212.513 80.3631L196.754 59.5016Z" stroke="black" stroke-miterlimit="10"/>
<path d="M211.462 55.9307C211.749 56.0963 212.035 56.4333 212.181 56.8613L216.383 69.1489L225.835 76.1905C226.496 76.68 226.754 77.7643 226.276 78.0225L219.411 81.7363L220.997 93.4939C221.083 94.1401 220.67 94.3885 220.202 94.118C220.078 94.0464 219.95 93.9385 219.826 93.792L211.382 83.8007L202.908 84.0242C202.785 84.0282 202.657 83.9886 202.533 83.9172C202.066 83.6471 201.654 82.9225 201.747 82.3799L203.39 72.4866L196.569 60.8711C196.094 60.0632 196.361 59.2818 197.019 59.5537L206.48 63.4318L210.738 56.0281C210.887 55.7707 211.175 55.765 211.462 55.9307Z" fill="#88E5BE" stroke="black" stroke-miterlimit="10" stroke-linejoin="round"/>
<path d="M346.461 94.9224C350.582 94.9224 353.922 91.5819 353.922 87.4612C353.922 83.3405 350.582 80 346.461 80C342.341 80 339 83.3405 339 87.4612C339 91.5819 342.341 94.9224 346.461 94.9224Z" fill="#308BAF" stroke="black" stroke-miterlimit="10"/>
<path d="M217.999 34.998C225.73 34.998 231.998 28.7304 231.998 20.999C231.998 13.2676 225.73 7 217.999 7C210.268 7 204 13.2676 204 20.999C204 28.7304 210.268 34.998 217.999 34.998Z" fill="url(#paint9_linear_431_11275)" stroke="black" stroke-miterlimit="10"/>
<path d="M238.5 369C243.194 369 247 365.194 247 360.5C247 355.806 243.194 352 238.5 352C233.806 352 230 355.806 230 360.5C230 365.194 233.806 369 238.5 369Z" fill="#DD734F" stroke="black" stroke-miterlimit="10"/>
<defs>
<linearGradient id="paint0_linear_431_11275" x1="57.5227" y1="212.073" x2="57.5227" y2="248.109" gradientUnits="userSpaceOnUse">
<stop stop-color="#AC6AFF"/>
<stop offset="1" stop-color="#1A1A32"/>
</linearGradient>
<linearGradient id="paint1_linear_431_11275" x1="57.5247" y1="207.885" x2="57.5247" y2="226.456" gradientUnits="userSpaceOnUse">
<stop stop-color="#AC6AFF"/>
<stop offset="1" stop-color="#1A1A32"/>
</linearGradient>
<linearGradient id="paint2_linear_431_11275" x1="57.5234" y1="194.185" x2="57.5234" y2="211.594" gradientUnits="userSpaceOnUse">
<stop stop-color="#AC6AFF"/>
<stop offset="1" stop-color="#1A1A32"/>
</linearGradient>
<linearGradient id="paint3_linear_431_11275" x1="138.144" y1="303.803" x2="138.144" y2="367.56" gradientUnits="userSpaceOnUse">
<stop stop-color="#AC6AFF"/>
<stop offset="1" stop-color="#1A1A32"/>
</linearGradient>
<linearGradient id="paint4_linear_431_11275" x1="346.326" y1="283.617" x2="346.326" y2="369.594" gradientUnits="userSpaceOnUse">
<stop stop-color="#AC6AFF"/>
<stop offset="1" stop-color="#1A1A32"/>
</linearGradient>
<linearGradient id="paint5_linear_431_11275" x1="347.931" y1="280.761" x2="347.931" y2="349.647" gradientUnits="userSpaceOnUse">
<stop stop-color="#AC6AFF"/>
<stop offset="1" stop-color="#1A1A32"/>
</linearGradient>
<linearGradient id="paint6_linear_431_11275" x1="351.509" y1="303.246" x2="351.509" y2="308.85" gradientUnits="userSpaceOnUse">
<stop stop-color="#AC6AFF"/>
<stop offset="1" stop-color="#1A1A32"/>
</linearGradient>
<linearGradient id="paint7_linear_431_11275" x1="92.6043" y1="103.221" x2="92.6043" y2="137.386" gradientUnits="userSpaceOnUse">
<stop stop-color="#AC6AFF"/>
<stop offset="1" stop-color="#1A1A32"/>
</linearGradient>
<linearGradient id="paint8_linear_431_11275" x1="92.6043" y1="62.2939" x2="92.6043" y2="96.4593" gradientUnits="userSpaceOnUse">
<stop stop-color="#AC6AFF"/>
<stop offset="1" stop-color="#1A1A32"/>
</linearGradient>
<linearGradient id="paint9_linear_431_11275" x1="217.999" y1="7" x2="217.999" y2="34.998" gradientUnits="userSpaceOnUse">
<stop stop-color="#AC6AFF"/>
<stop offset="1" stop-color="#1A1A32"/>
</linearGradient>
</defs>
</svg>
