<svg width="328" height="40" viewBox="0 0 328 40" fill="none" xmlns="http://www.w3.org/2000/svg">
<rect width="40" height="40" rx="20" fill="#15131D"/>
<g clip-path="url(#clip0_431_20683)">
<path d="M18.4467 18.6204C18.2079 18.64 17.9851 18.7488 17.8228 18.9251C17.6604 19.1013 17.5703 19.3322 17.5703 19.5718C17.5703 19.8115 17.6604 20.0423 17.8228 20.2186C17.9851 20.3949 18.2079 20.5036 18.4467 20.5233C18.5669 20.5189 18.685 20.4907 18.7942 20.4404C18.9035 20.3901 19.0017 20.3186 19.0832 20.2302C19.1647 20.1417 19.2278 20.038 19.269 19.925C19.3102 19.812 19.3286 19.692 19.3231 19.5718C19.329 19.4516 19.3109 19.3314 19.2699 19.2182C19.2289 19.105 19.1657 19.0011 19.0842 18.9126C19.0026 18.824 18.9042 18.7526 18.7948 18.7024C18.6853 18.6523 18.567 18.6244 18.4467 18.6204ZM21.5753 18.6204C21.3838 18.6047 21.192 18.6471 21.025 18.7421C20.8579 18.8371 20.7235 18.9803 20.6392 19.153C20.5549 19.3256 20.5246 19.5197 20.5524 19.7099C20.5802 19.9 20.6647 20.0773 20.7949 20.2186C20.9251 20.3599 21.0949 20.4587 21.2821 20.502C21.4693 20.5452 21.6652 20.531 21.8442 20.4611C22.0232 20.3912 22.1769 20.269 22.2853 20.1103C22.3937 19.9516 22.4517 19.764 22.4517 19.5718C22.4571 19.4519 22.4388 19.332 22.3978 19.2191C22.3567 19.1063 22.2938 19.0026 22.2125 18.9142C22.1312 18.8258 22.0333 18.7543 21.9243 18.7039C21.8153 18.6534 21.6974 18.6251 21.5774 18.6204H21.5753Z" fill="#757185"/>
<path d="M25.7429 11.4287H14.2572C14.0257 11.4293 13.7965 11.4755 13.5829 11.5646C13.3693 11.6538 13.1753 11.7842 13.0121 11.9484C12.8489 12.1126 12.7197 12.3073 12.6318 12.5215C12.544 12.7357 12.4992 12.9651 12.5 13.1966V24.783C12.4992 25.0145 12.544 25.2439 12.6318 25.458C12.7197 25.6722 12.8489 25.867 13.0121 26.0312C13.1753 26.1953 13.3693 26.3258 13.5829 26.4149C13.7965 26.5041 14.0257 26.5503 14.2572 26.5509H23.9772L23.5229 24.9651L24.62 25.983L25.6572 26.943L27.5 28.5716V13.1966C27.5009 12.9651 27.4561 12.7357 27.3682 12.5215C27.2803 12.3073 27.1511 12.1126 26.9879 11.9484C26.8247 11.7842 26.6307 11.6538 26.4171 11.5646C26.2035 11.4755 25.9744 11.4293 25.7429 11.4287V11.4287ZM22.4343 22.6251C22.4343 22.6251 22.1257 22.2566 21.8686 21.9287C22.4903 21.7834 23.0407 21.4229 23.4222 20.9109C23.1137 21.1161 22.7831 21.2858 22.4364 21.4166C22.0377 21.5868 21.6207 21.7104 21.1936 21.7851C20.4595 21.9203 19.7066 21.9174 18.9736 21.7766C18.5432 21.6924 18.1215 21.569 17.7136 21.408C17.3691 21.2745 17.0401 21.1042 16.7322 20.9001C17.099 21.4018 17.6295 21.7596 18.2322 21.9116C17.975 22.2373 17.6579 22.623 17.6579 22.623C17.1487 22.6367 16.644 22.5251 16.1881 22.2979C15.7322 22.0707 15.3392 21.7349 15.0436 21.3201C15.0707 19.5826 15.492 17.874 16.2757 16.323C16.9666 15.7804 17.809 15.4659 18.6864 15.423L18.7722 15.5259C17.9474 15.73 17.1777 16.1133 16.5179 16.6487C16.5179 16.6487 16.7064 16.5459 17.0236 16.4001C17.6404 16.1187 18.2978 15.9364 18.9714 15.8601C19.0194 15.8502 19.0682 15.8445 19.1172 15.843C19.6915 15.7682 20.2728 15.7624 20.8486 15.8259C21.754 15.9293 22.6305 16.2088 23.4286 16.6487C22.8022 16.1389 22.0748 15.7678 21.2943 15.5601L21.4143 15.423C22.2917 15.4659 23.1341 15.7804 23.825 16.323C24.6087 17.874 25.03 19.5826 25.0572 21.3201C24.7594 21.7349 24.3648 22.0706 23.9076 22.298C23.4505 22.5255 22.9447 22.6378 22.4343 22.6251Z" fill="#757185"/>
</g>
<rect x="72" width="40" height="40" rx="20" fill="#15131D"/>
<g clip-path="url(#clip1_431_20683)">
<path d="M100.571 14.6968C99.9286 14.9647 99.2857 15.179 98.5357 15.2326C99.2857 14.804 99.8214 14.1076 100.089 13.304C99.3929 13.7326 98.6429 14.0004 97.8393 14.1611C97.1964 13.4647 96.2857 13.0361 95.3214 13.0361C93.3929 13.0361 91.7857 14.5897 91.7857 16.5718C91.7857 16.8397 91.8393 17.1076 91.8929 17.3754C88.9464 17.2147 86.375 15.8218 84.6071 13.679C84.2857 14.2147 84.125 14.804 84.125 15.4468C84.125 16.679 84.7679 17.7504 85.6786 18.3933C85.0893 18.3933 84.5536 18.2326 84.0714 17.9647V18.0183C84.0714 19.7326 85.3036 21.1254 86.9107 21.4468C86.5893 21.5004 86.3214 21.554 86 21.554C85.7857 21.554 85.5714 21.554 85.3571 21.5004C85.7857 22.8933 87.125 23.9111 88.625 23.9647C87.4464 24.929 85.8929 25.4647 84.2321 25.4647C83.9643 25.4647 83.6429 25.4647 83.375 25.4111C84.9821 26.3754 86.8571 26.9647 88.8393 26.9647C95.3214 26.9647 98.8571 21.6076 98.8571 16.9468C98.8571 16.7861 98.8571 16.6254 98.8571 16.5183C99.5 15.9826 100.089 15.3933 100.571 14.6968Z" fill="#757185"/>
</g>
<rect x="144" width="40" height="40" rx="20" fill="#15131D"/>
<g clip-path="url(#clip2_431_20683)">
<path d="M163.997 22.7147C165.497 22.7147 166.712 21.4995 166.712 20.0004C166.712 18.5014 165.497 17.2861 163.997 17.2861C162.498 17.2861 161.283 18.5014 161.283 20.0004C161.283 21.4995 162.498 22.7147 163.997 22.7147Z" fill="#757185"/>
<path d="M167.391 11.8574H160.605C157.986 11.8574 155.855 13.9888 155.855 16.6081V23.3938C155.855 26.0124 157.987 28.1431 160.606 28.1431H167.392C170.01 28.1431 172.141 26.0117 172.141 23.3925V16.6067C172.141 13.9881 170.01 11.8574 167.391 11.8574ZM163.998 24.0717C161.753 24.0717 159.927 22.2457 159.927 20.0003C159.927 17.7549 161.753 15.9289 163.998 15.9289C166.244 15.9289 168.07 17.7549 168.07 20.0003C168.07 22.2457 166.244 24.0717 163.998 24.0717ZM168.748 15.9289C168.374 15.9289 168.07 15.6249 168.07 15.2503C168.07 14.8757 168.374 14.5717 168.748 14.5717C169.123 14.5717 169.427 14.8757 169.427 15.2503C169.427 15.6249 169.123 15.9289 168.748 15.9289Z" fill="#757185"/>
</g>
<rect x="216" width="40" height="40" rx="20" fill="#15131D"/>
<g clip-path="url(#clip3_431_20683)">
<path d="M244.536 13.2334C244.522 13.1701 244.492 13.1117 244.448 13.0639C244.404 13.0162 244.348 12.981 244.287 12.9618C244.061 12.9174 243.829 12.9341 243.612 13.01C243.612 13.01 228.592 18.4084 227.735 19.0063C227.549 19.1348 227.488 19.2093 227.457 19.2977C227.309 19.723 227.771 19.9105 227.771 19.9105L231.642 21.1722C231.707 21.1835 231.774 21.1794 231.838 21.1604C232.718 20.6043 240.698 15.5654 241.159 15.3961C241.231 15.3741 241.285 15.3961 241.273 15.4497C241.085 16.0957 234.194 22.2195 234.156 22.257C234.137 22.2721 234.123 22.2916 234.113 22.3136C234.104 22.3356 234.1 22.3596 234.102 22.3834L233.742 26.1607C233.742 26.1607 233.591 27.3393 234.767 26.1607C235.602 25.3255 236.402 24.6345 236.803 24.2986C238.134 25.2173 239.567 26.2336 240.185 26.7629C240.288 26.8635 240.411 26.9423 240.546 26.9944C240.681 27.0465 240.825 27.0709 240.969 27.0661C241.558 27.0436 241.719 26.3991 241.719 26.3991C241.719 26.3991 244.455 15.3875 244.547 13.9116C244.556 13.767 244.568 13.6743 244.569 13.5752C244.574 13.4602 244.563 13.3452 244.536 13.2334Z" fill="#757185"/>
</g>
<rect x="288" width="40" height="40" rx="20" fill="#15131D"/>
<g clip-path="url(#clip4_431_20683)">
<path d="M306.103 28.0363V21.072H303.713V17.8577H306.103V15.613C306.103 13.1679 307.651 11.9648 309.832 11.9648C310.877 11.9648 311.775 12.0426 312.037 12.0774V14.6327L310.524 14.6334C309.338 14.6334 309.07 15.1971 309.07 16.0243V17.8577H312.284L311.213 21.072H309.07V28.0363H306.103Z" fill="#757185"/>
</g>
<defs>
<clipPath id="clip0_431_20683">
<rect width="17.1429" height="17.1429" fill="white" transform="translate(11.4277 11.4287)"/>
</clipPath>
<clipPath id="clip1_431_20683">
<rect width="17.1429" height="17.1429" fill="white" transform="translate(83.4277 11.4287)"/>
</clipPath>
<clipPath id="clip2_431_20683">
<rect width="17.1429" height="17.1429" fill="white" transform="translate(155.428 11.4287)"/>
</clipPath>
<clipPath id="clip3_431_20683">
<rect width="17.1429" height="17.1429" fill="white" transform="translate(227.428 11.4287)"/>
</clipPath>
<clipPath id="clip4_431_20683">
<rect width="17.1429" height="17.1429" fill="white" transform="translate(299.428 11.4287)"/>
</clipPath>
</defs>
</svg>
