<svg width="256" height="256" viewBox="0 0 256 256" fill="none" xmlns="http://www.w3.org/2000/svg">
<path d="M196.286 36.3266L195.358 35.5366L194.414 34.7627L193.453 34.0043L192.477 33.2632L191.487 32.5381L190.482 31.8306L189.464 31.1409L188.433 30.4689L187.389 29.8151L186.333 29.1807L185.267 28.5655L184.189 27.9691L183.101 27.3931L182.005 26.837L180.899 26.3017L179.785 25.7868L178.663 25.2929L177.535 24.8209L176.4 24.3699L175.259 23.9414L174.114 23.5348L172.964 23.1503L171.81 22.7883L170.653 22.4493L169.494 22.1334L168.333 21.8411L167.171 21.5719L166.008 21.3263L164.846 21.1042L163.684 20.9063L162.524 20.732L161.366 20.5818L160.211 20.4558L159.059 20.3544L157.912 20.2772L156.769 20.2247L155.632 20.1968L154.5 20.193L153.376 20.2139L152.259 20.2595L151.15 20.3298L150.05 20.4242L148.959 20.5438L147.879 20.6875L146.809 20.8559L145.749 21.0484L144.702 21.2651L143.668 21.5059L142.646 21.7714L141.639 22.0605L140.646 22.3737L139.667 22.7105L138.704 23.0709L137.758 23.4544L136.827 23.8609L135.914 24.2905L135.019 24.7431L134.143 25.2178L133.285 25.7155L132.446 26.2347L131.628 26.7753L130.831 27.3379L130.053 27.9214L129.298 28.5258L128.564 29.1506L127.853 29.7958L127.165 30.4603L126.5 31.1447L125.859 31.8483L125.242 32.5702L124.649 33.3103L124.082 34.0687L123.54 34.8442L123.023 35.6369L122.533 36.4462L122.07 37.2716L121.633 38.1126L121.222 38.9685L120.84 39.8395L120.485 40.7239L120.158 41.6222L119.858 42.534L119.588 43.4581L119.346 44.3945L119.132 45.3416L118.948 46.3006L118.793 47.2692L118.667 48.2474L118.57 49.2353L118.503 50.2318L118.465 51.2358L118.457 52.2473L118.479 53.2658L118.53 54.2901L118.611 55.3199L118.721 56.355L118.862 57.3938L119.032 58.4365L119.231 59.4817L119.461 60.5297L119.72 61.5787L120.007 62.6289L120.324 63.6795L120.669 64.7302L121.044 65.7792L121.447 66.8266L121.879 67.8719L122.338 68.914L122.825 69.9529L123.34 70.9869L123.882 72.0161L124.452 73.0399L125.047 74.0568L125.67 75.0672L126.317 76.0701L126.991 77.0645L127.689 78.0497L128.413 79.0258L129.16 79.9917L129.931 80.9469L130.726 81.8903L131.543 82.8219L132.383 83.7411L133.244 84.647L134.127 85.5389L135.03 86.4163L135.953 87.2792L136.896 88.1261L137.858 88.9574L138.838 89.7715L139.836 90.569L140.851 91.3488L141.882 92.1099L142.929 92.8527L143.991 93.5767L145.067 94.2809L146.157 94.9647L147.261 95.6287L148.376 96.2712L149.503 96.8923L150.641 97.4919L151.789 98.0695L152.947 98.6246L154.113 99.1566L155.286 99.6656L156.468 100.151L157.655 100.613L158.848 101.05L160.046 101.463L161.247 101.852L162.453 102.216L163.66 102.555L164.87 102.868L166.08 103.156L167.291 103.418L168.501 103.655L169.709 103.866L170.916 104.05L172.119 104.209L173.319 104.341L174.514 104.447L175.705 104.527L176.889 104.58L178.067 104.607L179.237 104.608L180.399 104.582L181.553 104.53L182.696 104.452L183.829 104.348L184.952 104.218L186.062 104.061L187.16 103.879L188.245 103.672L189.316 103.439L190.373 103.18L191.415 102.897L192.441 102.589L193.451 102.255L194.444 101.898L195.42 101.516L196.377 101.11L197.316 100.681L198.235 100.229L199.135 99.753L200.014 99.2547L200.873 98.7345L201.71 98.1918L202.526 97.6276L203.319 97.0419L204.09 96.4359L204.837 95.8094L205.561 95.1626L206.261 94.4965L206.937 93.8111L207.587 93.1069L208.213 92.385L208.814 91.6449L209.388 90.8871L209.937 90.1132L210.459 89.3226L210.955 88.5165L211.423 87.6949L211.865 86.8582L212.279 86.0076L212.666 85.1436L213.025 84.2662L213.356 83.3759L213.659 82.4738L213.934 81.5599L214.181 80.6353L214.398 79.7005L214.588 78.7555L214.749 77.8014L214.882 76.8387L214.986 75.8674L215.061 74.8892L215.108 73.9039L215.126 72.9123L215.115 71.9153L215.076 70.9129L215.008 69.9057L214.912 68.8947L214.788 67.8805L214.635 66.8637L214.454 65.8441L214.246 64.8235L214.009 63.8018L213.745 62.7796L213.453 61.7579L213.135 60.7367L212.789 59.7166L212.417 58.6992L212.018 57.684L211.592 56.672L211.141 55.6637L210.665 54.6597L210.162 53.6605L209.635 52.6672L209.083 51.6793L208.506 50.6984L207.906 49.7239L207.281 48.758L206.634 47.7996L205.964 46.8503L205.27 45.9101L204.555 44.9796L203.818 44.0598L203.061 43.1502L202.282 42.2524L201.482 41.3664L200.663 40.4928L199.824 39.632L198.967 38.7846L198.091 37.9506L197.198 37.1311L196.286 36.3266Z" fill="#0E0C15"/>
<path d="M184.847 43.3579L185.372 43.772L185.91 44.1721L186.436 44.577L186.923 45.0055L187.355 45.4716L187.751 45.9645L188.14 46.467L188.55 46.9631L188.998 47.4404L189.463 47.9081L189.914 48.3779L190.319 48.8627L190.658 49.3723L190.953 49.8995L191.237 50.4352L191.546 50.9683L191.899 51.4929L192.274 52.0104L192.632 52.528L192.94 53.0514L193.172 53.585L193.355 54.1278L193.525 54.6759L193.721 55.2267L193.966 55.7781L194.235 56.3273L194.488 56.8738L194.686 57.416L194.803 57.9539L194.866 58.4913L194.914 59.0314L194.988 59.5795L195.116 60.1367L195.269 60.6972L195.406 61.2523L195.486 61.7934L195.482 62.3153L195.422 62.8264L195.347 63.3386L195.297 63.862L195.301 64.4048L195.331 64.9556L195.346 65.4983L195.305 66.018L195.18 66.504L194.999 66.9695L194.802 67.4329L194.629 67.9123L194.508 68.4197L194.413 68.9399L194.305 69.45L194.144 69.9278L193.902 70.359L193.605 70.7607L193.293 71.1571L193.003 71.5738L192.762 72.0264L192.545 72.4957L192.316 72.9537L192.039 73.3715L191.689 73.7309L191.288 74.0521L190.872 74.3659L190.475 74.7032L190.121 75.0835L189.79 75.4836L189.449 75.8713L189.066 76.2124L188.62 76.4854L188.13 76.7133L187.626 76.9316L187.138 77.1751L186.685 77.468L186.25 77.7838L185.809 78.0858L185.335 78.3363L184.81 78.5116L184.25 78.6366L183.677 78.7498L183.115 78.8903L182.579 79.0828L182.058 79.3011L181.534 79.5054L180.986 79.6556L180.403 79.7253L179.794 79.7414L179.174 79.7446L178.56 79.7752L177.962 79.8605L177.375 79.9726L176.787 80.0707L176.188 80.1142L175.568 80.075L174.934 79.9812L174.292 79.8728L173.65 79.7924L173.014 79.7656L172.384 79.7666L171.754 79.7548L171.126 79.6889L170.495 79.5425L169.861 79.3413L169.222 79.1257L168.578 78.9359L167.929 78.7986L167.279 78.6886L166.634 78.5669L166.002 78.3942L165.385 78.1453L164.776 77.8445L164.166 77.5291L163.545 77.2379L162.908 76.9955L162.264 76.7782L161.629 76.5514L161.018 76.2789L160.439 75.9373L159.88 75.5479L159.323 75.1457L158.751 74.7638L158.151 74.4254L157.539 74.1106L156.939 73.7877L156.373 73.4262L155.855 73.0052L155.369 72.5435L154.887 72.0693L154.386 71.6124L153.847 71.1919L153.292 70.7913L152.75 70.3853L152.252 69.9493L151.816 69.466L151.421 68.9496L151.034 68.4229L150.623 67.9086L150.167 67.4227L149.69 66.9534L149.228 66.4814L148.817 65.988L148.48 65.4613L148.193 64.9105L147.916 64.3522L147.612 63.8014L147.256 63.2694L146.876 62.7497L146.511 62.2305L146.204 61.7001L145.979 61.1509L145.809 60.5878L145.653 60.0193L145.468 59.4535L145.225 58.8973L144.956 58.3481L144.703 57.8027L144.51 57.2567L144.406 56.7064L144.361 56.153L144.331 55.5963L144.271 55.038L144.152 54.4791L144.004 53.9229L143.871 53.3727L143.8 52.8321L143.82 52.3027L143.901 51.7798L143.998 51.2569L144.064 50.7275L144.072 50.188L144.049 49.6469L144.042 49.1137L144.094 48.5994L144.237 48.1114L144.44 47.6389L144.658 47.1696L144.849 46.6896L144.982 46.1908L145.085 45.6851L145.202 45.1895L145.375 44.7223L145.634 44.2933L145.95 43.8894L146.282 43.491L146.589 43.0785L146.841 42.6387L147.065 42.1882L147.301 41.7501L147.587 41.3467L147.951 40.9933L148.369 40.6726L148.8 40.3599L149.21 40.0295L149.571 39.6659L149.906 39.2878L150.251 38.9226L150.639 38.5986L151.094 38.3337L151.595 38.1079L152.11 37.8918L152.606 37.6563L153.062 37.3817L153.495 37.09L153.935 36.8116L154.409 36.5789L154.937 36.4115L155.503 36.2882L156.08 36.1761L156.645 36.0431L157.177 35.8682L157.69 35.673L158.208 35.4923L158.75 35.3587L159.331 35.2949L159.94 35.2777L160.559 35.2734L161.169 35.2472L161.757 35.1774L162.332 35.0868L162.907 35.009L163.496 34.9796L164.108 35.0208L164.737 35.1099L165.374 35.2123L166.007 35.2938L166.629 35.3314L167.243 35.348L167.854 35.3764L168.467 35.452L169.087 35.5963L169.714 35.7872L170.344 35.9921L170.977 36.1777L171.61 36.3214L172.239 36.4437L172.863 36.5778L173.478 36.7548L174.084 36.9961L174.684 37.282L175.285 37.5812L175.894 37.8633L176.513 38.1074L177.135 38.3316L177.748 38.5654L178.343 38.8373L178.911 39.1671L179.462 39.5367L180.012 39.9191L180.575 40.287L181.158 40.6222L181.749 40.9402L182.33 41.2652L182.88 41.6224L183.39 42.0279L183.873 42.4671L184.352 42.9176L184.847 43.3579Z" fill="#0E0C15"/>
<path d="M204.699 32.322L203.371 31.1947L202.021 30.0893L200.648 29.0076L199.253 27.9489L197.838 26.9138L196.402 25.9039L194.948 24.9187L193.475 23.9597L191.984 23.0265L190.476 22.1201L188.953 21.2411L187.414 20.3894L185.861 19.5662L184.294 18.7713L182.715 18.006L181.124 17.2696L179.522 16.5633L177.91 15.8875L176.289 15.2418L174.659 14.6277L173.022 14.0447L171.379 13.4939L169.73 12.9748L168.076 12.4878L166.419 12.0335L164.759 11.6125L163.097 11.2248L161.433 10.8703L159.769 10.549L158.107 10.2621L156.446 10.0089L154.787 9.79011L153.132 9.60614L151.482 9.45651L149.837 9.3412L148.198 9.2613L146.567 9.2157L144.943 9.20498L143.329 9.22964L141.725 9.28919L140.131 9.3841L138.55 9.51389L136.981 9.67855L135.426 9.8786L133.885 10.1135L132.36 10.3827L130.851 10.6874L129.359 11.0263L127.886 11.4001L126.431 11.8083L124.996 12.2507L123.582 12.7275L122.189 13.2376L120.82 13.7814L119.472 14.359L118.149 14.9693L116.851 15.6124L115.579 16.2882L114.333 16.9966L113.114 17.7362L111.924 18.508L110.761 19.3103L109.629 20.1438L108.527 21.0073L107.456 21.9008L106.416 22.8232L105.409 23.7752L104.434 24.7556L103.494 25.7633L102.588 26.799L101.716 27.8614L100.881 28.9496L100.081 30.0641L99.3185 31.2033L98.5928 32.3671L97.9047 33.5545L97.2552 34.765L96.6444 35.998L96.0726 37.2524L95.5406 38.5283L95.0488 39.8241L94.5972 41.1397L94.1869 42.474L93.8174 43.8266L93.4897 45.1959L93.2033 46.5817L92.9593 47.9837L92.7577 49.3996L92.5984 50.8299L92.482 52.2732L92.4085 53.7282L92.3785 55.195L92.3908 56.6721L92.4471 58.1587L92.5464 59.6535L92.6885 61.1562L92.8746 62.6655L93.1041 64.1806L93.3766 65.7005L93.6919 67.2242L94.0507 68.7511L94.4524 70.2796L94.8965 71.8092L95.383 73.3382L95.9123 74.8668L96.4829 76.3931L97.0959 77.9163L97.7503 79.4357L98.4453 80.9502L99.1812 82.4589L99.9567 83.9601L100.772 85.4537L101.628 86.9388L102.521 88.4131L103.453 89.8773L104.424 91.3291L105.431 92.7681L106.474 94.1936L107.554 95.6047L108.668 96.9997L109.817 98.378L111 99.7392L112.216 101.082L113.464 102.405L114.744 103.708L116.054 104.99L117.394 106.25L118.763 107.487L120.16 108.701L121.585 109.89L123.036 111.054L124.511 112.192L126.012 113.303L127.535 114.387L129.081 115.442L130.648 116.469L132.235 117.466L133.842 118.432L135.467 119.368L137.109 120.272L138.766 121.144L140.439 121.983L142.126 122.789L143.825 123.561L145.536 124.299L147.258 125.003L148.988 125.67L150.726 126.303L152.472 126.899L154.223 127.459L155.98 127.982L157.739 128.468L159.501 128.917L161.264 129.328L163.027 129.701L164.789 130.036L166.548 130.334L168.304 130.592L170.056 130.813L171.802 130.994L173.541 131.137L175.272 131.241L176.994 131.306L178.705 131.333L180.405 131.32L182.094 131.269L183.768 131.18L185.428 131.053L187.072 130.887L188.7 130.683L190.31 130.441L191.901 130.161L193.473 129.844L195.024 129.489L196.554 129.098L198.061 128.67L199.545 128.207L201.004 127.707L202.438 127.171L203.846 126.601L205.227 125.996L206.581 125.357L207.906 124.684L209.202 123.978L210.468 123.239L211.703 122.468L212.906 121.666L214.078 120.832L215.216 119.968L216.322 119.075L217.393 118.152L218.43 117.2L219.431 116.22L220.397 115.214L221.327 114.18L222.219 113.121L223.075 112.036L223.893 110.927L224.673 109.795L225.415 108.639L226.118 107.461L226.782 106.262L227.406 105.042L227.991 103.801L228.536 102.543L229.041 101.265L229.506 99.9698L229.93 98.6585L230.313 97.3306L230.655 95.9882L230.956 94.6307L231.216 93.2604L231.436 91.8772L231.614 90.4828L231.751 89.0771L231.847 87.6618L231.902 86.2368L231.916 84.8037L231.888 83.3626L231.82 81.9151L231.711 80.4622L231.562 79.0039L231.373 77.5419L231.142 76.0762L230.873 74.6082L230.563 73.1387L230.213 71.6687L229.825 70.1981L229.397 68.7291L228.931 67.2617L228.426 65.797L227.884 64.3356L227.304 62.8784L226.687 61.426L226.032 59.9801L225.342 58.5406L224.616 57.1081L223.854 55.6847L223.057 54.2699L222.226 52.8647L221.361 51.4703L220.462 50.0871L219.531 48.7163L218.567 47.3583L217.571 46.0138L216.544 44.6837L215.487 43.3681L214.399 42.0686L213.282 40.7857L212.137 39.52L210.963 38.272L209.762 37.0422L208.534 35.8322L207.28 34.6416L206.002 33.4714L204.699 32.322Z" fill="#0E0C15"/>
<path d="M209.853 32.1799L208.191 30.7688L206.5 29.3862L204.781 28.0325L203.036 26.7078L201.265 25.4137L199.469 24.1496L197.648 22.9176L195.806 21.7173L193.94 20.5503L192.054 19.416L190.148 18.3165L188.223 17.2509L186.28 16.2206L184.32 15.2262L182.344 14.2678L180.353 13.3459L178.348 12.4615L176.331 11.6152L174.302 10.807L172.263 10.0373L170.213 9.30634L168.156 8.61556L166.091 7.96393L164.02 7.35306L161.944 6.78296L159.864 6.25413L157.781 5.76609L155.696 5.3204L153.611 4.91601L151.526 4.554L149.443 4.23435L147.362 3.95761L145.285 3.72378L143.213 3.53338L141.148 3.38589L139.09 3.28184L137.04 3.22178L135 3.20515L132.97 3.23197L130.952 3.30276L128.947 3.41753L126.956 3.57629L124.981 3.77902L123.021 4.02519L121.079 4.31588L119.156 4.65L117.252 5.02757L115.37 5.44859L113.509 5.91358L111.671 6.42147L109.857 6.97282L108.069 7.56704L106.306 8.20366L104.571 8.88264L102.864 9.60399L101.187 10.3672L99.5402 11.1717L97.9248 12.0174L96.3421 12.904L94.7927 13.8307L93.2781 14.7977L91.7984 15.8039L90.3552 16.8492L88.9495 17.9331L87.5824 19.055L86.2539 20.214L84.9662 21.4106L83.7193 22.643L82.5141 23.9114L81.3514 25.2142L80.2321 26.5517L79.1573 27.9226L78.1276 29.3267L77.144 30.7629L76.2065 32.2303L75.3167 33.7288L74.4747 35.2568L73.6809 36.8132L72.9365 38.3985L72.2414 40.0102L71.5973 41.6486L71.0042 43.3123L70.4625 45.0007L69.9728 46.7126L69.5352 48.4465L69.1506 50.2019L68.8192 51.9776L68.5408 53.7727L68.3172 55.586L68.1472 57.4165L68.0319 59.263L67.9713 61.1246L67.9654 63.0001L68.0147 64.888L68.1188 66.7876L68.2781 68.6969L68.4926 70.6159L68.7623 72.5429L69.0879 74.4758L69.4682 76.4146L69.9036 78.3577L70.3938 80.3034L70.9387 82.2514L71.5378 84.1993L72.191 86.1461L72.8985 88.0914L73.6595 90.0328L74.4736 91.9695L75.3408 93.9002L76.2596 95.824L77.2303 97.7392L78.2525 99.6442L79.3252 101.539L80.4477 103.42L81.6201 105.288L82.8408 107.141L84.1092 108.978L85.4248 110.798L86.787 112.599L88.1943 114.379L89.6462 116.139L91.142 117.876L92.6807 119.59L94.2612 121.279L95.882 122.942L97.5424 124.578L99.2415 126.186L100.978 127.765L102.751 129.313L104.559 130.83L106.401 132.314L108.276 133.765L110.182 135.181L112.119 136.562L114.084 137.907L116.077 139.214L118.095 140.483L120.139 141.713L122.206 142.902L124.296 144.052L126.406 145.159L128.535 146.224L130.682 147.247L132.845 148.226L135.023 149.16L137.214 150.05L139.417 150.893L141.631 151.692L143.853 152.443L146.083 153.148L148.318 153.805L150.558 154.414L152.801 154.975L155.044 155.488L157.288 155.952L159.53 156.366L161.768 156.731L164.002 157.048L166.23 157.314L168.45 157.531L170.661 157.698L172.861 157.815L175.049 157.883L177.224 157.9L179.384 157.868L181.528 157.787L183.654 157.656L185.76 157.476L187.847 157.247L189.911 156.969L191.953 156.643L193.97 156.268L195.962 155.846L197.927 155.377L199.864 154.861L201.772 154.297L203.649 153.688L205.494 153.034L207.307 152.334L209.087 151.59L210.832 150.802L212.54 149.97L214.213 149.097L215.847 148.181L217.443 147.224L218.999 146.226L220.514 145.189L221.989 144.113L223.421 142.998L224.811 141.846L226.157 140.658L227.459 139.434L228.715 138.175L229.926 136.881L231.091 135.555L232.208 134.196L233.278 132.807L234.301 131.386L235.276 129.937L236.201 128.459L237.077 126.954L237.904 125.422L238.68 123.864L239.406 122.282L240.081 120.678L240.706 119.05L241.28 117.401L241.803 115.732L242.274 114.043L242.693 112.337L243.061 110.613L243.377 108.873L243.642 107.118L243.855 105.349L244.015 103.567L244.125 101.773L244.183 99.9687L244.189 98.1549L244.144 96.3319L244.047 94.5015L243.9 92.6645L243.702 90.8223L243.453 88.9757L243.154 87.1254L242.805 85.2735L242.407 83.42L241.959 81.5665L241.462 79.7135L240.917 77.8626L240.323 76.0145L239.682 74.1706L238.993 72.3316L238.259 70.4984L237.477 68.6728L236.65 66.8546L235.777 65.0456L234.86 63.2463L233.899 61.4582L232.895 59.6819L231.848 57.9179L230.759 56.1685L229.628 54.4335L228.456 52.714L227.244 51.0112L225.993 49.3255L224.703 47.6581L223.376 46.01L222.011 44.3823L220.61 42.7749L219.173 41.1895L217.701 39.6272L216.196 38.0875L214.658 36.5724L213.087 35.0825L211.485 33.6178L209.853 32.1799Z" fill="#0E0C15"/>
<path d="M212.326 34.2302L210.623 32.7296L208.888 31.2574L208.565 30.9839L206.837 29.5706L205.08 28.1869L203.296 26.8333L201.486 25.5107L199.65 24.2192L197.79 22.9594L195.906 21.7329L194 20.5401L192.072 19.3811L190.124 18.257L188.156 17.1682L186.171 16.1154L184.167 15.0991L182.148 14.1192L180.113 13.1775L178.065 12.2732L176.003 11.4081L173.929 10.5817L173.53 10.4293L171.402 9.62648L169.264 8.86384L167.117 8.14301L164.962 7.46297L162.801 6.82527L160.634 6.2305L158.463 5.67809L157.74 5.50324L155.522 4.98409L153.303 4.50944L151.082 4.07877L148.862 3.69316L146.644 3.3526L145.695 3.21261L143.437 2.91174L141.183 2.65752L138.934 2.45051L135.574 2.2097L133.299 2.09385L131.032 2.02681L128.776 2.0075L127.541 2L125.258 2.02949L122.987 2.10833L121.684 2.17912L119.39 2.30945L117.112 2.48966L114.85 2.71973L113.45 2.87581L111.172 3.1606L108.913 3.4958L107.461 3.73659L105.189 4.12811L102.94 4.57165L101.444 4.89827L99.1873 5.39973L96.9556 5.95322L95.4212 6.36725L93.1874 6.98081L90.9815 7.64584L89.4176 8.14838L87.2139 8.87456L85.0412 9.65329L83.4553 10.2443L81.2897 11.0847L79.1573 11.9772L77.5569 12.6567L75.4368 13.6119L73.8504 14.3686L71.7453 15.3866L69.6789 16.4571L68.0913 17.3002L66.0448 18.4334L64.4803 19.3516L62.4568 20.5471L60.4761 21.7951L58.923 22.7958L56.9702 24.1061L55.4492 25.1776L53.527 26.549L51.6521 27.9719L50.1536 29.1217L48.314 30.6047L46.8563 31.8205L45.0553 33.3635L43.6416 34.6421L41.8819 36.2446L40.1748 37.896L38.7991 39.2437L37.1376 40.9519L35.8134 42.3571L34.1996 44.121L32.9296 45.5804L31.3663 47.3985L29.8613 49.2633L28.6433 50.78L27.1926 52.6968L26.0347 54.2602L24.6408 56.2263L23.5456 57.8337L22.2113 59.8481L21.181 61.4951L19.9067 63.5552L18.6962 65.657L17.7324 67.3427L16.5852 69.4869L15.6912 71.2042L14.6094 73.3881L13.7867 75.1333L12.772 77.3542L12.0228 79.1235L11.0767 81.3798L10.1987 83.671L9.52457 85.4569L8.71688 87.7786L8.11941 89.5791L7.38249 91.9287L6.86175 93.7393L6.19669 96.1131L5.60246 98.5169L5.16054 100.326L4.63921 102.749L4.2756 104.559L3.82724 106.998L3.54192 108.804L3.16702 111.258L2.86399 113.734L2.65858 115.519L2.42905 118.004L2.30247 119.774L2.14586 122.265L2.06112 124.773L2.01286 126.509L2 129.017L2.02841 130.728L2.08688 133.233L2.21775 135.751L2.32018 137.414L2.52074 139.923L2.96698 144.048L3.30699 146.554L3.55263 148.121L3.95971 150.608L4.43597 153.101L4.74701 154.598L5.28765 157.068L5.89635 159.539L6.26801 160.961L6.93789 163.405L7.67533 165.847L8.10334 167.184L8.89816 169.594L9.75947 171.998L10.2368 173.246L11.1518 175.614L12.1306 177.973L13.1731 180.322L13.6805 181.443L14.7708 183.749L15.9229 186.042L17.6611 189.306L18.9161 191.536L20.2301 193.749L21.602 195.943L22.1319 196.786L23.5386 198.926L25.0007 201.045L26.5168 203.14L27.0381 203.837L28.5827 205.874L30.1788 207.885L31.8253 209.869L33.5217 211.825L35.2658 213.751L35.7067 214.231L37.468 216.093L39.2743 217.923L41.1246 219.721L43.0178 221.483L44.9528 223.209L46.9281 224.899L48.9426 226.55L49.2005 226.755L51.2155 228.339L53.2658 229.882L55.3505 231.384L57.4679 232.844L59.617 234.262L61.7955 235.636L64.0025 236.965L66.2362 238.248L68.4952 239.484L70.7783 240.673L73.0834 241.814L75.4095 242.906L77.7543 243.948L80.1162 244.939L80.424 245.067L82.8455 246.024L85.281 246.929L87.7298 247.781L90.1894 248.579L92.6581 249.323L95.1348 250.012L97.6174 250.646L98.2535 250.799L100.783 251.388L103.316 251.92L105.849 252.394L108.381 252.811L110.911 253.17L111.776 253.289L114.342 253.596L116.903 253.844L119.455 254.034L120.452 254.088L123.034 254.22L125.605 254.293L128.163 254.306L129.281 254.288L131.86 254.24L134.422 254.133L136.966 253.965L138.194 253.865L140.752 253.635L143.287 253.344L145.799 252.993L147.124 252.806L149.642 252.389L152.132 251.913L153.51 251.638L156.001 251.096L158.46 250.494L159.884 250.13L162.338 249.462L164.757 248.734L166.219 248.28L168.626 247.485L170.996 246.632L172.486 246.088L174.839 245.168L176.329 244.541L178.66 243.555L180.948 242.511L182.453 241.795L184.715 240.686L186.93 239.521L188.441 238.716L190.626 237.487L192.12 236.603L194.269 235.311L196.368 233.965L197.855 232.996L199.913 231.588L201.374 230.545L203.389 229.077L205.349 227.557L206.79 226.433L208.703 224.856L210.109 223.662L211.972 222.03L213.34 220.767L215.15 219.081L216.9 217.347L218.231 216.015L219.925 214.23L221.21 212.836L222.845 211.003L224.08 209.549L225.654 207.669L227.164 205.747L228.348 204.235L229.795 202.27L230.923 200.705L232.305 198.701L233.374 197.087L234.689 195.044L235.697 193.386L236.944 191.307L238.124 189.194L239.066 187.496L240.177 185.352L241.052 183.617L242.092 181.444L242.899 179.675L243.868 177.477L244.604 175.678L245.503 173.458L246.332 171.21L246.993 169.393L247.75 167.127L248.338 165.29L249.024 163.008L249.536 161.154L250.15 158.86L250.695 156.545L251.129 154.691L251.602 152.367L251.959 150.506L252.362 148.178L252.643 146.312L252.976 143.983L253.241 141.637L253.442 139.79L253.639 137.447L253.762 135.606L253.891 133.269L253.954 130.92L254 129.109L253.996 126.77L253.966 124.975L253.898 122.649L253.766 120.315L253.661 118.563L253.466 116.246L253.286 114.519L253.031 112.222L252.715 109.921L252.465 108.249L252.091 105.972L251.656 103.693L251.339 102.084L250.851 99.8325L250.303 97.5815L249.923 96.0412L249.324 93.8219L248.667 91.6053L248.23 90.1395L247.526 87.9583L246.767 85.7824L246.275 84.3977L245.473 82.2594L244.617 80.1291L244.077 78.8306L243.18 76.7417L242.233 74.6618L240.666 71.4208L239.634 69.3968L238.551 67.385L237.95 66.3108L236.838 64.3473L235.68 62.3978L234.475 60.4638L232.638 57.6438L231.366 55.7774L230.05 53.9293L228.692 52.1004L228.112 51.3404L226.739 49.5652L225.325 47.8104L223.872 46.077L222.38 44.3661L220.851 42.6789L220.35 42.1318L218.814 40.5009L217.243 38.8946L215.637 37.3135L213.998 35.7582L212.326 34.2302Z" fill="#0E0C15"/>
<path d="M108.913 3.4958L106.675 3.88199L104.458 4.31907L102.266 4.8066L100.097 5.34453L97.9548 5.93286L95.8401 6.57109L93.7533 7.25972L91.696 7.9977L89.6698 8.78449L87.6752 9.62115L85.7144 10.5061L83.7885 11.4393L81.8979 12.4207L80.0444 13.4499L78.229 14.5263L76.4532 15.6494L74.7177 16.8186L73.0234 18.0333L71.3721 19.2932L69.7642 20.5975L68.2019 21.9458L66.6852 23.3376L65.2157 24.7717L63.7944 26.2476L62.422 27.7649L61.0989 29.3229L59.8272 30.9201L58.6077 32.5558L57.4412 34.2302L56.3283 35.9411L55.2701 37.6884L54.2672 39.4712L53.3201 41.2877L52.4303 43.1375L51.5979 45.0199L50.824 46.933L50.1097 48.8766L49.4553 50.8492L48.8611 52.8497L48.3275 54.877L47.8555 56.9295L47.4457 59.0067L47.0977 61.1069L46.8134 63.2291L46.5919 65.3717L46.4342 67.5342L46.3409 69.7138L46.3114 71.9105L46.3458 74.1229L46.4455 76.3486L46.6091 78.5872L46.8381 80.8365L47.132 83.096L47.4908 85.3636L47.9145 87.6376L48.4025 89.9175L48.955 92.2006L49.5723 94.4864L50.2534 96.7733L50.9983 99.0596L51.8071 101.343L52.6797 103.623L53.6145 105.898L54.6115 108.166L55.6702 110.426L56.7901 112.676L57.97 114.915L59.2105 117.141L60.5105 119.352L61.8685 121.548L63.2844 123.725L64.7571 125.884L66.2851 128.023L67.8683 130.139L69.5057 132.232L71.1957 134.301L72.9376 136.343L74.7305 138.356L76.5728 140.341L78.4639 142.295L80.4016 144.217L82.3849 146.106L84.4127 147.961L86.484 149.779L88.5971 151.56L90.7504 153.302L92.9429 155.005L95.1729 156.666L97.4384 158.286L99.7381 159.863L102.071 161.395L104.434 162.882L106.827 164.322L109.249 165.715L111.696 167.059L114.167 168.354L116.662 169.599L119.178 170.793L121.712 171.935L124.265 173.024L126.833 174.06L129.414 175.042L132.009 175.97L134.613 176.842L137.227 177.658L139.847 178.419L142.472 179.122L145.1 179.768L147.73 180.357L150.359 180.887L152.986 181.36L155.608 181.774L158.226 182.13L160.835 182.427L163.435 182.666L166.025 182.845L168.601 182.966L171.163 183.027L173.709 183.03L176.237 182.975L178.745 182.86L181.232 182.688L183.696 182.458L186.137 182.17L188.551 181.825L190.937 181.422L193.294 180.963L195.622 180.448L197.917 179.877L200.179 179.251L202.406 178.571L204.597 177.837L206.751 177.049L208.866 176.208L210.94 175.316L212.974 174.372L214.966 173.378L216.914 172.334L218.817 171.242L220.675 170.101L222.486 168.914L224.249 167.68L225.963 166.401L227.628 165.077L229.242 163.71L230.806 162.301L232.317 160.851L233.774 159.36L235.179 157.83L236.529 156.262L237.824 154.657L239.063 153.016L240.246 151.34L241.373 149.63L242.443 147.888L243.454 146.115L244.409 144.312L245.304 142.479L246.14 140.619L246.918 138.732L247.636 136.82L248.295 134.884L248.894 132.925L249.434 130.944L249.913 128.943L250.332 126.923L250.691 124.885L250.99 122.829L251.229 120.759L251.408 118.674L251.527 116.577L251.586 114.468L251.586 112.348L251.526 110.219L251.406 108.082L251.228 105.938L250.991 103.789L250.696 101.635L250.342 99.4785L249.931 97.3203L249.462 95.1611L248.937 93.0024L248.355 90.8459L247.717 88.6915L247.024 86.5419L246.275 84.3977" fill="#0E0C15"/>
<path d="M66.0457 18.4335L64.0399 19.6187L62.0769 20.8555L60.1575 22.1432L58.283 23.4808L56.4547 24.8682L54.6741 26.3056L52.9429 27.7907L51.261 29.324L49.63 30.9045L48.0516 32.5312L46.5263 34.2035L45.0552 35.9207L43.6399 37.6815L42.2814 39.4851L40.9802 41.3312L39.7381 43.2179L38.555 45.1455L37.433 47.1116L36.3722 49.1158L35.3735 51.1571L34.4382 53.2343L33.5667 55.3463L32.7606 57.4916L32.0199 59.669L31.3452 61.8782L30.7376 64.1168L30.1975 66.3838L29.725 68.6782L29.3217 70.9983L28.987 73.3431L28.7226 75.7109L28.5285 78.1002L28.4046 80.5099L28.351 82.9384L28.3687 85.384L28.4577 87.8452L28.618 90.3203L28.8502 92.8083L29.1538 95.3076L29.5298 97.8154L29.9771 100.332L30.4957 102.854L31.0862 105.38L31.7475 107.91L32.4801 110.44L33.2835 112.97L34.1577 115.498L35.1022 118.022L36.1158 120.54L37.1992 123.051L38.3507 125.552L39.5703 128.044L40.8569 130.522L42.21 132.986L43.6296 135.434L45.1142 137.864L46.6631 140.275L48.2747 142.665L49.9486 145.033L51.6836 147.376L53.4787 149.693L55.3333 151.982L57.2452 154.242L59.2141 156.47L61.2382 158.666L63.3158 160.828L65.4461 162.955L67.6279 165.044L69.859 167.095L72.1383 169.105L74.4644 171.074L76.8354 173L79.2499 174.882L81.7063 176.717L84.2023 178.506L86.737 180.247L89.3081 181.938L91.9141 183.578L94.5528 185.166L97.2231 186.701L99.9224 188.182L102.649 189.608L105.401 190.979L108.176 192.292L110.973 193.547L113.79 194.744L116.624 195.881L119.473 196.957L122.337 197.972L125.212 198.926L128.096 199.818L130.989 200.647L133.886 201.413L136.788 202.115L139.69 202.752L142.592 203.326L145.492 203.834L148.387 204.277L151.276 204.656L154.156 204.969L157.026 205.216L159.883 205.399L162.726 205.515L165.553 205.566L168.361 205.552L171.15 205.472L173.917 205.328L176.66 205.119L179.378 204.846L182.069 204.509L184.731 204.108L187.362 203.644L189.961 203.117L192.526 202.528L195.055 201.878L197.548 201.167L200.002 200.395L202.415 199.564L204.787 198.674L207.116 197.726L209.4 196.72L211.639 195.658L213.831 194.54L215.974 193.368L218.069 192.143L220.111 190.864L222.103 189.534L224.042 188.153L225.926 186.722L227.756 185.243L229.53 183.716L231.246 182.144L232.906 180.526L234.507 178.864L236.049 177.159L237.53 175.412L238.951 173.626L240.31 171.8L241.608 169.937L242.843 168.036L244.015 166.101L245.124 164.132L246.169 162.13L247.148 160.097L248.064 158.034L248.915 155.942L249.7 153.823L250.421 151.679L251.075 149.51L251.664 147.317L252.186 145.103L252.643 142.869L253.033 140.615L253.358 138.344L253.618 136.056L253.811 133.753L253.939 131.437L254.001 129.109" fill="#0E0C15"/>
<path d="M34.1996 44.121L32.6431 45.9328L31.1441 47.7901L29.7046 49.6929L28.3252 51.6403L27.0069 53.6306L25.7508 55.6638L24.5581 57.7378L23.4296 59.8519L22.3661 62.0053L21.3685 64.1961L20.438 66.424L19.5762 68.6873L18.7824 70.9843L18.0578 73.3147L17.404 75.6761L16.8205 78.0675L16.3084 80.488L15.868 82.9357L15.5007 85.4092L15.2062 87.9069L14.9858 90.4276L14.8394 92.9698L14.767 95.5318L14.7691 98.112L14.8463 100.708L14.9986 103.32L15.2261 105.945L15.5296 108.581L15.9083 111.227L16.3625 113.882L16.8924 116.543L17.4974 119.208L18.1769 121.877L18.932 124.547L19.7617 127.216L20.666 129.883L21.6442 132.545L22.6959 135.201L23.8206 137.85L25.0171 140.489L26.2861 143.116L27.6258 145.73L29.0358 148.329L30.5155 150.911L32.0644 153.474L33.6808 156.017L35.3644 158.537L37.1133 161.033L38.9272 163.503L40.8043 165.946L42.7442 168.359L44.7451 170.741L46.8062 173.089L48.9258 175.403L51.1022 177.682L53.3343 179.921L55.6207 182.122L57.9596 184.282L60.3499 186.398L62.7892 188.471L65.2766 190.498L67.8102 192.478L70.3877 194.408L73.0077 196.29L75.6684 198.12L78.3682 199.897L81.1045 201.621L83.8762 203.289L86.6806 204.901L89.5162 206.455L92.3807 207.952L95.2725 209.388L98.189 210.765L101.129 212.079L104.089 213.331L107.068 214.52L110.064 215.646L113.074 216.706L116.096 217.701L119.129 218.63L122.17 219.492L125.217 220.288L128.268 221.016L131.32 221.676L134.372 222.267L137.421 222.789L140.466 223.243L143.504 223.628L146.533 223.944L149.551 224.19L152.556 224.368L155.546 224.476L158.52 224.514L161.474 224.484L164.407 224.384L167.317 224.217L170.202 223.981L173.06 223.677L175.891 223.305L178.69 222.866L181.457 222.361L184.19 221.789L186.887 221.152L189.547 220.45L192.168 219.684L194.748 218.854L197.286 217.962L199.78 217.007L202.228 215.992L204.63 214.916L206.984 213.78L209.288 212.587L211.542 211.336L213.743 210.029L215.891 208.666L217.985 207.249L220.022 205.779L222.003 204.257L223.926 202.683L225.79 201.061L227.596 199.39L229.34 197.672L231.022 195.907L232.643 194.098L234.199 192.246L235.693 190.351L237.121 188.416L238.485 186.442L239.784 184.429L241.016 182.38L242.181 180.296L243.279 178.177L244.31 176.027L245.272 173.844L246.167 171.633L246.993 169.393" fill="#0E0C15"/>
<path d="M12.7714 77.3541L11.8243 79.6126L10.9458 81.9059L10.1359 84.2341L9.39638 86.595L8.72706 88.988L8.12903 91.4106L7.60237 93.8626L7.14864 96.3415L6.76787 98.8467L6.46108 101.376L6.22831 103.929L6.0701 106.503L5.98643 109.096L5.97841 111.708L6.04545 114.336L6.18811 116.979L6.40691 119.635L6.70191 122.303L7.07302 124.981L7.52034 127.666L8.04376 130.358L8.64283 133.054L9.31752 135.753L10.0679 138.453L10.8938 141.152L11.7943 143.849L12.7698 146.541L13.8199 149.226L14.943 151.903L16.139 154.57L17.4079 157.226L18.7482 159.868L20.1598 162.493L21.6416 165.102L23.1932 167.692L24.8129 170.26L26.5007 172.805L28.254 175.326L30.0731 177.82L31.9567 180.286L33.903 182.722L35.9115 185.126L37.9807 187.496L40.1088 189.831L42.2943 192.13L44.5367 194.39L46.8337 196.609L49.1839 198.787L51.5855 200.921L54.0376 203.01L56.5379 205.053L59.0849 207.048L61.6769 208.994L64.3113 210.888L66.9876 212.731L69.703 214.52L72.4554 216.255L75.2437 217.934L78.0658 219.555L80.9191 221.118L83.8023 222.622L86.7124 224.066L89.6482 225.448L92.6071 226.768L95.5874 228.024L98.5871 229.217L101.603 230.344L104.635 231.406L107.679 232.401L110.734 233.33L113.797 234.192L116.866 234.985L119.939 235.71L123.014 236.366L126.09 236.953L129.162 237.47L132.231 237.918L135.292 238.295L138.346 238.603L141.388 238.841L144.417 239.008L147.432 239.106L150.429 239.133L153.408 239.09L156.365 238.978L159.3 238.796L162.21 238.546L165.093 238.227L167.947 237.839L170.771 237.384L173.563 236.861L176.32 236.271L179.042 235.615L181.726 234.894L184.371 234.107L186.975 233.257L189.536 232.343L192.054 231.366L194.526 230.328L196.951 229.229L199.328 228.07L201.655 226.853L203.931 225.577L206.155 224.244L208.325 222.856L210.44 221.413L212.499 219.916L214.501 218.367L216.445 216.767L218.33 215.117L220.155 213.418L221.919 211.671L223.621 209.878L225.261 208.04L226.836 206.159L228.348 204.235" fill="#0E0C15"/>
<path d="M197.855 232.996L195.743 234.351L193.581 235.651L191.368 236.896L189.106 238.085L186.797 239.217L184.441 240.291L182.04 241.305L179.595 242.26L177.108 243.154L174.581 243.987L172.014 244.757L169.41 245.464L166.77 246.108L164.096 246.688L161.388 247.203L158.651 247.652L155.884 248.036L153.09 248.353L150.27 248.604L147.427 248.788L144.561 248.904L141.676 248.953L138.774 248.934L135.855 248.848L132.921 248.693L129.977 248.469L127.021 248.179L124.058 247.82L121.089 247.394L118.116 246.9L115.141 246.338L112.166 245.71L109.194 245.014L106.226 244.252L103.263 243.424L100.31 242.531L97.3671 241.572L94.4367 240.55L91.5212 239.464L88.6219 238.315L85.7418 237.104L82.8822 235.83L80.0456 234.497L77.2336 233.104L74.4485 231.653L71.6918 230.143L68.9662 228.578L66.2728 226.957L63.6143 225.281L60.9922 223.551L58.4082 221.77L55.8639 219.938L53.3614 218.057L50.9024 216.128L48.489 214.152L46.1217 212.131L43.8037 210.066L41.535 207.959L39.3184 205.81L37.1549 203.623L35.0455 201.398L32.992 199.137L30.9958 196.841L29.0581 194.513L27.1804 192.153L25.3639 189.764L23.609 187.347L21.918 184.904L20.2908 182.437L18.7285 179.947L17.2327 177.436L15.8045 174.906L14.4439 172.359L13.1524 169.797L11.9296 167.22L10.7776 164.632L9.6958 162.033L8.68483 159.427L7.74575 156.813L6.87904 154.195L6.08477 151.574L5.3634 148.951L4.71552 146.329L4.1406 143.709L3.63859 141.093L3.21062 138.483L2.85611 135.88L2.57508 133.286L2.36803 130.702L2.23395 128.131L2.17389 125.575L2.18623 123.034L2.2715 120.509L2.42905 118.004" fill="#0E0C15"/>
<path d="M7.67533 165.847L8.48037 168.285L9.35189 170.719L10.2899 173.146L11.2934 175.565L12.3623 177.973L13.4961 180.37L14.6942 182.754L15.9556 185.123L17.2798 187.475L18.6667 189.81L20.1143 192.124L21.6224 194.417L23.19 196.687L24.8156 198.933L26.4992 201.152L28.239 203.343L30.0341 205.505L31.8838 207.637L33.7861 209.736L35.74 211.801L37.7447 213.831L39.7978 215.824L41.8991 217.779L44.0465 219.694L46.239 221.569L48.4749 223.401L50.7527 225.19L53.0707 226.933L55.4272 228.632L57.8208 230.283L60.2498 231.885L62.7132 233.438L65.2081 234.94L67.7331 236.39L70.2876 237.788L72.8679 239.133L75.4738 240.423L78.1023 241.657L80.7523 242.835L83.4221 243.956L86.1096 245.02L88.8121 246.024L91.5292 246.97L94.2579 247.856L96.9969 248.682L99.744 249.448L102.497 250.151L105.255 250.794L108.015 251.374L110.776 251.892L113.535 252.347L116.291 252.739L119.042 253.069L121.786 253.336L124.521 253.539L127.246 253.679L129.958 253.757L132.656 253.77L135.337 253.721L138.001 253.61L140.645 253.436L143.267 253.199L145.867 252.901L148.442 252.541L150.99 252.12L153.51 251.638" fill="#0E0C15"/>
<path d="M108.913 3.4958L111.172 3.1606L113.45 2.87581L114.85 2.71973L117.112 2.48966L119.39 2.30945L121.684 2.17912L122.987 2.10833L125.258 2.02949L127.541 2L128.776 2.0075L131.032 2.02681L133.299 2.09385L135.574 2.2097L138.934 2.45051L141.183 2.65752L143.437 2.91174L145.695 3.21261L146.644 3.3526L148.862 3.69316L151.082 4.07877L153.303 4.50944L155.522 4.98409L157.74 5.50324L158.463 5.67809L160.634 6.2305L162.801 6.82527L164.962 7.46297L167.117 8.14301L169.264 8.86384L171.402 9.62648L173.53 10.4293L173.929 10.5817L176.003 11.4081L178.065 12.2732L180.113 13.1775L182.148 14.1192L184.167 15.0991L186.171 16.1154L188.156 17.1682L190.124 18.257L192.072 19.3811L194 20.5401L195.906 21.7329L197.79 22.9594L199.65 24.2192L201.486 25.5107L203.296 26.8333L205.08 28.1869L206.837 29.5706L208.565 30.9839L208.888 31.2574L210.623 32.7296L212.326 34.2302L213.998 35.7582L215.637 37.3135L217.243 38.8946L218.814 40.5009L220.35 42.1318L220.851 42.6789L222.38 44.3661L223.872 46.077L225.325 47.8104L226.739 49.5652L228.112 51.3404L228.692 52.1004L230.05 53.9293L231.366 55.7774L232.638 57.6438L234.475 60.4638L235.68 62.3978L236.838 64.3473L237.95 66.3108L238.551 67.385L239.634 69.3968L240.666 71.4208L242.233 74.6618L243.18 76.7417L244.077 78.8306L244.617 80.1291L245.473 82.2594L246.275 84.3977M108.913 3.4958L107.461 3.73659L105.189 4.12811L102.94 4.57165L101.444 4.89827L99.1873 5.39973L96.9556 5.95322L95.4212 6.36725L93.1874 6.98081L90.9815 7.64584L89.4176 8.14838L87.2139 8.87456L85.0412 9.65329L83.4553 10.2443L81.2897 11.0847L79.1573 11.9772L77.5569 12.6567L75.4368 13.6119L73.8504 14.3686L71.7453 15.3866L69.6789 16.4571L68.0913 17.3002L66.0448 18.4334L64.4803 19.3516L62.4568 20.5471L60.4761 21.7951L58.923 22.7958L56.9702 24.1061L55.4492 25.1776L53.527 26.549L51.6521 27.9719L50.1536 29.1217L48.314 30.6047L46.8563 31.8205L45.0553 33.3635L43.6416 34.6421L41.8819 36.2446L40.1748 37.896L38.7991 39.2437L37.1376 40.9519L35.8134 42.3571L34.1996 44.121M108.913 3.4958L106.675 3.88199L104.458 4.31907L102.266 4.8066L100.097 5.34453L97.9548 5.93286L95.8401 6.57109L93.7533 7.25972L91.696 7.9977L89.6698 8.78449L87.6752 9.62115L85.7144 10.5061L83.7885 11.4393L81.8979 12.4207L80.0444 13.4499L78.229 14.5263L76.4532 15.6494L74.7177 16.8186L73.0234 18.0333L71.3721 19.2932L69.7642 20.5975L68.2019 21.9458L66.6852 23.3376L65.2157 24.7717L63.7944 26.2476L62.422 27.7649L61.0989 29.3229L59.8272 30.9201L58.6077 32.5558L57.4412 34.2302L56.3283 35.9411L55.2701 37.6884L54.2672 39.4712L53.3201 41.2877L52.4303 43.1375L51.5979 45.0199L50.824 46.933L50.1097 48.8766L49.4553 50.8492L48.8611 52.8497L48.3275 54.877L47.8555 56.9295L47.4457 59.0067L47.0977 61.1069L46.8134 63.2291L46.5919 65.3717L46.4342 67.5342L46.3409 69.7138L46.3114 71.9105L46.3458 74.1229L46.4455 76.3486L46.6091 78.5872L46.8381 80.8365L47.132 83.096L47.4908 85.3636L47.9145 87.6376L48.4025 89.9175L48.955 92.2006L49.5723 94.4864L50.2534 96.7733L50.9983 99.0596L51.8071 101.343L52.6797 103.623L53.6145 105.898L54.6115 108.166L55.6702 110.426L56.7901 112.676L57.97 114.915L59.2105 117.141L60.5105 119.352L61.8685 121.548L63.2844 123.725L64.7571 125.884L66.2851 128.023L67.8683 130.139L69.5057 132.232L71.1957 134.301L72.9376 136.343L74.7305 138.356L76.5728 140.341L78.4639 142.295L80.4016 144.217L82.3849 146.106L84.4127 147.961L86.484 149.779L88.5971 151.56L90.7504 153.302L92.9429 155.005L95.1729 156.666L97.4384 158.286L99.7381 159.863L102.071 161.395L104.434 162.882L106.827 164.322L109.249 165.715L111.696 167.059L114.167 168.354L116.662 169.599L119.178 170.793L121.712 171.935L124.265 173.024L126.833 174.06L129.414 175.042L132.009 175.97L134.613 176.842L137.227 177.658L139.847 178.419L142.472 179.122L145.1 179.768L147.73 180.357L150.359 180.887L152.986 181.36L155.608 181.774L158.226 182.13L160.835 182.427L163.435 182.666L166.025 182.845L168.601 182.966L171.163 183.027L173.709 183.03L176.237 182.975L178.745 182.86L181.232 182.688L183.696 182.458L186.137 182.17L188.551 181.825L190.937 181.422L193.294 180.963L195.622 180.448L197.917 179.877L200.179 179.251L202.406 178.571L204.597 177.837L206.751 177.049L208.866 176.208L210.94 175.316L212.974 174.372L214.966 173.378L216.914 172.334L218.817 171.242L220.675 170.101L222.486 168.914L224.249 167.68L225.963 166.401L227.628 165.077L229.242 163.71L230.806 162.301L232.317 160.851L233.774 159.36L235.179 157.83L236.529 156.262L237.824 154.657L239.063 153.016L240.246 151.34L241.373 149.63L242.443 147.888L243.454 146.115L244.409 144.312L245.304 142.479L246.14 140.619L246.918 138.732L247.636 136.82L248.295 134.884L248.894 132.925L249.434 130.944L249.913 128.943L250.332 126.923L250.691 124.885L250.99 122.829L251.229 120.759L251.408 118.674L251.527 116.577L251.586 114.468L251.586 112.348L251.526 110.219L251.406 108.082L251.228 105.938L250.991 103.789L250.696 101.635L250.342 99.4785L249.931 97.3203L249.462 95.1611L248.937 93.0024L248.355 90.8459L247.717 88.6915L247.024 86.5419L246.275 84.3977M34.1996 44.121L32.9296 45.5804L31.3663 47.3985L29.8613 49.2633L28.6433 50.78L27.1926 52.6968L26.0347 54.2602L24.6408 56.2263L23.5456 57.8337L22.2113 59.8481L21.181 61.4951L19.9067 63.5552L18.6962 65.657L17.7324 67.3427L16.5852 69.4869L15.6912 71.2042L14.6094 73.3881L13.7867 75.1333L12.772 77.3542L12.0228 79.1235L11.0767 81.3798L10.1987 83.671L9.52457 85.4569L8.71688 87.7786L8.11941 89.5791L7.38249 91.9287L6.86175 93.7393L6.19669 96.1131L5.60246 98.5169L5.16054 100.326L4.63921 102.749L4.2756 104.559L3.82724 106.998L3.54192 108.804L3.16702 111.258L2.86399 113.734L2.65858 115.519L2.42905 118.004M34.1996 44.121L32.6431 45.9328L31.1441 47.7901L29.7046 49.6929L28.3252 51.6403L27.0069 53.6306L25.7508 55.6638L24.5581 57.7378L23.4296 59.8519L22.3661 62.0053L21.3685 64.1961L20.438 66.424L19.5762 68.6873L18.7824 70.9843L18.0578 73.3147L17.404 75.6761L16.8205 78.0675L16.3084 80.488L15.868 82.9357L15.5007 85.4092L15.2062 87.9069L14.9858 90.4276L14.8394 92.9698L14.767 95.5318L14.7691 98.112L14.8463 100.708L14.9986 103.32L15.2261 105.945L15.5296 108.581L15.9083 111.227L16.3625 113.882L16.8924 116.543L17.4974 119.208L18.1769 121.877L18.932 124.547L19.7617 127.216L20.666 129.883L21.6442 132.545L22.6959 135.201L23.8206 137.85L25.0171 140.489L26.2861 143.116L27.6258 145.73L29.0358 148.329L30.5155 150.911L32.0644 153.474L33.6808 156.017L35.3644 158.537L37.1133 161.033L38.9272 163.503L40.8043 165.946L42.7442 168.359L44.7451 170.741L46.8062 173.089L48.9258 175.403L51.1022 177.682L53.3343 179.921L55.6207 182.122L57.9596 184.282L60.3499 186.398L62.7892 188.471L65.2766 190.498L67.8102 192.478L70.3877 194.408L73.0077 196.29L75.6684 198.12L78.3682 199.897L81.1045 201.621L83.8762 203.289L86.6806 204.901L89.5162 206.455L92.3807 207.952L95.2725 209.388L98.189 210.765L101.129 212.079L104.089 213.331L107.068 214.52L110.064 215.646L113.074 216.706L116.096 217.701L119.129 218.63L122.17 219.492L125.217 220.288L128.268 221.016L131.32 221.676L134.372 222.267L137.421 222.789L140.466 223.243L143.504 223.628L146.533 223.944L149.551 224.19L152.556 224.368L155.546 224.476L158.52 224.514L161.474 224.484L164.407 224.384L167.317 224.217L170.202 223.981L173.06 223.677L175.891 223.305L178.69 222.866L181.457 222.361L184.19 221.789L186.887 221.152L189.547 220.45L192.168 219.684L194.748 218.854L197.286 217.962L199.78 217.007L202.228 215.992L204.63 214.916L206.984 213.78L209.288 212.587L211.542 211.336L213.743 210.029L215.891 208.666L217.985 207.249L220.022 205.779L222.003 204.257L223.926 202.683L225.79 201.061L227.596 199.39L229.34 197.672L231.022 195.907L232.643 194.098L234.199 192.246L235.693 190.351L237.121 188.416L238.485 186.442L239.784 184.429L241.016 182.38L242.181 180.296L243.279 178.177L244.31 176.027L245.272 173.844L246.167 171.633L246.993 169.393M2.42905 118.004L2.30247 119.774L2.14586 122.265L2.06112 124.773L2.01286 126.509L2 129.017L2.02841 130.728L2.08688 133.233L2.21775 135.751L2.32018 137.414L2.52074 139.923L2.96698 144.048L3.30699 146.554L3.55263 148.121L3.95971 150.608L4.43597 153.101L4.74701 154.598L5.28765 157.068L5.89635 159.539L6.26801 160.961L6.93789 163.405L7.67533 165.847M2.42905 118.004L2.2715 120.509L2.18623 123.034L2.17389 125.575L2.23395 128.131L2.36803 130.702L2.57508 133.286L2.85611 135.88L3.21062 138.483L3.63859 141.093L4.1406 143.709L4.71552 146.329L5.3634 148.951L6.08477 151.574L6.87904 154.195L7.74575 156.813L8.68483 159.427L9.6958 162.033L10.7776 164.632L11.9296 167.22L13.1524 169.797L14.4439 172.359L15.8045 174.906L17.2327 177.436L18.7285 179.947L20.2908 182.437L21.918 184.904L23.609 187.347L25.3639 189.764L27.1804 192.153L29.0581 194.513L30.9958 196.841L32.992 199.137L35.0455 201.398L37.1549 203.623L39.3184 205.81L41.535 207.959L43.8037 210.066L46.1217 212.131L48.489 214.152L50.9024 216.128L53.3614 218.057L55.8639 219.938L58.4082 221.77L60.9922 223.551L63.6143 225.281L66.2728 226.957L68.9662 228.578L71.6918 230.143L74.4485 231.653L77.2336 233.104L80.0456 234.497L82.8822 235.83L85.7418 237.104L88.6219 238.315L91.5212 239.464L94.4367 240.55L97.3671 241.572L100.31 242.531L103.263 243.424L106.226 244.252L109.194 245.014L112.166 245.71L115.141 246.338L118.116 246.9L121.089 247.394L124.058 247.82L127.021 248.179L129.977 248.469L132.921 248.693L135.855 248.848L138.774 248.934L141.676 248.953L144.561 248.904L147.427 248.788L150.27 248.604L153.09 248.353L155.884 248.036L158.651 247.652L161.388 247.203L164.096 246.688L166.77 246.108L169.41 245.464L172.014 244.757L174.581 243.987L177.108 243.154L179.595 242.26L182.04 241.305L184.441 240.291L186.797 239.217L189.106 238.085L191.368 236.896L193.581 235.651L195.743 234.351L197.855 232.996M7.67533 165.847L8.10334 167.184L8.89816 169.594L9.75947 171.998L10.2368 173.246L11.1518 175.614L12.1306 177.973L13.1731 180.322L13.6805 181.443L14.7708 183.749L15.9229 186.042L17.6611 189.306L18.9161 191.536L20.2301 193.749L21.602 195.943L22.1319 196.786L23.5386 198.926L25.0007 201.045L26.5168 203.14L27.0381 203.837L28.5827 205.874L30.1788 207.885L31.8253 209.869L33.5217 211.825L35.2658 213.751L35.7067 214.231L37.468 216.093L39.2743 217.923L41.1246 219.721L43.0178 221.483L44.9528 223.209L46.9281 224.899L48.9426 226.55L49.2005 226.755L51.2155 228.339L53.2658 229.882L55.3505 231.384L57.4679 232.844L59.617 234.262L61.7955 235.636L64.0025 236.965L66.2362 238.248L68.4952 239.484L70.7783 240.673L73.0834 241.814L75.4095 242.906L77.7543 243.948L80.1162 244.939L80.424 245.067L82.8455 246.024L85.281 246.929L87.7298 247.781L90.1894 248.579L92.6581 249.323L95.1348 250.012L97.6174 250.646L98.2535 250.799L100.783 251.388L103.316 251.92L105.849 252.394L108.381 252.811L110.911 253.17L111.776 253.289L114.342 253.596L116.903 253.844L119.455 254.034L120.452 254.088L123.034 254.22L125.605 254.293L128.163 254.306L129.281 254.288L131.86 254.24L134.422 254.133L136.966 253.965L138.194 253.865L140.752 253.635L143.287 253.344L145.799 252.993L147.124 252.806L149.642 252.389L152.132 251.913L153.51 251.638M7.67533 165.847L8.48037 168.285L9.35189 170.719L10.2899 173.146L11.2934 175.565L12.3623 177.973L13.4961 180.37L14.6942 182.754L15.9556 185.123L17.2798 187.475L18.6667 189.81L20.1143 192.124L21.6224 194.417L23.19 196.687L24.8156 198.933L26.4992 201.152L28.239 203.343L30.0341 205.505L31.8838 207.637L33.7861 209.736L35.74 211.801L37.7447 213.831L39.7978 215.824L41.8991 217.779L44.0465 219.694L46.239 221.569L48.4749 223.401L50.7527 225.19L53.0707 226.933L55.4272 228.632L57.8208 230.283L60.2498 231.885L62.7132 233.438L65.2081 234.94L67.7331 236.39L70.2876 237.788L72.8679 239.133L75.4738 240.423L78.1023 241.657L80.7523 242.835L83.4221 243.956L86.1096 245.02L88.8121 246.024L91.5292 246.97L94.2579 247.856L96.9969 248.682L99.744 249.448L102.497 250.151L105.255 250.794L108.015 251.374L110.776 251.892L113.535 252.347L116.291 252.739L119.042 253.069L121.786 253.336L124.521 253.539L127.246 253.679L129.958 253.757L132.656 253.77L135.337 253.721L138.001 253.61L140.645 253.436L143.267 253.199L145.867 252.901L148.442 252.541L150.99 252.12L153.51 251.638M153.51 251.638L156.001 251.096L158.46 250.494L159.884 250.13L162.338 249.462L164.757 248.734L166.219 248.28L168.626 247.485L170.996 246.632L172.486 246.088L174.839 245.168L176.329 244.541L178.66 243.555L180.948 242.511L182.453 241.795L184.715 240.686L186.93 239.521L188.441 238.716L190.626 237.487L192.12 236.603L194.269 235.311L196.368 233.965L197.855 232.996M197.855 232.996L199.913 231.588L201.374 230.545L203.389 229.077L205.349 227.557L206.79 226.433L208.703 224.856L210.109 223.662L211.972 222.03L213.34 220.767L215.15 219.081L216.9 217.347L218.231 216.015L219.925 214.23L221.21 212.836L222.845 211.003L224.08 209.549L225.654 207.669L227.164 205.747L228.348 204.235L229.795 202.27L230.923 200.705L232.305 198.701L233.374 197.087L234.689 195.044L235.697 193.386L236.944 191.307L238.124 189.194L239.066 187.496L240.177 185.352L241.052 183.617L242.092 181.444L242.899 179.675L243.868 177.477L244.604 175.678L245.503 173.458L246.332 171.21L246.993 169.393M246.993 169.393L247.75 167.127L248.338 165.29L249.024 163.008L249.536 161.154L250.15 158.86L250.695 156.545L251.129 154.691L251.602 152.367L251.959 150.506L252.362 148.178L252.643 146.312L252.976 143.983L253.241 141.637L253.442 139.79L253.639 137.447L253.762 135.606L253.891 133.269L253.954 130.92L254 129.109L253.996 126.77L253.966 124.975L253.898 122.649L253.766 120.315L253.661 118.563L253.466 116.246L253.286 114.519L253.031 112.222L252.715 109.921L252.465 108.249L252.091 105.972L251.656 103.693L251.339 102.084L250.851 99.8325L250.303 97.5815L249.923 96.0412L249.324 93.8219L248.667 91.6053L248.23 90.1395L247.526 87.9583L246.767 85.7824L246.275 84.3977M66.0457 18.4335L64.0399 19.6187L62.0769 20.8555L60.1575 22.1432L58.283 23.4808L56.4547 24.8682L54.6741 26.3056L52.9429 27.7907L51.261 29.324L49.63 30.9045L48.0516 32.5312L46.5263 34.2035L45.0552 35.9207L43.6399 37.6815L42.2814 39.4851L40.9802 41.3312L39.7381 43.2179L38.555 45.1455L37.433 47.1116L36.3722 49.1158L35.3735 51.1571L34.4382 53.2343L33.5667 55.3463L32.7606 57.4916L32.0199 59.669L31.3452 61.8782L30.7376 64.1168L30.1975 66.3838L29.725 68.6782L29.3217 70.9983L28.987 73.3431L28.7226 75.7109L28.5285 78.1002L28.4046 80.5099L28.351 82.9384L28.3687 85.384L28.4577 87.8452L28.618 90.3203L28.8502 92.8083L29.1538 95.3076L29.5298 97.8154L29.9771 100.332L30.4957 102.854L31.0862 105.38L31.7475 107.91L32.4801 110.44L33.2835 112.97L34.1577 115.498L35.1022 118.022L36.1158 120.54L37.1992 123.051L38.3507 125.552L39.5703 128.044L40.8569 130.522L42.21 132.986L43.6296 135.434L45.1142 137.864L46.6631 140.275L48.2747 142.665L49.9486 145.033L51.6836 147.376L53.4787 149.693L55.3333 151.982L57.2452 154.242L59.2141 156.47L61.2382 158.666L63.3158 160.828L65.4461 162.955L67.6279 165.044L69.859 167.095L72.1383 169.105L74.4644 171.074L76.8354 173L79.2499 174.882L81.7063 176.717L84.2023 178.506L86.737 180.247L89.3081 181.938L91.9141 183.578L94.5528 185.166L97.2231 186.701L99.9224 188.182L102.649 189.608L105.401 190.979L108.176 192.292L110.973 193.547L113.79 194.744L116.624 195.881L119.473 196.957L122.337 197.972L125.212 198.926L128.096 199.818L130.989 200.647L133.886 201.413L136.788 202.115L139.69 202.752L142.592 203.326L145.492 203.834L148.387 204.277L151.276 204.656L154.156 204.969L157.026 205.216L159.883 205.399L162.726 205.515L165.553 205.566L168.361 205.552L171.15 205.472L173.917 205.328L176.66 205.119L179.378 204.846L182.069 204.509L184.731 204.108L187.362 203.644L189.961 203.117L192.526 202.528L195.055 201.878L197.548 201.167L200.002 200.395L202.415 199.564L204.787 198.674L207.116 197.726L209.4 196.72L211.639 195.658L213.831 194.54L215.974 193.368L218.069 192.143L220.111 190.864L222.103 189.534L224.042 188.153L225.926 186.722L227.756 185.243L229.53 183.716L231.246 182.144L232.906 180.526L234.507 178.864L236.049 177.159L237.53 175.412L238.951 173.626L240.31 171.8L241.608 169.937L242.843 168.036L244.015 166.101L245.124 164.132L246.169 162.13L247.148 160.097L248.064 158.034L248.915 155.942L249.7 153.823L250.421 151.679L251.075 149.51L251.664 147.317L252.186 145.103L252.643 142.869L253.033 140.615L253.358 138.344L253.618 136.056L253.811 133.753L253.939 131.437L254.001 129.109M12.7714 77.3541L11.8243 79.6126L10.9458 81.9059L10.1359 84.2341L9.39638 86.595L8.72706 88.988L8.12903 91.4106L7.60237 93.8626L7.14864 96.3415L6.76787 98.8467L6.46108 101.376L6.22831 103.929L6.0701 106.503L5.98643 109.096L5.97841 111.708L6.04545 114.336L6.18811 116.979L6.40691 119.635L6.70191 122.303L7.07302 124.981L7.52034 127.666L8.04376 130.358L8.64283 133.054L9.31752 135.753L10.0679 138.453L10.8938 141.152L11.7943 143.849L12.7698 146.541L13.8199 149.226L14.943 151.903L16.139 154.57L17.4079 157.226L18.7482 159.868L20.1598 162.493L21.6416 165.102L23.1932 167.692L24.8129 170.26L26.5007 172.805L28.254 175.326L30.0731 177.82L31.9567 180.286L33.903 182.722L35.9115 185.126L37.9807 187.496L40.1088 189.831L42.2943 192.13L44.5367 194.39L46.8337 196.609L49.1839 198.787L51.5855 200.921L54.0376 203.01L56.5379 205.053L59.0849 207.048L61.6769 208.994L64.3113 210.888L66.9876 212.731L69.703 214.52L72.4554 216.255L75.2437 217.934L78.0658 219.555L80.9191 221.118L83.8023 222.622L86.7124 224.066L89.6482 225.448L92.6071 226.768L95.5874 228.024L98.5871 229.217L101.603 230.344L104.635 231.406L107.679 232.401L110.734 233.33L113.797 234.192L116.866 234.985L119.939 235.71L123.014 236.366L126.09 236.953L129.162 237.47L132.231 237.918L135.292 238.295L138.346 238.603L141.388 238.841L144.417 239.008L147.432 239.106L150.429 239.133L153.408 239.09L156.365 238.978L159.3 238.796L162.21 238.546L165.093 238.227L167.947 237.839L170.771 237.384L173.563 236.861L176.32 236.271L179.042 235.615L181.726 234.894L184.371 234.107L186.975 233.257L189.536 232.343L192.054 231.366L194.526 230.328L196.951 229.229L199.328 228.07L201.655 226.853L203.931 225.577L206.155 224.244L208.325 222.856L210.44 221.413L212.499 219.916L214.501 218.367L216.445 216.767L218.33 215.117L220.155 213.418L221.919 211.671L223.621 209.878L225.261 208.04L226.836 206.159L228.348 204.235M196.286 36.3266L195.358 35.5366L194.414 34.7627L193.453 34.0043L192.477 33.2632L191.487 32.5381L190.482 31.8306L189.464 31.1409L188.433 30.4689L187.389 29.8151L186.333 29.1807L185.267 28.5655L184.189 27.9691L183.101 27.3931L182.005 26.837L180.899 26.3017L179.785 25.7868L178.663 25.2929L177.535 24.8209L176.4 24.3699L175.259 23.9414L174.114 23.5348L172.964 23.1503L171.81 22.7883L170.653 22.4493L169.494 22.1334L168.333 21.8411L167.171 21.5719L166.008 21.3263L164.846 21.1042L163.684 20.9063L162.524 20.732L161.366 20.5818L160.211 20.4558L159.059 20.3544L157.912 20.2772L156.769 20.2247L155.632 20.1968L154.5 20.193L153.376 20.2139L152.259 20.2595L151.15 20.3298L150.05 20.4242L148.959 20.5438L147.879 20.6875L146.809 20.8559L145.749 21.0484L144.702 21.2651L143.668 21.5059L142.646 21.7714L141.639 22.0605L140.646 22.3737L139.667 22.7105L138.704 23.0709L137.758 23.4544L136.827 23.8609L135.914 24.2905L135.019 24.7431L134.143 25.2178L133.285 25.7155L132.446 26.2347L131.628 26.7753L130.831 27.3379L130.053 27.9214L129.298 28.5258L128.564 29.1506L127.853 29.7958L127.165 30.4603L126.5 31.1447L125.859 31.8483L125.242 32.5702L124.649 33.3103L124.082 34.0687L123.54 34.8442L123.023 35.6369L122.533 36.4462L122.07 37.2716L121.633 38.1126L121.222 38.9685L120.84 39.8395L120.485 40.7239L120.158 41.6222L119.858 42.534L119.588 43.4581L119.346 44.3945L119.132 45.3416L118.948 46.3006L118.793 47.2692L118.667 48.2474L118.57 49.2353L118.503 50.2318L118.465 51.2358L118.457 52.2473L118.479 53.2658L118.53 54.2901L118.611 55.3199L118.721 56.355L118.862 57.3938L119.032 58.4365L119.231 59.4817L119.461 60.5297L119.72 61.5787L120.007 62.6289L120.324 63.6795L120.669 64.7302L121.044 65.7792L121.447 66.8266L121.879 67.8719L122.338 68.914L122.825 69.9529L123.34 70.9869L123.882 72.0161L124.452 73.0399L125.047 74.0568L125.67 75.0672L126.317 76.0701L126.991 77.0645L127.689 78.0497L128.413 79.0258L129.16 79.9917L129.931 80.9469L130.726 81.8903L131.543 82.8219L132.383 83.7411L133.244 84.647L134.127 85.5389L135.03 86.4163L135.953 87.2792L136.896 88.1261L137.858 88.9574L138.838 89.7715L139.836 90.569L140.851 91.3488L141.882 92.1099L142.929 92.8527L143.991 93.5767L145.067 94.2809L146.157 94.9647L147.261 95.6287L148.376 96.2712L149.503 96.8923L150.641 97.4919L151.789 98.0695L152.947 98.6246L154.113 99.1566L155.286 99.6656L156.468 100.151L157.655 100.613L158.848 101.05L160.046 101.463L161.247 101.852L162.453 102.216L163.66 102.555L164.87 102.868L166.08 103.156L167.291 103.418L168.501 103.655L169.709 103.866L170.916 104.05L172.119 104.209L173.319 104.341L174.514 104.447L175.705 104.527L176.889 104.58L178.067 104.607L179.237 104.608L180.399 104.582L181.553 104.53L182.696 104.452L183.829 104.348L184.952 104.218L186.062 104.061L187.16 103.879L188.245 103.672L189.316 103.439L190.373 103.18L191.415 102.897L192.441 102.589L193.451 102.255L194.444 101.898L195.42 101.516L196.377 101.11L197.316 100.681L198.235 100.229L199.135 99.753L200.014 99.2547L200.873 98.7345L201.71 98.1918L202.526 97.6276L203.319 97.0419L204.09 96.4359L204.837 95.8094L205.561 95.1626L206.261 94.4965L206.937 93.8111L207.587 93.1069L208.213 92.385L208.814 91.6449L209.388 90.8871L209.937 90.1132L210.459 89.3226L210.955 88.5165L211.423 87.6949L211.865 86.8582L212.279 86.0076L212.666 85.1436L213.025 84.2662L213.356 83.3759L213.659 82.4738L213.934 81.5599L214.181 80.6353L214.398 79.7005L214.588 78.7555L214.749 77.8014L214.882 76.8387L214.986 75.8674L215.061 74.8892L215.108 73.9039L215.126 72.9123L215.115 71.9153L215.076 70.9129L215.008 69.9057L214.912 68.8947L214.788 67.8805L214.635 66.8637L214.454 65.8441L214.246 64.8235L214.009 63.8018L213.745 62.7796L213.453 61.7579L213.135 60.7367L212.789 59.7166L212.417 58.6992L212.018 57.684L211.592 56.672L211.141 55.6637L210.665 54.6597L210.162 53.6605L209.635 52.6672L209.083 51.6793L208.506 50.6984L207.906 49.7239L207.281 48.758L206.634 47.7996L205.964 46.8503L205.27 45.9101L204.555 44.9796L203.818 44.0598L203.061 43.1502L202.282 42.2524L201.482 41.3664L200.663 40.4928L199.824 39.632L198.967 38.7846L198.091 37.9506L197.198 37.1311L196.286 36.3266ZM184.847 43.3579L185.372 43.772L185.91 44.1721L186.436 44.577L186.923 45.0055L187.355 45.4716L187.751 45.9645L188.14 46.467L188.55 46.9631L188.998 47.4404L189.463 47.9081L189.914 48.3779L190.319 48.8627L190.658 49.3723L190.953 49.8995L191.237 50.4352L191.546 50.9683L191.899 51.4929L192.274 52.0104L192.632 52.528L192.94 53.0514L193.172 53.585L193.355 54.1278L193.525 54.6759L193.721 55.2267L193.966 55.7781L194.235 56.3273L194.488 56.8738L194.686 57.416L194.803 57.9539L194.866 58.4913L194.914 59.0314L194.988 59.5795L195.116 60.1367L195.269 60.6972L195.406 61.2523L195.486 61.7934L195.482 62.3153L195.422 62.8264L195.347 63.3386L195.297 63.862L195.301 64.4048L195.331 64.9556L195.346 65.4983L195.305 66.018L195.18 66.504L194.999 66.9695L194.802 67.4329L194.629 67.9123L194.508 68.4197L194.413 68.9399L194.305 69.45L194.144 69.9278L193.902 70.359L193.605 70.7607L193.293 71.1571L193.003 71.5738L192.762 72.0264L192.545 72.4957L192.316 72.9537L192.039 73.3715L191.689 73.7309L191.288 74.0521L190.872 74.3659L190.475 74.7032L190.121 75.0835L189.79 75.4836L189.449 75.8713L189.066 76.2124L188.62 76.4854L188.13 76.7133L187.626 76.9316L187.138 77.1751L186.685 77.468L186.25 77.7838L185.809 78.0858L185.335 78.3363L184.81 78.5116L184.25 78.6366L183.677 78.7498L183.115 78.8903L182.579 79.0828L182.058 79.3011L181.534 79.5054L180.986 79.6556L180.403 79.7253L179.794 79.7414L179.174 79.7446L178.56 79.7752L177.962 79.8605L177.375 79.9726L176.787 80.0707L176.188 80.1142L175.568 80.075L174.934 79.9812L174.292 79.8728L173.65 79.7924L173.014 79.7656L172.384 79.7666L171.754 79.7548L171.126 79.6889L170.495 79.5425L169.861 79.3413L169.222 79.1257L168.578 78.9359L167.929 78.7986L167.279 78.6886L166.634 78.5669L166.002 78.3942L165.385 78.1453L164.776 77.8445L164.166 77.5291L163.545 77.2379L162.908 76.9955L162.264 76.7782L161.629 76.5514L161.018 76.2789L160.439 75.9373L159.88 75.5479L159.323 75.1457L158.751 74.7638L158.151 74.4254L157.539 74.1106L156.939 73.7877L156.373 73.4262L155.855 73.0052L155.369 72.5435L154.887 72.0693L154.386 71.6124L153.847 71.1919L153.292 70.7913L152.75 70.3853L152.252 69.9493L151.816 69.466L151.421 68.9496L151.034 68.4229L150.623 67.9086L150.167 67.4227L149.69 66.9534L149.228 66.4814L148.817 65.988L148.48 65.4613L148.193 64.9105L147.916 64.3522L147.612 63.8014L147.256 63.2694L146.876 62.7497L146.511 62.2305L146.204 61.7001L145.979 61.1509L145.809 60.5878L145.653 60.0193L145.468 59.4535L145.225 58.8973L144.956 58.3481L144.703 57.8027L144.51 57.2567L144.406 56.7064L144.361 56.153L144.331 55.5963L144.271 55.038L144.152 54.4791L144.004 53.9229L143.871 53.3727L143.8 52.8321L143.82 52.3027L143.901 51.7798L143.998 51.2569L144.064 50.7275L144.072 50.188L144.049 49.6469L144.042 49.1137L144.094 48.5994L144.237 48.1114L144.44 47.6389L144.658 47.1696L144.849 46.6896L144.982 46.1908L145.085 45.6851L145.202 45.1895L145.375 44.7223L145.634 44.2933L145.95 43.8894L146.282 43.491L146.589 43.0785L146.841 42.6387L147.065 42.1882L147.301 41.7501L147.587 41.3467L147.951 40.9933L148.369 40.6726L148.8 40.3599L149.21 40.0295L149.571 39.6659L149.906 39.2878L150.251 38.9226L150.639 38.5986L151.094 38.3337L151.595 38.1079L152.11 37.8918L152.606 37.6563L153.062 37.3817L153.495 37.09L153.935 36.8116L154.409 36.5789L154.937 36.4115L155.503 36.2882L156.08 36.1761L156.645 36.0431L157.177 35.8682L157.69 35.673L158.208 35.4923L158.75 35.3587L159.331 35.2949L159.94 35.2777L160.559 35.2734L161.169 35.2472L161.757 35.1774L162.332 35.0868L162.907 35.009L163.496 34.9796L164.108 35.0208L164.737 35.1099L165.374 35.2123L166.007 35.2938L166.629 35.3314L167.243 35.348L167.854 35.3764L168.467 35.452L169.087 35.5963L169.714 35.7872L170.344 35.9921L170.977 36.1777L171.61 36.3214L172.239 36.4437L172.863 36.5778L173.478 36.7548L174.084 36.9961L174.684 37.282L175.285 37.5812L175.894 37.8633L176.513 38.1074L177.135 38.3316L177.748 38.5654L178.343 38.8373L178.911 39.1671L179.462 39.5367L180.012 39.9191L180.575 40.287L181.158 40.6222L181.749 40.9402L182.33 41.2652L182.88 41.6224L183.39 42.0279L183.873 42.4671L184.352 42.9176L184.847 43.3579ZM204.699 32.322L203.371 31.1947L202.021 30.0893L200.648 29.0076L199.253 27.9489L197.838 26.9138L196.402 25.9039L194.948 24.9187L193.475 23.9597L191.984 23.0265L190.476 22.1201L188.953 21.2411L187.414 20.3894L185.861 19.5662L184.294 18.7713L182.715 18.006L181.124 17.2696L179.522 16.5633L177.91 15.8875L176.289 15.2418L174.659 14.6277L173.022 14.0447L171.379 13.4939L169.73 12.9748L168.076 12.4878L166.419 12.0335L164.759 11.6125L163.097 11.2248L161.433 10.8703L159.769 10.549L158.107 10.2621L156.446 10.0089L154.787 9.79011L153.132 9.60614L151.482 9.45651L149.837 9.3412L148.198 9.2613L146.567 9.2157L144.943 9.20498L143.329 9.22964L141.725 9.28919L140.131 9.3841L138.55 9.51389L136.981 9.67855L135.426 9.8786L133.885 10.1135L132.36 10.3827L130.851 10.6874L129.359 11.0263L127.886 11.4001L126.431 11.8083L124.996 12.2507L123.582 12.7275L122.189 13.2376L120.82 13.7814L119.472 14.359L118.149 14.9693L116.851 15.6124L115.579 16.2882L114.333 16.9966L113.114 17.7362L111.924 18.508L110.761 19.3103L109.629 20.1438L108.527 21.0073L107.456 21.9008L106.416 22.8232L105.409 23.7752L104.434 24.7556L103.494 25.7633L102.588 26.799L101.716 27.8614L100.881 28.9496L100.081 30.0641L99.3185 31.2033L98.5928 32.3671L97.9047 33.5545L97.2552 34.765L96.6444 35.998L96.0726 37.2524L95.5406 38.5283L95.0488 39.8241L94.5972 41.1397L94.1869 42.474L93.8174 43.8266L93.4897 45.1959L93.2033 46.5817L92.9593 47.9837L92.7577 49.3996L92.5984 50.8299L92.482 52.2732L92.4085 53.7282L92.3785 55.195L92.3908 56.6721L92.4471 58.1587L92.5464 59.6535L92.6885 61.1562L92.8746 62.6655L93.1041 64.1806L93.3766 65.7005L93.6919 67.2242L94.0507 68.7511L94.4524 70.2796L94.8965 71.8092L95.383 73.3382L95.9123 74.8668L96.4829 76.3931L97.0959 77.9163L97.7503 79.4357L98.4453 80.9502L99.1812 82.4589L99.9567 83.9601L100.772 85.4537L101.628 86.9388L102.521 88.4131L103.453 89.8773L104.424 91.3291L105.431 92.7681L106.474 94.1936L107.554 95.6047L108.668 96.9997L109.817 98.378L111 99.7392L112.216 101.082L113.464 102.405L114.744 103.708L116.054 104.99L117.394 106.25L118.763 107.487L120.16 108.701L121.585 109.89L123.036 111.054L124.511 112.192L126.012 113.303L127.535 114.387L129.081 115.442L130.648 116.469L132.235 117.466L133.842 118.432L135.467 119.368L137.109 120.272L138.766 121.144L140.439 121.983L142.126 122.789L143.825 123.561L145.536 124.299L147.258 125.003L148.988 125.67L150.726 126.303L152.472 126.899L154.223 127.459L155.98 127.982L157.739 128.468L159.501 128.917L161.264 129.328L163.027 129.701L164.789 130.036L166.548 130.334L168.304 130.592L170.056 130.813L171.802 130.994L173.541 131.137L175.272 131.241L176.994 131.306L178.705 131.333L180.405 131.32L182.094 131.269L183.768 131.18L185.428 131.053L187.072 130.887L188.7 130.683L190.31 130.441L191.901 130.161L193.473 129.844L195.024 129.489L196.554 129.098L198.061 128.67L199.545 128.207L201.004 127.707L202.438 127.171L203.846 126.601L205.227 125.996L206.581 125.357L207.906 124.684L209.202 123.978L210.468 123.239L211.703 122.468L212.906 121.666L214.078 120.832L215.216 119.968L216.322 119.075L217.393 118.152L218.43 117.2L219.431 116.22L220.397 115.214L221.327 114.18L222.219 113.121L223.075 112.036L223.893 110.927L224.673 109.795L225.415 108.639L226.118 107.461L226.782 106.262L227.406 105.042L227.991 103.801L228.536 102.543L229.041 101.265L229.506 99.9698L229.93 98.6585L230.313 97.3306L230.655 95.9882L230.956 94.6307L231.216 93.2604L231.436 91.8772L231.614 90.4828L231.751 89.0771L231.847 87.6618L231.902 86.2368L231.916 84.8037L231.888 83.3626L231.82 81.9151L231.711 80.4622L231.562 79.0039L231.373 77.5419L231.142 76.0762L230.873 74.6082L230.563 73.1387L230.213 71.6687L229.825 70.1981L229.397 68.7291L228.931 67.2617L228.426 65.797L227.884 64.3356L227.304 62.8784L226.687 61.426L226.032 59.9801L225.342 58.5406L224.616 57.1081L223.854 55.6847L223.057 54.2699L222.226 52.8647L221.361 51.4703L220.462 50.0871L219.531 48.7163L218.567 47.3583L217.571 46.0138L216.544 44.6837L215.487 43.3681L214.399 42.0686L213.282 40.7857L212.137 39.52L210.963 38.272L209.762 37.0422L208.534 35.8322L207.28 34.6416L206.002 33.4714L204.699 32.322ZM209.853 32.1799L208.191 30.7688L206.5 29.3862L204.781 28.0325L203.036 26.7078L201.265 25.4137L199.469 24.1496L197.648 22.9176L195.806 21.7173L193.94 20.5503L192.054 19.416L190.148 18.3165L188.223 17.2509L186.28 16.2206L184.32 15.2262L182.344 14.2678L180.353 13.3459L178.348 12.4615L176.331 11.6152L174.302 10.807L172.263 10.0373L170.213 9.30634L168.156 8.61556L166.091 7.96393L164.02 7.35306L161.944 6.78296L159.864 6.25413L157.781 5.76609L155.696 5.3204L153.611 4.91601L151.526 4.554L149.443 4.23435L147.362 3.95761L145.285 3.72378L143.213 3.53338L141.148 3.38589L139.09 3.28184L137.04 3.22178L135 3.20515L132.97 3.23197L130.952 3.30276L128.947 3.41753L126.956 3.57629L124.981 3.77902L123.021 4.02519L121.079 4.31588L119.156 4.65L117.252 5.02757L115.37 5.44859L113.509 5.91358L111.671 6.42147L109.857 6.97282L108.069 7.56704L106.306 8.20366L104.571 8.88264L102.864 9.60399L101.187 10.3672L99.5402 11.1717L97.9248 12.0174L96.3421 12.904L94.7927 13.8307L93.2781 14.7977L91.7984 15.8039L90.3552 16.8492L88.9495 17.9331L87.5824 19.055L86.2539 20.214L84.9662 21.4106L83.7193 22.643L82.5141 23.9114L81.3514 25.2142L80.2321 26.5517L79.1573 27.9226L78.1276 29.3267L77.144 30.7629L76.2065 32.2303L75.3167 33.7288L74.4747 35.2568L73.6809 36.8132L72.9365 38.3985L72.2414 40.0102L71.5973 41.6486L71.0042 43.3123L70.4625 45.0007L69.9728 46.7126L69.5352 48.4465L69.1506 50.2019L68.8192 51.9776L68.5408 53.7727L68.3172 55.586L68.1472 57.4165L68.0319 59.263L67.9713 61.1246L67.9654 63.0001L68.0147 64.888L68.1188 66.7876L68.2781 68.6969L68.4926 70.6159L68.7623 72.5429L69.0879 74.4758L69.4682 76.4146L69.9036 78.3577L70.3938 80.3034L70.9387 82.2514L71.5378 84.1993L72.191 86.1461L72.8985 88.0914L73.6595 90.0328L74.4736 91.9695L75.3408 93.9002L76.2596 95.824L77.2303 97.7392L78.2525 99.6442L79.3252 101.539L80.4477 103.42L81.6201 105.288L82.8408 107.141L84.1092 108.978L85.4248 110.798L86.787 112.599L88.1943 114.379L89.6462 116.139L91.142 117.876L92.6807 119.59L94.2612 121.279L95.882 122.942L97.5424 124.578L99.2415 126.186L100.978 127.765L102.751 129.313L104.559 130.83L106.401 132.314L108.276 133.765L110.182 135.181L112.119 136.562L114.084 137.907L116.077 139.214L118.095 140.483L120.139 141.713L122.206 142.902L124.296 144.052L126.406 145.159L128.535 146.224L130.682 147.247L132.845 148.226L135.023 149.16L137.214 150.05L139.417 150.893L141.631 151.692L143.853 152.443L146.083 153.148L148.318 153.805L150.558 154.414L152.801 154.975L155.044 155.488L157.288 155.952L159.53 156.366L161.768 156.731L164.002 157.048L166.23 157.314L168.45 157.531L170.661 157.698L172.861 157.815L175.049 157.883L177.224 157.9L179.384 157.868L181.528 157.787L183.654 157.656L185.76 157.476L187.847 157.247L189.911 156.969L191.953 156.643L193.97 156.268L195.962 155.846L197.927 155.377L199.864 154.861L201.772 154.297L203.649 153.688L205.494 153.034L207.307 152.334L209.087 151.59L210.832 150.802L212.54 149.97L214.213 149.097L215.847 148.181L217.443 147.224L218.999 146.226L220.514 145.189L221.989 144.113L223.421 142.998L224.811 141.846L226.157 140.658L227.459 139.434L228.715 138.175L229.926 136.881L231.091 135.555L232.208 134.196L233.278 132.807L234.301 131.386L235.276 129.937L236.201 128.459L237.077 126.954L237.904 125.422L238.68 123.864L239.406 122.282L240.081 120.678L240.706 119.05L241.28 117.401L241.803 115.732L242.274 114.043L242.693 112.337L243.061 110.613L243.377 108.873L243.642 107.118L243.855 105.349L244.015 103.567L244.125 101.773L244.183 99.9687L244.189 98.1549L244.144 96.3319L244.047 94.5015L243.9 92.6645L243.702 90.8223L243.453 88.9757L243.154 87.1254L242.805 85.2735L242.407 83.42L241.959 81.5665L241.462 79.7135L240.917 77.8626L240.323 76.0145L239.682 74.1706L238.993 72.3316L238.259 70.4984L237.477 68.6728L236.65 66.8546L235.777 65.0456L234.86 63.2463L233.899 61.4582L232.895 59.6819L231.848 57.9179L230.759 56.1685L229.628 54.4335L228.456 52.714L227.244 51.0112L225.993 49.3255L224.703 47.6581L223.376 46.01L222.011 44.3823L220.61 42.7749L219.173 41.1895L217.701 39.6272L216.196 38.0875L214.658 36.5724L213.087 35.0825L211.485 33.6178L209.853 32.1799Z" stroke="url(#paint0_angular_396_13625)" stroke-width="3" stroke-linecap="round" stroke-linejoin="round"/>
<defs>
<radialGradient id="paint0_angular_396_13625" cx="0" cy="0" r="1" gradientUnits="userSpaceOnUse" gradientTransform="translate(128 128.153) rotate(90) scale(126.153 126)">
<stop offset="0.0993526" stop-color="#FFC876"/>
<stop offset="0.427081" stop-color="#79FFF7"/>
<stop offset="0.718753" stop-color="#9F53FF"/>
<stop offset="1" stop-color="#FF98E2"/>
</radialGradient>
</defs>
</svg>
