<svg width="614" height="97" viewBox="0 0 614 97" fill="none" xmlns="http://www.w3.org/2000/svg">
<rect y="48" width="2" height="1" rx="0.5" fill="url(#paint0_linear_422_10874)"/>
<rect x="4" y="48" width="2" height="1" rx="0.5" fill="url(#paint1_linear_422_10874)"/>
<rect x="8" y="48" width="2" height="1" rx="0.5" fill="url(#paint2_linear_422_10874)"/>
<rect x="12" y="48" width="2" height="1" rx="0.5" fill="url(#paint3_linear_422_10874)"/>
<rect x="16" y="48" width="2" height="1" rx="0.5" fill="url(#paint4_linear_422_10874)"/>
<rect x="20" y="48" width="2" height="1" rx="0.5" fill="url(#paint5_linear_422_10874)"/>
<rect x="24" y="48" width="2" height="1" rx="0.5" fill="url(#paint6_linear_422_10874)"/>
<rect x="28" y="48" width="2" height="1" rx="0.5" fill="url(#paint7_linear_422_10874)"/>
<rect x="32" y="48" width="2" height="1" rx="0.5" fill="url(#paint8_linear_422_10874)"/>
<rect x="36" y="48" width="2" height="1" rx="0.5" fill="url(#paint9_linear_422_10874)"/>
<rect x="40" y="48" width="2" height="1" rx="0.5" fill="url(#paint10_linear_422_10874)"/>
<rect x="44" y="48" width="2" height="1" rx="0.5" fill="url(#paint11_linear_422_10874)"/>
<rect x="48" y="48" width="2" height="1" rx="0.5" fill="url(#paint12_linear_422_10874)"/>
<rect x="52" y="48" width="2" height="1" rx="0.5" fill="url(#paint13_linear_422_10874)"/>
<rect x="56" y="48" width="2" height="1" rx="0.5" fill="url(#paint14_linear_422_10874)"/>
<rect x="60" y="48" width="2" height="1" rx="0.5" fill="url(#paint15_linear_422_10874)"/>
<rect x="64" y="48" width="2" height="1" rx="0.5" fill="url(#paint16_linear_422_10874)"/>
<rect x="68" y="46.5" width="2" height="4" rx="1" fill="url(#paint17_linear_422_10874)"/>
<rect x="72" y="46.5" width="2" height="4" rx="1" fill="url(#paint18_linear_422_10874)"/>
<rect x="76" y="46.5" width="2" height="4" rx="1" fill="url(#paint19_linear_422_10874)"/>
<rect x="80" y="46.5" width="2" height="4" rx="1" fill="url(#paint20_linear_422_10874)"/>
<rect x="84" y="46.5" width="2" height="4" rx="1" fill="url(#paint21_linear_422_10874)"/>
<rect x="88" y="46.5" width="2" height="4" rx="1" fill="url(#paint22_linear_422_10874)"/>
<rect x="92" y="46.5" width="2" height="4" rx="1" fill="url(#paint23_linear_422_10874)"/>
<rect x="96" y="46.5" width="2" height="4" rx="1" fill="url(#paint24_linear_422_10874)"/>
<rect x="100" y="46.5" width="2" height="4" rx="1" fill="url(#paint25_linear_422_10874)"/>
<rect x="104" y="46.5" width="2" height="4" rx="1" fill="url(#paint26_linear_422_10874)"/>
<rect x="108" y="46.5" width="2" height="4" rx="1" fill="url(#paint27_linear_422_10874)"/>
<rect x="112" y="46.5" width="2" height="4" rx="1" fill="url(#paint28_linear_422_10874)"/>
<rect x="116" y="46.5" width="2" height="4" rx="1" fill="url(#paint29_linear_422_10874)"/>
<rect x="120" y="38.5" width="2" height="20" rx="1" fill="url(#paint30_linear_422_10874)"/>
<rect x="124" y="38.5" width="2" height="20" rx="1" fill="url(#paint31_linear_422_10874)"/>
<rect x="128" y="38.5" width="2" height="20" rx="1" fill="url(#paint32_linear_422_10874)"/>
<rect x="132" y="35.5" width="2" height="26" rx="1" fill="url(#paint33_linear_422_10874)"/>
<rect x="136" y="35.5" width="2" height="26" rx="1" fill="url(#paint34_linear_422_10874)"/>
<rect x="140" y="34" width="2" height="29" rx="1" fill="url(#paint35_linear_422_10874)"/>
<rect x="144" y="35.5" width="2" height="26" rx="1" fill="url(#paint36_linear_422_10874)"/>
<rect x="148" y="38.5" width="2" height="20" rx="1" fill="url(#paint37_linear_422_10874)"/>
<rect x="152" y="38.5" width="2" height="20" rx="1" fill="url(#paint38_linear_422_10874)"/>
<rect x="156" y="38.5" width="2" height="20" rx="1" fill="url(#paint39_linear_422_10874)"/>
<rect x="160" y="36.5" width="2" height="24" rx="1" fill="url(#paint40_linear_422_10874)"/>
<rect x="164" y="43.5" width="2" height="10" rx="1" fill="url(#paint41_linear_422_10874)"/>
<rect x="168" y="43.5" width="2" height="10" rx="1" fill="url(#paint42_linear_422_10874)"/>
<rect x="172" y="43.5" width="2" height="10" rx="1" fill="url(#paint43_linear_422_10874)"/>
<rect x="176" y="43.5" width="2" height="10" rx="1" fill="url(#paint44_linear_422_10874)"/>
<rect x="180" y="43.5" width="2" height="10" rx="1" fill="url(#paint45_linear_422_10874)"/>
<rect x="184" y="43.5" width="2" height="10" rx="1" fill="url(#paint46_linear_422_10874)"/>
<rect x="188" y="43.5" width="2" height="10" rx="1" fill="url(#paint47_linear_422_10874)"/>
<rect x="192" y="43.5" width="2" height="10" rx="1" fill="url(#paint48_linear_422_10874)"/>
<rect x="196" y="46.5" width="2" height="4" rx="1" fill="url(#paint49_linear_422_10874)"/>
<rect x="200" y="46.5" width="2" height="4" rx="1" fill="url(#paint50_linear_422_10874)"/>
<rect x="204" y="46.5" width="2" height="4" rx="1" fill="url(#paint51_linear_422_10874)"/>
<rect x="208" y="46.5" width="2" height="4" rx="1" fill="url(#paint52_linear_422_10874)"/>
<rect x="212" y="46.5" width="2" height="4" rx="1" fill="url(#paint53_linear_422_10874)"/>
<rect x="216" y="46.5" width="2" height="4" rx="1" fill="url(#paint54_linear_422_10874)"/>
<rect x="220" y="43.5" width="2" height="10" rx="1" fill="url(#paint55_linear_422_10874)"/>
<rect x="224" y="43.5" width="2" height="10" rx="1" fill="url(#paint56_linear_422_10874)"/>
<rect x="228" y="40.5" width="2" height="16" rx="1" fill="url(#paint57_linear_422_10874)"/>
<rect x="232" y="38.5" width="2" height="20" rx="1" fill="url(#paint58_linear_422_10874)"/>
<rect x="236" y="38.5" width="2" height="20" rx="1" fill="url(#paint59_linear_422_10874)"/>
<rect x="240" y="38.5" width="2" height="20" rx="1" fill="url(#paint60_linear_422_10874)"/>
<rect x="244" y="36.5" width="2" height="24" rx="1" fill="url(#paint61_linear_422_10874)"/>
<rect x="248" y="32.5" width="2" height="32" rx="1" fill="url(#paint62_linear_422_10874)"/>
<rect x="252" y="44" width="2" height="9" rx="1" fill="url(#paint63_linear_422_10874)"/>
<rect x="256" y="39.5" width="2" height="18" rx="1" fill="url(#paint64_linear_422_10874)"/>
<rect x="260" y="42.5" width="2" height="12" rx="1" fill="url(#paint65_linear_422_10874)"/>
<rect x="264" y="39.5" width="2" height="18" rx="1" fill="url(#paint66_linear_422_10874)"/>
<rect x="268" y="32.5" width="2" height="32" rx="1" fill="url(#paint67_linear_422_10874)"/>
<rect x="272" y="38" width="2" height="21" rx="1" fill="url(#paint68_linear_422_10874)"/>
<rect x="276" y="32.5" width="2" height="32" rx="1" fill="url(#paint69_linear_422_10874)"/>
<rect x="280" width="2" height="97" rx="1" fill="url(#paint70_linear_422_10874)"/>
<rect x="284" y="25" width="2" height="47" rx="1" fill="url(#paint71_linear_422_10874)"/>
<rect x="288" y="25" width="2" height="47" rx="1" fill="url(#paint72_linear_422_10874)"/>
<rect x="292" y="25" width="2" height="47" rx="1" fill="url(#paint73_linear_422_10874)"/>
<rect x="296" y="28" width="2" height="41" rx="1" fill="url(#paint74_linear_422_10874)"/>
<rect x="300" y="24" width="2" height="49" rx="1" fill="url(#paint75_linear_422_10874)"/>
<rect x="304" y="7" width="2" height="83" rx="1" fill="url(#paint76_linear_422_10874)"/>
<rect x="308" y="29" width="2" height="39" rx="1" fill="url(#paint77_linear_422_10874)"/>
<rect x="312" y="36.5" width="2" height="24" rx="1" fill="url(#paint78_linear_422_10874)"/>
<rect x="316" y="40.5" width="2" height="16" rx="1" fill="url(#paint79_linear_422_10874)"/>
<rect x="320" y="42" width="2" height="13" rx="1" fill="url(#paint80_linear_422_10874)"/>
<rect x="324" y="34.5" width="2" height="28" rx="1" fill="url(#paint81_linear_422_10874)"/>
<rect x="328" y="34.5" width="2" height="28" rx="1" fill="url(#paint82_linear_422_10874)"/>
<rect x="332" y="38.5" width="2" height="20" rx="1" fill="url(#paint83_linear_422_10874)"/>
<rect x="336" y="38.5" width="2" height="20" rx="1" fill="url(#paint84_linear_422_10874)"/>
<rect x="340" y="35.5" width="2" height="26" rx="1" fill="url(#paint85_linear_422_10874)"/>
<rect x="344" y="38.5" width="2" height="20" rx="1" fill="url(#paint86_linear_422_10874)"/>
<rect x="348" y="38.5" width="2" height="20" rx="1" fill="url(#paint87_linear_422_10874)"/>
<path d="M352 36.5C352 35.9477 352.448 35.5 353 35.5C353.552 35.5 354 35.9477 354 36.5V60.5C354 61.0523 353.552 61.5 353 61.5C352.448 61.5 352 61.0523 352 60.5V36.5Z" fill="url(#paint88_linear_422_10874)"/>
<rect x="356" y="38" width="2" height="21" rx="1" fill="url(#paint89_linear_422_10874)"/>
<rect x="360" y="32.5" width="2" height="32" rx="1" fill="url(#paint90_linear_422_10874)"/>
<rect x="364" y="38.5" width="2" height="20" rx="1" fill="url(#paint91_linear_422_10874)"/>
<rect x="368" y="15" width="2" height="67" rx="1" fill="url(#paint92_linear_422_10874)"/>
<rect x="372" y="25" width="2" height="47" rx="1" fill="url(#paint93_linear_422_10874)"/>
<rect x="376" y="15" width="2" height="67" rx="1" fill="url(#paint94_linear_422_10874)"/>
<rect x="380" y="22" width="2" height="53" rx="1" fill="url(#paint95_linear_422_10874)"/>
<rect x="384" y="40.5" width="2" height="16" rx="1" fill="url(#paint96_linear_422_10874)"/>
<rect x="388" y="43.5" width="2" height="10" rx="1" fill="url(#paint97_linear_422_10874)"/>
<rect x="392" y="43.5" width="2" height="10" rx="1" fill="url(#paint98_linear_422_10874)"/>
<rect x="396" y="43.5" width="2" height="10" rx="1" fill="url(#paint99_linear_422_10874)"/>
<rect x="400" y="39" width="2" height="19" rx="1" fill="url(#paint100_linear_422_10874)"/>
<rect x="404" y="43.5" width="2" height="10" rx="1" fill="url(#paint101_linear_422_10874)"/>
<rect x="408" y="43.5" width="2" height="10" rx="1" fill="url(#paint102_linear_422_10874)"/>
<rect x="412" y="43.5" width="2" height="10" rx="1" fill="url(#paint103_linear_422_10874)"/>
<rect x="416" y="40.5" width="2" height="16" rx="1" fill="url(#paint104_linear_422_10874)"/>
<rect x="420" y="46.5" width="2" height="4" rx="1" fill="url(#paint105_linear_422_10874)"/>
<rect x="424" y="46.5" width="2" height="4" rx="1" fill="url(#paint106_linear_422_10874)"/>
<rect x="428" y="46.5" width="2" height="4" rx="1" fill="url(#paint107_linear_422_10874)"/>
<rect x="432" y="46.5" width="2" height="4" rx="1" fill="url(#paint108_linear_422_10874)"/>
<rect x="436" y="46.5" width="2" height="4" rx="1" fill="url(#paint109_linear_422_10874)"/>
<rect x="440" y="46.5" width="2" height="4" rx="1" fill="url(#paint110_linear_422_10874)"/>
<rect x="444" y="46.5" width="2" height="4" rx="1" fill="url(#paint111_linear_422_10874)"/>
<rect x="448" y="46.5" width="2" height="4" rx="1" fill="url(#paint112_linear_422_10874)"/>
<rect x="452" y="46.5" width="2" height="4" rx="1" fill="url(#paint113_linear_422_10874)"/>
<rect x="456" y="46.5" width="2" height="4" rx="1" fill="url(#paint114_linear_422_10874)"/>
<rect x="460" y="46.5" width="2" height="4" rx="1" fill="url(#paint115_linear_422_10874)"/>
<rect x="464" y="46.5" width="2" height="4" rx="1" fill="url(#paint116_linear_422_10874)"/>
<rect x="468" y="46.5" width="2" height="4" rx="1" fill="url(#paint117_linear_422_10874)"/>
<rect x="472" y="46.5" width="2" height="4" rx="1" fill="url(#paint118_linear_422_10874)"/>
<rect x="476" y="46.5" width="2" height="4" rx="1" fill="url(#paint119_linear_422_10874)"/>
<rect x="480" y="46.5" width="2" height="4" rx="1" fill="url(#paint120_linear_422_10874)"/>
<rect x="484" y="46.5" width="2" height="4" rx="1" fill="url(#paint121_linear_422_10874)"/>
<rect x="488" y="46.5" width="2" height="4" rx="1" fill="url(#paint122_linear_422_10874)"/>
<rect x="492" y="46.5" width="2" height="4" rx="1" fill="url(#paint123_linear_422_10874)"/>
<rect x="496" y="46.5" width="2" height="4" rx="1" fill="url(#paint124_linear_422_10874)"/>
<rect x="500" y="46.5" width="2" height="4" rx="1" fill="url(#paint125_linear_422_10874)"/>
<rect x="504" y="47.5" width="2" height="2" rx="1" fill="url(#paint126_linear_422_10874)"/>
<rect x="508" y="47.5" width="2" height="2" rx="1" fill="url(#paint127_linear_422_10874)"/>
<rect x="512" y="47.5" width="2" height="2" rx="1" fill="url(#paint128_linear_422_10874)"/>
<rect x="516" y="47.5" width="2" height="2" rx="1" fill="url(#paint129_linear_422_10874)"/>
<rect x="520" y="47.5" width="2" height="2" rx="1" fill="url(#paint130_linear_422_10874)"/>
<rect x="524" y="47.5" width="2" height="2" rx="1" fill="url(#paint131_linear_422_10874)"/>
<rect x="528" y="47.5" width="2" height="2" rx="1" fill="url(#paint132_linear_422_10874)"/>
<rect x="532" y="47.5" width="2" height="2" rx="1" fill="url(#paint133_linear_422_10874)"/>
<rect x="536" y="47.5" width="2" height="2" rx="1" fill="url(#paint134_linear_422_10874)"/>
<rect x="540" y="47.5" width="2" height="2" rx="1" fill="url(#paint135_linear_422_10874)"/>
<rect x="544" y="47.5" width="2" height="2" rx="1" fill="url(#paint136_linear_422_10874)"/>
<rect x="548" y="47.5" width="2" height="2" rx="1" fill="url(#paint137_linear_422_10874)"/>
<rect x="552" y="47.5" width="2" height="2" rx="1" fill="url(#paint138_linear_422_10874)"/>
<rect x="556" y="47.5" width="2" height="2" rx="1" fill="url(#paint139_linear_422_10874)"/>
<rect x="560" y="48" width="2" height="1" rx="0.5" fill="url(#paint140_linear_422_10874)"/>
<rect x="564" y="48" width="2" height="1" rx="0.5" fill="url(#paint141_linear_422_10874)"/>
<rect x="568" y="48" width="2" height="1" rx="0.5" fill="url(#paint142_linear_422_10874)"/>
<rect x="572" y="48" width="2" height="1" rx="0.5" fill="url(#paint143_linear_422_10874)"/>
<rect x="576" y="48" width="2" height="1" rx="0.5" fill="url(#paint144_linear_422_10874)"/>
<rect x="580" y="48" width="2" height="1" rx="0.5" fill="url(#paint145_linear_422_10874)"/>
<rect x="584" y="48" width="2" height="1" rx="0.5" fill="url(#paint146_linear_422_10874)"/>
<rect x="588" y="48" width="2" height="1" rx="0.5" fill="url(#paint147_linear_422_10874)"/>
<rect x="592" y="48" width="2" height="1" rx="0.5" fill="url(#paint148_linear_422_10874)"/>
<rect x="596" y="48" width="2" height="1" rx="0.5" fill="url(#paint149_linear_422_10874)"/>
<rect x="600" y="48" width="2" height="1" rx="0.5" fill="url(#paint150_linear_422_10874)"/>
<rect x="604" y="48" width="2" height="1" rx="0.5" fill="url(#paint151_linear_422_10874)"/>
<rect x="608" y="48" width="2" height="1" rx="0.5" fill="url(#paint152_linear_422_10874)"/>
<rect x="612" y="48" width="2" height="1" rx="0.5" fill="url(#paint153_linear_422_10874)"/>
<defs>
<linearGradient id="paint0_linear_422_10874" x1="1" y1="48" x2="1" y2="49" gradientUnits="userSpaceOnUse">
<stop offset="0.0993526" stop-color="#7684FF"/>
<stop offset="1" stop-color="#FF98E2"/>
</linearGradient>
<linearGradient id="paint1_linear_422_10874" x1="5" y1="48" x2="5" y2="49" gradientUnits="userSpaceOnUse">
<stop offset="0.0993526" stop-color="#7684FF"/>
<stop offset="1" stop-color="#FF98E2"/>
</linearGradient>
<linearGradient id="paint2_linear_422_10874" x1="9" y1="48" x2="9" y2="49" gradientUnits="userSpaceOnUse">
<stop offset="0.0993526" stop-color="#7684FF"/>
<stop offset="1" stop-color="#FF98E2"/>
</linearGradient>
<linearGradient id="paint3_linear_422_10874" x1="13" y1="48" x2="13" y2="49" gradientUnits="userSpaceOnUse">
<stop offset="0.0993526" stop-color="#7684FF"/>
<stop offset="1" stop-color="#FF98E2"/>
</linearGradient>
<linearGradient id="paint4_linear_422_10874" x1="17" y1="48" x2="17" y2="49" gradientUnits="userSpaceOnUse">
<stop offset="0.0993526" stop-color="#7684FF"/>
<stop offset="1" stop-color="#FF98E2"/>
</linearGradient>
<linearGradient id="paint5_linear_422_10874" x1="21" y1="48" x2="21" y2="49" gradientUnits="userSpaceOnUse">
<stop offset="0.0993526" stop-color="#7684FF"/>
<stop offset="1" stop-color="#FF98E2"/>
</linearGradient>
<linearGradient id="paint6_linear_422_10874" x1="25" y1="48" x2="25" y2="49" gradientUnits="userSpaceOnUse">
<stop offset="0.0993526" stop-color="#7684FF"/>
<stop offset="1" stop-color="#FF98E2"/>
</linearGradient>
<linearGradient id="paint7_linear_422_10874" x1="29" y1="48" x2="29" y2="49" gradientUnits="userSpaceOnUse">
<stop offset="0.0993526" stop-color="#7684FF"/>
<stop offset="1" stop-color="#FF98E2"/>
</linearGradient>
<linearGradient id="paint8_linear_422_10874" x1="33" y1="48" x2="33" y2="49" gradientUnits="userSpaceOnUse">
<stop offset="0.0993526" stop-color="#7684FF"/>
<stop offset="1" stop-color="#FF98E2"/>
</linearGradient>
<linearGradient id="paint9_linear_422_10874" x1="37" y1="48" x2="37" y2="49" gradientUnits="userSpaceOnUse">
<stop offset="0.0993526" stop-color="#7684FF"/>
<stop offset="1" stop-color="#FF98E2"/>
</linearGradient>
<linearGradient id="paint10_linear_422_10874" x1="41" y1="48" x2="41" y2="49" gradientUnits="userSpaceOnUse">
<stop offset="0.0993526" stop-color="#7684FF"/>
<stop offset="1" stop-color="#FF98E2"/>
</linearGradient>
<linearGradient id="paint11_linear_422_10874" x1="45" y1="48" x2="45" y2="49" gradientUnits="userSpaceOnUse">
<stop offset="0.0993526" stop-color="#7684FF"/>
<stop offset="1" stop-color="#FF98E2"/>
</linearGradient>
<linearGradient id="paint12_linear_422_10874" x1="49" y1="48" x2="49" y2="49" gradientUnits="userSpaceOnUse">
<stop offset="0.0993526" stop-color="#7684FF"/>
<stop offset="1" stop-color="#FF98E2"/>
</linearGradient>
<linearGradient id="paint13_linear_422_10874" x1="53" y1="48" x2="53" y2="49" gradientUnits="userSpaceOnUse">
<stop offset="0.0993526" stop-color="#7684FF"/>
<stop offset="1" stop-color="#FF98E2"/>
</linearGradient>
<linearGradient id="paint14_linear_422_10874" x1="57" y1="48" x2="57" y2="49" gradientUnits="userSpaceOnUse">
<stop offset="0.0993526" stop-color="#7684FF"/>
<stop offset="1" stop-color="#FF98E2"/>
</linearGradient>
<linearGradient id="paint15_linear_422_10874" x1="61" y1="48" x2="61" y2="49" gradientUnits="userSpaceOnUse">
<stop offset="0.0993526" stop-color="#7684FF"/>
<stop offset="1" stop-color="#FF98E2"/>
</linearGradient>
<linearGradient id="paint16_linear_422_10874" x1="65" y1="48" x2="65" y2="49" gradientUnits="userSpaceOnUse">
<stop offset="0.0993526" stop-color="#7684FF"/>
<stop offset="1" stop-color="#FF98E2"/>
</linearGradient>
<linearGradient id="paint17_linear_422_10874" x1="69" y1="46.5" x2="69" y2="50.5" gradientUnits="userSpaceOnUse">
<stop offset="0.0993526" stop-color="#7684FF"/>
<stop offset="1" stop-color="#FF98E2"/>
</linearGradient>
<linearGradient id="paint18_linear_422_10874" x1="73" y1="46.5" x2="73" y2="50.5" gradientUnits="userSpaceOnUse">
<stop offset="0.0993526" stop-color="#7684FF"/>
<stop offset="1" stop-color="#FF98E2"/>
</linearGradient>
<linearGradient id="paint19_linear_422_10874" x1="77" y1="46.5" x2="77" y2="50.5" gradientUnits="userSpaceOnUse">
<stop offset="0.0993526" stop-color="#7684FF"/>
<stop offset="1" stop-color="#FF98E2"/>
</linearGradient>
<linearGradient id="paint20_linear_422_10874" x1="81" y1="46.5" x2="81" y2="50.5" gradientUnits="userSpaceOnUse">
<stop offset="0.0993526" stop-color="#7684FF"/>
<stop offset="1" stop-color="#FF98E2"/>
</linearGradient>
<linearGradient id="paint21_linear_422_10874" x1="85" y1="46.5" x2="85" y2="50.5" gradientUnits="userSpaceOnUse">
<stop offset="0.0993526" stop-color="#7684FF"/>
<stop offset="1" stop-color="#FF98E2"/>
</linearGradient>
<linearGradient id="paint22_linear_422_10874" x1="89" y1="46.5" x2="89" y2="50.5" gradientUnits="userSpaceOnUse">
<stop offset="0.0993526" stop-color="#7684FF"/>
<stop offset="1" stop-color="#FF98E2"/>
</linearGradient>
<linearGradient id="paint23_linear_422_10874" x1="93" y1="46.5" x2="93" y2="50.5" gradientUnits="userSpaceOnUse">
<stop offset="0.0993526" stop-color="#7684FF"/>
<stop offset="1" stop-color="#FF98E2"/>
</linearGradient>
<linearGradient id="paint24_linear_422_10874" x1="97" y1="46.5" x2="97" y2="50.5" gradientUnits="userSpaceOnUse">
<stop offset="0.0993526" stop-color="#7684FF"/>
<stop offset="1" stop-color="#FF98E2"/>
</linearGradient>
<linearGradient id="paint25_linear_422_10874" x1="101" y1="46.5" x2="101" y2="50.5" gradientUnits="userSpaceOnUse">
<stop offset="0.0993526" stop-color="#7684FF"/>
<stop offset="1" stop-color="#FF98E2"/>
</linearGradient>
<linearGradient id="paint26_linear_422_10874" x1="105" y1="46.5" x2="105" y2="50.5" gradientUnits="userSpaceOnUse">
<stop offset="0.0993526" stop-color="#7684FF"/>
<stop offset="1" stop-color="#FF98E2"/>
</linearGradient>
<linearGradient id="paint27_linear_422_10874" x1="109" y1="46.5" x2="109" y2="50.5" gradientUnits="userSpaceOnUse">
<stop offset="0.0993526" stop-color="#7684FF"/>
<stop offset="1" stop-color="#FF98E2"/>
</linearGradient>
<linearGradient id="paint28_linear_422_10874" x1="113" y1="46.5" x2="113" y2="50.5" gradientUnits="userSpaceOnUse">
<stop offset="0.0993526" stop-color="#7684FF"/>
<stop offset="1" stop-color="#FF98E2"/>
</linearGradient>
<linearGradient id="paint29_linear_422_10874" x1="117" y1="46.5" x2="117" y2="50.5" gradientUnits="userSpaceOnUse">
<stop offset="0.0993526" stop-color="#7684FF"/>
<stop offset="1" stop-color="#FF98E2"/>
</linearGradient>
<linearGradient id="paint30_linear_422_10874" x1="121" y1="38.5" x2="121" y2="58.5" gradientUnits="userSpaceOnUse">
<stop offset="0.0993526" stop-color="#7684FF"/>
<stop offset="1" stop-color="#FF98E2"/>
</linearGradient>
<linearGradient id="paint31_linear_422_10874" x1="125" y1="38.5" x2="125" y2="58.5" gradientUnits="userSpaceOnUse">
<stop offset="0.0993526" stop-color="#7684FF"/>
<stop offset="1" stop-color="#FF98E2"/>
</linearGradient>
<linearGradient id="paint32_linear_422_10874" x1="129" y1="38.5" x2="129" y2="58.5" gradientUnits="userSpaceOnUse">
<stop offset="0.0993526" stop-color="#7684FF"/>
<stop offset="1" stop-color="#FF98E2"/>
</linearGradient>
<linearGradient id="paint33_linear_422_10874" x1="133" y1="35.5" x2="133" y2="61.5" gradientUnits="userSpaceOnUse">
<stop offset="0.0993526" stop-color="#7684FF"/>
<stop offset="1" stop-color="#FF98E2"/>
</linearGradient>
<linearGradient id="paint34_linear_422_10874" x1="137" y1="35.5" x2="137" y2="61.5" gradientUnits="userSpaceOnUse">
<stop offset="0.0993526" stop-color="#7684FF"/>
<stop offset="1" stop-color="#FF98E2"/>
</linearGradient>
<linearGradient id="paint35_linear_422_10874" x1="141" y1="34" x2="141" y2="63" gradientUnits="userSpaceOnUse">
<stop offset="0.0993526" stop-color="#7684FF"/>
<stop offset="1" stop-color="#FF98E2"/>
</linearGradient>
<linearGradient id="paint36_linear_422_10874" x1="145" y1="35.5" x2="145" y2="61.5" gradientUnits="userSpaceOnUse">
<stop offset="0.0993526" stop-color="#7684FF"/>
<stop offset="1" stop-color="#FF98E2"/>
</linearGradient>
<linearGradient id="paint37_linear_422_10874" x1="149" y1="38.5" x2="149" y2="58.5" gradientUnits="userSpaceOnUse">
<stop offset="0.0993526" stop-color="#7684FF"/>
<stop offset="1" stop-color="#FF98E2"/>
</linearGradient>
<linearGradient id="paint38_linear_422_10874" x1="153" y1="38.5" x2="153" y2="58.5" gradientUnits="userSpaceOnUse">
<stop offset="0.0993526" stop-color="#7684FF"/>
<stop offset="1" stop-color="#FF98E2"/>
</linearGradient>
<linearGradient id="paint39_linear_422_10874" x1="157" y1="38.5" x2="157" y2="58.5" gradientUnits="userSpaceOnUse">
<stop offset="0.0993526" stop-color="#7684FF"/>
<stop offset="1" stop-color="#FF98E2"/>
</linearGradient>
<linearGradient id="paint40_linear_422_10874" x1="161" y1="36.5" x2="161" y2="60.5" gradientUnits="userSpaceOnUse">
<stop offset="0.0993526" stop-color="#7684FF"/>
<stop offset="1" stop-color="#FF98E2"/>
</linearGradient>
<linearGradient id="paint41_linear_422_10874" x1="165" y1="43.5" x2="165" y2="53.5" gradientUnits="userSpaceOnUse">
<stop offset="0.0993526" stop-color="#7684FF"/>
<stop offset="1" stop-color="#FF98E2"/>
</linearGradient>
<linearGradient id="paint42_linear_422_10874" x1="169" y1="43.5" x2="169" y2="53.5" gradientUnits="userSpaceOnUse">
<stop offset="0.0993526" stop-color="#7684FF"/>
<stop offset="1" stop-color="#FF98E2"/>
</linearGradient>
<linearGradient id="paint43_linear_422_10874" x1="173" y1="43.5" x2="173" y2="53.5" gradientUnits="userSpaceOnUse">
<stop offset="0.0993526" stop-color="#7684FF"/>
<stop offset="1" stop-color="#FF98E2"/>
</linearGradient>
<linearGradient id="paint44_linear_422_10874" x1="177" y1="43.5" x2="177" y2="53.5" gradientUnits="userSpaceOnUse">
<stop offset="0.0993526" stop-color="#7684FF"/>
<stop offset="1" stop-color="#FF98E2"/>
</linearGradient>
<linearGradient id="paint45_linear_422_10874" x1="181" y1="43.5" x2="181" y2="53.5" gradientUnits="userSpaceOnUse">
<stop offset="0.0993526" stop-color="#7684FF"/>
<stop offset="1" stop-color="#FF98E2"/>
</linearGradient>
<linearGradient id="paint46_linear_422_10874" x1="185" y1="43.5" x2="185" y2="53.5" gradientUnits="userSpaceOnUse">
<stop offset="0.0993526" stop-color="#7684FF"/>
<stop offset="1" stop-color="#FF98E2"/>
</linearGradient>
<linearGradient id="paint47_linear_422_10874" x1="189" y1="43.5" x2="189" y2="53.5" gradientUnits="userSpaceOnUse">
<stop offset="0.0993526" stop-color="#7684FF"/>
<stop offset="1" stop-color="#FF98E2"/>
</linearGradient>
<linearGradient id="paint48_linear_422_10874" x1="193" y1="43.5" x2="193" y2="53.5" gradientUnits="userSpaceOnUse">
<stop offset="0.0993526" stop-color="#7684FF"/>
<stop offset="1" stop-color="#FF98E2"/>
</linearGradient>
<linearGradient id="paint49_linear_422_10874" x1="197" y1="46.5" x2="197" y2="50.5" gradientUnits="userSpaceOnUse">
<stop offset="0.0993526" stop-color="#7684FF"/>
<stop offset="1" stop-color="#FF98E2"/>
</linearGradient>
<linearGradient id="paint50_linear_422_10874" x1="201" y1="46.5" x2="201" y2="50.5" gradientUnits="userSpaceOnUse">
<stop offset="0.0993526" stop-color="#7684FF"/>
<stop offset="1" stop-color="#FF98E2"/>
</linearGradient>
<linearGradient id="paint51_linear_422_10874" x1="205" y1="46.5" x2="205" y2="50.5" gradientUnits="userSpaceOnUse">
<stop offset="0.0993526" stop-color="#7684FF"/>
<stop offset="1" stop-color="#FF98E2"/>
</linearGradient>
<linearGradient id="paint52_linear_422_10874" x1="209" y1="46.5" x2="209" y2="50.5" gradientUnits="userSpaceOnUse">
<stop offset="0.0993526" stop-color="#7684FF"/>
<stop offset="1" stop-color="#FF98E2"/>
</linearGradient>
<linearGradient id="paint53_linear_422_10874" x1="213" y1="46.5" x2="213" y2="50.5" gradientUnits="userSpaceOnUse">
<stop offset="0.0993526" stop-color="#7684FF"/>
<stop offset="1" stop-color="#FF98E2"/>
</linearGradient>
<linearGradient id="paint54_linear_422_10874" x1="217" y1="46.5" x2="217" y2="50.5" gradientUnits="userSpaceOnUse">
<stop offset="0.0993526" stop-color="#7684FF"/>
<stop offset="1" stop-color="#FF98E2"/>
</linearGradient>
<linearGradient id="paint55_linear_422_10874" x1="221" y1="43.5" x2="221" y2="53.5" gradientUnits="userSpaceOnUse">
<stop offset="0.0993526" stop-color="#7684FF"/>
<stop offset="1" stop-color="#FF98E2"/>
</linearGradient>
<linearGradient id="paint56_linear_422_10874" x1="225" y1="43.5" x2="225" y2="53.5" gradientUnits="userSpaceOnUse">
<stop offset="0.0993526" stop-color="#7684FF"/>
<stop offset="1" stop-color="#FF98E2"/>
</linearGradient>
<linearGradient id="paint57_linear_422_10874" x1="229" y1="40.5" x2="229" y2="56.5" gradientUnits="userSpaceOnUse">
<stop offset="0.0993526" stop-color="#7684FF"/>
<stop offset="1" stop-color="#FF98E2"/>
</linearGradient>
<linearGradient id="paint58_linear_422_10874" x1="233" y1="38.5" x2="233" y2="58.5" gradientUnits="userSpaceOnUse">
<stop offset="0.0993526" stop-color="#7684FF"/>
<stop offset="1" stop-color="#FF98E2"/>
</linearGradient>
<linearGradient id="paint59_linear_422_10874" x1="237" y1="38.5" x2="237" y2="58.5" gradientUnits="userSpaceOnUse">
<stop offset="0.0993526" stop-color="#7684FF"/>
<stop offset="1" stop-color="#FF98E2"/>
</linearGradient>
<linearGradient id="paint60_linear_422_10874" x1="241" y1="38.5" x2="241" y2="58.5" gradientUnits="userSpaceOnUse">
<stop offset="0.0993526" stop-color="#7684FF"/>
<stop offset="1" stop-color="#FF98E2"/>
</linearGradient>
<linearGradient id="paint61_linear_422_10874" x1="245" y1="36.5" x2="245" y2="60.5" gradientUnits="userSpaceOnUse">
<stop offset="0.0993526" stop-color="#7684FF"/>
<stop offset="1" stop-color="#FF98E2"/>
</linearGradient>
<linearGradient id="paint62_linear_422_10874" x1="249" y1="32.5" x2="249" y2="64.5" gradientUnits="userSpaceOnUse">
<stop offset="0.0993526" stop-color="#7684FF"/>
<stop offset="1" stop-color="#FF98E2"/>
</linearGradient>
<linearGradient id="paint63_linear_422_10874" x1="253" y1="44" x2="253" y2="53" gradientUnits="userSpaceOnUse">
<stop offset="0.0993526" stop-color="#7684FF"/>
<stop offset="1" stop-color="#FF98E2"/>
</linearGradient>
<linearGradient id="paint64_linear_422_10874" x1="257" y1="39.5" x2="257" y2="57.5" gradientUnits="userSpaceOnUse">
<stop offset="0.0993526" stop-color="#7684FF"/>
<stop offset="1" stop-color="#FF98E2"/>
</linearGradient>
<linearGradient id="paint65_linear_422_10874" x1="261" y1="42.5" x2="261" y2="54.5" gradientUnits="userSpaceOnUse">
<stop offset="0.0993526" stop-color="#7684FF"/>
<stop offset="1" stop-color="#FF98E2"/>
</linearGradient>
<linearGradient id="paint66_linear_422_10874" x1="265" y1="39.5" x2="265" y2="57.5" gradientUnits="userSpaceOnUse">
<stop offset="0.0993526" stop-color="#7684FF"/>
<stop offset="1" stop-color="#FF98E2"/>
</linearGradient>
<linearGradient id="paint67_linear_422_10874" x1="269" y1="32.5" x2="269" y2="64.5" gradientUnits="userSpaceOnUse">
<stop offset="0.0993526" stop-color="#7684FF"/>
<stop offset="1" stop-color="#FF98E2"/>
</linearGradient>
<linearGradient id="paint68_linear_422_10874" x1="273" y1="38" x2="273" y2="59" gradientUnits="userSpaceOnUse">
<stop offset="0.0993526" stop-color="#7684FF"/>
<stop offset="1" stop-color="#FF98E2"/>
</linearGradient>
<linearGradient id="paint69_linear_422_10874" x1="277" y1="32.5" x2="277" y2="64.5" gradientUnits="userSpaceOnUse">
<stop offset="0.0993526" stop-color="#7684FF"/>
<stop offset="1" stop-color="#FF98E2"/>
</linearGradient>
<linearGradient id="paint70_linear_422_10874" x1="281" y1="0" x2="281" y2="97" gradientUnits="userSpaceOnUse">
<stop offset="0.0993526" stop-color="#7684FF"/>
<stop offset="1" stop-color="#FF98E2"/>
</linearGradient>
<linearGradient id="paint71_linear_422_10874" x1="285" y1="25" x2="285" y2="72" gradientUnits="userSpaceOnUse">
<stop offset="0.0993526" stop-color="#7684FF"/>
<stop offset="1" stop-color="#FF98E2"/>
</linearGradient>
<linearGradient id="paint72_linear_422_10874" x1="289" y1="25" x2="289" y2="72" gradientUnits="userSpaceOnUse">
<stop offset="0.0993526" stop-color="#7684FF"/>
<stop offset="1" stop-color="#FF98E2"/>
</linearGradient>
<linearGradient id="paint73_linear_422_10874" x1="293" y1="25" x2="293" y2="72" gradientUnits="userSpaceOnUse">
<stop offset="0.0993526" stop-color="#7684FF"/>
<stop offset="1" stop-color="#FF98E2"/>
</linearGradient>
<linearGradient id="paint74_linear_422_10874" x1="297" y1="28" x2="297" y2="69" gradientUnits="userSpaceOnUse">
<stop offset="0.0993526" stop-color="#7684FF"/>
<stop offset="1" stop-color="#FF98E2"/>
</linearGradient>
<linearGradient id="paint75_linear_422_10874" x1="301" y1="24" x2="301" y2="73" gradientUnits="userSpaceOnUse">
<stop offset="0.0993526" stop-color="#7684FF"/>
<stop offset="1" stop-color="#FF98E2"/>
</linearGradient>
<linearGradient id="paint76_linear_422_10874" x1="305" y1="7" x2="305" y2="90" gradientUnits="userSpaceOnUse">
<stop offset="0.0993526" stop-color="#7684FF"/>
<stop offset="1" stop-color="#FF98E2"/>
</linearGradient>
<linearGradient id="paint77_linear_422_10874" x1="309" y1="29" x2="309" y2="68" gradientUnits="userSpaceOnUse">
<stop offset="0.0993526" stop-color="#7684FF"/>
<stop offset="1" stop-color="#FF98E2"/>
</linearGradient>
<linearGradient id="paint78_linear_422_10874" x1="313" y1="36.5" x2="313" y2="60.5" gradientUnits="userSpaceOnUse">
<stop offset="0.0993526" stop-color="#7684FF"/>
<stop offset="1" stop-color="#FF98E2"/>
</linearGradient>
<linearGradient id="paint79_linear_422_10874" x1="317" y1="40.5" x2="317" y2="56.5" gradientUnits="userSpaceOnUse">
<stop offset="0.0993526" stop-color="#7684FF"/>
<stop offset="1" stop-color="#FF98E2"/>
</linearGradient>
<linearGradient id="paint80_linear_422_10874" x1="321" y1="42" x2="321" y2="55" gradientUnits="userSpaceOnUse">
<stop offset="0.0993526" stop-color="#7684FF"/>
<stop offset="1" stop-color="#FF98E2"/>
</linearGradient>
<linearGradient id="paint81_linear_422_10874" x1="325" y1="34.5" x2="325" y2="62.5" gradientUnits="userSpaceOnUse">
<stop offset="0.0993526" stop-color="#7684FF"/>
<stop offset="1" stop-color="#FF98E2"/>
</linearGradient>
<linearGradient id="paint82_linear_422_10874" x1="329" y1="34.5" x2="329" y2="62.5" gradientUnits="userSpaceOnUse">
<stop offset="0.0993526" stop-color="#7684FF"/>
<stop offset="1" stop-color="#FF98E2"/>
</linearGradient>
<linearGradient id="paint83_linear_422_10874" x1="333" y1="38.5" x2="333" y2="58.5" gradientUnits="userSpaceOnUse">
<stop offset="0.0993526" stop-color="#7684FF"/>
<stop offset="1" stop-color="#FF98E2"/>
</linearGradient>
<linearGradient id="paint84_linear_422_10874" x1="337" y1="38.5" x2="337" y2="58.5" gradientUnits="userSpaceOnUse">
<stop offset="0.0993526" stop-color="#7684FF"/>
<stop offset="1" stop-color="#FF98E2"/>
</linearGradient>
<linearGradient id="paint85_linear_422_10874" x1="341" y1="35.5" x2="341" y2="61.5" gradientUnits="userSpaceOnUse">
<stop offset="0.0993526" stop-color="#7684FF"/>
<stop offset="1" stop-color="#FF98E2"/>
</linearGradient>
<linearGradient id="paint86_linear_422_10874" x1="345" y1="38.5" x2="345" y2="58.5" gradientUnits="userSpaceOnUse">
<stop offset="0.0993526" stop-color="#7684FF"/>
<stop offset="1" stop-color="#FF98E2"/>
</linearGradient>
<linearGradient id="paint87_linear_422_10874" x1="349" y1="38.5" x2="349" y2="58.5" gradientUnits="userSpaceOnUse">
<stop offset="0.0993526" stop-color="#7684FF"/>
<stop offset="1" stop-color="#FF98E2"/>
</linearGradient>
<linearGradient id="paint88_linear_422_10874" x1="353" y1="35.5" x2="353" y2="61.5" gradientUnits="userSpaceOnUse">
<stop offset="0.0993526" stop-color="#7684FF"/>
<stop offset="1" stop-color="#FF98E2"/>
</linearGradient>
<linearGradient id="paint89_linear_422_10874" x1="357" y1="38" x2="357" y2="59" gradientUnits="userSpaceOnUse">
<stop offset="0.0993526" stop-color="#7684FF"/>
<stop offset="1" stop-color="#FF98E2"/>
</linearGradient>
<linearGradient id="paint90_linear_422_10874" x1="361" y1="32.5" x2="361" y2="64.5" gradientUnits="userSpaceOnUse">
<stop offset="0.0993526" stop-color="#7684FF"/>
<stop offset="1" stop-color="#FF98E2"/>
</linearGradient>
<linearGradient id="paint91_linear_422_10874" x1="365" y1="38.5" x2="365" y2="58.5" gradientUnits="userSpaceOnUse">
<stop offset="0.0993526" stop-color="#7684FF"/>
<stop offset="1" stop-color="#FF98E2"/>
</linearGradient>
<linearGradient id="paint92_linear_422_10874" x1="369" y1="15" x2="369" y2="82" gradientUnits="userSpaceOnUse">
<stop offset="0.0993526" stop-color="#7684FF"/>
<stop offset="1" stop-color="#FF98E2"/>
</linearGradient>
<linearGradient id="paint93_linear_422_10874" x1="373" y1="25" x2="373" y2="72" gradientUnits="userSpaceOnUse">
<stop offset="0.0993526" stop-color="#7684FF"/>
<stop offset="1" stop-color="#FF98E2"/>
</linearGradient>
<linearGradient id="paint94_linear_422_10874" x1="377" y1="15" x2="377" y2="82" gradientUnits="userSpaceOnUse">
<stop offset="0.0993526" stop-color="#7684FF"/>
<stop offset="1" stop-color="#FF98E2"/>
</linearGradient>
<linearGradient id="paint95_linear_422_10874" x1="381" y1="22" x2="381" y2="75" gradientUnits="userSpaceOnUse">
<stop offset="0.0993526" stop-color="#7684FF"/>
<stop offset="1" stop-color="#FF98E2"/>
</linearGradient>
<linearGradient id="paint96_linear_422_10874" x1="385" y1="40.5" x2="385" y2="56.5" gradientUnits="userSpaceOnUse">
<stop offset="0.0993526" stop-color="#7684FF"/>
<stop offset="1" stop-color="#FF98E2"/>
</linearGradient>
<linearGradient id="paint97_linear_422_10874" x1="389" y1="43.5" x2="389" y2="53.5" gradientUnits="userSpaceOnUse">
<stop offset="0.0993526" stop-color="#7684FF"/>
<stop offset="1" stop-color="#FF98E2"/>
</linearGradient>
<linearGradient id="paint98_linear_422_10874" x1="393" y1="43.5" x2="393" y2="53.5" gradientUnits="userSpaceOnUse">
<stop offset="0.0993526" stop-color="#7684FF"/>
<stop offset="1" stop-color="#FF98E2"/>
</linearGradient>
<linearGradient id="paint99_linear_422_10874" x1="397" y1="43.5" x2="397" y2="53.5" gradientUnits="userSpaceOnUse">
<stop offset="0.0993526" stop-color="#7684FF"/>
<stop offset="1" stop-color="#FF98E2"/>
</linearGradient>
<linearGradient id="paint100_linear_422_10874" x1="401" y1="39" x2="401" y2="58" gradientUnits="userSpaceOnUse">
<stop offset="0.0993526" stop-color="#7684FF"/>
<stop offset="1" stop-color="#FF98E2"/>
</linearGradient>
<linearGradient id="paint101_linear_422_10874" x1="405" y1="43.5" x2="405" y2="53.5" gradientUnits="userSpaceOnUse">
<stop offset="0.0993526" stop-color="#7684FF"/>
<stop offset="1" stop-color="#FF98E2"/>
</linearGradient>
<linearGradient id="paint102_linear_422_10874" x1="409" y1="43.5" x2="409" y2="53.5" gradientUnits="userSpaceOnUse">
<stop offset="0.0993526" stop-color="#7684FF"/>
<stop offset="1" stop-color="#FF98E2"/>
</linearGradient>
<linearGradient id="paint103_linear_422_10874" x1="413" y1="43.5" x2="413" y2="53.5" gradientUnits="userSpaceOnUse">
<stop offset="0.0993526" stop-color="#7684FF"/>
<stop offset="1" stop-color="#FF98E2"/>
</linearGradient>
<linearGradient id="paint104_linear_422_10874" x1="417" y1="40.5" x2="417" y2="56.5" gradientUnits="userSpaceOnUse">
<stop offset="0.0993526" stop-color="#7684FF"/>
<stop offset="1" stop-color="#FF98E2"/>
</linearGradient>
<linearGradient id="paint105_linear_422_10874" x1="421" y1="46.5" x2="421" y2="50.5" gradientUnits="userSpaceOnUse">
<stop offset="0.0993526" stop-color="#7684FF"/>
<stop offset="1" stop-color="#FF98E2"/>
</linearGradient>
<linearGradient id="paint106_linear_422_10874" x1="425" y1="46.5" x2="425" y2="50.5" gradientUnits="userSpaceOnUse">
<stop offset="0.0993526" stop-color="#7684FF"/>
<stop offset="1" stop-color="#FF98E2"/>
</linearGradient>
<linearGradient id="paint107_linear_422_10874" x1="429" y1="46.5" x2="429" y2="50.5" gradientUnits="userSpaceOnUse">
<stop offset="0.0993526" stop-color="#7684FF"/>
<stop offset="1" stop-color="#FF98E2"/>
</linearGradient>
<linearGradient id="paint108_linear_422_10874" x1="433" y1="46.5" x2="433" y2="50.5" gradientUnits="userSpaceOnUse">
<stop offset="0.0993526" stop-color="#7684FF"/>
<stop offset="1" stop-color="#FF98E2"/>
</linearGradient>
<linearGradient id="paint109_linear_422_10874" x1="437" y1="46.5" x2="437" y2="50.5" gradientUnits="userSpaceOnUse">
<stop offset="0.0993526" stop-color="#7684FF"/>
<stop offset="1" stop-color="#FF98E2"/>
</linearGradient>
<linearGradient id="paint110_linear_422_10874" x1="441" y1="46.5" x2="441" y2="50.5" gradientUnits="userSpaceOnUse">
<stop offset="0.0993526" stop-color="#7684FF"/>
<stop offset="1" stop-color="#FF98E2"/>
</linearGradient>
<linearGradient id="paint111_linear_422_10874" x1="445" y1="46.5" x2="445" y2="50.5" gradientUnits="userSpaceOnUse">
<stop offset="0.0993526" stop-color="#7684FF"/>
<stop offset="1" stop-color="#FF98E2"/>
</linearGradient>
<linearGradient id="paint112_linear_422_10874" x1="449" y1="46.5" x2="449" y2="50.5" gradientUnits="userSpaceOnUse">
<stop offset="0.0993526" stop-color="#7684FF"/>
<stop offset="1" stop-color="#FF98E2"/>
</linearGradient>
<linearGradient id="paint113_linear_422_10874" x1="453" y1="46.5" x2="453" y2="50.5" gradientUnits="userSpaceOnUse">
<stop offset="0.0993526" stop-color="#7684FF"/>
<stop offset="1" stop-color="#FF98E2"/>
</linearGradient>
<linearGradient id="paint114_linear_422_10874" x1="457" y1="46.5" x2="457" y2="50.5" gradientUnits="userSpaceOnUse">
<stop offset="0.0993526" stop-color="#7684FF"/>
<stop offset="1" stop-color="#FF98E2"/>
</linearGradient>
<linearGradient id="paint115_linear_422_10874" x1="461" y1="46.5" x2="461" y2="50.5" gradientUnits="userSpaceOnUse">
<stop offset="0.0993526" stop-color="#7684FF"/>
<stop offset="1" stop-color="#FF98E2"/>
</linearGradient>
<linearGradient id="paint116_linear_422_10874" x1="465" y1="46.5" x2="465" y2="50.5" gradientUnits="userSpaceOnUse">
<stop offset="0.0993526" stop-color="#7684FF"/>
<stop offset="1" stop-color="#FF98E2"/>
</linearGradient>
<linearGradient id="paint117_linear_422_10874" x1="469" y1="46.5" x2="469" y2="50.5" gradientUnits="userSpaceOnUse">
<stop offset="0.0993526" stop-color="#7684FF"/>
<stop offset="1" stop-color="#FF98E2"/>
</linearGradient>
<linearGradient id="paint118_linear_422_10874" x1="473" y1="46.5" x2="473" y2="50.5" gradientUnits="userSpaceOnUse">
<stop offset="0.0993526" stop-color="#7684FF"/>
<stop offset="1" stop-color="#FF98E2"/>
</linearGradient>
<linearGradient id="paint119_linear_422_10874" x1="477" y1="46.5" x2="477" y2="50.5" gradientUnits="userSpaceOnUse">
<stop offset="0.0993526" stop-color="#7684FF"/>
<stop offset="1" stop-color="#FF98E2"/>
</linearGradient>
<linearGradient id="paint120_linear_422_10874" x1="481" y1="46.5" x2="481" y2="50.5" gradientUnits="userSpaceOnUse">
<stop offset="0.0993526" stop-color="#7684FF"/>
<stop offset="1" stop-color="#FF98E2"/>
</linearGradient>
<linearGradient id="paint121_linear_422_10874" x1="485" y1="46.5" x2="485" y2="50.5" gradientUnits="userSpaceOnUse">
<stop offset="0.0993526" stop-color="#7684FF"/>
<stop offset="1" stop-color="#FF98E2"/>
</linearGradient>
<linearGradient id="paint122_linear_422_10874" x1="489" y1="46.5" x2="489" y2="50.5" gradientUnits="userSpaceOnUse">
<stop offset="0.0993526" stop-color="#7684FF"/>
<stop offset="1" stop-color="#FF98E2"/>
</linearGradient>
<linearGradient id="paint123_linear_422_10874" x1="493" y1="46.5" x2="493" y2="50.5" gradientUnits="userSpaceOnUse">
<stop offset="0.0993526" stop-color="#7684FF"/>
<stop offset="1" stop-color="#FF98E2"/>
</linearGradient>
<linearGradient id="paint124_linear_422_10874" x1="497" y1="46.5" x2="497" y2="50.5" gradientUnits="userSpaceOnUse">
<stop offset="0.0993526" stop-color="#7684FF"/>
<stop offset="1" stop-color="#FF98E2"/>
</linearGradient>
<linearGradient id="paint125_linear_422_10874" x1="501" y1="46.5" x2="501" y2="50.5" gradientUnits="userSpaceOnUse">
<stop offset="0.0993526" stop-color="#7684FF"/>
<stop offset="1" stop-color="#FF98E2"/>
</linearGradient>
<linearGradient id="paint126_linear_422_10874" x1="505" y1="47.5" x2="505" y2="49.5" gradientUnits="userSpaceOnUse">
<stop offset="0.0993526" stop-color="#7684FF"/>
<stop offset="1" stop-color="#FF98E2"/>
</linearGradient>
<linearGradient id="paint127_linear_422_10874" x1="509" y1="47.5" x2="509" y2="49.5" gradientUnits="userSpaceOnUse">
<stop offset="0.0993526" stop-color="#7684FF"/>
<stop offset="1" stop-color="#FF98E2"/>
</linearGradient>
<linearGradient id="paint128_linear_422_10874" x1="513" y1="47.5" x2="513" y2="49.5" gradientUnits="userSpaceOnUse">
<stop offset="0.0993526" stop-color="#7684FF"/>
<stop offset="1" stop-color="#FF98E2"/>
</linearGradient>
<linearGradient id="paint129_linear_422_10874" x1="517" y1="47.5" x2="517" y2="49.5" gradientUnits="userSpaceOnUse">
<stop offset="0.0993526" stop-color="#7684FF"/>
<stop offset="1" stop-color="#FF98E2"/>
</linearGradient>
<linearGradient id="paint130_linear_422_10874" x1="521" y1="47.5" x2="521" y2="49.5" gradientUnits="userSpaceOnUse">
<stop offset="0.0993526" stop-color="#7684FF"/>
<stop offset="1" stop-color="#FF98E2"/>
</linearGradient>
<linearGradient id="paint131_linear_422_10874" x1="525" y1="47.5" x2="525" y2="49.5" gradientUnits="userSpaceOnUse">
<stop offset="0.0993526" stop-color="#7684FF"/>
<stop offset="1" stop-color="#FF98E2"/>
</linearGradient>
<linearGradient id="paint132_linear_422_10874" x1="529" y1="47.5" x2="529" y2="49.5" gradientUnits="userSpaceOnUse">
<stop offset="0.0993526" stop-color="#7684FF"/>
<stop offset="1" stop-color="#FF98E2"/>
</linearGradient>
<linearGradient id="paint133_linear_422_10874" x1="533" y1="47.5" x2="533" y2="49.5" gradientUnits="userSpaceOnUse">
<stop offset="0.0993526" stop-color="#7684FF"/>
<stop offset="1" stop-color="#FF98E2"/>
</linearGradient>
<linearGradient id="paint134_linear_422_10874" x1="537" y1="47.5" x2="537" y2="49.5" gradientUnits="userSpaceOnUse">
<stop offset="0.0993526" stop-color="#7684FF"/>
<stop offset="1" stop-color="#FF98E2"/>
</linearGradient>
<linearGradient id="paint135_linear_422_10874" x1="541" y1="47.5" x2="541" y2="49.5" gradientUnits="userSpaceOnUse">
<stop offset="0.0993526" stop-color="#7684FF"/>
<stop offset="1" stop-color="#FF98E2"/>
</linearGradient>
<linearGradient id="paint136_linear_422_10874" x1="545" y1="47.5" x2="545" y2="49.5" gradientUnits="userSpaceOnUse">
<stop offset="0.0993526" stop-color="#7684FF"/>
<stop offset="1" stop-color="#FF98E2"/>
</linearGradient>
<linearGradient id="paint137_linear_422_10874" x1="549" y1="47.5" x2="549" y2="49.5" gradientUnits="userSpaceOnUse">
<stop offset="0.0993526" stop-color="#7684FF"/>
<stop offset="1" stop-color="#FF98E2"/>
</linearGradient>
<linearGradient id="paint138_linear_422_10874" x1="553" y1="47.5" x2="553" y2="49.5" gradientUnits="userSpaceOnUse">
<stop offset="0.0993526" stop-color="#7684FF"/>
<stop offset="1" stop-color="#FF98E2"/>
</linearGradient>
<linearGradient id="paint139_linear_422_10874" x1="557" y1="47.5" x2="557" y2="49.5" gradientUnits="userSpaceOnUse">
<stop offset="0.0993526" stop-color="#7684FF"/>
<stop offset="1" stop-color="#FF98E2"/>
</linearGradient>
<linearGradient id="paint140_linear_422_10874" x1="561" y1="48" x2="561" y2="49" gradientUnits="userSpaceOnUse">
<stop offset="0.0993526" stop-color="#7684FF"/>
<stop offset="1" stop-color="#FF98E2"/>
</linearGradient>
<linearGradient id="paint141_linear_422_10874" x1="565" y1="48" x2="565" y2="49" gradientUnits="userSpaceOnUse">
<stop offset="0.0993526" stop-color="#7684FF"/>
<stop offset="1" stop-color="#FF98E2"/>
</linearGradient>
<linearGradient id="paint142_linear_422_10874" x1="569" y1="48" x2="569" y2="49" gradientUnits="userSpaceOnUse">
<stop offset="0.0993526" stop-color="#7684FF"/>
<stop offset="1" stop-color="#FF98E2"/>
</linearGradient>
<linearGradient id="paint143_linear_422_10874" x1="573" y1="48" x2="573" y2="49" gradientUnits="userSpaceOnUse">
<stop offset="0.0993526" stop-color="#7684FF"/>
<stop offset="1" stop-color="#FF98E2"/>
</linearGradient>
<linearGradient id="paint144_linear_422_10874" x1="577" y1="48" x2="577" y2="49" gradientUnits="userSpaceOnUse">
<stop offset="0.0993526" stop-color="#7684FF"/>
<stop offset="1" stop-color="#FF98E2"/>
</linearGradient>
<linearGradient id="paint145_linear_422_10874" x1="581" y1="48" x2="581" y2="49" gradientUnits="userSpaceOnUse">
<stop offset="0.0993526" stop-color="#7684FF"/>
<stop offset="1" stop-color="#FF98E2"/>
</linearGradient>
<linearGradient id="paint146_linear_422_10874" x1="585" y1="48" x2="585" y2="49" gradientUnits="userSpaceOnUse">
<stop offset="0.0993526" stop-color="#7684FF"/>
<stop offset="1" stop-color="#FF98E2"/>
</linearGradient>
<linearGradient id="paint147_linear_422_10874" x1="589" y1="48" x2="589" y2="49" gradientUnits="userSpaceOnUse">
<stop offset="0.0993526" stop-color="#7684FF"/>
<stop offset="1" stop-color="#FF98E2"/>
</linearGradient>
<linearGradient id="paint148_linear_422_10874" x1="593" y1="48" x2="593" y2="49" gradientUnits="userSpaceOnUse">
<stop offset="0.0993526" stop-color="#7684FF"/>
<stop offset="1" stop-color="#FF98E2"/>
</linearGradient>
<linearGradient id="paint149_linear_422_10874" x1="597" y1="48" x2="597" y2="49" gradientUnits="userSpaceOnUse">
<stop offset="0.0993526" stop-color="#7684FF"/>
<stop offset="1" stop-color="#FF98E2"/>
</linearGradient>
<linearGradient id="paint150_linear_422_10874" x1="601" y1="48" x2="601" y2="49" gradientUnits="userSpaceOnUse">
<stop offset="0.0993526" stop-color="#7684FF"/>
<stop offset="1" stop-color="#FF98E2"/>
</linearGradient>
<linearGradient id="paint151_linear_422_10874" x1="605" y1="48" x2="605" y2="49" gradientUnits="userSpaceOnUse">
<stop offset="0.0993526" stop-color="#7684FF"/>
<stop offset="1" stop-color="#FF98E2"/>
</linearGradient>
<linearGradient id="paint152_linear_422_10874" x1="609" y1="48" x2="609" y2="49" gradientUnits="userSpaceOnUse">
<stop offset="0.0993526" stop-color="#7684FF"/>
<stop offset="1" stop-color="#FF98E2"/>
</linearGradient>
<linearGradient id="paint153_linear_422_10874" x1="613" y1="48" x2="613" y2="49" gradientUnits="userSpaceOnUse">
<stop offset="0.0993526" stop-color="#7684FF"/>
<stop offset="1" stop-color="#FF98E2"/>
</linearGradient>
</defs>
</svg>
